<?xml version="1.0" encoding="iso-8859-1"?>
<!-- Generator: Adobe Illustrator 19.0.0, SVG Export Plug-In . SVG Version: 6.00 Build 0)  -->
<svg version="1.1" id="Capa_1" xmlns="http://www.w3.org/2000/svg" xmlns:xlink="http://www.w3.org/1999/xlink" x="0px" y="0px"
	 viewBox="0 0 512 512" style="enable-background:new 0 0 512 512;" xml:space="preserve">
<g>
	<g transform="translate(2 1)">
		<path style="fill:#607D8B;" d="M441.866,50.2l-1.109-0.939c-3.243,4.693-13.312,9.045-28.672,12.8
			C378.634,70.339,320.437,75.8,254.218,75.8c-5.205,0-10.325,0-15.445-0.171h-0.768c-0.566,0.086-1.141,0.086-1.707,0h-1.451
			C147.21,74.179,77.322,63.171,67.679,49.261L66.57,50.2c-1.881,3.783-3.34,7.76-4.352,11.861
			c-9.984,38.741-0.341,118.699,6.827,165.461c1.877,12.459,3.584,22.613,4.693,28.928c3.183-0.959,6.489-1.447,9.813-1.451
			c3.804,0.005,7.581,0.64,11.179,1.877c2.81-15.57,8.051-30.602,15.531-44.544c12.731-28.454,39.003-48.527,69.803-53.333
			c19.162-2.564,38.653-0.874,57.088,4.949c5.461,1.536,11.179,3.413,17.067,5.717c12.882-5.093,26.313-8.673,40.021-10.667
			c79.104-10.923,103.936,53.333,103.936,53.333c2.653,4.922,5.018,9.993,7.083,15.189c3.817,9.469,6.648,19.306,8.448,29.355
			c3.597-1.238,7.374-1.872,11.179-1.877c3.325-0.003,6.632,0.486,9.813,1.451C440.501,223.427,462.431,89.112,441.866,50.2z"/>
		<path style="fill:#37474F;" d="M434.698,256.451c-3.182-0.965-6.489-1.454-9.813-1.451c-3.804,0.005-7.581,0.64-11.179,1.877
			c-1.8-10.049-4.631-19.886-8.448-29.355c7.168-46.763,16.811-126.72,6.827-165.461c15.36-3.755,25.429-8.107,28.672-12.8
			l1.109,0.939C462.431,89.112,440.501,223.427,434.698,256.451z"/>
		<path style="fill:#607D8B;" d="M412.085,62.061C378.634,70.339,320.437,75.8,254.218,75.8c-5.205,0-10.325,0-15.445-0.171
			c87.979-1.28,158.208-12.373,167.851-26.368l1.109,0.939C409.613,53.983,411.073,57.96,412.085,62.061L412.085,62.061z"/>
		<path style="fill:#37474F;" d="M441.951,39.533c-0.043,1.285-0.458,2.53-1.195,3.584c-10.325,15.957-89.941,28.416-186.539,28.416
			c-7.168,0-14.336-0.085-21.333-0.256C146.101,69.656,77.237,57.88,67.679,43.117c-0.736-1.054-1.151-2.299-1.195-3.584
			c0-16.469,72.789-29.952,166.4-31.829c6.997-0.085,14.08-0.171,21.333-0.171C357.898,7.533,441.951,21.869,441.951,39.533z"/>
		<path style="fill:#607D8B;" d="M399.285,39.533c-0.043,1.285-0.458,2.53-1.195,3.584c-9.557,14.763-78.421,26.539-165.205,28.16
			C146.101,69.656,77.237,57.88,67.679,43.117c-0.736-1.054-1.151-2.299-1.195-3.584c0-16.469,72.789-29.952,166.4-31.829
			C326.495,9.581,399.285,23.064,399.285,39.533z"/>
		<g>
			<path style="fill:#4E342E;" d="M296.885,423.533v71.473c-27.575,9.947-57.759,9.947-85.333,0v-71.473
				c3.544,1.865,6.477,4.711,8.448,8.197c0.085,0,0.085,0.092,0.085,0.092c8.533,15.382,34.133,15.382,34.133,15.382
				s25.6,0,34.133-15.382c0,0,0-0.092,0.085-0.092C290.408,428.244,293.34,425.398,296.885,423.533L296.885,423.533z"/>
			<path style="fill:#4E342E;" d="M413.706,248.344c3.597-1.238,7.374-1.872,11.179-1.877c3.325-0.003,6.632,0.486,9.813,1.451
				c16.22,4.867,26.418,20.892,23.957,37.647c-2.461,16.755-16.836,29.171-33.77,29.169c-4.37,0.034-8.699-0.838-12.715-2.56H96.351
				c-4.046,1.722-8.403,2.594-12.8,2.56c-18.851,0-34.133-15.282-34.133-34.133c0-18.851,15.282-34.133,34.133-34.133
				c3.804,0.006,7.581,0.64,11.179,1.877H413.706z"/>
			<path style="fill:#4E342E;" d="M416.351,276.333c0.007,12.069-1.396,24.097-4.181,35.84h-0.085
				c-0.597,2.987-1.451,5.973-2.304,8.875c-12.31,40.12-40.06,73.703-77.141,93.355c-9.611,5.316-19.768,9.578-30.293,12.715
				c-1.888,0.562-3.717,1.305-5.461,2.219c-3.483,1.673-6.415,4.308-8.448,7.595c-0.023-0.001-0.045,0.008-0.061,0.024
				c-0.016,0.016-0.025,0.038-0.024,0.061c-1.064,1.704-2.356,3.254-3.84,4.608c-5.226,4.293-11.498,7.121-18.176,8.192
				c-3.983,0.872-8.041,1.358-12.117,1.451c0,0-25.6,0-34.133-14.251c0-0.023-0.008-0.045-0.025-0.061
				c-0.016-0.016-0.038-0.025-0.061-0.024c-2.033-3.286-4.965-5.922-8.448-7.595c-1.745-0.914-3.574-1.657-5.461-2.219
				c-49.126-14.606-88.318-51.801-105.472-100.096c-1.719-4.859-3.144-9.817-4.267-14.848c-2.856-11.732-4.288-23.765-4.267-35.84
				c-0.033-9.394,0.853-18.768,2.645-27.989c2.81-15.57,8.051-30.602,15.531-44.544c4.943-11.152,12.082-21.193,20.992-29.525
				c20.736-19.712,58.795-37.803,122.965-13.141C365.151,118.467,398.175,203.8,398.175,203.8
				c7.479,13.942,12.72,28.974,15.531,44.544C415.498,257.565,416.384,266.94,416.351,276.333z"/>
		</g>
		<path style="fill:#795548;" d="M390.751,293.4c0.007,12.069-1.396,24.097-4.181,35.84h-0.085
			c-0.597,2.987-1.451,5.973-2.304,8.875c-9.153,30.017-27.109,56.594-51.541,76.288c-14.334,11.809-30.622,21.021-48.128,27.221
			c-2.56,0.939-5.12,1.792-7.765,2.56c-1.888,0.562-3.717,1.305-5.461,2.219c-1.797,0.908-3.462,2.057-4.949,3.413
			c-3.983,0.872-8.041,1.358-12.117,1.451c0,0-25.6,0-34.133-14.251c0-0.023-0.008-0.045-0.025-0.061
			c-0.016-0.016-0.038-0.025-0.061-0.024c-2.033-3.286-4.965-5.922-8.448-7.595c-1.745-0.914-3.574-1.657-5.461-2.219
			c-49.126-14.606-88.318-51.801-105.472-100.096c-1.719-4.859-3.144-9.817-4.267-14.848c-2.856-11.732-4.288-23.765-4.267-35.84
			c-0.033-9.394,0.853-18.768,2.645-27.989c2.81-15.57,8.051-30.602,15.531-44.544c4.943-11.152,12.082-21.193,20.992-29.525
			c22.272-9.813,53.76-12.8,97.365,3.925c110.933-42.667,143.957,42.667,143.957,42.667c7.479,13.942,12.72,28.974,15.531,44.544
			C389.898,274.632,390.784,284.006,390.751,293.4z"/>
		<path style="fill:#ECF0F1;" d="M254.975,390.259c-19.168,0.503-38.139-3.972-55.061-12.989
			c-9.973-5.553-20.636-16.446-19.534-28.767c0.423-5.633,3.596-10.695,8.482-13.53s10.855-3.079,15.956-0.651
			c31.813,14.77,68.518,14.77,100.331,0c5.1-2.428,11.07-2.184,15.956,0.651c4.886,2.835,8.059,7.897,8.482,13.53
			c1.102,12.322-9.561,23.214-19.534,28.767c-9.682,5.156-20.128,8.726-30.94,10.574
			C271.152,389.359,263.076,390.167,254.975,390.259z"/>
	</g>
	<g>
		<path d="M446.236,243.792c9.034-52.905,24.726-163.625,5.945-203.241c0.167-0.706,0.269-1.426,0.304-2.15
			C452.485,1.85,288.993,0,256.218,0S59.951,1.85,59.951,38.4c0.035,0.72,0.136,1.435,0.302,2.136
			c-18.769,39.559-3.086,150.336,5.942,203.259c-18.997,9.307-28.228,31.193-21.634,51.293
			c6.594,20.101,26.995,32.266,47.813,28.512c0.717,2.411,1.354,4.845,2.185,7.221c17.975,50.664,58.988,89.749,110.458,105.265
			v60.469c0,0.089,0.048,0.161,0.05,0.25c0.054,0.616,0.177,1.225,0.367,1.814c0.284,2.074,1.551,3.883,3.402,4.86
			c0.511,0.394,1.066,0.727,1.654,0.992c0.079,0.031,0.13,0.097,0.21,0.126c29.542,9.872,61.492,9.872,91.034,0
			c0.08-0.029,0.131-0.095,0.21-0.126c0.588-0.264,1.144-0.597,1.654-0.991c0.406-0.229,0.794-0.49,1.158-0.781
			c1.222-1.04,2.021-2.492,2.244-4.081c0.19-0.589,0.313-1.198,0.367-1.815c0.002-0.087,0.05-0.16,0.05-0.247v-60.473
			c53.823-16.018,96.064-57.901,112.541-111.585c0.087-0.292,0.144-0.591,0.23-0.884c20.688,3.4,40.763-8.805,47.266-28.736
			C473.96,274.944,464.948,253.249,446.236,243.792L446.236,243.792z M256.218,17.067c99.583,0,165.575,12.109,177.983,21.333
			c-12.408,9.225-78.4,21.333-177.983,21.333S90.643,47.625,78.235,38.4C90.643,29.175,156.635,17.067,256.218,17.067z
			 M73.153,54.383C112.618,75.512,229.105,76.8,256.218,76.8s143.587-1.288,183.058-22.414c10.166,34.171,1.86,117.064-9.594,184.83
			c-0.943-0.062-1.84-0.283-2.798-0.283c-1.527,0.045-3.051,0.172-4.565,0.381c-3.178-13.253-8.015-26.053-14.397-38.096
			c-3.003-7.018-40.932-88.939-151.7-48.146c-110.003-40.519-148.221,40.081-151.664,48.032
			c-6.407,12.077-11.261,24.915-14.446,38.21c-1.513-0.209-3.036-0.336-4.563-0.381c-0.96,0-1.86,0.22-2.804,0.283
			C71.299,171.43,63.001,88.529,73.153,54.383z M85.551,307.2c-14.138,0-25.6-11.462-25.6-25.6s11.462-25.6,25.6-25.6
			c0.481,0,0.958,0.094,1.438,0.121c-0.944,7.031-1.424,14.117-1.438,21.212c0.021,9.932,0.946,19.841,2.766,29.604
			C87.401,307.076,86.477,307.163,85.551,307.2L85.551,307.2z M222.085,490.205v-39.674c20.696,13.692,47.571,13.692,68.267,0
			v39.674C267.994,496.224,244.442,496.224,222.085,490.205z M301.86,419.95c-7.546,1.981-14.109,6.648-18.458,13.125
			c-0.133,0.183-0.25,0.371-0.367,0.562l-0.009-0.004c-4.883,8.166-21.425,10.075-26.792,10.1c-5.4-0.025-21.942-1.933-26.825-10.1
			l-0.009,0.004c-0.117-0.192-0.233-0.379-0.367-0.562c-2.987-4.584-7.188-8.248-12.135-10.583l-0.03-0.018
			c-2.029-1.018-4.139-1.863-6.309-2.528c-46.519-13.808-83.638-49.016-99.882-94.742c-13.321-38.365-10.02-80.55,9.108-116.375
			c0.15-0.292,0.3-0.617,0.425-0.921c1.242-3.15,31.65-76.754,132.942-37.808c0.45,0.117,0.909,0.194,1.373,0.232
			c1.142,0.384,2.38,0.376,3.517-0.025c0.419-0.037,0.835-0.106,1.244-0.207c101.25-38.962,131.7,34.658,132.942,37.808
			c0.077,0.196,0.218,0.341,0.306,0.528c0.06,0.128,0.052,0.267,0.119,0.393c11.337,21.049,17.238,44.596,17.167,68.504
			c-0.005,14.308-2.094,28.539-6.2,42.246C388.715,368.007,350.487,405.713,301.86,419.95L301.86,419.95z M426.885,307.2
			c-0.94-0.036-1.878-0.125-2.808-0.266c1.831-9.761,2.771-19.669,2.808-29.601c-0.013-7.095-0.492-14.181-1.434-21.212
			c0.478-0.028,0.955-0.121,1.434-0.121c14.138,0,25.6,11.462,25.6,25.6S441.023,307.2,426.885,307.2L426.885,307.2z"/>
		<path d="M189.201,211.775c0.001-2.263-0.898-4.434-2.499-6.035c-1.6-1.6-3.771-2.499-6.035-2.499
			c-38.3,0-49.183,19.554-50.3,21.783c-2.046,4.117-0.414,9.113,3.667,11.229c1.212,0.651,2.566,0.99,3.942,0.987
			c3.119-0.007,5.997-1.678,7.55-4.383c0.3-0.513,7.5-12.55,35.142-12.55c2.263,0.001,4.434-0.898,6.035-2.499
			C188.303,216.209,189.202,214.038,189.201,211.775L189.201,211.775z"/>
		<path d="M331.768,203.242c-4.713,0-8.533,3.82-8.533,8.533c0,4.713,3.821,8.533,8.533,8.533c27.275,0,34.65,11.721,35.125,12.525
			c2.181,4.143,7.292,5.754,11.455,3.613c4.163-2.142,5.823-7.238,3.72-11.421C380.951,222.796,370.068,203.242,331.768,203.242z"/>
		<path d="M256.985,324.267c9.563-0.014,18.544-4.598,24.166-12.333c2.579-3.92,1.509-9.187-2.395-11.79
			c-3.905-2.603-9.178-1.565-11.805,2.324c-2.442,2.995-6.101,4.733-9.966,4.733c-3.864,0.001-7.524-1.736-9.968-4.729
			c-1.689-2.538-4.604-3.982-7.646-3.788c-3.042,0.194-5.75,1.998-7.102,4.73c-1.352,2.733-1.143,5.979,0.548,8.515
			C238.437,319.67,247.419,324.256,256.985,324.267L256.985,324.267z"/>
		<path d="M207.076,275.688c3.074,3.567,8.456,3.97,12.028,0.902c3.572-3.068,3.984-8.45,0.922-12.026
			c-23.692-27.571-60.858-13.725-62.425-13.125c-2.846,1.093-4.893,3.621-5.37,6.632c-0.477,3.011,0.689,6.048,3.058,7.967
			c2.369,1.919,5.582,2.427,8.429,1.335C163.985,267.267,191.126,257.112,207.076,275.688z"/>
		<path d="M354.835,251.438c-1.558-0.6-38.717-14.454-62.425,13.125c-3.062,3.577-2.65,8.958,0.922,12.026
			c3.572,3.068,8.954,2.665,12.028-0.902c15.783-18.358,42.2-8.742,43.383-8.308c4.389,1.632,9.273-0.578,10.945-4.953
			C361.359,258.053,359.194,253.149,354.835,251.438L354.835,251.438z"/>
		<path d="M327.16,328.463c-7.255-4.183-16.111-4.504-23.65-0.858c-29.49,13.763-63.56,13.763-93.05,0
			c-7.542-3.649-16.402-3.326-23.658,0.863c-7.361,4.244-12.186,11.814-12.925,20.279c-1.483,16.65,11.942,30.325,23.892,36.979
			c17.769,9.521,37.668,14.364,57.825,14.075c0.492,0,0.983-0.004,1.475-0.009c8.603-0.097,17.181-0.955,25.633-2.563
			c11.714-2.005,23.026-5.889,33.5-11.504c11.95-6.65,25.367-20.325,23.883-36.983C339.344,340.278,334.519,332.708,327.16,328.463z
			 M307.901,370.817c-8.882,4.718-18.466,7.975-28.383,9.646c-7.46,1.421-15.031,2.178-22.625,2.263h-0.009
			c-17.675,0.409-35.163-3.689-50.817-11.908c-7.808-4.35-15.9-12.638-15.192-20.55c0.22-2.917,1.871-5.536,4.408-6.992
			c1.258-0.724,2.682-1.109,4.133-1.117c1.303,0.008,2.587,0.309,3.758,0.879c34.109,15.908,73.508,15.908,107.617,0
			c2.501-1.248,5.461-1.16,7.883,0.233c2.537,1.456,4.189,4.075,4.408,6.992C323.793,358.179,315.71,366.467,307.901,370.817z"/>
	</g>
</g>
<g>
</g>
<g>
</g>
<g>
</g>
<g>
</g>
<g>
</g>
<g>
</g>
<g>
</g>
<g>
</g>
<g>
</g>
<g>
</g>
<g>
</g>
<g>
</g>
<g>
</g>
<g>
</g>
<g>
</g>
</svg>
