<?xml version="1.0" encoding="iso-8859-1"?>
<!-- Generator: Adobe Illustrator 19.0.0, SVG Export Plug-In . SVG Version: 6.00 Build 0)  -->
<svg version="1.1" id="Capa_1" xmlns="http://www.w3.org/2000/svg" xmlns:xlink="http://www.w3.org/1999/xlink" x="0px" y="0px"
	 viewBox="0 0 512.024 512.024" style="enable-background:new 0 0 512.024 512.024;" xml:space="preserve">
<g transform="translate(0 -1)">
	<g transform="translate(2 2)">
		<g>
			<path style="fill:#FDD834;" d="M437.14,204.234l-3.669,50.79h-20.053c-2.812-17.655-7.919-34.867-15.189-51.2h35.243
				L437.14,204.234z"/>
			<path style="fill:#FDD834;" d="M110.314,203.824c-7.271,16.333-12.377,33.545-15.189,51.2H75.071l-3.669-50.79l3.669-0.41
				H110.314z"/>
			<path style="fill:#FDD834;" d="M203.071,426.117v33.707l-128-42.667c17.067-17.067,34.133-59.733,34.133-59.733l4.352-11.179
				C133.183,379.611,165.012,413.829,203.071,426.117z"/>
			<path style="fill:#FDD834;" d="M433.471,417.157l-128,42.667v-33.707c36.834-11.776,68.209-36.398,88.405-69.376l4.977-8.82
				C398.853,347.921,416.404,400.091,433.471,417.157z"/>
		</g>
		<path style="fill:#FFE0B2;" d="M416.404,276.357c0.007,12.069-1.396,24.097-4.181,35.84h-0.085
			c-0.597,2.987-1.451,5.973-2.304,8.875c-3.803,12.512-9.164,24.496-15.957,35.669c-20.196,32.978-51.571,57.6-88.405,69.376
			c-1.024,0.427-2.048,0.683-3.072,1.024c-5.698,1.422-10.659,4.922-13.909,9.813c-0.023-0.001-0.045,0.008-0.061,0.024
			c-0.016,0.016-0.025,0.038-0.024,0.061c-6.571,10.923-23.211,13.483-30.549,14.08c-2.219,0.171-3.584,0.171-3.584,0.171
			s-25.6,0-34.133-14.251c0-0.023-0.008-0.045-0.025-0.061c-0.016-0.016-0.038-0.025-0.061-0.024
			c-3.251-4.891-8.211-8.391-13.909-9.813c-1.024-0.341-2.048-0.597-3.072-1.024c-37.553-12.043-69.396-37.42-89.515-71.339
			c-5.251-8.77-9.57-18.065-12.885-27.734c-1.719-4.859-3.144-9.817-4.267-14.848c-2.856-11.732-4.288-23.765-4.267-35.84
			c-0.033-9.394,0.853-18.768,2.645-27.989c0.031-0.638,0.146-1.269,0.341-1.877c2.283-11.779,5.979-23.24,11.008-34.133
			c1.28-2.901,2.731-5.717,4.181-8.533h287.915c7.186,13.375,12.307,27.76,15.189,42.667c0.196,0.608,0.311,1.239,0.341,1.877
			C415.551,257.589,416.437,266.964,416.404,276.357L416.404,276.357z"/>
		<path style="fill:#FFECB3;" d="M390.804,284.891c0.007,12.069-1.396,24.097-4.181,35.84h-0.085
			c-0.597,2.987-1.451,5.973-2.304,8.875c-3.803,12.512-9.164,24.496-15.957,35.669c-20.196,32.978-51.571,57.6-88.405,69.376
			c-1.024,0.427-2.048,0.683-3.072,1.024c-5.698,1.422-10.659,4.922-13.909,9.813c-0.023-0.001-0.045,0.008-0.061,0.024
			c-0.016,0.016-0.025,0.038-0.024,0.061c-1.297,2.135-2.975,4.015-4.949,5.547c-2.219,0.171-3.584,0.171-3.584,0.171
			s-25.6,0-34.133-14.251c0-0.023-0.008-0.045-0.025-0.061c-0.016-0.016-0.038-0.025-0.061-0.024
			c-3.251-4.891-8.211-8.391-13.909-9.813c-1.024-0.341-2.048-0.597-3.072-1.024c-37.553-12.043-69.396-37.42-89.515-71.339
			c-5.251-8.77-9.57-18.065-12.885-27.734c-1.719-4.859-3.144-9.817-4.267-14.848c-2.856-11.732-4.288-23.765-4.267-35.84
			c-0.033-9.394,0.853-18.768,2.645-27.989c0.031-0.638,0.146-1.269,0.341-1.877c2.283-11.779,5.979-23.24,11.008-34.133h266.496
			c7.186,13.375,12.307,27.76,15.189,42.667c0.196,0.608,0.311,1.239,0.341,1.877C389.951,266.123,390.837,275.497,390.804,284.891
			L390.804,284.891z"/>
		<g>
			<path style="fill:#FFE0B2;" d="M96.404,312.197c-4.046,1.722-8.403,2.594-12.8,2.56c-18.851,0-34.133-15.282-34.133-34.133
				c0-18.851,15.282-34.133,34.133-34.133c3.804,0.005,7.581,0.64,11.179,1.877c-1.792,9.221-2.678,18.596-2.645,27.989
				C92.116,288.432,93.549,300.465,96.404,312.197L96.404,312.197z"/>
			<path style="fill:#FFE0B2;" d="M459.071,280.624c0.002,9.053-3.593,17.737-9.995,24.139s-15.085,9.997-24.139,9.995
				c-4.37,0.034-8.699-0.838-12.715-2.56c2.785-11.743,4.189-23.771,4.181-35.84c0.033-9.394-0.853-18.768-2.645-27.989
				c3.597-1.237,7.374-1.872,11.179-1.877c9.053-0.003,17.737,3.593,24.139,9.995S459.074,271.57,459.071,280.624L459.071,280.624z"
				/>
			<path style="fill:#FFE0B2;" d="M305.471,426.117v69.461c-16.653,4.719-33.892,7.046-51.2,6.912
				c-17.308,0.134-34.547-2.193-51.2-6.912v-69.461c1.024,0.427,2.048,0.683,3.072,1.024c5.698,1.422,10.659,4.922,13.909,9.813
				c0.023-0.001,0.045,0.008,0.061,0.024c0.016,0.016,0.025,0.038,0.024,0.061c8.533,14.251,34.133,14.251,34.133,14.251
				s25.6,0,34.133-14.251c0-0.023,0.008-0.045,0.025-0.061c0.016-0.016,0.038-0.025,0.061-0.024
				c3.251-4.891,8.211-8.391,13.909-9.813C303.423,426.8,304.447,426.544,305.471,426.117z"/>
		</g>
		<polygon style="fill:#285680;" points="348.138,144.091 267.071,144.091 168.938,144.091 66.282,144.091 71.402,204.165 
			75.071,203.824 168.938,203.824 267.071,203.824 348.138,203.824 433.471,203.824 437.14,204.165 442.26,144.091 		"/>
		<path style="fill:#35495E;" d="M399.167,35.888L286.868,11.141c-21.469-4.778-43.726-4.778-65.195,0L109.375,35.888
			c-29.548,6.767-49.557,34.32-46.848,64.512l3.755,43.691h102.656v59.733h179.2v-59.733h94.123l3.755-43.691
			C448.724,70.208,428.715,42.655,399.167,35.888z"/>
		<path style="fill:#1566C0;" d="M446.015,100.4l-3.755,43.691H66.282L62.527,100.4c-1.43-16.67,4.028-33.198,15.104-45.739
			c8.34-9.445,19.449-16.015,31.744-18.773l112.299-24.747c21.469-4.778,43.726-4.778,65.195,0l112.299,24.747
			C428.715,42.655,448.724,70.208,446.015,100.4z"/>
		<path style="fill:#2296F3;" d="M420.415,117.467l-2.304,26.624H66.282L62.527,100.4c-1.43-16.67,4.028-33.198,15.104-45.739
			c2.007-0.709,4.059-1.279,6.144-1.707l112.299-24.747c21.469-4.778,43.726-4.778,65.195,0l112.299,24.747
			C403.115,59.722,423.124,87.274,420.415,117.467L420.415,117.467z"/>
		<path style="fill:#1566C0;" d="M339.604,75.824v68.267h-17.067v-51.2c0-34.133-85.333-68.267-85.333-68.267
			c-21.982,8.972-42.809,20.546-62.037,34.475c19.627-27.733,79.104-51.541,79.104-51.541S339.604,41.691,339.604,75.824z"/>
		<path style="fill:#2296F3;" d="M322.538,92.891v51.2h-25.6v-34.133c-0.028-9.414-7.652-17.039-17.067-17.067h-51.2
			c-9.414,0.028-17.039,7.652-17.067,17.067v34.133h-42.667V75.824c0.269-6.091,2.449-11.942,6.229-16.725
			c19.228-13.928,40.055-25.502,62.037-34.475C237.204,24.624,322.538,58.757,322.538,92.891z"/>
		<path style="fill:#9D27B0;" d="M322.538,144.091v17.067h-42.667v-34.133c-0.027-9.414-7.652-17.039-17.067-17.067h-51.2
			c0.027-9.414,7.652-17.039,17.067-17.067h51.2c9.414,0.028,17.039,7.652,17.067,17.067v34.133H322.538z"/>
		<path style="fill:#FDD834;" d="M296.938,109.957v34.133h-85.333v-34.133c0.027-9.414,7.652-17.039,17.067-17.067h51.2
			C289.285,92.918,296.91,100.543,296.938,109.957z"/>
		<polygon style="fill:#2C3E50;" points="267.071,144.091 168.938,144.091 168.938,203.824 267.071,203.824 348.138,203.824 
			348.138,144.091 		"/>
		<path style="fill:#35495E;" d="M296.938,173.957c-0.079,16.462-13.405,29.788-29.867,29.867h-98.133v-59.733h98.133
			C283.558,144.109,296.919,157.47,296.938,173.957L296.938,173.957z"/>
		<ellipse style="fill:#2C2F38;" cx="254.271" cy="378.757" rx="25.6" ry="29.867"/>
	</g>
	<g>
		<path d="M444.436,243.808l12.085-140.693c2.995-34.434-19.833-65.813-53.517-73.563L290.717,4.811
			c-22.678-5.081-46.2-5.082-68.879-0.004L109.533,29.553c-33.686,7.753-56.511,39.139-53.508,73.575l12.081,140.681
			c-19.83,8.532-30.105,30.582-23.884,51.254c6.221,20.672,26.958,33.389,48.204,29.561c0.716,2.409,1.353,4.842,2.183,7.217
			c2.72,7.759,6.024,15.301,9.885,22.561c-0.484,0.56-0.891,1.183-1.21,1.852c-0.167,0.413-16.625,41.25-32.246,56.871
			c-2.091,2.091-2.95,5.116-2.271,7.994c0.679,2.878,2.8,5.2,5.605,6.136l122.167,40.722v29.603c0,0.166,0.085,0.304,0.094,0.468
			c0.054,0.591,0.172,1.174,0.352,1.739c0.425,2.113,1.778,3.923,3.685,4.927c0.49,0.331,1.014,0.608,1.563,0.826
			c0.155,0.055,0.264,0.177,0.423,0.223c35.089,9.683,72.145,9.683,107.233,0c0.159-0.047,0.268-0.168,0.423-0.223
			c0.549-0.218,1.073-0.495,1.563-0.826c1.907-1.004,3.26-2.814,3.685-4.927c0.18-0.565,0.298-1.148,0.352-1.739
			c0.009-0.163,0.094-0.302,0.094-0.468v-29.603l122.167-40.722c2.805-0.936,4.926-3.257,5.605-6.135
			c0.679-2.878-0.18-5.902-2.271-7.994c-15.621-15.621-32.079-56.458-32.246-56.871c-0.303-0.624-0.684-1.207-1.134-1.735
			c4.874-9.266,8.853-18.976,11.884-28.998c0.087-0.293,0.144-0.592,0.23-0.884c21.091,3.426,41.451-9.323,47.578-29.792
			C473.945,274.374,463.939,252.535,444.436,243.808L444.436,243.808z M301.925,420.974c-7.553,1.977-14.123,6.646-18.475,13.129
			c-0.129,0.183-0.25,0.367-0.362,0.558l-0.004-0.004c-4.892,8.166-21.425,10.075-26.792,10.1
			c-5.408-0.025-21.942-1.933-26.833-10.1l-0.004,0.004c-0.112-0.192-0.233-0.375-0.363-0.558
			c-4.354-6.485-10.927-11.155-18.483-13.133c-46.519-13.809-83.638-49.017-99.884-94.742
			c-12.737-36.705-10.291-76.977,6.796-111.871h14.128c-0.223,2.845,0.993,5.612,3.239,7.371c2.246,1.759,5.224,2.277,7.933,1.379
			c0.371-0.129,38.362-12.1,83.896,19.587c2.502,1.742,5.744,2.016,8.503,0.72c2.76-1.296,4.618-3.966,4.875-7.004
			s-1.126-5.982-3.628-7.724c-8.043-5.611-16.622-10.411-25.612-14.329h90.829c-8.989,3.918-17.567,8.718-25.609,14.329
			c-3.868,2.692-4.822,8.011-2.129,11.879c2.692,3.868,8.011,4.822,11.879,2.129c45.104-31.383,82.346-20.075,83.937-19.575
			c2.705,0.882,5.672,0.355,7.908-1.405c2.236-1.76,3.445-4.521,3.222-7.357h14.128c9.833,19.898,14.916,41.805,14.85,64
			c-0.006,14.308-2.096,28.54-6.204,42.246C388.767,369.027,350.547,406.732,301.925,420.974L301.925,420.974z M77.576,154.624
			h84.829v42.667H81.24L77.576,154.624z M256.271,18.8c32.936,13.722,76.8,40.103,76.8,59.024v59.733h-25.6v-25.6
			c-0.015-14.132-11.468-25.585-25.6-25.6h-51.2c-14.132,0.015-25.585,11.468-25.6,25.6v25.6h-25.6V77.824
			C179.471,58.902,223.335,32.522,256.271,18.8z M434.968,154.624l-3.665,42.667h-72.631v-42.667H434.968z M341.604,197.291H300.97
			c8.667-12.902,8.667-29.765,0-42.667h40.634V197.291z M179.471,154.624h89.6c11.782,0,21.333,9.551,21.333,21.333
			s-9.551,21.333-21.333,21.333h-89.6V154.624z M290.404,137.557h-68.267v-25.6c0.006-4.71,3.823-8.527,8.533-8.533h51.2
			c4.71,0.006,8.527,3.823,8.533,8.533V137.557z M422.288,239.957c-2.145-8.756-5.013-17.319-8.577-25.6h16.125l-2.199,25.6H422.288
			z M439.517,101.67l-3.083,35.888h-86.296V77.824c0-19.718-21.037-38.093-42.942-51.906l92.13,20.302
			C424.672,52.1,441.815,75.752,439.517,101.67L439.517,101.67z M113.213,46.22l92.137-20.304
			c-21.906,13.814-42.946,32.189-42.946,51.908v59.733H76.11l-3.081-35.875C70.723,75.762,87.864,52.103,113.213,46.22
			L113.213,46.22z M84.905,239.957l-2.198-25.6h16.125c-3.563,8.281-6.432,16.844-8.577,25.6H84.905z M85.604,308.224
			c-14.138,0-25.6-11.462-25.6-25.6s11.462-25.6,25.6-25.6c0.479,0,0.956,0.093,1.435,0.121c-0.943,7.032-1.423,14.118-1.435,21.212
			c0.021,9.932,0.947,19.841,2.767,29.604C87.454,308.1,86.531,308.187,85.604,308.224z M91.579,414.999
			c9.191-13.6,17.086-28.032,23.581-43.107c20.08,28.649,48.492,50.423,81.377,62.364v15.728L91.579,414.999z M213.604,490.914
			v-48.956c0.413,0.413,0.785,0.865,1.112,1.349c0.137,0.229,0.283,0.454,0.438,0.667c10.938,17.346,38.033,17.85,41.117,17.85
			s30.179-0.504,41.117-17.85c0.154-0.212,0.3-0.438,0.438-0.667c0.327-0.484,0.7-0.936,1.112-1.349v48.956
			C270.856,497.339,241.686,497.339,213.604,490.914z M420.963,414.999l-104.958,34.985v-15.73
			c32.928-11.811,61.385-33.538,81.454-62.191C403.935,387.077,411.805,401.452,420.963,414.999L420.963,414.999z M426.938,308.224
			c-0.941-0.037-1.879-0.126-2.81-0.267c1.832-9.761,2.773-19.669,2.81-29.6c-0.013-7.095-0.492-14.181-1.435-21.212
			c0.479-0.028,0.956-0.121,1.435-0.121c14.138,0,25.6,11.462,25.6,25.6S441.076,308.224,426.938,308.224L426.938,308.224z"/>
		<path d="M239.204,329.557c4.713,0,8.533-3.821,8.533-8.533c0-1.504,3.242-4.267,8.533-4.267c5.292,0,8.533,2.763,8.533,4.267
			c0,4.713,3.821,8.533,8.533,8.533s8.533-3.821,8.533-8.533c-0.551-6.23-3.561-11.984-8.366-15.987
			c-4.805-4.004-11.007-5.928-17.234-5.346c-6.227-0.582-12.429,1.342-17.234,5.346c-4.805,4.004-7.815,9.758-8.366,15.987
			C230.671,325.737,234.491,329.557,239.204,329.557z"/>
		<path d="M230.671,274.091c0-4.713-3.821-8.533-8.533-8.533h-68.267c-4.713,0-8.533,3.821-8.533,8.533s3.821,8.533,8.533,8.533
			h68.267C226.85,282.624,230.671,278.803,230.671,274.091z"/>
		<path d="M358.671,265.557h-68.267c-4.713,0-8.533,3.821-8.533,8.533s3.82,8.533,8.533,8.533h68.267
			c4.713,0,8.533-3.82,8.533-8.533S363.384,265.557,358.671,265.557z"/>
		<path d="M256.271,342.357c-19.986,1.268-35.218,18.403-34.133,38.4c-1.084,19.997,14.147,37.132,34.133,38.4
			c19.986-1.268,35.218-18.403,34.133-38.4C291.489,360.76,276.257,343.625,256.271,342.357L256.271,342.357z M256.271,402.091
			c-10.529-1.313-18.097-10.773-17.067-21.333c-1.03-10.56,6.538-20.02,17.067-21.333c10.529,1.313,18.097,10.773,17.067,21.333
			C274.368,391.318,266.8,400.777,256.271,402.091z"/>
	</g>
</g>
<g>
</g>
<g>
</g>
<g>
</g>
<g>
</g>
<g>
</g>
<g>
</g>
<g>
</g>
<g>
</g>
<g>
</g>
<g>
</g>
<g>
</g>
<g>
</g>
<g>
</g>
<g>
</g>
<g>
</g>
</svg>
