<?xml version="1.0" encoding="iso-8859-1"?>
<!-- Generator: Adobe Illustrator 19.0.0, SVG Export Plug-In . SVG Version: 6.00 Build 0)  -->
<svg version="1.1" id="Capa_1" xmlns="http://www.w3.org/2000/svg" xmlns:xlink="http://www.w3.org/1999/xlink" x="0px" y="0px"
	 viewBox="0 0 512.003 512.003" style="enable-background:new 0 0 512.003 512.003;" xml:space="preserve">
<g>
	<g>
		<path style="fill:#AD1457;" d="M503.469,255.953c0.048,42.599-10.916,84.487-31.829,121.6c-0.085,0-0.085,0.085-0.171,0.085
			c-37.635,23.214-79.144,39.46-122.539,47.957c-13.785,2.936-27.713,5.158-41.728,6.656h-102.4
			c-58.174-5.581-114.332-24.251-164.267-54.613c-0.085,0-0.085-0.085-0.171-0.085C-10.585,287.189,0.224,174.64,67.44,95.623
			s176.576-107.732,273.941-71.93S503.453,152.215,503.469,255.953L503.469,255.953z"/>
		<path style="fill:#E91E63;" d="M469.336,264.487c0.048,42.599-10.916,84.487-31.829,121.6c-0.085,0-0.085,0.085-0.171,0.085
			c-27.534,17.109-57.278,30.373-88.405,39.424c-13.785,2.936-27.713,5.158-41.728,6.656h-102.4
			c-58.174-5.581-114.332-24.251-164.267-54.613c-0.085,0-0.085-0.085-0.171-0.085C4.035,312.985-1.489,235.546,25.307,166.474
			s83.1-122.525,153.469-145.7c72.05-12.692,146.024,7.128,202.076,54.142S469.296,191.328,469.336,264.487z"/>
		<path style="fill:#FFE0B2;" d="M415.49,249.297c-2.81-15.57-8.051-30.602-15.531-44.544h-58.624
			c-49.323,0-76.288-44.373-87.552-69.12c-0.768-1.706-1.451-3.243-2.048-4.693c-4.812,11.526-10.878,22.486-18.091,32.683
			c-10.349,15.204-24.621,27.324-41.301,35.072c-9.563,4.02-19.835,6.081-30.208,6.059h-50.091
			c-2.942,5.533-5.564,11.232-7.851,17.067c-3.434,8.892-6.006,18.093-7.68,27.477c-1.792,9.221-2.678,18.596-2.645,27.989
			c-0.022,12.075,1.411,24.108,4.267,35.84c1.122,5.031,2.547,9.989,4.267,14.848c1.963,5.547,4.181,10.923,6.656,16.213
			c1.536,3.157,3.242,6.315,4.949,9.472l3.584,5.888c2.133,3.328,4.352,6.656,6.656,9.813c1.621,2.133,3.328,4.267,5.035,6.4
			c1.707,2.133,3.584,4.267,5.461,6.229c0.512,0.597,0.939,1.109,1.451,1.621c1.451,1.536,2.901,3.072,4.437,4.437
			c0.353,0.466,0.754,0.895,1.195,1.28c0.341,0.341,0.683,0.597,1.024,0.939c4.189,4.005,8.606,7.766,13.227,11.264
			c1.621,1.28,3.243,2.475,4.949,3.669c0.853,0.597,1.792,1.195,2.645,1.792c2.219,1.536,4.437,2.987,6.741,4.352
			c0.189,0.083,0.363,0.199,0.513,0.341c2.645,1.536,5.291,2.987,7.936,4.437c2.731,1.451,5.547,2.816,8.363,4.096
			c2.645,1.195,5.205,2.304,7.936,3.328c0.341,0.171,0.768,0.341,1.195,0.512c2.56,1.024,5.205,1.963,7.936,2.816
			c0.171,0.085,0.341,0.085,0.512,0.171c1.024,0.427,2.048,0.683,3.072,1.024c3.769,1.057,7.263,2.921,10.24,5.461
			c1.465,1.228,2.706,2.701,3.669,4.352c0.023,0,0.045,0.008,0.061,0.025c0.016,0.016,0.025,0.038,0.024,0.061
			c8.533,14.251,34.133,14.251,34.133,14.251c4.076-0.092,8.134-0.578,12.117-1.451c6.782-1.055,13.136-3.981,18.347-8.448
			c1.426-1.267,2.661-2.733,3.669-4.352c0-0.023,0.008-0.045,0.025-0.061c0.016-0.016,0.038-0.025,0.061-0.024
			c0.963-1.651,2.204-3.124,3.669-4.352c2.977-2.541,6.471-4.404,10.24-5.461c1.024-0.341,2.048-0.597,3.072-1.024
			c9.284-3,18.28-6.827,26.88-11.435c0.085,0.085,0.085,0.085,0.085,0c37.187-19.711,65.026-53.382,77.397-93.611
			c0.853-2.901,1.707-5.888,2.304-8.875h0.085c2.785-11.743,4.189-23.772,4.181-35.84
			C418.168,267.893,417.282,258.518,415.49,249.297z"/>
		<path style="fill:#FFECB3;" d="M389.89,266.364c-2.81-15.57-8.051-30.602-15.531-44.544h-58.624
			c-42.667,0-68.608-33.195-82.091-58.197c-2.133-3.925-3.925-7.595-5.461-10.923c-0.768-1.707-1.451-3.243-2.048-4.693
			c-7.745,18.994-19.238,36.233-33.792,50.688c-14.882,14.681-34.904,22.977-55.808,23.125h-32.341
			c-3.434,8.892-6.006,18.093-7.68,27.477c-1.792,9.221-2.678,18.596-2.645,27.989c-0.022,12.075,1.411,24.108,4.267,35.84
			c1.122,5.031,2.547,9.989,4.267,14.848c1.963,5.547,4.181,10.923,6.656,16.213c1.536,3.157,3.242,6.315,4.949,9.472l3.584,5.888
			c2.133,3.328,4.352,6.656,6.656,9.813c1.621,2.133,3.328,4.267,5.035,6.4c1.707,2.133,3.584,4.267,5.461,6.229
			c0.512,0.597,0.939,1.109,1.451,1.621c1.451,1.536,2.901,3.072,4.437,4.437c0.353,0.466,0.754,0.895,1.195,1.28
			c0.341,0.341,0.683,0.597,1.024,0.939c4.189,4.005,8.606,7.766,13.227,11.264c1.621,1.28,3.243,2.475,4.949,3.669
			c0.853,0.597,1.792,1.195,2.645,1.792c2.219,1.536,4.437,2.987,6.741,4.352c0.189,0.083,0.363,0.199,0.513,0.341
			c2.645,1.536,5.291,2.987,7.936,4.437c2.731,1.451,5.547,2.816,8.363,4.096c2.645,1.195,5.205,2.304,7.936,3.328
			c0.341,0.171,0.768,0.341,1.195,0.512c2.56,1.024,5.205,1.963,7.936,2.816c0.171,0.085,0.341,0.085,0.512,0.171
			c1.024,0.427,2.048,0.683,3.072,1.024c3.769,1.057,7.263,2.921,10.24,5.461c1.465,1.228,2.706,2.701,3.669,4.352
			c0.023,0,0.045,0.008,0.061,0.025c0.016,0.016,0.025,0.038,0.024,0.061c8.533,14.251,34.133,14.251,34.133,14.251
			c4.076-0.092,8.134-0.578,12.117-1.451l0.171-0.171c2.977-2.541,6.471-4.404,10.24-5.461c1.024-0.341,2.048-0.597,3.072-1.024
			c1.621-0.512,3.243-1.109,4.864-1.792c17.315-6.043,33.432-15.084,47.616-26.709c0.085,0.085,0.085,0.085,0.085,0
			c24.568-19.728,42.618-46.403,51.797-76.544c0.853-2.901,1.707-5.888,2.304-8.875h0.085c2.785-11.743,4.189-23.771,4.181-35.84
			C392.568,284.96,391.682,275.585,389.89,266.364z"/>
		<path style="fill:#AD1457;" d="M257.624,59.772v-0.085h-1.621c-0.57-0.014-1.141,0.014-1.707,0.085c-0.853,0-1.707,0-2.56,0.085
			h-0.597c-0.597,0-1.195,0.085-1.792,0.085h-0.171c-20.097,0.615-39.982,4.299-58.965,10.923
			C118.957,95.612,68.269,159.612,68.269,234.62v0.683c-0.018,5.416,0.267,10.829,0.853,16.213
			c8.418-4.54,18.353-5.345,27.392-2.219c2.238-12.437,6.052-24.538,11.349-36.011c1.28-2.901,2.645-5.717,4.181-8.533h50.091
			c0.428,0.014,0.857-0.014,1.28-0.085c27.579-1.25,52.92-15.537,68.267-38.485c8.113-10.875,14.848-22.713,20.053-35.243
			c0.597,1.451,1.28,2.987,2.048,4.693c11.264,24.747,38.229,69.12,87.552,69.12h58.624c3.263,6.018,6.086,12.263,8.448,18.688
			c3.107,8.397,5.477,17.048,7.083,25.856c3.597-1.237,7.374-1.872,11.179-1.877c5.664-0.032,11.244,1.377,16.213,4.096
			c0.586-5.613,0.871-11.253,0.853-16.896C443.736,138.535,360.536,60.54,257.624,59.772z"/>
		<path style="fill:#E91E63;" d="M408.408,223.441c-2.362-6.425-5.185-12.67-8.448-18.688h-58.624
			c-49.323,0-76.288-44.373-87.552-69.12c-0.768-1.706-1.451-3.243-2.048-4.693c-5.205,12.53-11.941,24.367-20.053,35.243
			c-15.346,22.949-40.688,37.235-68.267,38.485c-0.423,0.071-0.852,0.099-1.28,0.085h-50.091c-1.536,2.816-2.901,5.632-4.181,8.533
			c-5.297,11.473-9.111,23.574-11.349,36.011c-9.039-3.126-18.974-2.321-27.392,2.219c-0.586-5.384-0.871-10.797-0.853-16.213
			v-0.683c0-75.008,50.688-139.008,121.941-163.755c8.213-1.361,16.51-2.16,24.832-2.389h0.171c0.597,0,1.195-0.085,1.792-0.085
			h0.597c0.853-0.085,1.707-0.085,2.56-0.085c0.566-0.071,1.136-0.1,1.707-0.086h1.621v0.085
			C319.234,68.988,397.912,136.572,408.408,223.441z"/>
		<g>
			<path style="fill:#FFE0B2;" d="M307.202,427.047v69.461c-16.653,4.719-33.892,7.046-51.2,6.912
				c-17.308,0.134-34.547-2.193-51.2-6.912v-69.461c1.024,0.427,2.048,0.683,3.072,1.024c3.769,1.057,7.263,2.921,10.24,5.461
				c1.465,1.228,2.706,2.701,3.669,4.352c0.023-0.001,0.045,0.008,0.061,0.024c0.016,0.016,0.025,0.038,0.024,0.061
				c8.533,14.251,34.133,14.251,34.133,14.251s25.6,0,34.133-14.251c0-0.023,0.008-0.045,0.025-0.061
				c0.016-0.016,0.038-0.025,0.061-0.024c0.963-1.651,2.204-3.124,3.669-4.352c2.977-2.541,6.471-4.404,10.24-5.461
				C305.154,427.729,306.178,427.473,307.202,427.047z"/>
			<path style="fill:#FFE0B2;" d="M460.802,281.553c0.002,9.053-3.593,17.737-9.995,24.139s-15.085,9.997-24.139,9.995
				c-4.37,0.034-8.699-0.838-12.715-2.56c2.785-11.743,4.189-23.771,4.181-35.84c0.033-9.394-0.853-18.768-2.645-27.989
				c3.597-1.237,7.374-1.872,11.179-1.877c5.664-0.032,11.244,1.377,16.213,4.096C453.915,257.482,460.793,269.011,460.802,281.553
				L460.802,281.553z"/>
			<path style="fill:#FFE0B2;" d="M98.136,313.127c-4.046,1.722-8.403,2.594-12.8,2.56c-18.851,0-34.133-15.282-34.133-34.133
				c0-18.851,15.282-34.133,34.133-34.133c3.804,0.005,7.581,0.64,11.179,1.877c-1.792,9.221-2.678,18.596-2.645,27.989
				C93.848,289.361,95.28,301.394,98.136,313.127L98.136,313.127z"/>
		</g>
	</g>
	<g>
		<path d="M256.002,315.687c9.563-0.014,18.544-4.597,24.166-12.333c2.566-3.862,1.546-9.07-2.287-11.68
			c-3.86-2.627-9.11-1.697-11.833,2.096c-2.42,3.044-6.09,4.827-9.978,4.85s-7.578-1.718-10.034-4.733
			c-1.686-2.55-4.606-4.003-7.657-3.81c-3.05,0.193-5.765,2.002-7.116,4.744c-1.351,2.742-1.133,5.996,0.572,8.533
			C237.458,311.089,246.439,315.673,256.002,315.687z"/>
		<path d="M197.703,270.586c1.677,2.571,4.605,4.043,7.668,3.855c3.063-0.187,5.79-2.005,7.141-4.761
			c1.351-2.756,1.118-6.025-0.61-8.561c-8.368-12.443-21.909-20.438-36.846-21.755c-2.268-2.607-3.785-5.783-4.387-9.186
			c-0.098-4.677-3.942-8.403-8.62-8.355c-4.677,0.048-8.445,3.852-8.447,8.53c0.157,3.215,0.844,6.382,2.035,9.373
			c-2.314,0.358-3.814,0.71-4.106,0.781c-4.559,1.155-7.324,5.781-6.183,10.344s5.759,7.342,10.325,6.215
			C155.948,256.991,184.132,250.237,197.703,270.586z"/>
		<path d="M307.194,274.387c2.856,0.004,5.525-1.423,7.108-3.8c13.446-20.183,40.892-13.804,42.058-13.512
			c4.57,1.123,9.187-1.664,10.321-6.232c1.134-4.567-1.643-9.191-6.208-10.335c-0.292-0.072-1.793-0.425-4.105-0.784
			c1.19-2.99,1.877-6.156,2.034-9.37c-0.011-4.607-3.715-8.353-8.321-8.417c-4.635-0.021-8.476,3.589-8.742,8.217
			c-0.461,3.404-1.918,6.596-4.188,9.174c-15.014,1.274-28.641,9.289-37.049,21.793c-1.745,2.617-1.908,5.982-0.425,8.756
			C301.16,272.65,304.049,274.383,307.194,274.387L307.194,274.387z"/>
		<path d="M256.082,401.011c8.606-0.096,17.187-0.954,25.642-2.562c11.713-2.003,23.024-5.888,33.496-11.504
			c11.95-6.65,25.375-20.329,23.888-36.983c-0.741-8.464-5.565-16.034-12.925-20.279c-7.255-4.19-16.115-4.511-23.654-0.858
			c-29.491,13.758-63.559,13.758-93.05,0c-7.539-3.657-16.401-3.336-23.654,0.858c-7.361,4.246-12.186,11.818-12.925,20.284
			c-1.488,16.65,11.938,30.329,23.888,36.979c17.77,9.52,37.669,14.363,57.825,14.075
			C255.098,401.02,255.594,401.016,256.082,401.011z M189.898,351.486c0.219-2.916,1.868-5.535,4.404-6.992
			c1.257-0.725,2.682-1.11,4.133-1.117c1.302,0.01,2.586,0.311,3.758,0.879c34.108,15.908,73.508,15.908,107.617,0
			c2.503-1.253,5.468-1.164,7.892,0.238c2.535,1.456,4.184,4.073,4.404,6.987c0.708,7.917-7.379,16.204-15.187,20.554
			c-8.88,4.718-18.463,7.975-28.379,9.646c-7.463,1.421-15.037,2.178-22.633,2.262c-17.683,0.476-35.19-3.626-50.821-11.908
			C197.277,367.687,189.19,359.399,189.898,351.486L189.898,351.486z"/>
		<path d="M179.444,307.149c4.654-0.145,8.332-3.994,8.266-8.65c-0.066-4.656-3.852-8.399-8.508-8.412
			c-4.555-0.097-8.953,1.67-12.175,4.892c-3.222,3.222-4.989,7.619-4.892,12.175c0.068,4.732,3.924,8.533,8.656,8.531
			C175.525,315.683,179.379,311.881,179.444,307.149L179.444,307.149z"/>
		<path d="M332.802,290.087c-4.713,0-8.533,3.821-8.533,8.533c0,4.713,3.82,8.533,8.533,8.533c0,4.713,3.82,8.533,8.533,8.533
			s8.533-3.82,8.533-8.533c0.097-4.555-1.67-8.953-4.892-12.175C341.755,291.757,337.358,289.99,332.802,290.087z"/>
		<path d="M512.003,255.953c-0.045-107.271-66.965-203.138-167.645-240.161S130.593,8.442,61.062,90.127
			s-80.76,198.059-28.131,291.532c0.36,0.65,0.804,1.249,1.32,1.783c0.065,0.068,0.111,0.154,0.178,0.22
			c0.294,0.257,0.606,0.495,0.932,0.71c0.299,0.248,0.615,0.476,0.945,0.681l0.034,0.025
			c48.688,29.665,103.271,48.331,159.929,54.691v56.738c0,0.166,0.085,0.304,0.094,0.468c0.054,0.591,0.172,1.174,0.352,1.739
			c0.425,2.113,1.778,3.923,3.685,4.927c0.49,0.331,1.014,0.608,1.563,0.826c0.155,0.055,0.264,0.177,0.423,0.224
			c35.089,9.683,72.145,9.683,107.233,0c0.159-0.047,0.268-0.168,0.423-0.224c0.549-0.218,1.073-0.495,1.563-0.826
			c1.907-1.004,3.26-2.814,3.685-4.927c0.18-0.565,0.298-1.148,0.352-1.739c0.009-0.163,0.094-0.302,0.094-0.468v-56.739
			c56.637-6.385,111.201-25.041,159.892-54.667c0.495-0.284,0.96-0.617,1.387-0.995c0.178-0.146,0.377-0.26,0.542-0.419
			c0.132-0.131,0.229-0.295,0.353-0.434c0.45-0.485,0.842-1.022,1.167-1.598C500.669,343.279,512.01,299.987,512.003,255.953z
			 M256.002,17.02c84.54,0.01,162.782,44.688,205.756,117.49s44.283,162.893,3.443,236.913
			c-35.79,21.768-75.098,37.135-116.161,45.411c33.927-21.272,59.034-54.078,70.7-92.385c0.087-0.293,0.144-0.592,0.23-0.884
			c19.44,3.19,38.522-7.402,46.099-25.586c7.577-18.184,1.66-39.192-14.293-50.749c0.294-4.033,0.493-8.163,0.493-12.61
			c0-101.163-88.046-183.467-196.267-183.467S59.736,133.457,59.736,234.62c0,4.447,0.2,8.577,0.494,12.61
			c-16.243,11.448-22.346,32.647-14.677,50.979c7.669,18.332,27.049,28.871,46.605,25.343c0.716,2.409,1.353,4.842,2.183,7.217
			c12.56,35.673,36.842,66.036,68.881,86.131c-41.158-8.25-80.555-23.639-116.407-45.471
			C5.965,297.411,7.268,207.317,50.241,134.512S171.46,17.027,256.002,17.02z M224.617,428.009l-0.081-0.07
			c-4.032-3.762-8.896-6.517-14.195-8.04c-46.519-13.809-83.638-49.017-99.884-94.742c-12.757-36.709-10.282-76.999,6.872-111.871
			h44.807c46.931,0,75.216-36.281,89.598-62.716c14.368,26.413,42.656,62.716,89.602,62.716h53.34
			c9.861,19.891,14.971,41.799,14.927,64c-0.006,14.308-2.096,28.54-6.204,42.246c-14.9,48.424-53.121,86.129-101.742,100.371
			c-5.297,1.522-10.159,4.276-14.189,8.037l-0.08,0.069c-1.603,1.496-3.016,3.183-4.207,5.023c-0.129,0.183-0.25,0.367-0.362,0.558
			l-0.004-0.004c-4.892,8.166-21.425,10.075-26.792,10.1c-5.408-0.025-21.942-1.933-26.833-10.1l-0.004,0.004
			c-0.112-0.192-0.233-0.375-0.363-0.558C227.632,431.192,226.22,429.505,224.617,428.009z M76.802,234.62
			c0-91.754,80.387-166.4,179.2-166.4s179.2,74.646,179.2,166.4c0,1.778-0.072,3.43-0.123,5.117
			c-4.26-0.954-8.659-1.113-12.977-0.469c-3.213-13.417-8.125-26.37-14.617-38.544c-0.227-0.319-0.477-0.62-0.748-0.903
			c-0.328-0.493-0.706-0.95-1.13-1.363c-0.865-0.652-1.798-1.208-2.782-1.66c-0.545-0.17-1.107-0.283-1.676-0.339
			c-0.39-0.11-0.787-0.19-1.189-0.24h-58.625c-45.439,0-70.564-43.481-80.355-65.435c2.067-5.29,3.14-8.729,3.189-8.894
			c0.884-2.918,0.145-6.085-1.94-8.31c-2.085-2.225-5.198-3.168-8.167-2.475c-2.969,0.693-5.343,2.917-6.227,5.835
			c-0.013,0.046-1.308,4.279-3.963,10.687c-8.687,20.625-34.042,68.592-81.737,68.592h-50.092c-0.401,0.05-0.798,0.13-1.188,0.24
			c-0.57,0.055-1.133,0.169-1.679,0.34c-0.984,0.452-1.917,1.008-2.781,1.66c-0.423,0.413-0.801,0.869-1.128,1.361
			c-0.271,0.282-0.522,0.584-0.749,0.904c-6.492,12.174-11.404,25.126-14.617,38.544c-1.514-0.209-3.038-0.337-4.566-0.381
			c-2.825,0.004-5.642,0.289-8.41,0.851C76.875,238.05,76.802,236.398,76.802,234.62z M425.234,256.074
			c0.479-0.028,0.956-0.121,1.435-0.121c14.138,0,25.6,11.462,25.6,25.6s-11.462,25.6-25.6,25.6
			c-0.941-0.037-1.879-0.126-2.81-0.267c1.832-9.761,2.773-19.669,2.81-29.6C426.656,270.192,426.177,263.106,425.234,256.074
			L425.234,256.074z M85.336,255.953c0.479,0,0.956,0.093,1.435,0.121c-0.943,7.032-1.423,14.118-1.435,21.212
			c0.021,9.932,0.947,19.841,2.767,29.604c-0.917,0.138-1.84,0.226-2.767,0.263c-14.138,0-25.6-11.462-25.6-25.6
			S71.197,255.953,85.336,255.953z M298.669,489.843c-28.082,6.425-57.252,6.425-85.333,0v-48.245
			c0.216,0.019,0.426,0.05,0.642,0.069c0.144,0.201,0.344,0.357,0.47,0.57c0.137,0.229,0.283,0.454,0.438,0.667
			c10.938,17.346,38.033,17.85,41.117,17.85c3.083,0,30.179-0.504,41.117-17.85c0.154-0.212,0.3-0.438,0.438-0.667
			c0.127-0.213,0.327-0.369,0.47-0.57c0.216-0.019,0.427-0.049,0.642-0.069V489.843z"/>
	</g>
</g>
<g>
</g>
<g>
</g>
<g>
</g>
<g>
</g>
<g>
</g>
<g>
</g>
<g>
</g>
<g>
</g>
<g>
</g>
<g>
</g>
<g>
</g>
<g>
</g>
<g>
</g>
<g>
</g>
<g>
</g>
</svg>
