<?xml version="1.0" encoding="iso-8859-1"?>
<!-- Generator: Adobe Illustrator 19.0.0, SVG Export Plug-In . SVG Version: 6.00 Build 0)  -->
<svg version="1.1" id="Capa_1" xmlns="http://www.w3.org/2000/svg" xmlns:xlink="http://www.w3.org/1999/xlink" x="0px" y="0px"
	 viewBox="0 0 512.003 512.003" style="enable-background:new 0 0 512.003 512.003;" xml:space="preserve">
<g>
	<g>
		<path style="fill:#FDD834;" d="M503.469,255.953c0.048,42.599-10.916,84.487-31.829,121.6c-0.085,0-0.085,0.085-0.171,0.085
			c-37.635,23.214-79.144,39.46-122.539,47.957c-13.785,2.936-27.713,5.158-41.728,6.656h-102.4
			c-58.174-5.581-114.332-24.251-164.267-54.613c-0.085,0-0.085-0.085-0.171-0.085C-10.585,287.189,0.224,174.64,67.44,95.623
			s176.576-107.732,273.941-71.93S503.453,152.215,503.469,255.953L503.469,255.953z"/>
		<path style="fill:#FFEB3A;" d="M469.336,264.487c0.048,42.599-10.916,84.487-31.829,121.6c-0.085,0-0.085,0.085-0.171,0.085
			c-27.534,17.109-57.278,30.373-88.405,39.424c-13.785,2.936-27.713,5.158-41.728,6.656h-102.4
			c-58.174-5.581-114.332-24.251-164.267-54.613c-0.085,0-0.085-0.085-0.171-0.085C4.035,312.985-1.489,235.546,25.307,166.474
			s83.1-122.525,153.469-145.7c72.05-12.692,146.024,7.128,202.076,54.142S469.296,191.328,469.336,264.487z"/>
		<path style="fill:#FFE0B2;" d="M415.49,249.297c-2.81-15.57-8.051-30.602-15.531-44.544h-58.624
			c-49.323,0-76.288-44.373-87.552-69.12c-0.768-1.706-1.451-3.243-2.048-4.693c-4.812,11.526-10.878,22.486-18.091,32.683
			c-10.349,15.204-24.621,27.324-41.301,35.072c-9.563,4.02-19.835,6.081-30.208,6.059h-50.091
			c-2.942,5.533-5.564,11.232-7.851,17.067c-3.434,8.892-6.006,18.093-7.68,27.477c-1.792,9.221-2.678,18.596-2.645,27.989
			c-0.022,12.075,1.411,24.108,4.267,35.84c1.122,5.031,2.547,9.989,4.267,14.848c1.963,5.547,4.181,10.923,6.656,16.213
			c1.536,3.157,3.242,6.315,4.949,9.472l3.584,5.888c2.133,3.328,4.352,6.656,6.656,9.813c1.621,2.133,3.328,4.267,5.035,6.4
			c1.707,2.133,3.584,4.267,5.461,6.229c0.512,0.597,0.939,1.109,1.451,1.621c1.451,1.536,2.901,3.072,4.437,4.437
			c0.353,0.466,0.754,0.895,1.195,1.28c0.341,0.341,0.683,0.597,1.024,0.939c4.189,4.005,8.606,7.766,13.227,11.264
			c1.621,1.28,3.243,2.475,4.949,3.669c0.853,0.597,1.792,1.195,2.645,1.792c2.219,1.536,4.437,2.987,6.741,4.352
			c0.189,0.083,0.363,0.199,0.513,0.341c2.645,1.536,5.291,2.987,7.936,4.437c2.731,1.451,5.547,2.816,8.363,4.096
			c2.645,1.195,5.205,2.304,7.936,3.328c0.341,0.171,0.768,0.341,1.195,0.512c2.56,1.024,5.205,1.963,7.936,2.816
			c0.171,0.085,0.341,0.085,0.512,0.171c1.024,0.427,2.048,0.683,3.072,1.024c3.769,1.057,7.263,2.921,10.24,5.461
			c1.465,1.228,2.706,2.701,3.669,4.352c0.023,0,0.045,0.008,0.061,0.025c0.016,0.016,0.025,0.038,0.024,0.061
			c8.533,14.251,34.133,14.251,34.133,14.251c4.076-0.092,8.134-0.578,12.117-1.451c6.782-1.055,13.136-3.981,18.347-8.448
			c1.426-1.267,2.661-2.733,3.669-4.352c0-0.023,0.008-0.045,0.025-0.061c0.016-0.016,0.038-0.025,0.061-0.024
			c0.963-1.651,2.204-3.124,3.669-4.352c2.977-2.541,6.471-4.404,10.24-5.461c1.024-0.341,2.048-0.597,3.072-1.024
			c9.284-3,18.28-6.827,26.88-11.435c0.085,0.085,0.085,0.085,0.085,0c37.187-19.711,65.026-53.382,77.397-93.611
			c0.853-2.901,1.707-5.888,2.304-8.875h0.085c2.785-11.743,4.189-23.772,4.181-35.84
			C418.168,267.893,417.282,258.518,415.49,249.297z"/>
		<path style="fill:#FFECB3;" d="M389.89,266.364c-2.81-15.57-8.051-30.602-15.531-44.544h-58.624
			c-42.667,0-68.608-33.195-82.091-58.197c-2.133-3.925-3.925-7.595-5.461-10.923c-0.768-1.707-1.451-3.243-2.048-4.693
			c-7.745,18.994-19.238,36.233-33.792,50.688c-14.882,14.681-34.904,22.977-55.808,23.125h-32.341
			c-3.434,8.892-6.006,18.093-7.68,27.477c-1.792,9.221-2.678,18.596-2.645,27.989c-0.022,12.075,1.411,24.108,4.267,35.84
			c1.122,5.031,2.547,9.989,4.267,14.848c1.963,5.547,4.181,10.923,6.656,16.213c1.536,3.157,3.242,6.315,4.949,9.472l3.584,5.888
			c2.133,3.328,4.352,6.656,6.656,9.813c1.621,2.133,3.328,4.267,5.035,6.4c1.707,2.133,3.584,4.267,5.461,6.229
			c0.512,0.597,0.939,1.109,1.451,1.621c1.451,1.536,2.901,3.072,4.437,4.437c0.353,0.466,0.754,0.895,1.195,1.28
			c0.341,0.341,0.683,0.597,1.024,0.939c4.189,4.005,8.606,7.766,13.227,11.264c1.621,1.28,3.243,2.475,4.949,3.669
			c0.853,0.597,1.792,1.195,2.645,1.792c2.219,1.536,4.437,2.987,6.741,4.352c0.189,0.083,0.363,0.199,0.513,0.341
			c2.645,1.536,5.291,2.987,7.936,4.437c2.731,1.451,5.547,2.816,8.363,4.096c2.645,1.195,5.205,2.304,7.936,3.328
			c0.341,0.171,0.768,0.341,1.195,0.512c2.56,1.024,5.205,1.963,7.936,2.816c0.171,0.085,0.341,0.085,0.512,0.171
			c1.024,0.427,2.048,0.683,3.072,1.024c3.769,1.057,7.263,2.921,10.24,5.461c1.465,1.228,2.706,2.701,3.669,4.352
			c0.023,0,0.045,0.008,0.061,0.025c0.016,0.016,0.025,0.038,0.024,0.061c8.533,14.251,34.133,14.251,34.133,14.251
			c4.076-0.092,8.134-0.578,12.117-1.451l0.171-0.171c2.977-2.541,6.471-4.404,10.24-5.461c1.024-0.341,2.048-0.597,3.072-1.024
			c1.621-0.512,3.243-1.109,4.864-1.792c17.315-6.043,33.432-15.084,47.616-26.709c0.085,0.085,0.085,0.085,0.085,0
			c24.568-19.728,42.618-46.403,51.797-76.544c0.853-2.901,1.707-5.888,2.304-8.875h0.085c2.785-11.743,4.189-23.771,4.181-35.84
			C392.568,284.96,391.682,275.585,389.89,266.364z"/>
		<path style="fill:#FDD834;" d="M257.624,59.772v-0.085h-1.621c-0.57-0.014-1.141,0.014-1.707,0.085c-0.853,0-1.707,0-2.56,0.085
			h-0.597c-0.597,0-1.195,0.085-1.792,0.085h-0.171c-20.097,0.615-39.982,4.299-58.965,10.923
			C118.957,95.612,68.269,159.612,68.269,234.62v0.683c-0.018,5.416,0.267,10.829,0.853,16.213
			c8.418-4.54,18.353-5.345,27.392-2.219c2.238-12.437,6.052-24.538,11.349-36.011c1.28-2.901,2.645-5.717,4.181-8.533h50.091
			c0.428,0.014,0.857-0.014,1.28-0.085c27.579-1.25,52.92-15.537,68.267-38.485c8.113-10.875,14.848-22.713,20.053-35.243
			c0.597,1.451,1.28,2.987,2.048,4.693c11.264,24.747,38.229,69.12,87.552,69.12h58.624c3.263,6.018,6.086,12.263,8.448,18.688
			c3.107,8.397,5.477,17.048,7.083,25.856c3.597-1.237,7.374-1.872,11.179-1.877c5.664-0.032,11.244,1.377,16.213,4.096
			c0.586-5.613,0.871-11.253,0.853-16.896C443.736,138.535,360.536,60.54,257.624,59.772z"/>
		<path style="fill:#FFEB3A;" d="M408.408,223.441c-2.362-6.425-5.185-12.67-8.448-18.688h-58.624
			c-49.323,0-76.288-44.373-87.552-69.12c-0.768-1.706-1.451-3.243-2.048-4.693c-5.205,12.53-11.941,24.367-20.053,35.243
			c-15.346,22.949-40.688,37.235-68.267,38.485c-0.423,0.071-0.852,0.099-1.28,0.085h-50.091c-1.536,2.816-2.901,5.632-4.181,8.533
			c-5.297,11.473-9.111,23.574-11.349,36.011c-9.039-3.126-18.974-2.321-27.392,2.219c-0.586-5.384-0.871-10.797-0.853-16.213
			v-0.683c0-75.008,50.688-139.008,121.941-163.755c8.213-1.361,16.51-2.16,24.832-2.389h0.171c0.597,0,1.195-0.085,1.792-0.085
			h0.597c0.853-0.085,1.707-0.085,2.56-0.085c0.566-0.071,1.136-0.1,1.707-0.086h1.621v0.085
			C319.234,68.988,397.912,136.572,408.408,223.441z"/>
		<g>
			<path style="fill:#FFE0B2;" d="M307.202,427.047v69.461c-16.653,4.719-33.892,7.046-51.2,6.912
				c-17.308,0.134-34.547-2.193-51.2-6.912v-69.461c1.024,0.427,2.048,0.683,3.072,1.024c3.769,1.057,7.263,2.921,10.24,5.461
				c1.465,1.228,2.706,2.701,3.669,4.352c0.023-0.001,0.045,0.008,0.061,0.024c0.016,0.016,0.025,0.038,0.024,0.061
				c8.533,14.251,34.133,14.251,34.133,14.251s25.6,0,34.133-14.251c0-0.023,0.008-0.045,0.025-0.061
				c0.016-0.016,0.038-0.025,0.061-0.024c0.963-1.651,2.204-3.124,3.669-4.352c2.977-2.541,6.471-4.404,10.24-5.461
				C305.154,427.729,306.178,427.473,307.202,427.047z"/>
			<path style="fill:#FFE0B2;" d="M460.802,281.553c0.002,9.053-3.593,17.737-9.995,24.139s-15.085,9.997-24.139,9.995
				c-4.37,0.034-8.699-0.838-12.715-2.56c2.785-11.743,4.189-23.771,4.181-35.84c0.033-9.394-0.853-18.768-2.645-27.989
				c3.597-1.237,7.374-1.872,11.179-1.877c5.664-0.032,11.244,1.377,16.213,4.096C453.915,257.482,460.793,269.011,460.802,281.553
				L460.802,281.553z"/>
			<path style="fill:#FFE0B2;" d="M98.136,313.127c-4.046,1.722-8.403,2.594-12.8,2.56c-18.851,0-34.133-15.282-34.133-34.133
				c0-18.851,15.282-34.133,34.133-34.133c3.804,0.005,7.581,0.64,11.179,1.877c-1.792,9.221-2.678,18.596-2.645,27.989
				C93.848,289.361,95.28,301.394,98.136,313.127L98.136,313.127z"/>
		</g>
		<g>
			<path style="fill:#4482C3;" d="M199.632,300.753c0.354,2.892,0.326,5.819-0.085,8.704c-1.877,13.995-11.093,24.32-20.565,23.04
				c-9.472-1.195-15.701-13.568-13.824-27.648c1.877-13.995,11.093-24.32,20.565-23.04c0.583,0.023,1.159,0.138,1.707,0.341h0.085"
				/>
			<path style="fill:#4482C3;" d="M324.49,282.151h0.085c0.547-0.203,1.123-0.319,1.707-0.341c9.472-1.28,18.688,9.045,20.565,23.04
				c1.877,14.08-4.352,26.453-13.824,27.648c-9.472,1.28-18.688-9.045-20.565-23.04c-0.411-2.885-0.44-5.812-0.085-8.704"/>
		</g>
	</g>
	<g>
		<path d="M512.003,255.953c-0.045-107.271-66.965-203.138-167.645-240.161S130.593,8.442,61.062,90.127
			s-80.76,198.059-28.131,291.532c0.36,0.65,0.804,1.249,1.32,1.783c0.065,0.068,0.111,0.154,0.178,0.22
			c0.294,0.257,0.606,0.495,0.932,0.71c0.299,0.248,0.615,0.476,0.945,0.681l0.034,0.025
			c48.688,29.665,103.271,48.331,159.929,54.691v56.738c0,0.166,0.085,0.304,0.094,0.468c0.054,0.591,0.172,1.174,0.352,1.739
			c0.425,2.113,1.778,3.923,3.685,4.927c0.49,0.331,1.014,0.608,1.563,0.826c0.155,0.055,0.264,0.177,0.423,0.224
			c35.089,9.683,72.145,9.683,107.233,0c0.159-0.047,0.268-0.168,0.423-0.224c0.549-0.218,1.073-0.495,1.563-0.826
			c1.907-1.004,3.26-2.814,3.685-4.927c0.18-0.565,0.298-1.148,0.352-1.739c0.009-0.163,0.094-0.302,0.094-0.468v-56.739
			c56.637-6.385,111.201-25.041,159.892-54.667c0.495-0.284,0.96-0.617,1.387-0.995c0.178-0.146,0.377-0.26,0.542-0.419
			c0.132-0.131,0.229-0.295,0.353-0.434c0.45-0.485,0.842-1.022,1.167-1.598C500.669,343.279,512.01,299.987,512.003,255.953z
			 M256.002,17.02c84.54,0.01,162.782,44.688,205.756,117.49s44.283,162.893,3.443,236.913
			c-35.79,21.768-75.098,37.135-116.161,45.411c33.927-21.272,59.034-54.078,70.7-92.385c0.087-0.293,0.144-0.592,0.23-0.884
			c19.44,3.19,38.522-7.402,46.099-25.586c7.577-18.184,1.66-39.192-14.293-50.749c0.294-4.033,0.493-8.163,0.493-12.61
			c0-101.163-88.046-183.467-196.267-183.467S59.736,133.457,59.736,234.62c0,4.447,0.2,8.577,0.494,12.61
			c-16.243,11.448-22.346,32.647-14.677,50.979c7.669,18.332,27.049,28.871,46.605,25.343c0.716,2.409,1.353,4.842,2.183,7.217
			c12.56,35.673,36.842,66.036,68.881,86.131c-41.158-8.25-80.555-23.639-116.407-45.471
			C5.965,297.411,7.268,207.317,50.241,134.512S171.46,17.027,256.002,17.02z M224.617,428.009l-0.081-0.07
			c-4.032-3.762-8.896-6.517-14.195-8.04c-46.519-13.809-83.638-49.017-99.884-94.742c-12.757-36.709-10.282-76.999,6.872-111.871
			h44.807c46.931,0,75.216-36.281,89.598-62.716c14.368,26.413,42.656,62.716,89.602,62.716h53.34
			c9.861,19.891,14.971,41.799,14.927,64c-0.006,14.308-2.096,28.54-6.204,42.246c-14.9,48.424-53.121,86.129-101.742,100.371
			c-5.297,1.522-10.159,4.276-14.189,8.037l-0.08,0.069c-1.603,1.496-3.016,3.183-4.207,5.023c-0.129,0.183-0.25,0.367-0.362,0.558
			l-0.004-0.004c-4.892,8.166-21.425,10.075-26.792,10.1c-5.408-0.025-21.942-1.933-26.833-10.1l-0.004,0.004
			c-0.112-0.192-0.233-0.375-0.363-0.558C227.632,431.192,226.22,429.505,224.617,428.009z M76.802,234.62
			c0-91.754,80.387-166.4,179.2-166.4s179.2,74.646,179.2,166.4c0,1.778-0.072,3.43-0.123,5.117
			c-4.26-0.954-8.659-1.113-12.977-0.469c-3.213-13.417-8.125-26.37-14.617-38.544c-0.227-0.318-0.476-0.618-0.746-0.9
			c-0.328-0.494-0.708-0.952-1.133-1.367c-0.866-0.652-1.8-1.208-2.785-1.66c-0.543-0.169-1.101-0.282-1.667-0.337
			c-0.391-0.11-0.79-0.191-1.193-0.241h-58.625c-45.439,0-70.564-43.481-80.355-65.435c2.067-5.29,3.14-8.729,3.189-8.894
			c0.884-2.918,0.145-6.085-1.94-8.31c-2.085-2.225-5.198-3.168-8.167-2.475c-2.969,0.693-5.343,2.917-6.227,5.835
			c-0.013,0.046-1.308,4.279-3.963,10.687c-8.687,20.625-34.042,68.592-81.737,68.592h-50.092c-0.402,0.05-0.799,0.13-1.189,0.24
			c-0.569,0.055-1.13,0.169-1.676,0.339c-0.984,0.452-1.917,1.008-2.782,1.66c-0.424,0.413-0.803,0.87-1.13,1.363
			c-0.271,0.282-0.521,0.584-0.748,0.903c-6.492,12.174-11.404,25.126-14.617,38.544c-1.514-0.209-3.038-0.337-4.566-0.381
			c-2.825,0.004-5.642,0.289-8.41,0.851C76.875,238.05,76.802,236.398,76.802,234.62z M425.234,256.074
			c0.479-0.028,0.956-0.121,1.435-0.121c14.138,0,25.6,11.462,25.6,25.6s-11.462,25.6-25.6,25.6
			c-0.941-0.037-1.879-0.126-2.81-0.267c1.832-9.761,2.773-19.669,2.81-29.6C426.656,270.192,426.177,263.106,425.234,256.074
			L425.234,256.074z M85.336,255.953c0.479,0,0.956,0.093,1.435,0.121c-0.943,7.032-1.423,14.118-1.435,21.212
			c0.021,9.932,0.947,19.841,2.767,29.604c-0.917,0.138-1.84,0.226-2.767,0.263c-14.138,0-25.6-11.462-25.6-25.6
			S71.197,255.953,85.336,255.953z M298.669,489.843c-28.082,6.425-57.252,6.425-85.333,0v-48.245
			c0.216,0.019,0.426,0.05,0.642,0.069c0.144,0.201,0.344,0.357,0.47,0.57c0.137,0.229,0.283,0.454,0.438,0.667
			c10.938,17.346,38.033,17.85,41.117,17.85c3.083,0,30.179-0.504,41.117-17.85c0.154-0.212,0.3-0.438,0.438-0.667
			c0.127-0.213,0.327-0.369,0.47-0.57c0.216-0.019,0.427-0.049,0.642-0.069V489.843z"/>
		<path d="M245.957,346.137c2.432-3.062,6.128-4.848,10.039-4.85c3.91-0.002,7.609,1.779,10.045,4.837
			c2.668,3.835,7.923,4.812,11.791,2.192c3.868-2.62,4.91-7.863,2.338-11.763c-5.613-7.747-14.6-12.333-24.167-12.333
			c-9.567,0-18.554,4.586-24.167,12.333c-2.565,3.862-1.546,9.07,2.287,11.68C237.983,350.862,243.235,349.932,245.957,346.137
			L245.957,346.137z"/>
		<path d="M171.882,238.595c8.462,2.275,24.304,9.629,24.387,17.121c0.054,4.675,3.858,8.437,8.533,8.437h0.096
			c4.713-0.053,8.49-3.916,8.438-8.629c-0.258-22.875-33.263-32.4-37.021-33.413c-4.552-1.224-9.234,1.473-10.458,6.025
			C164.632,232.688,167.33,237.371,171.882,238.595L171.882,238.595z"/>
		<path d="M208.002,310.628c0.508-3.625,0.541-7.3,0.096-10.933c-0.027-0.213-0.156-0.379-0.198-0.587
			c-0.043-0.219,0.013-0.432-0.047-0.65c-2.546-8.702-7.389-16.558-14.021-22.741c-6.763-6.52-14.726-11.665-23.45-15.15
			c-4.421-1.605-9.306,0.67-10.924,5.086c-1.618,4.416,0.642,9.308,5.053,10.939c1.701,0.692,3.362,1.478,4.975,2.355
			c-1.16,0.905-2.249,1.898-3.258,2.97c-5.258,6.17-8.574,13.758-9.529,21.808c-1.653,9.957,0.679,20.165,6.492,28.417
			c3.509,4.778,8.785,7.953,14.65,8.817c0.896,0.12,1.8,0.18,2.704,0.179c6.955-0.212,13.484-3.396,17.933-8.746
			C203.728,326.234,207.041,318.662,208.002,310.628z M185.744,321.024c-0.905,1.013-3.308,3.329-5.692,3.008
			c-1.366-0.315-2.561-1.139-3.342-2.304c-2.997-4.662-4.104-10.292-3.096-15.742c0.517-4.662,2.374-9.075,5.346-12.704
			c1.255-1.639,3.111-2.709,5.158-2.973c3.188,3.459,5.59,7.568,7.04,12.043c0.217,1.985,0.194,3.988-0.068,5.967
			C190.573,312.982,188.716,317.395,185.744,321.024L185.744,321.024z"/>
		<path d="M307.107,264.153h0.096c4.675-0.001,8.48-3.763,8.533-8.437c0.079-7.175,14.608-14.458,24.4-17.125
			c4.541-1.236,7.225-5.914,5.999-10.458c-1.226-4.544-5.898-7.237-10.445-6.021c-3.758,1.012-36.763,10.537-37.021,33.413
			C298.616,260.237,302.394,264.1,307.107,264.153L307.107,264.153z"/>
		<path d="M341.623,260.566c-8.704,3.473-16.651,8.603-23.4,15.104c-6.655,6.192-11.516,14.064-14.071,22.788
			c-0.06,0.217-0.004,0.428-0.047,0.645c-0.042,0.21-0.172,0.377-0.199,0.593c-0.444,3.622-0.413,7.286,0.092,10.9
			c0.958,8.046,4.273,15.629,9.529,21.796c4.441,5.343,10.956,8.529,17.9,8.754c0.892,0.001,1.783-0.059,2.667-0.179
			c5.891-0.851,11.194-4.03,14.721-8.825c5.815-8.256,8.146-18.468,6.492-28.429c-0.958-8.046-4.273-15.629-9.529-21.796
			c-1.008-1.072-2.095-2.065-3.253-2.973c1.611-0.873,3.269-1.658,4.965-2.352c4.421-1.623,6.692-6.521,5.073-10.943
			C350.943,261.225,346.047,258.951,341.623,260.566L341.623,260.566z M335.294,321.728c-0.796,1.183-2.019,2.012-3.412,2.313
			c-2.229-0.119-4.29-1.225-5.621-3.017c-2.978-3.639-4.837-8.064-5.35-12.738c-0.259-1.968-0.281-3.959-0.065-5.932
			c1.45-4.476,3.853-8.585,7.042-12.044c2.04,0.281,3.891,1.347,5.156,2.972c2.97,3.626,4.827,8.034,5.346,12.692
			C339.4,311.428,338.293,317.062,335.294,321.728L335.294,321.728z"/>
		<path d="M303.736,391.749c2.785,1.239,6.02,0.897,8.485-0.896c2.465-1.793,3.787-4.765,3.467-7.796
			c-0.32-3.031-2.233-5.662-5.018-6.9c-17.441-6.636-36.014-9.785-54.667-9.271c-18.653-0.515-37.226,2.635-54.667,9.271
			c-4.305,1.915-6.244,6.957-4.329,11.262s6.957,6.244,11.262,4.329c15.269-5.617,31.471-8.263,47.733-7.796
			C272.265,383.486,288.467,386.132,303.736,391.749z"/>
	</g>
</g>
<g>
</g>
<g>
</g>
<g>
</g>
<g>
</g>
<g>
</g>
<g>
</g>
<g>
</g>
<g>
</g>
<g>
</g>
<g>
</g>
<g>
</g>
<g>
</g>
<g>
</g>
<g>
</g>
<g>
</g>
</svg>
