<?xml version="1.0" encoding="iso-8859-1"?>
<!-- Generator: Adobe Illustrator 19.0.0, SVG Export Plug-In . SVG Version: 6.00 Build 0)  -->
<svg version="1.1" id="Capa_1" xmlns="http://www.w3.org/2000/svg" xmlns:xlink="http://www.w3.org/1999/xlink" x="0px" y="0px"
	 viewBox="0 0 512.028 512.028" style="enable-background:new 0 0 512.028 512.028;" xml:space="preserve">
<g transform="translate(-1)">
	<g transform="translate(1)">
		<path style="fill:#C52828;" d="M503.48,255.964c0.048,42.599-10.916,84.487-31.829,121.6c-0.085,0-0.085,0.085-0.171,0.085
			c-37.635,23.214-79.144,39.46-122.539,47.957c-13.785,2.936-27.713,5.158-41.728,6.656h-102.4
			c-58.174-5.581-114.332-24.251-164.267-54.613c-0.085,0-0.085-0.085-0.171-0.085C-10.574,287.2,0.235,174.65,67.451,95.634
			s176.576-107.732,273.941-71.93S503.464,152.226,503.48,255.964L503.48,255.964z"/>
		<path style="fill:#F44335;" d="M469.347,264.497c0.048,42.599-10.916,84.487-31.829,121.6c-0.085,0-0.085,0.085-0.171,0.085
			c-27.534,17.109-57.278,30.373-88.405,39.424c-13.785,2.936-27.713,5.158-41.728,6.656h-102.4
			c-58.174-5.581-114.332-24.251-164.267-54.613c-0.085,0-0.085-0.085-0.171-0.085C4.046,312.996-1.478,235.557,25.318,166.485
			s83.1-122.525,153.469-145.7c72.05-12.692,146.024,7.128,202.076,54.142S469.307,191.338,469.347,264.497z"/>
		<path style="fill:#FFE0B2;" d="M415.501,249.308c-2.81-15.57-8.051-30.602-15.531-44.544h-58.624
			c-49.323,0-76.288-44.373-87.552-69.12c-0.768-1.706-1.451-3.243-2.048-4.693c-4.812,11.526-10.878,22.486-18.091,32.683
			c-10.349,15.204-24.621,27.324-41.301,35.072c-9.563,4.02-19.835,6.081-30.208,6.059h-50.091
			c-2.942,5.533-5.564,11.232-7.851,17.067c-3.434,8.892-6.006,18.093-7.68,27.477c-1.792,9.221-2.678,18.596-2.645,27.989
			c-0.022,12.075,1.411,24.108,4.267,35.84c1.122,5.031,2.547,9.989,4.267,14.848c1.963,5.547,4.181,10.923,6.656,16.213
			c1.536,3.157,3.242,6.315,4.949,9.472l3.584,5.888c2.133,3.328,4.352,6.656,6.656,9.813c1.621,2.133,3.328,4.267,5.035,6.4
			c1.707,2.133,3.584,4.267,5.461,6.229c0.512,0.597,0.939,1.109,1.451,1.621c1.451,1.536,2.901,3.072,4.437,4.437
			c0.353,0.466,0.754,0.895,1.195,1.28c0.341,0.341,0.683,0.597,1.024,0.939c4.189,4.005,8.606,7.766,13.227,11.264
			c1.621,1.28,3.243,2.475,4.949,3.669c0.853,0.597,1.792,1.195,2.645,1.792c2.219,1.536,4.437,2.987,6.741,4.352
			c0.189,0.083,0.363,0.199,0.513,0.341c2.645,1.536,5.291,2.987,7.936,4.437c2.731,1.451,5.547,2.816,8.363,4.096
			c2.645,1.195,5.205,2.304,7.936,3.328c0.341,0.171,0.768,0.341,1.195,0.512c2.56,1.024,5.205,1.963,7.936,2.816
			c0.171,0.085,0.341,0.085,0.512,0.171c1.024,0.427,2.048,0.683,3.072,1.024c3.769,1.057,7.263,2.921,10.24,5.461
			c1.465,1.228,2.706,2.701,3.669,4.352c0.023,0,0.045,0.008,0.061,0.025c0.016,0.016,0.025,0.038,0.024,0.061
			c8.533,14.251,34.133,14.251,34.133,14.251c4.076-0.092,8.134-0.578,12.117-1.451c6.782-1.055,13.136-3.981,18.347-8.448
			c1.426-1.267,2.661-2.733,3.669-4.352c0-0.023,0.008-0.045,0.025-0.061c0.016-0.016,0.038-0.025,0.061-0.024
			c0.963-1.651,2.204-3.124,3.669-4.352c2.977-2.541,6.471-4.404,10.24-5.461c1.024-0.341,2.048-0.597,3.072-1.024
			c9.284-3,18.28-6.827,26.88-11.435c0.085,0.085,0.085,0.085,0.085,0c37.187-19.711,65.026-53.382,77.397-93.611
			c0.853-2.901,1.707-5.888,2.304-8.875h0.085c2.785-11.743,4.189-23.772,4.181-35.84
			C418.179,267.904,417.293,258.529,415.501,249.308z"/>
		<path style="fill:#FFECB3;" d="M389.901,266.375c-2.81-15.57-8.051-30.602-15.531-44.544h-58.624
			c-42.667,0-68.608-33.195-82.091-58.197c-2.133-3.925-3.925-7.595-5.461-10.923c-0.768-1.707-1.451-3.243-2.048-4.693
			c-7.745,18.994-19.238,36.233-33.792,50.688c-14.882,14.681-34.904,22.977-55.808,23.125h-32.341
			c-3.434,8.892-6.006,18.093-7.68,27.477c-1.792,9.221-2.678,18.596-2.645,27.989c-0.022,12.075,1.411,24.108,4.267,35.84
			c1.122,5.031,2.547,9.989,4.267,14.848c1.963,5.547,4.181,10.923,6.656,16.213c1.536,3.157,3.242,6.315,4.949,9.472l3.584,5.888
			c2.133,3.328,4.352,6.656,6.656,9.813c1.621,2.133,3.328,4.267,5.035,6.4c1.707,2.133,3.584,4.267,5.461,6.229
			c0.512,0.597,0.939,1.109,1.451,1.621c1.451,1.536,2.901,3.072,4.437,4.437c0.353,0.466,0.754,0.895,1.195,1.28
			c0.341,0.341,0.683,0.597,1.024,0.939c4.189,4.005,8.606,7.766,13.227,11.264c1.621,1.28,3.243,2.475,4.949,3.669
			c0.853,0.597,1.792,1.195,2.645,1.792c2.219,1.536,4.437,2.987,6.741,4.352c0.189,0.083,0.363,0.199,0.513,0.341
			c2.645,1.536,5.291,2.987,7.936,4.437c2.731,1.451,5.547,2.816,8.363,4.096c2.645,1.195,5.205,2.304,7.936,3.328
			c0.341,0.171,0.768,0.341,1.195,0.512c2.56,1.024,5.205,1.963,7.936,2.816c0.171,0.085,0.341,0.085,0.512,0.171
			c1.024,0.427,2.048,0.683,3.072,1.024c3.769,1.057,7.263,2.921,10.24,5.461c1.465,1.228,2.706,2.701,3.669,4.352
			c0.023,0,0.045,0.008,0.061,0.025c0.016,0.016,0.025,0.038,0.024,0.061c8.533,14.251,34.133,14.251,34.133,14.251
			c4.076-0.092,8.134-0.578,12.117-1.451l0.171-0.171c2.977-2.541,6.471-4.404,10.24-5.461c1.024-0.341,2.048-0.597,3.072-1.024
			c1.621-0.512,3.243-1.109,4.864-1.792c17.315-6.043,33.432-15.084,47.616-26.709c0.085,0.085,0.085,0.085,0.085,0
			c24.568-19.728,42.618-46.403,51.797-76.544c0.853-2.901,1.707-5.888,2.304-8.875h0.085c2.785-11.743,4.189-23.771,4.181-35.84
			C392.579,284.97,391.693,275.596,389.901,266.375z"/>
		<path style="fill:#C52828;" d="M257.635,59.783v-0.085h-1.621c-0.57-0.014-1.141,0.014-1.707,0.085c-0.853,0-1.707,0-2.56,0.085
			h-0.597c-0.597,0-1.195,0.085-1.792,0.085h-0.171c-20.097,0.615-39.982,4.299-58.965,10.923
			C118.968,95.623,68.28,159.623,68.28,234.631v0.683c-0.018,5.416,0.267,10.829,0.853,16.213c8.418-4.54,18.353-5.345,27.392-2.219
			c2.238-12.437,6.052-24.538,11.349-36.011c1.28-2.901,2.645-5.717,4.181-8.533h50.091c0.428,0.014,0.857-0.014,1.28-0.085
			c27.579-1.25,52.92-15.537,68.267-38.485c8.113-10.875,14.848-22.713,20.053-35.243c0.597,1.451,1.28,2.987,2.048,4.693
			c11.264,24.747,38.229,69.12,87.552,69.12h58.624c3.263,6.018,6.086,12.263,8.448,18.688c3.107,8.397,5.477,17.048,7.083,25.856
			c3.597-1.238,7.374-1.872,11.179-1.877c5.664-0.032,11.244,1.377,16.213,4.096c0.586-5.613,0.871-11.253,0.853-16.896
			C443.747,138.545,360.547,60.551,257.635,59.783z"/>
		<path style="fill:#F44335;" d="M408.419,223.452c-2.362-6.425-5.185-12.67-8.448-18.688h-58.624
			c-49.323,0-76.288-44.373-87.552-69.12c-0.768-1.706-1.451-3.243-2.048-4.693c-5.205,12.53-11.941,24.367-20.053,35.243
			c-15.346,22.949-40.688,37.235-68.267,38.485c-0.423,0.071-0.852,0.099-1.28,0.085h-50.091c-1.536,2.816-2.901,5.632-4.181,8.533
			c-5.297,11.473-9.111,23.574-11.349,36.011c-9.039-3.126-18.974-2.321-27.392,2.219c-0.586-5.384-0.871-10.797-0.853-16.213
			v-0.683c0-75.008,50.688-139.008,121.941-163.755c8.213-1.361,16.51-2.16,24.832-2.389h0.171c0.597,0,1.195-0.085,1.792-0.085
			h0.597c0.853-0.085,1.707-0.085,2.56-0.085c0.566-0.071,1.136-0.1,1.707-0.086h1.621v0.085
			C319.245,68.999,397.923,136.583,408.419,223.452z"/>
		<g>
			<path style="fill:#FFE0B2;" d="M307.213,427.057v69.461c-16.653,4.719-33.892,7.046-51.2,6.912
				c-17.308,0.134-34.547-2.193-51.2-6.912v-69.461c1.024,0.427,2.048,0.683,3.072,1.024c3.769,1.057,7.263,2.921,10.24,5.461
				c1.465,1.228,2.706,2.701,3.669,4.352c0.023-0.001,0.045,0.008,0.061,0.024c0.016,0.016,0.025,0.038,0.024,0.061
				c8.533,14.251,34.133,14.251,34.133,14.251s25.6,0,34.133-14.251c0-0.023,0.008-0.045,0.025-0.061
				c0.016-0.016,0.038-0.025,0.061-0.024c0.963-1.651,2.204-3.124,3.669-4.352c2.977-2.541,6.471-4.404,10.24-5.461
				C305.165,427.74,306.189,427.484,307.213,427.057z"/>
			<path style="fill:#FFE0B2;" d="M460.813,281.564c0.002,9.053-3.593,17.737-9.995,24.139s-15.085,9.997-24.139,9.995
				c-4.37,0.034-8.699-0.838-12.715-2.56c2.785-11.743,4.189-23.771,4.181-35.84c0.033-9.394-0.853-18.768-2.645-27.989
				c3.597-1.238,7.374-1.872,11.179-1.877c5.664-0.032,11.244,1.377,16.213,4.096C453.926,257.493,460.804,269.022,460.813,281.564
				L460.813,281.564z"/>
			<path style="fill:#FFE0B2;" d="M98.147,313.137c-4.046,1.722-8.403,2.594-12.8,2.56c-18.851,0-34.133-15.282-34.133-34.133
				s15.282-34.133,34.133-34.133c3.804,0.005,7.581,0.64,11.179,1.877c-1.792,9.221-2.678,18.596-2.645,27.989
				C93.859,289.372,95.291,301.405,98.147,313.137L98.147,313.137z"/>
		</g>
		<ellipse style="fill:#37474F;" cx="256.013" cy="362.631" rx="42.667" ry="38.4"/>
	</g>
	<g>
		<path d="M478.974,383.192c0.425-0.466,0.797-0.978,1.109-1.526c60.612-107.646,35.703-243.223-59.214-322.294
			S188.107-19.707,93.181,59.354S-26.67,273.988,33.93,381.641c0.361,0.659,0.808,1.267,1.329,1.808
			c0.066,0.07,0.113,0.157,0.18,0.224c0.273,0.237,0.561,0.457,0.862,0.657c0.318,0.268,0.656,0.513,1.009,0.732l0.02,0.014
			c48.692,29.674,103.283,48.345,159.949,54.705v56.737c0,0.167,0.085,0.306,0.095,0.471c0.054,0.587,0.171,1.166,0.349,1.728
			c0.11,0.506,0.266,1.001,0.467,1.479c0.65,1.482,1.784,2.7,3.216,3.454c0.491,0.332,1.017,0.61,1.568,0.829
			c0.155,0.055,0.264,0.176,0.423,0.223c35.089,9.683,72.145,9.683,107.233,0c0.159-0.047,0.268-0.168,0.422-0.223
			c0.552-0.219,1.078-0.497,1.57-0.83c0.452-0.248,0.88-0.536,1.279-0.862c1.239-1.047,2.086-2.483,2.403-4.073
			c0.177-0.56,0.294-1.138,0.348-1.724c0.009-0.165,0.094-0.304,0.094-0.472v-56.738c56.632-6.381,111.192-25.035,159.877-54.661
			c0.554-0.311,1.071-0.683,1.542-1.11c0.127-0.108,0.274-0.189,0.394-0.305C478.716,383.551,478.829,383.359,478.974,383.192z
			 M257.013,17.031c84.539,0.011,162.78,44.689,205.755,117.49c42.974,72.801,44.285,162.891,3.447,236.911
			c-35.79,21.77-75.099,37.138-116.164,45.414c33.928-21.272,59.035-54.079,70.703-92.386c0.087-0.292,0.144-0.591,0.23-0.884
			c19.439,3.187,38.52-7.405,46.095-25.588c7.575-18.184,1.659-39.19-14.294-50.746c0.296-4.054,0.493-8.19,0.493-12.61
			c0-101.163-88.042-183.467-196.267-183.467S60.747,133.468,60.747,234.631c0,4.42,0.198,8.557,0.494,12.61
			c-16.242,11.448-22.345,32.647-14.676,50.979c7.669,18.332,27.049,28.87,46.605,25.343c0.717,2.411,1.354,4.845,2.185,7.221
			c12.56,35.671,36.839,66.032,68.876,86.127c-41.158-8.25-80.554-23.639-116.406-45.471
			C6.976,297.422,8.279,207.328,51.252,134.522S172.471,17.037,257.013,17.031z M225.622,428.019l-0.072-0.063
			c-4.032-3.763-8.895-6.52-14.195-8.046c-46.52-13.807-83.639-49.016-99.883-94.742c-12.762-36.708-10.288-76.999,6.868-111.871
			h44.807c46.923,0,75.211-36.284,89.598-62.719c14.373,26.413,42.665,62.719,89.602,62.719h53.341
			c9.862,19.89,14.972,41.799,14.926,64c-0.005,14.308-2.094,28.539-6.2,42.246c-14.903,48.428-53.131,86.134-101.758,100.371
			c-5.316,1.531-10.193,4.301-14.229,8.084l-0.018,0.015c-1.605,1.496-3.02,3.184-4.211,5.027c-0.133,0.183-0.25,0.371-0.367,0.562
			l-0.009-0.004c-4.883,8.166-21.425,10.075-26.792,10.1c-5.4-0.025-21.942-1.933-26.825-10.1l-0.009,0.004
			c-0.117-0.192-0.233-0.379-0.367-0.562C228.637,431.2,227.224,429.514,225.622,428.019z M77.813,234.631
			c0-91.754,80.392-166.4,179.2-166.4s179.2,74.646,179.2,166.4c0,1.771-0.072,3.428-0.123,5.117
			c-4.259-0.953-8.658-1.113-12.975-0.47c-3.212-13.418-8.125-26.37-14.618-38.543c-0.226-0.318-0.475-0.619-0.746-0.901
			c-0.327-0.492-0.705-0.949-1.127-1.363c-0.416-0.345-0.866-0.648-1.342-0.904c-0.45-0.298-0.928-0.551-1.427-0.755
			c-0.576-0.183-1.169-0.303-1.771-0.357c-0.365-0.101-0.737-0.176-1.113-0.225h-58.625c-45.431,0-70.56-43.494-80.354-65.442
			c2.065-5.285,3.14-8.721,3.187-8.887c1.367-4.51-1.181-9.275-5.692-10.642c-4.51-1.367-9.275,1.181-10.642,5.692
			c-0.009,0.046-1.308,4.279-3.967,10.687c-8.692,20.621-34.05,68.592-81.733,68.592h-50.092c-0.376,0.048-0.749,0.124-1.115,0.225
			c-0.599,0.055-1.19,0.174-1.764,0.356c-0.506,0.205-0.989,0.461-1.444,0.763c-0.469,0.254-0.912,0.552-1.323,0.892
			c-0.626,0.756-1.253,1.512-1.88,2.268c-6.494,12.173-11.407,25.126-14.619,38.543c-1.514-0.209-3.037-0.336-4.565-0.381
			c-2.825,0.004-5.642,0.289-8.41,0.851C77.885,238.059,77.813,236.402,77.813,234.631z M426.246,256.085
			c0.478-0.028,0.955-0.121,1.434-0.121c14.138,0,25.6,11.462,25.6,25.6s-11.462,25.6-25.6,25.6
			c-0.94-0.036-1.878-0.125-2.808-0.266c1.831-9.761,2.771-19.669,2.808-29.601C427.667,270.203,427.188,263.117,426.246,256.085z
			 M86.347,255.964c0.479,0,0.956,0.093,1.435,0.121c-0.943,7.032-1.423,14.118-1.435,21.212c0.021,9.932,0.946,19.841,2.766,29.604
			c-0.916,0.138-1.84,0.226-2.766,0.263c-14.138,0-25.6-11.462-25.6-25.6S72.208,255.964,86.347,255.964L86.347,255.964z
			 M299.68,489.853c-28.082,6.425-57.252,6.425-85.333,0v-48.244c0.217,0.019,0.427,0.049,0.643,0.069
			c0.145,0.202,0.346,0.358,0.474,0.573c0.132,0.229,0.276,0.45,0.433,0.662c10.942,17.346,38.033,17.85,41.117,17.85
			c3.083,0,30.175-0.504,41.117-17.85c0.157-0.212,0.302-0.434,0.433-0.662c0.128-0.215,0.329-0.371,0.473-0.573
			c0.217-0.019,0.427-0.05,0.644-0.069V489.853z"/>
		<path d="M247.047,294.831c2.453-3.013,6.139-4.753,10.025-4.733c3.886,0.02,7.553,1.799,9.975,4.837
			c2.659,3.86,7.933,4.853,11.814,2.225c3.881-2.628,4.916-7.894,2.319-11.796c-5.613-7.747-14.6-12.333-24.167-12.333
			c-9.567,0-18.554,4.586-24.167,12.333c-1.716,2.537-1.941,5.798-0.59,8.546c1.351,2.748,4.071,4.562,7.128,4.752
			C242.441,298.852,245.365,297.39,247.047,294.831z"/>
		<path d="M215.814,254.797c4.453,1.529,9.303-0.837,10.838-5.287s-0.823-9.304-5.272-10.846
			c-14.192-4.825-29.804-2.984-42.483,5.011c-3.388-0.7-6.522-2.308-9.067-4.653c-2.915-3.644-8.215-4.271-11.9-1.408
			c-3.684,2.863-4.386,8.154-1.575,11.879c2.073,2.465,4.54,4.57,7.3,6.231c-1.624,1.686-2.605,2.874-2.792,3.107
			c-2.932,3.674-2.34,9.027,1.324,11.972c3.663,2.945,9.018,2.372,11.977-1.28C174.922,268.593,192.922,246.897,215.814,254.797z"/>
		<path d="M298.214,254.797c22.908-7.904,40.842,13.733,41.65,14.721c2.952,3.671,8.32,4.255,11.992,1.304
			c3.672-2.951,4.257-8.319,1.308-11.992c-0.185-0.233-1.165-1.421-2.79-3.108c2.759-1.66,5.225-3.765,7.298-6.229
			c2.778-3.674,2.1-8.896-1.525-11.738c-3.664-2.868-8.941-2.317-11.933,1.246c-2.547,2.353-5.687,3.967-9.083,4.668
			c-12.681-7.991-28.292-9.83-42.483-5.005c-4.455,1.537-6.821,6.395-5.283,10.85C288.901,253.969,293.758,256.334,298.214,254.797
			L298.214,254.797z"/>
		<path d="M308.213,362.631c-1.258-27.062-24.131-48.029-51.2-46.933c-27.069-1.096-49.942,19.872-51.2,46.933
			c1.258,27.062,24.131,48.029,51.2,46.933C284.082,410.66,306.956,389.692,308.213,362.631z M222.88,362.631
			c1.273-17.626,16.494-30.944,34.133-29.867c17.639-1.078,32.86,12.241,34.133,29.867c-1.273,17.626-16.494,30.944-34.133,29.867
			C239.374,393.575,224.153,380.257,222.88,362.631z"/>
	</g>
</g>
<g>
</g>
<g>
</g>
<g>
</g>
<g>
</g>
<g>
</g>
<g>
</g>
<g>
</g>
<g>
</g>
<g>
</g>
<g>
</g>
<g>
</g>
<g>
</g>
<g>
</g>
<g>
</g>
<g>
</g>
</svg>
