<?xml version="1.0" encoding="iso-8859-1"?>
<!-- Generator: Adobe Illustrator 19.0.0, SVG Export Plug-In . SVG Version: 6.00 Build 0)  -->
<svg version="1.1" id="Capa_1" xmlns="http://www.w3.org/2000/svg" xmlns:xlink="http://www.w3.org/1999/xlink" x="0px" y="0px"
	 viewBox="0 0 512.003 512.003" style="enable-background:new 0 0 512.003 512.003;" xml:space="preserve">
<g>
	<g>
		<path style="fill:#F57C00;" d="M503.469,255.958c0.048,42.599-10.916,84.487-31.829,121.6c-0.085,0-0.085,0.085-0.171,0.085
			c-37.635,23.214-79.144,39.46-122.539,47.957c-13.785,2.936-27.713,5.158-41.728,6.656h-102.4
			c-58.174-5.581-114.332-24.251-164.267-54.613c-0.085,0-0.085-0.085-0.171-0.085c-50.95-90.364-40.142-202.914,27.075-281.93
			s176.576-107.732,273.941-71.93S503.453,152.22,503.469,255.958L503.469,255.958z"/>
		<path style="fill:#FF9801;" d="M469.336,264.491c0.048,42.599-10.916,84.487-31.829,121.6c-0.085,0-0.085,0.085-0.171,0.085
			c-27.534,17.109-57.278,30.373-88.405,39.424c-13.785,2.936-27.713,5.158-41.728,6.656h-102.4
			c-58.174-5.581-114.332-24.251-164.267-54.613c-0.085,0-0.085-0.085-0.171-0.085C4.035,312.99-1.489,235.551,25.307,166.479
			s83.1-122.525,153.469-145.7c72.05-12.692,146.024,7.128,202.076,54.142S469.296,191.332,469.336,264.491z"/>
		<path style="fill:#FFE0B2;" d="M415.49,249.302c-2.81-15.57-8.051-30.602-15.531-44.544h-58.624
			c-49.323,0-76.288-44.373-87.552-69.12c-0.768-1.706-1.451-3.243-2.048-4.693c-4.812,11.526-10.878,22.486-18.091,32.683
			c-10.349,15.204-24.621,27.324-41.301,35.072c-9.563,4.02-19.835,6.081-30.208,6.059h-50.091
			c-2.942,5.533-5.564,11.232-7.851,17.067c-3.434,8.892-6.006,18.093-7.68,27.477c-1.792,9.221-2.678,18.596-2.645,27.989
			c-0.022,12.075,1.411,24.108,4.267,35.84c1.122,5.031,2.547,9.989,4.267,14.848c1.963,5.547,4.181,10.923,6.656,16.213
			c1.536,3.157,3.242,6.315,4.949,9.472l3.584,5.888c2.133,3.328,4.352,6.656,6.656,9.813c1.621,2.133,3.328,4.267,5.035,6.4
			c1.707,2.133,3.584,4.267,5.461,6.229c0.512,0.597,0.939,1.109,1.451,1.621c1.451,1.536,2.901,3.072,4.437,4.437
			c0.353,0.466,0.754,0.895,1.195,1.28c0.341,0.341,0.683,0.597,1.024,0.939c4.189,4.005,8.606,7.766,13.227,11.264
			c1.621,1.28,3.243,2.475,4.949,3.669c0.853,0.597,1.792,1.195,2.645,1.792c2.219,1.536,4.437,2.987,6.741,4.352
			c0.189,0.083,0.363,0.199,0.513,0.341c2.645,1.536,5.291,2.987,7.936,4.437c2.731,1.451,5.547,2.816,8.363,4.096
			c2.645,1.195,5.205,2.304,7.936,3.328c0.341,0.171,0.768,0.341,1.195,0.512c2.56,1.024,5.205,1.963,7.936,2.816
			c0.171,0.085,0.341,0.085,0.512,0.171c1.024,0.427,2.048,0.683,3.072,1.024c3.769,1.057,7.263,2.921,10.24,5.461
			c1.465,1.228,2.706,2.701,3.669,4.352c0.023,0,0.045,0.008,0.061,0.025s0.025,0.038,0.024,0.061
			c8.533,14.251,34.133,14.251,34.133,14.251c4.076-0.092,8.134-0.578,12.117-1.451c6.782-1.055,13.136-3.981,18.347-8.448
			c1.426-1.267,2.661-2.733,3.669-4.352c0-0.023,0.008-0.045,0.025-0.061c0.016-0.016,0.038-0.025,0.061-0.024
			c0.963-1.651,2.204-3.124,3.669-4.352c2.977-2.541,6.471-4.404,10.24-5.461c1.024-0.341,2.048-0.597,3.072-1.024
			c9.284-3,18.28-6.827,26.88-11.435c0.085,0.085,0.085,0.085,0.085,0c37.187-19.711,65.026-53.382,77.397-93.611
			c0.853-2.901,1.707-5.888,2.304-8.875h0.085c2.785-11.743,4.189-23.772,4.181-35.84
			C418.168,267.898,417.282,258.523,415.49,249.302z"/>
		<path style="fill:#FFECB3;" d="M389.89,266.369c-2.81-15.57-8.051-30.602-15.531-44.544h-58.624
			c-42.667,0-68.608-33.195-82.091-58.197c-2.133-3.925-3.925-7.595-5.461-10.923c-0.768-1.707-1.451-3.243-2.048-4.693
			c-7.745,18.994-19.238,36.233-33.792,50.688c-14.882,14.681-34.904,22.977-55.808,23.125h-32.341
			c-3.434,8.892-6.006,18.093-7.68,27.477c-1.792,9.221-2.678,18.596-2.645,27.989c-0.022,12.075,1.411,24.108,4.267,35.84
			c1.122,5.031,2.547,9.989,4.267,14.848c1.963,5.547,4.181,10.923,6.656,16.213c1.536,3.157,3.242,6.315,4.949,9.472l3.584,5.888
			c2.133,3.328,4.352,6.656,6.656,9.813c1.621,2.133,3.328,4.267,5.035,6.4c1.707,2.133,3.584,4.267,5.461,6.229
			c0.512,0.597,0.939,1.109,1.451,1.621c1.451,1.536,2.901,3.072,4.437,4.437c0.353,0.466,0.754,0.895,1.195,1.28
			c0.341,0.341,0.683,0.597,1.024,0.939c4.189,4.005,8.606,7.766,13.227,11.264c1.621,1.28,3.243,2.475,4.949,3.669
			c0.853,0.597,1.792,1.195,2.645,1.792c2.219,1.536,4.437,2.987,6.741,4.352c0.189,0.083,0.363,0.199,0.513,0.341
			c2.645,1.536,5.291,2.987,7.936,4.437c2.731,1.451,5.547,2.816,8.363,4.096c2.645,1.195,5.205,2.304,7.936,3.328
			c0.341,0.171,0.768,0.341,1.195,0.512c2.56,1.024,5.205,1.963,7.936,2.816c0.171,0.085,0.341,0.085,0.512,0.171
			c1.024,0.427,2.048,0.683,3.072,1.024c3.769,1.057,7.263,2.921,10.24,5.461c1.465,1.228,2.706,2.701,3.669,4.352
			c0.023,0,0.045,0.008,0.061,0.025s0.025,0.038,0.024,0.061c8.533,14.251,34.133,14.251,34.133,14.251
			c4.076-0.092,8.134-0.578,12.117-1.451l0.171-0.171c2.977-2.541,6.471-4.404,10.24-5.461c1.024-0.341,2.048-0.597,3.072-1.024
			c1.621-0.512,3.243-1.109,4.864-1.792c17.315-6.043,33.432-15.084,47.616-26.709c0.085,0.085,0.085,0.085,0.085,0
			c24.568-19.728,42.618-46.403,51.797-76.544c0.853-2.901,1.707-5.888,2.304-8.875h0.085c2.785-11.743,4.189-23.771,4.181-35.84
			C392.568,284.964,391.682,275.59,389.89,266.369z"/>
		<path style="fill:#F57C00;" d="M257.624,59.777v-0.085h-1.621c-0.57-0.014-1.141,0.014-1.707,0.085c-0.853,0-1.707,0-2.56,0.085
			h-0.597c-0.597,0-1.195,0.085-1.792,0.085h-0.171c-20.097,0.615-39.982,4.299-58.965,10.923
			C118.957,95.617,68.269,159.617,68.269,234.625v0.683c-0.018,5.416,0.267,10.829,0.853,16.213
			c8.418-4.54,18.353-5.345,27.392-2.219c2.238-12.437,6.052-24.538,11.349-36.011c1.28-2.901,2.645-5.717,4.181-8.533h50.091
			c0.428,0.014,0.857-0.014,1.28-0.085c27.579-1.25,52.92-15.537,68.267-38.485c8.113-10.875,14.848-22.713,20.053-35.243
			c0.597,1.451,1.28,2.987,2.048,4.693c11.264,24.747,38.229,69.12,87.552,69.12h58.624c3.263,6.018,6.086,12.263,8.448,18.688
			c3.107,8.397,5.477,17.048,7.083,25.856c3.597-1.237,7.374-1.872,11.179-1.877c5.664-0.032,11.244,1.377,16.213,4.096
			c0.586-5.613,0.871-11.253,0.853-16.896C443.736,138.539,360.536,60.545,257.624,59.777z"/>
		<path style="fill:#FF9801;" d="M408.408,223.446c-2.362-6.425-5.185-12.67-8.448-18.688h-58.624
			c-49.323,0-76.288-44.373-87.552-69.12c-0.768-1.706-1.451-3.243-2.048-4.693c-5.205,12.53-11.941,24.367-20.053,35.243
			c-15.346,22.949-40.688,37.235-68.267,38.485c-0.423,0.071-0.852,0.099-1.28,0.085h-50.091c-1.536,2.816-2.901,5.632-4.181,8.533
			c-5.297,11.473-9.111,23.574-11.349,36.011c-9.039-3.126-18.974-2.321-27.392,2.219c-0.586-5.384-0.871-10.797-0.853-16.213
			v-0.683c0-75.008,50.688-139.008,121.941-163.755c8.213-1.361,16.51-2.16,24.832-2.389h0.171c0.597,0,1.195-0.085,1.792-0.085
			h0.597c0.853-0.085,1.707-0.085,2.56-0.085c0.566-0.071,1.136-0.1,1.707-0.086h1.621v0.085
			C319.234,68.993,397.912,136.577,408.408,223.446z"/>
		<g>
			<path style="fill:#FFE0B2;" d="M307.202,427.051v69.461c-16.653,4.719-33.892,7.046-51.2,6.912
				c-17.308,0.134-34.547-2.193-51.2-6.912v-69.461c1.024,0.427,2.048,0.683,3.072,1.024c3.769,1.057,7.263,2.921,10.24,5.461
				c1.465,1.228,2.706,2.701,3.669,4.352c0.023-0.001,0.045,0.008,0.061,0.024c0.016,0.016,0.025,0.038,0.024,0.061
				c8.533,14.251,34.133,14.251,34.133,14.251s25.6,0,34.133-14.251c0-0.023,0.008-0.045,0.025-0.061
				c0.016-0.016,0.038-0.025,0.061-0.024c0.963-1.651,2.204-3.124,3.669-4.352c2.977-2.541,6.471-4.404,10.24-5.461
				C305.154,427.734,306.178,427.478,307.202,427.051z"/>
			<path style="fill:#FFE0B2;" d="M460.802,281.558c0.002,9.053-3.593,17.737-9.995,24.139s-15.085,9.997-24.139,9.995
				c-4.37,0.034-8.699-0.838-12.715-2.56c2.785-11.743,4.189-23.771,4.181-35.84c0.033-9.394-0.853-18.768-2.645-27.989
				c3.597-1.237,7.374-1.872,11.179-1.877c5.664-0.032,11.244,1.377,16.213,4.096C453.915,257.486,460.793,269.016,460.802,281.558
				L460.802,281.558z"/>
			<path style="fill:#FFE0B2;" d="M98.136,313.131c-4.046,1.722-8.403,2.594-12.8,2.56c-18.851,0-34.133-15.282-34.133-34.133
				c0-18.851,15.282-34.133,34.133-34.133c3.804,0.005,7.581,0.64,11.179,1.877c-1.792,9.221-2.678,18.596-2.645,27.989
				C93.848,289.366,95.28,301.399,98.136,313.131L98.136,313.131z"/>
		</g>
		<g>
			<ellipse style="fill:#02A9F4;" cx="186.132" cy="298.625" rx="17.067" ry="25.6"/>
			<ellipse style="fill:#02A9F4;" cx="325.89" cy="298.625" rx="17.067" ry="25.6"/>
		</g>
	</g>
	<g>
		<path d="M512.003,255.958C511.961,148.689,445.046,52.82,344.37,15.792S130.609,8.43,61.074,90.109
			s-80.774,198.049-28.154,291.526c0.361,0.659,0.808,1.267,1.329,1.808c0.066,0.07,0.113,0.157,0.18,0.224
			c0.273,0.237,0.561,0.457,0.862,0.657c0.318,0.268,0.656,0.513,1.009,0.732l0.02,0.014
			c48.692,29.674,103.283,48.345,159.95,54.705v56.737c0,0.167,0.085,0.306,0.095,0.471c0.054,0.587,0.171,1.166,0.349,1.728
			c0.11,0.506,0.266,1.001,0.467,1.479c0.65,1.482,1.784,2.7,3.216,3.454c0.491,0.332,1.017,0.61,1.568,0.829
			c0.155,0.055,0.264,0.176,0.423,0.223c35.089,9.683,72.145,9.683,107.233,0c0.159-0.047,0.268-0.168,0.422-0.223
			c0.552-0.219,1.078-0.497,1.57-0.83c0.452-0.248,0.88-0.536,1.279-0.862c1.239-1.047,2.086-2.483,2.403-4.073
			c0.177-0.56,0.294-1.138,0.348-1.724c0.009-0.165,0.094-0.304,0.094-0.472v-56.738c56.632-6.381,111.192-25.035,159.877-54.661
			c0.554-0.311,1.071-0.683,1.542-1.11c0.127-0.108,0.274-0.189,0.394-0.305c0.156-0.154,0.27-0.346,0.415-0.512
			c0.425-0.466,0.797-0.978,1.109-1.526C500.669,343.286,512.01,299.992,512.003,255.958z M256.003,17.025
			c84.539,0.011,162.78,44.689,205.755,117.49c42.974,72.801,44.285,162.891,3.447,236.911
			c-35.79,21.77-75.099,37.138-116.164,45.414c33.928-21.272,59.035-54.079,70.703-92.386c0.087-0.292,0.144-0.591,0.23-0.884
			c19.439,3.187,38.52-7.405,46.095-25.589c7.575-18.184,1.659-39.19-14.294-50.746c0.296-4.054,0.493-8.19,0.493-12.61
			c0-101.163-88.042-183.467-196.267-183.467S59.736,133.462,59.736,234.625c0,4.42,0.198,8.557,0.494,12.61
			c-16.242,11.449-22.345,32.647-14.676,50.979c7.669,18.332,27.049,28.87,46.605,25.343c0.717,2.411,1.354,4.845,2.185,7.221
			c12.56,35.671,36.839,66.032,68.876,86.127c-41.158-8.25-80.554-23.639-116.406-45.471
			C5.965,297.416,7.268,207.322,50.241,134.516S171.46,17.031,256.003,17.025z M224.611,428.013l-0.072-0.063
			c-4.032-3.763-8.895-6.52-14.195-8.046c-46.52-13.807-83.639-49.016-99.883-94.742c-12.762-36.708-10.288-76.999,6.868-111.871
			h44.807c46.923,0,75.211-36.284,89.598-62.719c14.373,26.413,42.665,62.719,89.602,62.719h53.341
			c9.862,19.89,14.972,41.799,14.926,64c-0.005,14.308-2.094,28.539-6.2,42.246c-14.903,48.428-53.131,86.134-101.758,100.371
			c-5.316,1.531-10.193,4.301-14.229,8.084l-0.018,0.015c-1.605,1.496-3.02,3.184-4.211,5.027c-0.133,0.183-0.25,0.371-0.367,0.562
			l-0.009-0.004c-4.883,8.166-21.425,10.075-26.792,10.1c-5.4-0.025-21.942-1.933-26.825-10.1l-0.009,0.004
			c-0.117-0.192-0.233-0.379-0.367-0.562C227.626,431.194,226.213,429.508,224.611,428.013z M76.802,234.625
			c0-91.754,80.392-166.4,179.2-166.4s179.2,74.646,179.2,166.4c0,1.771-0.072,3.428-0.123,5.117
			c-4.259-0.953-8.658-1.113-12.975-0.47c-3.212-13.418-8.125-26.37-14.618-38.543c-0.226-0.317-0.474-0.618-0.744-0.899
			c-0.328-0.494-0.707-0.952-1.131-1.365c-0.862-0.651-1.791-1.207-2.772-1.658c-0.573-0.182-1.164-0.301-1.763-0.356
			c-0.366-0.102-0.739-0.177-1.116-0.225h-58.625c-45.431,0-70.56-43.494-80.354-65.442c2.065-5.285,3.14-8.721,3.187-8.887
			c1.367-4.51-1.181-9.275-5.692-10.642c-4.51-1.367-9.275,1.181-10.642,5.692c-0.009,0.046-1.308,4.279-3.967,10.687
			c-8.692,20.621-34.05,68.592-81.733,68.592h-50.092c-0.377,0.048-0.75,0.124-1.116,0.225c-0.599,0.055-1.19,0.174-1.764,0.356
			c-0.503,0.205-0.984,0.459-1.436,0.759c-0.473,0.256-0.92,0.557-1.334,0.899c-0.423,0.414-0.802,0.871-1.129,1.365
			c-0.27,0.281-0.519,0.582-0.746,0.9c-6.494,12.173-11.407,25.126-14.619,38.543c-1.514-0.209-3.037-0.336-4.565-0.381
			c-2.825,0.004-5.642,0.289-8.41,0.851C76.874,238.053,76.802,236.396,76.802,234.625z M425.235,256.079
			c0.478-0.028,0.955-0.121,1.434-0.121c14.138,0,25.6,11.462,25.6,25.6s-11.462,25.6-25.6,25.6
			c-0.94-0.036-1.878-0.125-2.808-0.266c1.831-9.761,2.771-19.669,2.808-29.601C426.656,270.197,426.177,263.111,425.235,256.079
			L425.235,256.079z M85.336,255.958c0.479,0,0.956,0.093,1.435,0.121c-0.943,7.032-1.423,14.118-1.435,21.212
			c0.021,9.932,0.946,19.841,2.766,29.604c-0.916,0.138-1.84,0.226-2.766,0.263c-14.138,0-25.6-11.462-25.6-25.6
			S71.197,255.958,85.336,255.958L85.336,255.958z M298.669,489.847c-28.082,6.425-57.252,6.425-85.333,0v-48.244
			c0.217,0.019,0.427,0.049,0.643,0.069c0.145,0.202,0.346,0.358,0.474,0.573c0.132,0.229,0.276,0.45,0.433,0.662
			c10.942,17.346,38.033,17.85,41.117,17.85c3.083,0,30.175-0.504,41.117-17.85c0.157-0.212,0.302-0.434,0.433-0.662
			c0.128-0.215,0.329-0.371,0.473-0.573c0.217-0.019,0.427-0.05,0.644-0.069V489.847z"/>
		<path d="M255.786,358.358c9.563-0.014,18.544-4.597,24.166-12.333c2.576-3.92,1.504-9.184-2.398-11.786
			c-3.903-2.602-9.174-1.566-11.802,2.319c-2.442,2.995-6.101,4.733-9.966,4.733c-3.864,0.001-7.524-1.736-9.968-4.729
			c-1.685-2.546-4.603-3.998-7.651-3.806c-3.048,0.192-5.76,1.999-7.112,4.737c-1.352,2.738-1.137,5.99,0.563,8.527
			C237.238,353.761,246.221,358.347,255.786,358.358z"/>
		<path d="M160.969,255.945c1.716,0,3.392-0.519,4.808-1.488c9.633-6.575,26.333-13.621,31.333-9.175
			c3.523,3.13,8.916,2.811,12.046-0.712c3.13-3.523,2.811-8.916-0.712-12.046c-16.85-15.004-46.517,3.896-52.3,7.842
			c-3.092,2.112-4.445,5.994-3.337,9.57C153.914,253.514,157.225,255.95,160.969,255.945z"/>
		<path d="M220.094,286.633c2.874-3.732,2.184-9.085-1.542-11.967c-8.995-7.022-20.207-10.594-31.606-10.069
			c-0.277-0.011-0.532-0.106-0.811-0.106c-0.92,0.055-1.834,0.175-2.738,0.357c-10.122,1.113-19.888,4.384-28.638,9.593
			c-3.584,2.222-4.996,6.737-3.317,10.605c1.679,3.868,5.942,5.919,10.013,4.818c-0.587,2.884-0.896,5.818-0.921,8.76
			c0,19.142,11.242,34.133,25.6,34.133s25.6-14.992,25.6-34.133c-0.028-3.084-0.368-6.157-1.015-9.172
			C214.127,290.596,217.885,289.466,220.094,286.633z M186.136,315.691c-3.483,0-8.533-6.65-8.533-17.067
			c-0.719-6.456,2-12.817,7.164-16.758c0.698-0.068,1.402-0.11,2.116-0.141c3.417,0.833,7.788,7.194,7.788,16.9
			C194.669,309.041,189.619,315.691,186.136,315.691z"/>
		<path d="M314.827,244.604c5.133-4.196,21.542,3.575,30.9,10.563c3.772,2.813,9.109,2.041,11.929-1.726
			c2.82-3.767,2.057-9.106-1.704-11.933c-5.583-4.192-34.383-24.379-51.892-10.146c-2.388,1.916-3.566,4.965-3.087,7.989
			c0.479,3.024,2.54,5.56,5.403,6.645S312.464,246.55,314.827,244.604L314.827,244.604z"/>
		<path d="M301.284,289.455c-0.647,3.014-0.987,6.086-1.015,9.169c0,19.142,11.242,34.133,25.6,34.133s25.6-14.992,25.6-34.133
			c-0.025-2.942-0.333-5.876-0.921-8.759c4.052,1.039,8.26-1.019,9.926-4.857c1.666-3.838,0.297-8.317-3.23-10.568
			c-8.784-5.239-18.596-8.517-28.765-9.609c-0.862-0.172-1.734-0.285-2.61-0.341c-0.269,0-0.517,0.092-0.783,0.102
			c-11.409-0.527-22.63,3.046-31.633,10.073c-3.299,2.515-4.295,7.048-2.353,10.714
			C293.041,289.047,297.349,290.771,301.284,289.455L301.284,289.455z M325.869,315.691c-3.483,0-8.533-6.65-8.533-17.067
			c0-9.873,4.523-16.288,7.963-16.939c0.565,0.027,1.119,0.069,1.674,0.119c5.385,3.81,8.24,10.272,7.43,16.819
			C334.402,309.041,329.352,315.691,325.869,315.691z"/>
		<path d="M255.786,393.379c9.002-0.739,18.06,0.345,26.633,3.188c1.864,3.429,5.818,5.157,9.601,4.195s6.432-4.367,6.433-8.27
			c0-16.179-32.117-16.179-42.667-16.179s-42.667,0-42.667,16.179c0.001,3.903,2.649,7.309,6.433,8.27s7.736-0.766,9.601-4.195
			C237.726,393.724,246.784,392.64,255.786,393.379L255.786,393.379z"/>
	</g>
</g>
<g>
</g>
<g>
</g>
<g>
</g>
<g>
</g>
<g>
</g>
<g>
</g>
<g>
</g>
<g>
</g>
<g>
</g>
<g>
</g>
<g>
</g>
<g>
</g>
<g>
</g>
<g>
</g>
<g>
</g>
</svg>
