<?xml version="1.0" encoding="iso-8859-1"?>
<!-- Generator: Adobe Illustrator 19.0.0, SVG Export Plug-In . SVG Version: 6.00 Build 0)  -->
<svg version="1.1" id="Capa_1" xmlns="http://www.w3.org/2000/svg" xmlns:xlink="http://www.w3.org/1999/xlink" x="0px" y="0px"
	 viewBox="0 0 512.003 512.003" style="enable-background:new 0 0 512.003 512.003;" xml:space="preserve">
<g>
	<g>
		<path style="fill:#AD1457;" d="M503.469,255.958c0.048,42.599-10.916,84.487-31.829,121.6c-0.085,0-0.085,0.085-0.171,0.085
			c-37.635,23.214-79.144,39.46-122.539,47.957c-13.785,2.936-27.713,5.158-41.728,6.656h-102.4
			c-58.174-5.581-114.332-24.251-164.267-54.613c-0.085,0-0.085-0.085-0.171-0.085c-50.95-90.364-40.142-202.914,27.075-281.93
			s176.576-107.732,273.941-71.93S503.453,152.22,503.469,255.958L503.469,255.958z"/>
		<path style="fill:#E91E63;" d="M469.336,264.492c0.048,42.599-10.916,84.487-31.829,121.6c-0.085,0-0.085,0.085-0.171,0.085
			c-27.534,17.109-57.278,30.373-88.405,39.424c-13.785,2.936-27.713,5.158-41.728,6.656h-102.4
			c-58.174-5.581-114.332-24.251-164.267-54.613c-0.085,0-0.085-0.085-0.171-0.085C4.035,312.99-1.489,235.551,25.307,166.479
			s83.1-122.525,153.469-145.7c72.05-12.692,146.024,7.128,202.076,54.142S469.296,191.333,469.336,264.492z"/>
		<path style="fill:#CBB292;" d="M204.802,427.052c-0.171-0.085-0.341-0.085-0.512-0.171c-2.731-0.853-5.376-1.792-7.936-2.816
			c-0.427-0.171-0.853-0.341-1.195-0.512c-2.731-1.024-5.291-2.133-7.936-3.328c-2.816-1.28-5.632-2.645-8.363-4.096
			c-2.645-1.451-5.291-2.901-7.936-4.437c-0.15-0.143-0.323-0.258-0.512-0.341c-2.304-1.365-4.523-2.816-6.741-4.352
			c-0.853-0.597-1.792-1.195-2.645-1.792c-1.707-1.195-3.328-2.389-4.949-3.669c-4.621-3.498-9.037-7.259-13.227-11.264
			c-0.341-0.341-0.683-0.597-1.024-0.939c-0.441-0.384-0.842-0.813-1.195-1.28c-1.536-1.365-2.987-2.901-4.437-4.437
			c-0.512-0.512-0.939-1.024-1.451-1.621c-1.877-1.963-3.755-4.096-5.461-6.229c-1.707-2.133-3.413-4.267-5.035-6.4
			c-2.304-3.157-4.523-6.485-6.656-9.813l-3.584-5.888c-1.707-3.157-3.413-6.315-4.949-9.472
			c-2.475-5.291-4.693-10.667-6.656-16.213c-1.719-4.859-3.144-9.817-4.267-14.848c-4.046,1.722-8.403,2.594-12.8,2.56
			c-15.631,0-29.265-10.617-33.094-25.772s3.125-30.974,16.881-38.399c-0.586-5.613-0.871-11.253-0.853-16.896
			c0-94.464,80.384-171.435,180.907-174.677h0.171c0.597,0,1.195-0.085,1.792-0.085h0.597c0.853-0.085,1.707-0.085,2.56-0.085
			c0.566-0.071,1.136-0.099,1.707-0.085h1.621v0.085c102.912,0.768,186.112,78.763,186.112,174.848
			c0.018,5.643-0.267,11.283-0.853,16.896c13.755,7.424,20.71,23.244,16.881,38.399c-3.829,15.155-17.463,25.772-33.094,25.772
			c-4.37,0.034-8.699-0.838-12.715-2.56h-0.085c-0.597,2.987-1.451,5.973-2.304,8.875c-15.477,49.998-54.466,89.243-104.363,105.045
			"/>
		<path style="fill:#FFE0B2;" d="M415.49,249.302c-2.81-15.57-8.051-30.602-15.531-44.544h-58.624
			c-49.323,0-76.288-44.373-87.552-69.12c-0.768-1.706-1.451-3.243-2.048-4.693c-4.812,11.526-10.878,22.486-18.091,32.683
			c-10.349,15.204-24.621,27.324-41.301,35.072c-9.563,4.02-19.835,6.081-30.208,6.059h-50.091
			c-2.942,5.533-5.564,11.232-7.851,17.067c-3.434,8.892-6.006,18.093-7.68,27.477c-1.792,9.221-2.678,18.596-2.645,27.989
			c-0.022,12.075,1.411,24.108,4.267,35.84c1.122,5.031,2.547,9.989,4.267,14.848c1.963,5.547,4.181,10.923,6.656,16.213
			c1.536,3.157,3.242,6.315,4.949,9.472l3.584,5.888c2.133,3.328,4.352,6.656,6.656,9.813c1.621,2.133,3.328,4.267,5.035,6.4
			c1.707,2.133,3.584,4.267,5.461,6.229c0.512,0.597,0.939,1.109,1.451,1.621c1.451,1.536,2.901,3.072,4.437,4.437
			c0.353,0.466,0.754,0.895,1.195,1.28c0.341,0.341,0.683,0.597,1.024,0.939c4.189,4.005,8.606,7.766,13.227,11.264
			c1.621,1.28,3.243,2.475,4.949,3.669c0.853,0.597,1.792,1.195,2.645,1.792c2.219,1.536,4.437,2.987,6.741,4.352
			c0.189,0.083,0.363,0.199,0.513,0.341c2.645,1.536,5.291,2.987,7.936,4.437c2.731,1.451,5.547,2.816,8.363,4.096
			c2.645,1.195,5.205,2.304,7.936,3.328c0.341,0.171,0.768,0.341,1.195,0.512c2.56,1.024,5.205,1.963,7.936,2.816
			c0.171,0.085,0.341,0.085,0.512,0.171c1.024,0.427,2.048,0.683,3.072,1.024c3.769,1.057,7.263,2.921,10.24,5.461
			c1.465,1.228,2.706,2.701,3.669,4.352c0.023,0,0.045,0.008,0.061,0.025s0.025,0.038,0.024,0.061
			c8.533,14.251,34.133,14.251,34.133,14.251c4.076-0.092,8.134-0.578,12.117-1.451c6.782-1.055,13.136-3.981,18.347-8.448
			c1.426-1.267,2.661-2.733,3.669-4.352c0-0.023,0.008-0.045,0.025-0.061c0.016-0.016,0.038-0.025,0.061-0.024
			c0.963-1.651,2.204-3.124,3.669-4.352c2.977-2.541,6.471-4.404,10.24-5.461c1.024-0.341,2.048-0.597,3.072-1.024
			c9.284-3,18.28-6.827,26.88-11.435c0.085,0.085,0.085,0.085,0.085,0c37.187-19.711,65.026-53.382,77.397-93.611
			c0.853-2.901,1.707-5.888,2.304-8.875h0.085c2.785-11.743,4.189-23.772,4.181-35.84
			C418.168,267.898,417.282,258.524,415.49,249.302z"/>
		<path style="fill:#FFECB3;" d="M389.89,266.369c-2.81-15.57-8.051-30.602-15.531-44.544h-58.624
			c-42.667,0-68.608-33.195-82.091-58.197c-2.133-3.925-3.925-7.595-5.461-10.923c-0.768-1.707-1.451-3.243-2.048-4.693
			c-7.745,18.994-19.238,36.233-33.792,50.688c-14.882,14.681-34.904,22.977-55.808,23.125h-32.341
			c-3.434,8.892-6.006,18.093-7.68,27.477c-1.792,9.221-2.678,18.596-2.645,27.989c-0.022,12.075,1.411,24.108,4.267,35.84
			c1.122,5.031,2.547,9.989,4.267,14.848c1.963,5.547,4.181,10.923,6.656,16.213c1.536,3.157,3.242,6.315,4.949,9.472l3.584,5.888
			c2.133,3.328,4.352,6.656,6.656,9.813c1.621,2.133,3.328,4.267,5.035,6.4c1.707,2.133,3.584,4.267,5.461,6.229
			c0.512,0.597,0.939,1.109,1.451,1.621c1.451,1.536,2.901,3.072,4.437,4.437c0.353,0.466,0.754,0.895,1.195,1.28
			c0.341,0.341,0.683,0.597,1.024,0.939c4.189,4.005,8.606,7.766,13.227,11.264c1.621,1.28,3.243,2.475,4.949,3.669
			c0.853,0.597,1.792,1.195,2.645,1.792c2.219,1.536,4.437,2.987,6.741,4.352c0.189,0.083,0.363,0.199,0.513,0.341
			c2.645,1.536,5.291,2.987,7.936,4.437c2.731,1.451,5.547,2.816,8.363,4.096c2.645,1.195,5.205,2.304,7.936,3.328
			c0.341,0.171,0.768,0.341,1.195,0.512c2.56,1.024,5.205,1.963,7.936,2.816c0.171,0.085,0.341,0.085,0.512,0.171
			c1.024,0.427,2.048,0.683,3.072,1.024c3.769,1.057,7.263,2.921,10.24,5.461c1.465,1.228,2.706,2.701,3.669,4.352
			c0.023,0,0.045,0.008,0.061,0.025s0.025,0.038,0.024,0.061c8.533,14.251,34.133,14.251,34.133,14.251
			c4.076-0.092,8.134-0.578,12.117-1.451l0.171-0.171c2.977-2.541,6.471-4.404,10.24-5.461c1.024-0.341,2.048-0.597,3.072-1.024
			c1.621-0.512,3.243-1.109,4.864-1.792c17.315-6.043,33.432-15.084,47.616-26.709c0.085,0.085,0.085,0.085,0.085,0
			c24.568-19.728,42.618-46.403,51.797-76.544c0.853-2.901,1.707-5.888,2.304-8.875h0.085c2.785-11.743,4.189-23.771,4.181-35.84
			C392.568,284.965,391.682,275.59,389.89,266.369z"/>
		<path style="fill:#AD1457;" d="M257.624,59.777v-0.085h-1.621c-0.57-0.014-1.141,0.014-1.707,0.085c-0.853,0-1.707,0-2.56,0.085
			h-0.597c-0.597,0-1.195,0.085-1.792,0.085h-0.171c-20.097,0.615-39.982,4.299-58.965,10.923
			C118.957,95.617,68.269,159.617,68.269,234.625v0.683c-0.018,5.416,0.267,10.829,0.853,16.213
			c8.418-4.54,18.353-5.345,27.392-2.219c2.238-12.437,6.052-24.538,11.349-36.011c1.28-2.901,2.645-5.717,4.181-8.533h50.091
			c0.428,0.014,0.857-0.014,1.28-0.085c27.579-1.25,52.92-15.537,68.267-38.485c8.113-10.875,14.848-22.713,20.053-35.243
			c0.597,1.451,1.28,2.987,2.048,4.693c11.264,24.747,38.229,69.12,87.552,69.12h58.624c3.263,6.018,6.086,12.263,8.448,18.688
			c3.107,8.397,5.477,17.048,7.083,25.856c3.597-1.237,7.374-1.872,11.179-1.877c5.664-0.032,11.244,1.377,16.213,4.096
			c0.586-5.613,0.871-11.253,0.853-16.896C443.736,138.54,360.536,60.545,257.624,59.777z"/>
		<g>
			<path style="fill:#E91E63;" d="M408.408,223.446c-2.362-6.425-5.185-12.67-8.448-18.688h-58.624
				c-49.323,0-76.288-44.373-87.552-69.12c-0.768-1.706-1.451-3.243-2.048-4.693c-5.205,12.53-11.941,24.367-20.053,35.243
				c-15.346,22.949-40.688,37.235-68.267,38.485c-0.423,0.071-0.852,0.099-1.28,0.085h-50.091c-1.536,2.816-2.901,5.632-4.181,8.533
				c-5.297,11.473-9.111,23.574-11.349,36.011c-9.039-3.126-18.974-2.321-27.392,2.219c-0.586-5.384-0.871-10.797-0.853-16.213
				v-0.683c0-75.008,50.688-139.008,121.941-163.755c8.213-1.361,16.51-2.16,24.832-2.389h0.171c0.597,0,1.195-0.085,1.792-0.085
				h0.597c0.853-0.085,1.707-0.085,2.56-0.085c0.566-0.071,1.136-0.1,1.707-0.086h1.621v0.085
				C319.234,68.993,397.912,136.577,408.408,223.446z"/>
			<path style="fill:#E91E63;" d="M163.416,204.673c-10.934,5.695-23.086,8.652-35.413,8.619h-20.139
				c1.28-2.901,2.645-5.717,4.181-8.533h50.091C162.564,204.772,162.993,204.744,163.416,204.673z"/>
		</g>
		<path style="fill:#FFE0B2;" d="M307.202,427.052v69.461c-16.653,4.719-33.892,7.046-51.2,6.912
			c-17.308,0.134-34.547-2.193-51.2-6.912v-69.461c1.024,0.427,2.048,0.683,3.072,1.024c3.769,1.057,7.263,2.921,10.24,5.461
			c1.465,1.228,2.706,2.701,3.669,4.352c0.023-0.001,0.045,0.008,0.061,0.024c0.016,0.016,0.025,0.038,0.024,0.061
			c8.533,14.251,34.133,14.251,34.133,14.251s25.6,0,34.133-14.251c0-0.023,0.008-0.045,0.025-0.061
			c0.016-0.016,0.038-0.025,0.061-0.024c0.963-1.651,2.204-3.124,3.669-4.352c2.977-2.541,6.471-4.404,10.24-5.461
			C305.154,427.734,306.178,427.478,307.202,427.052z"/>
		<path style="fill:#ECF0F1;" d="M315.736,357.932c0,19.029-26.709,34.56-59.733,34.56s-59.733-15.531-59.733-34.56
			c-0.036-0.687,0.022-1.376,0.171-2.048c19.504,4.674,39.507,6.938,59.563,6.741c20.055,0.197,40.059-2.067,59.563-6.741
			C315.714,356.556,315.771,357.244,315.736,357.932L315.736,357.932z"/>
		<g>
			<path style="fill:#FFE0B2;" d="M460.802,281.558c0.002,9.053-3.593,17.737-9.995,24.139s-15.085,9.997-24.139,9.995
				c-4.37,0.034-8.699-0.838-12.715-2.56c2.785-11.743,4.189-23.771,4.181-35.84c0.033-9.394-0.853-18.768-2.645-27.989
				c3.597-1.237,7.374-1.872,11.179-1.877c5.664-0.032,11.244,1.377,16.213,4.096C453.915,257.487,460.793,269.016,460.802,281.558
				L460.802,281.558z"/>
			<path style="fill:#FFE0B2;" d="M98.136,313.132c-4.046,1.722-8.403,2.594-12.8,2.56c-18.851,0-34.133-15.282-34.133-34.133
				c0-18.851,15.282-34.133,34.133-34.133c3.804,0.005,7.581,0.64,11.179,1.877c-1.792,9.221-2.678,18.596-2.645,27.989
				C93.848,289.366,95.28,301.4,98.136,313.132L98.136,313.132z"/>
		</g>
	</g>
	<g>
		<path d="M210.219,291.167c3.377,3.285,8.776,3.213,12.065-0.16c3.288-3.373,3.222-8.773-0.148-12.065
			c-13.275-12.035-30.992-17.945-48.834-16.289c-3.43-2.236-6.001-5.57-7.291-9.457c-0.716-4.613-5.005-7.795-9.628-7.142
			c-4.622,0.653-7.862,4.899-7.272,9.529c0.673,3.579,2.039,6.991,4.021,10.046c-3.78,0.946-6.254,1.783-6.663,1.929
			c-2.872,1.024-4.979,3.502-5.527,6.501c-0.549,2.999,0.544,6.063,2.867,8.037s5.522,2.56,8.394,1.536
			C152.561,283.508,189.261,270.733,210.219,291.167z"/>
		<path d="M295.828,293.588c2.226,0.004,4.366-0.865,5.958-2.421c20.742-20.221,57.35-7.758,58.025-7.529
			c2.872,1.023,6.072,0.435,8.394-1.541c2.322-1.976,3.413-5.041,2.862-8.04c-0.55-2.999-2.659-5.476-5.531-6.499
			c-0.41-0.146-2.883-0.982-6.664-1.928c1.983-3.055,3.349-6.468,4.022-10.047c0.561-4.538-2.608-8.692-7.133-9.35
			c-4.582-0.669-8.88,2.383-9.758,6.929c-1.287,3.904-3.866,7.252-7.312,9.493c-17.837-1.654-35.55,4.255-48.821,16.286
			c-2.483,2.425-3.251,6.111-1.944,9.326C289.233,291.482,292.357,293.585,295.828,293.588L295.828,293.588z"/>
		<path d="M246.036,320.425c2.453-3.013,6.139-4.753,10.025-4.733c3.886,0.02,7.553,1.799,9.975,4.837
			c2.659,3.86,7.933,4.853,11.814,2.225c3.881-2.628,4.916-7.894,2.319-11.796c-5.613-7.747-14.6-12.333-24.167-12.333
			c-9.567,0-18.554,4.586-24.167,12.333c-1.716,2.537-1.941,5.798-0.59,8.546c1.351,2.748,4.071,4.562,7.128,4.752
			C241.43,324.446,244.354,322.984,246.036,320.425L246.036,320.425z"/>
		<path d="M323.921,362.37c20.371-6.288,34.481-16.033,34.481-29.612c0-4.713-3.82-8.533-8.533-8.533s-8.533,3.821-8.533,8.533
			c0,3.596-9.231,9.915-27.363,14.746c-0.222,0.041-0.441-0.021-0.662,0.038c-0.189,0.051-0.323,0.185-0.505,0.247
			c-18.599,4.451-37.681,6.569-56.803,6.303c-19.298,0.277-38.555-1.883-57.313-6.428l-0.054-0.027l-0.074-0.005
			c-18.467-4.847-27.893-11.245-27.893-14.874c0-4.713-3.821-8.533-8.533-8.533s-8.533,3.821-8.533,8.533
			c0,13.579,14.11,23.324,34.481,29.612c3.441,22.007,32.033,38.655,67.919,38.655S320.48,384.377,323.921,362.37z M208.474,367.202
			c31.418,5.266,63.493,5.275,94.914,0.027c-7.358,9.037-24.807,16.729-47.385,16.729
			C233.334,383.958,215.834,376.205,208.474,367.202L208.474,367.202z"/>
		<path d="M512.003,255.958c-0.041-107.27-66.956-203.138-167.632-240.166S130.609,8.429,61.073,90.109
			s-80.774,198.05-28.154,291.526c0.361,0.659,0.807,1.267,1.328,1.808c0.066,0.07,0.113,0.157,0.181,0.224
			c0.273,0.237,0.561,0.457,0.862,0.657c0.318,0.268,0.655,0.513,1.009,0.732l0.02,0.014
			c48.693,29.674,103.284,48.345,159.95,54.705v56.737c0,0.167,0.085,0.306,0.095,0.471c0.054,0.587,0.171,1.166,0.349,1.728
			c0.421,2.115,1.774,3.928,3.682,4.933c0.491,0.332,1.017,0.61,1.568,0.829c0.155,0.055,0.263,0.176,0.422,0.223
			c35.089,9.683,72.145,9.683,107.233,0c0.159-0.047,0.268-0.168,0.422-0.223c0.552-0.219,1.078-0.497,1.57-0.83
			c0.452-0.248,0.88-0.536,1.279-0.862c1.239-1.047,2.086-2.483,2.403-4.073c0.177-0.56,0.294-1.138,0.348-1.724
			c0.01-0.165,0.095-0.304,0.095-0.472v-56.738c56.632-6.381,111.192-25.035,159.877-54.661c0.554-0.311,1.072-0.683,1.543-1.11
			c0.127-0.108,0.273-0.189,0.393-0.305c0.156-0.154,0.27-0.346,0.414-0.512c0.426-0.466,0.798-0.978,1.11-1.526
			C500.669,343.286,512.011,299.993,512.003,255.958L512.003,255.958z M256.003,17.025c84.539,0.011,162.78,44.689,205.755,117.49
			c42.974,72.801,44.285,162.891,3.447,236.911c-35.79,21.77-75.099,37.138-116.164,45.414
			c33.928-21.272,59.035-54.079,70.703-92.386c0.087-0.292,0.144-0.591,0.23-0.884c19.439,3.187,38.519-7.405,46.094-25.589
			c7.575-18.183,1.659-39.189-14.293-50.746c0.295-4.054,0.493-8.19,0.493-12.61c0-101.163-88.042-183.467-196.267-183.467
			S59.736,133.462,59.736,234.625c0,4.42,0.198,8.557,0.493,12.61c-16.242,11.449-22.345,32.647-14.676,50.979
			c7.669,18.332,27.049,28.87,46.605,25.343c0.717,2.411,1.355,4.845,2.186,7.221c12.56,35.671,36.839,66.032,68.876,86.127
			c-41.158-8.25-80.554-23.639-116.406-45.471C5.965,297.417,7.268,207.323,50.241,134.517S171.46,17.032,256.003,17.025z
			 M224.611,428.013l-0.072-0.063c-4.032-3.763-8.895-6.52-14.195-8.046c-46.52-13.807-83.639-49.016-99.883-94.742
			c-12.762-36.708-10.288-76.999,6.868-111.871h44.807c46.922,0,75.211-36.284,89.597-62.719
			c14.373,26.413,42.666,62.719,89.603,62.719h53.341c9.862,19.89,14.971,41.799,14.926,64c-0.005,14.308-2.094,28.539-6.2,42.246
			c-14.903,48.428-53.131,86.134-101.758,100.371c-5.316,1.531-10.193,4.301-14.23,8.084l-0.017,0.015
			c-1.605,1.496-3.02,3.184-4.211,5.027c-0.133,0.183-0.25,0.371-0.367,0.562l-0.009-0.004c-4.883,8.166-21.425,10.075-26.792,10.1
			c-5.4-0.025-21.942-1.933-26.825-10.1l-0.009,0.004c-0.117-0.192-0.233-0.379-0.367-0.562
			C227.627,431.194,226.214,429.508,224.611,428.013L224.611,428.013z M76.802,234.625c0-91.754,80.392-166.4,179.2-166.4
			s179.2,74.646,179.2,166.4c0,1.771-0.072,3.428-0.122,5.117c-4.26-0.953-8.659-1.113-12.976-0.47
			c-3.212-13.418-8.124-26.37-14.618-38.543c-0.226-0.317-0.475-0.618-0.744-0.899c-0.327-0.494-0.707-0.952-1.131-1.365
			c-0.861-0.651-1.79-1.207-2.771-1.658c-0.573-0.182-1.164-0.301-1.763-0.356c-0.366-0.101-0.739-0.177-1.116-0.225h-58.625
			c-45.431,0-70.561-43.494-80.354-65.442c2.064-5.285,3.138-8.721,3.187-8.887c1.367-4.51-1.181-9.275-5.692-10.642
			c-4.51-1.367-9.275,1.181-10.642,5.692c-0.009,0.046-1.308,4.279-3.967,10.687c-8.692,20.621-34.05,68.592-81.733,68.592h-50.092
			c-0.375,0.049-0.747,0.124-1.112,0.225c-0.602,0.055-1.196,0.175-1.771,0.358c-0.979,0.452-1.907,1.008-2.768,1.658
			c-0.422,0.413-0.8,0.869-1.126,1.361c-0.271,0.282-0.52,0.584-0.747,0.903c-6.494,12.173-11.407,25.126-14.618,38.543
			c-1.514-0.209-3.038-0.336-4.565-0.381c-2.825,0.004-5.642,0.289-8.411,0.851C76.874,238.053,76.802,236.396,76.802,234.625z
			 M425.235,256.079c0.479-0.028,0.955-0.121,1.434-0.121c14.138,0,25.6,11.462,25.6,25.6s-11.462,25.6-25.6,25.6
			c-0.94-0.036-1.878-0.125-2.808-0.266c1.831-9.761,2.771-19.669,2.808-29.601C426.656,270.197,426.177,263.111,425.235,256.079
			L425.235,256.079z M85.336,255.958c0.48,0,0.956,0.093,1.435,0.121c-2.287,16.9-1.838,34.059,1.331,50.817
			c-0.916,0.138-1.84,0.226-2.766,0.263c-14.138,0-25.6-11.462-25.6-25.6S71.197,255.958,85.336,255.958z M298.669,489.847
			c-28.082,6.425-57.252,6.425-85.333,0v-48.244c0.216,0.019,0.427,0.049,0.643,0.069c0.145,0.202,0.346,0.358,0.474,0.573
			c0.132,0.229,0.276,0.45,0.433,0.662c10.942,17.346,38.033,17.85,41.117,17.85c3.083,0,30.175-0.504,41.117-17.85
			c0.157-0.212,0.302-0.434,0.433-0.662c0.128-0.215,0.329-0.371,0.473-0.573c0.216-0.019,0.427-0.05,0.643-0.069V489.847z"/>
	</g>
</g>
<g>
</g>
<g>
</g>
<g>
</g>
<g>
</g>
<g>
</g>
<g>
</g>
<g>
</g>
<g>
</g>
<g>
</g>
<g>
</g>
<g>
</g>
<g>
</g>
<g>
</g>
<g>
</g>
<g>
</g>
</svg>
