<?xml version="1.0" encoding="iso-8859-1"?>
<!-- Generator: Adobe Illustrator 19.0.0, SVG Export Plug-In . SVG Version: 6.00 Build 0)  -->
<svg version="1.1" id="Capa_1" xmlns="http://www.w3.org/2000/svg" xmlns:xlink="http://www.w3.org/1999/xlink" x="0px" y="0px"
	 viewBox="0 0 512.032 512.032" style="enable-background:new 0 0 512.032 512.032;" xml:space="preserve">
<g transform="translate(-1 -1)">
	<g transform="translate(2 2)">
		<g>
			<path style="fill:#FFE0B2;" d="M446.931,332.685c47.701,14.336,57.003-35.584,37.376-69.12
				c-12.203-20.736-28.075-22.613-38.656-20.821H64.382c-10.581-1.792-26.453,0.085-38.656,20.821
				c-19.627,33.536-10.325,83.456,37.376,69.12H446.931z"/>
			<path style="fill:#FFE0B2;" d="M316.798,444.984c19.883,5.12,61.867,19.968,74.752,57.515H118.483
				c12.885-37.547,54.869-52.395,74.752-57.515H316.798z"/>
			<path style="fill:#FFE0B2;" d="M451.027,301.112c-1.536,29.44-9.984,90.965-74.411,124.672
				c-26.965,14.165-63.744,23.381-113.835,23.381h-15.531c-169.899,0-186.112-106.325-188.245-148.053
				c-2.048-41.813,7.765-38.144,16.981-171.605c2.816-40.704,18.773-67.84,39.765-85.931C163.454,2.189,236.67,7.821,236.67,7.821
				h36.693c0,0,151.552-11.691,160.683,121.685C443.262,262.968,453.075,259.298,451.027,301.112z"/>
		</g>
		<path style="fill:#FFECB3;" d="M425.427,318.178c-1.28,24.917-7.595,73.045-48.811,107.605
			c-26.965,14.165-63.744,23.381-113.835,23.381h-15.531c-169.899,0-186.112-106.325-188.245-148.053
			c-2.048-41.813,7.765-38.144,16.981-171.605c2.816-40.704,18.773-67.84,39.765-85.931c29.785-13.872,62.499-20.286,95.317-18.688
			h36.693c0,0,151.552-11.691,160.683,121.685C417.662,280.034,427.475,276.365,425.427,318.178z"/>
		<path style="fill:#37474F;" d="M280.872,323.64c-19.075-2.035-38.323-1.805-57.344,0.683
			c-15.345,1.723-30.089,6.949-43.093,15.275c-6.564,4.44-12.309,9.983-16.981,16.384c-5.641,7.106-9.372,15.537-10.837,24.491
			c0,13.141,10.581,22.699,20.907,18.688c12.699-4.988,25.972-8.37,39.509-10.069c2.645-0.341,5.291-0.597,7.936-0.683
			c11.349-0.427,22.699-0.939,34.048-1.109c14.024-0.415,28.06,0.241,41.984,1.963c0.8,0.043,1.598,0.129,2.389,0.256
			c12.683,1.874,25.128,5.107,37.12,9.643c10.325,4.011,20.907-5.547,20.907-18.773C347.944,340.45,311.678,326.626,280.872,323.64z
			"/>
		<path style="fill:#E91E63;" d="M297,389.261c-13.924-1.722-27.96-2.378-41.984-1.963c-11.349,0.171-22.699,0.683-34.048,1.109
			c-2.645,0.085-5.291,0.341-7.936,0.683c4.71-19.178,22.25-32.404,41.984-31.659C274.811,356.67,292.389,369.996,297,389.261
			L297,389.261z"/>
	</g>
	<g>
		<path d="M454.963,235.729c-3.05-21.057-6.752-52.065-10.371-104.789c-0.995-35.252-16.489-68.532-42.825-91.987
			C353.1-3.085,281.291,0.844,275.033,1.294L239.35,1.319c-3.125-0.237-77.225-5.433-127.083,37.633
			C85.93,62.407,70.437,95.688,69.441,130.94c-3.619,52.719-7.321,83.727-10.37,104.783c-16.602,0.793-31.447,10.584-38.713,25.533
			c-14,23.921-14.475,53.583-1.142,70.538c7.302,9.183,18.525,14.362,30.25,13.959c3.222-0.043,6.434-0.358,9.603-0.942
			c11.181,40.256,39.333,83.961,105.905,103.87c-24.081,9.687-43.099,28.879-52.566,53.047c-0.891,2.608-0.469,5.485,1.132,7.727
			c1.602,2.242,4.187,3.574,6.943,3.577H393.55c2.756-0.003,5.341-1.334,6.943-3.577s2.023-5.12,1.132-7.727
			c-9.469-24.169-28.489-43.362-52.571-53.049c66.558-19.91,94.712-63.614,105.901-103.869c3.172,0.585,6.387,0.9,9.612,0.943
			c11.725,0.403,22.948-4.775,30.25-13.958c13.333-16.954,12.858-46.617-1.15-70.554C486.399,246.3,471.558,236.518,454.963,235.729
			z M32.633,321.24c-8.875-11.279-7.8-33.842,2.45-51.35c4.129-8.599,11.997-14.81,21.32-16.829l-0.361,2.246
			c-3.179,15.856-4.363,32.046-3.525,48.196c0.416,8.278,1.347,16.523,2.789,24.685C47.044,330.269,38.31,327.593,32.633,321.24z
			 M380.216,495.965h-246.4c14.422-24.1,43.588-35.358,62.001-40.285c17.678,2.761,35.548,4.104,53.441,4.018h15.517
			c17.891,0.086,35.76-1.258,53.437-4.019C336.625,460.606,365.794,471.864,380.216,495.965z M264.775,442.632h-15.517
			c-112.933,0-175.075-48.408-179.692-139.992c-0.791-14.953,0.326-29.946,3.325-44.617c0.57-3.541,1.193-7.426,1.853-11.709
			c0.01-0.053,0.047-0.092,0.056-0.145c0.01-0.061-0.015-0.118-0.006-0.18c3.284-21.383,7.543-53.677,11.681-113.883
			c0.75-30.657,14.087-59.654,36.875-80.175c35.333-30.583,86.642-33.8,106.783-33.8c5.167,0,8.283,0.212,8.558,0.229h36.65
			c0.217,0,0.442-0.009,0.658-0.025c0.692-0.05,70.092-4.933,114.608,33.529c22.83,20.526,36.195,49.551,36.95,80.242
			c4.137,60.206,8.397,92.499,11.681,113.883c0.009,0.062-0.016,0.118-0.006,0.18c0.009,0.054,0.046,0.093,0.056,0.146
			c0.659,4.283,1.282,8.167,1.852,11.708c2.999,14.671,4.116,29.664,3.325,44.617C439.833,394.223,377.691,442.632,264.775,442.632z
			 M481.4,321.24c-5.678,6.355-14.415,9.031-22.678,6.946c1.443-8.161,2.376-16.403,2.794-24.68
			c0.838-16.151-0.346-32.343-3.525-48.2l-0.363-2.251c9.319,2.015,17.185,8.222,21.313,16.817
			C489.2,287.398,490.275,309.961,481.4,321.24z"/>
		<path d="M214.35,291.165c0,4.713,3.821,8.533,8.533,8.533c4.713,0,8.533-3.821,8.533-8.533c0-9.25,11.725-17.067,25.6-17.067
			c13.875,0,25.6,7.817,25.6,17.067c0,4.713,3.821,8.533,8.533,8.533c4.713,0,8.533-3.821,8.533-8.533
			c0-18.821-19.142-34.133-42.667-34.133C233.491,257.032,214.35,272.344,214.35,291.165z"/>
		<path d="M111.275,174.111c5.561-11.044,16.655-18.221,29.008-18.767c4.698-0.311,8.257-4.367,7.954-9.066
			c-0.303-4.698-4.355-8.264-9.053-7.968c-18.792,0.98-35.538,12.176-43.625,29.167c-1.832,4.34,0.202,9.343,4.542,11.175
			S109.443,178.451,111.275,174.111L111.275,174.111z"/>
		<path d="M197.283,120.498c2.631,0.001,5.115-1.211,6.732-3.286c1.617-2.075,2.187-4.78,1.543-7.331
			c-4.005-15.902,6.961-27.504,16.99-34.492c12.478,17.184,27.286,44.352,18.01,67.538c-1.349,3.37-0.417,7.225,2.321,9.608
			c2.739,2.383,6.685,2.772,9.837,0.971c2.273-1.297,48.212-28.193,55.315-71.421c7.917,6.883,11.373,17.583,8.977,27.796
			c-0.644,2.551-0.074,5.256,1.543,7.331c1.617,2.075,4.102,3.287,6.732,3.286c1.475,0,36.125-0.667,42.617-58.787
			c0.52-4.684-2.854-8.903-7.538-9.425c-4.684-0.522-8.904,2.85-9.429,7.533c-2.608,23.367-10.017,34.217-16.208,39.254
			c-2.515-16.245-12.275-30.467-26.528-38.658c-0.054-0.358-0.037-0.695-0.097-1.054c-0.811-4.613-5.189-7.71-9.809-6.939
			c-4.62,0.771-7.755,5.121-7.025,9.748c4.733,28.404-15.375,51.512-30.767,64.65c-0.408-40.371-38.217-78.721-40.117-80.621
			c-3.341-3.281-8.701-3.256-12.012,0.054c-3.311,3.311-3.335,8.671-0.054,12.012c0.078,0.077,1.471,1.509,3.547,3.839
			c-13.037,8.191-21.827,21.688-24.047,36.924c-6.208-5.058-13.583-15.913-16.183-39.208c-0.524-4.683-4.745-8.055-9.429-7.533
			s-8.058,4.741-7.538,9.425C161.158,119.832,195.808,120.498,197.283,120.498z"/>
		<path d="M374.85,138.311c-2.267-0.18-4.511,0.565-6.22,2.067c-1.708,1.502-2.735,3.632-2.847,5.904
			c-0.301,4.702,3.265,8.758,7.967,9.062c12.366,0.566,23.463,7.762,29.025,18.821c1.859,4.316,6.857,6.317,11.181,4.475
			c4.323-1.842,6.344-6.832,4.519-11.163C410.387,150.486,393.642,139.291,374.85,138.311z"/>
		<path d="M197.283,231.432c0,4.713,3.82,8.533,8.533,8.533s8.533-3.821,8.533-8.533c0-19.458-23.842-34.133-55.467-34.133
			s-55.467,14.675-55.467,34.133c0,4.713,3.821,8.533,8.533,8.533c4.713,0,8.533-3.821,8.533-8.533
			c0-6.958,14.958-17.067,38.4-17.067S197.283,224.473,197.283,231.432z"/>
		<path d="M355.15,197.298c-31.625,0-55.467,14.675-55.467,34.133c0,4.713,3.82,8.533,8.533,8.533s8.533-3.821,8.533-8.533
			c0-6.958,14.958-17.067,38.4-17.067c23.442,0,38.4,10.108,38.4,17.067c0,4.713,3.82,8.533,8.533,8.533s8.533-3.821,8.533-8.533
			C410.616,211.973,386.775,197.298,355.15,197.298z"/>
		<path d="M283.658,317.161c-19.735-2.07-39.645-1.831-59.325,0.712c-16.642,1.845-32.622,7.554-46.667,16.671
			c-7.422,4.988-13.898,11.257-19.125,18.512c-6.824,8.448-11.141,18.641-12.459,29.421c-0.228,9.501,4.223,18.509,11.908,24.1
			c3.736,2.616,8.181,4.029,12.742,4.05c2.687-0.004,5.35-0.5,7.858-1.462c14.247-5.828,29.353-9.282,44.717-10.225l9.167-0.354
			c8.208-0.321,16.442-0.646,24.683-0.775c14.371-0.438,28.753,0.282,43.008,2.154c12.059,1.757,23.886,4.843,35.267,9.2
			c6.868,2.623,14.592,1.655,20.6-2.583c7.695-5.614,12.148-14.644,11.917-24.167c0.002-0.663-0.077-1.323-0.233-1.967
			C356.091,331.39,310.066,319.736,283.658,317.161z M256.891,380.744c-8.375,0.133-16.742,0.463-25.092,0.792l-3.399,0.129
			c6.926-8.608,17.36-13.639,28.408-13.699c11.048-0.06,21.536,4.858,28.555,13.39C276.845,380.799,267.651,380.578,256.891,380.744
			z M346.35,392.528c-1.376,1.075-3.221,1.337-4.842,0.687c-11.607-4.416-23.633-7.639-35.892-9.619
			c-8.035-19.729-27.195-32.646-48.497-32.697c-21.302-0.051-40.524,12.775-48.654,32.464c-12.294,2.018-24.343,5.32-35.948,9.852
			c-1.62,0.662-3.472,0.398-4.842-0.691c-3.045-2.419-4.731-6.163-4.525-10.046c1.452-7.163,4.64-13.86,9.283-19.504
			c4.051-5.61,9.068-10.453,14.817-14.304c11.881-7.63,25.377-12.386,39.417-13.887c9.741-1.318,19.562-1.965,29.392-1.938
			c8.392,0,17.058,0.433,25.941,1.3c21.675,2.116,59.25,11.333,68.858,49.196C350.827,386.928,349.168,390.307,346.35,392.528z"/>
	</g>
</g>
<g>
</g>
<g>
</g>
<g>
</g>
<g>
</g>
<g>
</g>
<g>
</g>
<g>
</g>
<g>
</g>
<g>
</g>
<g>
</g>
<g>
</g>
<g>
</g>
<g>
</g>
<g>
</g>
<g>
</g>
</svg>
