<?xml version="1.0" encoding="iso-8859-1"?>
<!-- Generator: Adobe Illustrator 19.0.0, SVG Export Plug-In . SVG Version: 6.00 Build 0)  -->
<svg version="1.1" id="Capa_1" xmlns="http://www.w3.org/2000/svg" xmlns:xlink="http://www.w3.org/1999/xlink" x="0px" y="0px"
	 viewBox="0 0 512.032 512.032" style="enable-background:new 0 0 512.032 512.032;" xml:space="preserve">
<g transform="translate(-1 -1)">
	<g transform="translate(2 2)">
		<g>
			<path style="fill:#FFE0B2;" d="M446.931,332.685c47.701,14.336,57.003-35.584,37.376-69.12
				c-12.203-20.736-28.075-22.613-38.656-20.821H64.382c-10.581-1.792-26.453,0.085-38.656,20.821
				c-19.627,33.536-10.325,83.456,37.376,69.12H446.931z"/>
			<path style="fill:#FFE0B2;" d="M316.798,444.984c19.883,5.12,61.867,19.968,74.752,57.515H118.483
				c12.885-37.547,54.869-52.395,74.752-57.515H316.798z"/>
			<path style="fill:#FFE0B2;" d="M451.027,301.112c-1.536,29.44-9.984,90.965-74.411,124.672
				c-26.965,14.165-63.744,23.381-113.835,23.381h-15.531c-169.899,0-186.112-106.325-188.245-148.053
				c-2.048-41.813,7.765-38.144,16.981-171.605c2.816-40.704,18.773-67.84,39.765-85.931C163.454,2.189,236.67,7.821,236.67,7.821
				h36.693c0,0,151.552-11.691,160.683,121.685C443.262,262.968,453.075,259.298,451.027,301.112z"/>
		</g>
		<path style="fill:#FFECB3;" d="M425.427,318.178c-1.28,24.917-7.595,73.045-48.811,107.605
			c-26.965,14.165-63.744,23.381-113.835,23.381h-15.531c-169.899,0-186.112-106.325-188.245-148.053
			c-2.048-41.813,7.765-38.144,16.981-171.605c2.816-40.704,18.773-67.84,39.765-85.931c29.785-13.872,62.499-20.286,95.317-18.688
			h36.693c0,0,151.552-11.691,160.683,121.685C417.662,280.034,427.475,276.365,425.427,318.178z"/>
		<g>
			<path style="fill:#02A9F4;" d="M178.131,209.72c-0.839,15.836-13.923,28.246-29.781,28.246s-28.943-12.41-29.781-28.246"/>
			<path style="fill:#02A9F4;" d="M391.464,209.72c-0.839,15.836-13.923,28.246-29.781,28.246s-28.943-12.41-29.781-28.246"/>
		</g>
	</g>
	<g>
		<path d="M454.963,235.729c-3.05-21.057-6.752-52.065-10.371-104.789c-0.995-35.252-16.489-68.532-42.825-91.987
			C353.1-3.085,281.291,0.844,275.033,1.294L239.35,1.319c-3.125-0.237-77.217-5.433-127.083,37.633
			C85.93,62.407,70.437,95.688,69.441,130.94c-3.619,52.719-7.321,83.727-10.37,104.783c-16.604,0.787-31.452,10.581-38.713,25.533
			c-14,23.921-14.475,53.583-1.142,70.538c7.302,9.183,18.525,14.362,30.25,13.959c3.222-0.043,6.434-0.358,9.603-0.942
			c11.181,40.256,39.333,83.961,105.905,103.87c-24.081,9.687-43.099,28.879-52.566,53.047c-0.891,2.608-0.469,5.485,1.132,7.727
			c1.602,2.242,4.187,3.574,6.943,3.577H393.55c2.756-0.003,5.341-1.334,6.943-3.577s2.023-5.12,1.132-7.727
			c-9.469-24.169-28.489-43.362-52.571-53.049c66.558-19.91,94.712-63.614,105.901-103.869c3.172,0.585,6.387,0.9,9.612,0.943
			c11.725,0.403,22.948-4.775,30.25-13.958c13.333-16.954,12.858-46.617-1.15-70.554C486.399,246.3,471.558,236.518,454.963,235.729
			z M32.633,321.24c-8.875-11.279-7.8-33.842,2.45-51.35c4.13-8.598,11.998-14.808,21.32-16.829l-0.361,2.246
			c-3.179,15.856-4.363,32.046-3.525,48.196c0.416,8.279,1.347,16.523,2.789,24.686C47.044,330.269,38.31,327.592,32.633,321.24z
			 M380.216,495.965h-246.4c14.422-24.1,43.588-35.358,62.001-40.285c17.678,2.761,35.548,4.104,53.441,4.018h15.517
			c17.891,0.086,35.76-1.258,53.437-4.019C336.625,460.606,365.794,471.864,380.216,495.965z M264.775,442.632h-15.517
			c-112.933,0-175.075-48.408-179.692-139.992c-0.791-14.953,0.326-29.946,3.325-44.617c0.57-3.541,1.193-7.425,1.853-11.709
			c0.01-0.053,0.047-0.092,0.056-0.145c0.01-0.061-0.015-0.118-0.006-0.18c3.284-21.383,7.543-53.677,11.681-113.883
			c0.75-30.657,14.087-59.654,36.875-80.175c35.333-30.583,86.642-33.8,106.783-33.8c5.167,0,8.283,0.212,8.558,0.229h36.65
			c0.217,0,0.442-0.009,0.658-0.025c0.683-0.05,70.083-4.933,114.608,33.529c22.83,20.526,36.195,49.551,36.95,80.242
			c4.137,60.206,8.397,92.499,11.681,113.883c0.009,0.062-0.016,0.118-0.006,0.18c0.009,0.053,0.046,0.092,0.056,0.145
			c0.659,4.284,1.282,8.168,1.853,11.709c2.999,14.671,4.116,29.664,3.325,44.617C439.833,394.223,377.691,442.632,264.775,442.632z
			 M481.4,321.24c-5.677,6.356-14.415,9.032-22.678,6.946c1.443-8.16,2.376-16.403,2.794-24.679
			c0.838-16.151-0.346-32.343-3.525-48.2l-0.363-2.251c9.32,2.014,17.186,8.222,21.313,16.818
			C489.2,287.398,490.275,309.961,481.4,321.24z"/>
		<path d="M214.35,291.165c0,4.713,3.821,8.533,8.533,8.533c4.713,0,8.533-3.821,8.533-8.533c0-9.25,11.725-17.067,25.6-17.067
			c13.875,0,25.6,7.817,25.6,17.067c0,4.713,3.821,8.533,8.533,8.533c4.713,0,8.533-3.821,8.533-8.533
			c0-18.821-19.142-34.133-42.667-34.133C233.491,257.032,214.35,272.344,214.35,291.165z"/>
		<path d="M100.1,178.657c2.084,0.883,4.434,0.9,6.531,0.047s3.768-2.506,4.644-4.593c5.561-11.044,16.655-18.221,29.008-18.767
			c4.702-0.304,8.267-4.361,7.967-9.062c-0.119-2.269-1.148-4.394-2.855-5.895c-1.707-1.5-3.946-2.249-6.212-2.076
			c-18.792,0.98-35.538,12.176-43.625,29.167c-0.88,2.085-0.896,4.434-0.045,6.53C96.365,176.105,98.015,177.777,100.1,178.657
			L100.1,178.657z"/>
		<path d="M197.283,120.498c2.631,0.001,5.115-1.211,6.732-3.286c1.617-2.075,2.187-4.78,1.543-7.331
			c-4.005-15.902,6.961-27.504,16.99-34.492c12.478,17.184,27.286,44.352,18.01,67.538c-1.349,3.37-0.417,7.225,2.321,9.608
			c2.739,2.383,6.685,2.772,9.837,0.971c2.273-1.297,48.212-28.193,55.315-71.421c7.917,6.883,11.373,17.583,8.977,27.796
			c-0.644,2.551-0.074,5.256,1.543,7.331c1.617,2.075,4.102,3.287,6.732,3.286c1.475,0,36.125-0.667,42.617-58.787
			c0.52-4.684-2.854-8.903-7.538-9.425c-4.684-0.522-8.904,2.85-9.429,7.533c-2.608,23.367-10.017,34.217-16.208,39.254
			c-2.515-16.245-12.275-30.467-26.528-38.658c-0.054-0.358-0.037-0.695-0.097-1.054c-0.811-4.613-5.189-7.71-9.809-6.939
			c-4.62,0.771-7.755,5.121-7.025,9.748c4.733,28.404-15.375,51.512-30.767,64.65c-0.408-40.371-38.217-78.721-40.117-80.621
			c-3.341-3.281-8.701-3.256-12.012,0.054c-3.311,3.311-3.335,8.671-0.054,12.012c0.078,0.077,1.471,1.509,3.547,3.839
			c-13.037,8.191-21.827,21.688-24.047,36.924c-6.208-5.058-13.583-15.913-16.183-39.208c-0.524-4.683-4.745-8.055-9.429-7.533
			s-8.058,4.741-7.538,9.425C161.158,119.832,195.808,120.498,197.283,120.498z"/>
		<path d="M150.35,248.498c15.291,0.008,29.118-9.092,35.158-23.14c1.814,1.538,2.974,3.71,3.242,6.073
			c0,4.713,3.821,8.533,8.533,8.533c4.713,0,8.533-3.821,8.533-8.533c0-19.458-23.842-34.133-55.467-34.133
			s-55.467,14.675-55.467,34.133c0,4.713,3.821,8.533,8.533,8.533c4.713,0,8.533-3.821,8.533-8.533
			c0.268-2.363,1.428-4.535,3.242-6.073C121.232,239.406,135.058,248.507,150.35,248.498z M150.35,214.365
			c6.774-0.037,13.515,0.928,20.006,2.866c-2.972,8.505-10.997,14.202-20.006,14.202c-9.01,0-17.034-5.696-20.006-14.202
			C136.834,215.294,143.576,214.328,150.35,214.365z"/>
		<path d="M363.683,197.298c-31.625,0-55.467,14.675-55.467,34.133c0,4.713,3.82,8.533,8.533,8.533s8.533-3.821,8.533-8.533
			c0.268-2.363,1.428-4.535,3.242-6.073c6.047,14.042,19.869,23.14,35.158,23.14c15.289,0,29.111-9.098,35.158-23.14
			c1.814,1.538,2.974,3.71,3.242,6.073c0,4.713,3.82,8.533,8.533,8.533s8.533-3.821,8.533-8.533
			C419.15,211.973,395.308,197.298,363.683,197.298z M363.683,231.432c-9.01,0.003-17.036-5.694-20.006-14.201
			c13.064-3.821,26.949-3.821,40.013,0C380.719,225.737,372.693,231.435,363.683,231.432z"/>
		<path d="M373.75,155.344c12.366,0.566,23.463,7.762,29.025,18.821c1.859,4.316,6.857,6.317,11.181,4.475
			c4.323-1.842,6.344-6.832,4.519-11.163c-8.087-16.991-24.833-28.187-43.625-29.167c-2.266-0.172-4.505,0.576-6.211,2.077
			c-1.706,1.5-2.736,3.625-2.855,5.894C365.482,150.983,369.048,155.04,373.75,155.344L373.75,155.344z"/>
		<path d="M349.241,326.198c-2.727-1.364-5.975-1.169-8.519,0.511c-2.544,1.68-3.999,4.59-3.817,7.633
			c0.183,3.044,1.975,5.758,4.702,7.122c0.437,0.268,0.854,0.569,1.246,0.9H171.248c0.413-0.354,0.851-0.679,1.31-0.971
			c4.139-2.174,5.758-7.275,3.63-11.438c-2.128-4.163-7.21-5.839-11.397-3.758c-8.192,4.096-21.417,18.662-12.809,44.467
			c0.959,2.898,3.394,5.062,6.384,5.676s6.08-0.418,8.103-2.704s2.67-5.479,1.697-8.372c-0.641-1.904-1.137-3.854-1.483-5.833
			h180.645c-0.338,1.979-0.827,3.929-1.462,5.833c-0.973,2.893-0.326,6.086,1.697,8.372c2.023,2.286,5.113,3.317,8.103,2.704
			c2.99-0.613,5.425-2.778,6.384-5.676C370.658,344.861,357.433,330.294,349.241,326.198z"/>
	</g>
</g>
<g>
</g>
<g>
</g>
<g>
</g>
<g>
</g>
<g>
</g>
<g>
</g>
<g>
</g>
<g>
</g>
<g>
</g>
<g>
</g>
<g>
</g>
<g>
</g>
<g>
</g>
<g>
</g>
<g>
</g>
</svg>
