<?xml version="1.0" encoding="iso-8859-1"?>
<!-- Generator: Adobe Illustrator 19.0.0, SVG Export Plug-In . SVG Version: 6.00 Build 0)  -->
<svg version="1.1" id="Capa_1" xmlns="http://www.w3.org/2000/svg" xmlns:xlink="http://www.w3.org/1999/xlink" x="0px" y="0px"
	 viewBox="0 0 512.032 512.032" style="enable-background:new 0 0 512.032 512.032;" xml:space="preserve">
<g transform="translate(-1 -1)">
	<g transform="translate(2 2)">
		<g>
			<path style="fill:#FFE0B2;" d="M446.93,332.685c47.701,14.336,57.003-35.584,37.376-69.12
				c-12.203-20.736-28.075-22.613-38.656-20.821H64.381c-10.581-1.792-26.453,0.085-38.656,20.821
				c-19.627,33.536-10.325,83.456,37.376,69.12H446.93z"/>
			<path style="fill:#FFE0B2;" d="M316.797,444.984c19.883,5.12,61.867,19.968,74.752,57.515H118.482
				c12.885-37.547,54.869-52.395,74.752-57.515H316.797z"/>
			<path style="fill:#FFE0B2;" d="M451.026,301.112c-1.536,29.44-9.984,90.965-74.411,124.672
				c-26.965,14.165-63.744,23.381-113.835,23.381H247.25c-169.899,0-186.112-106.325-188.245-148.053
				c-2.048-41.813,7.765-38.144,16.981-171.605c2.816-40.704,18.773-67.84,39.765-85.931C163.453,2.189,236.669,7.821,236.669,7.821
				h36.693c0,0,151.552-11.691,160.683,121.685C443.261,262.968,453.074,259.298,451.026,301.112z"/>
		</g>
		<path style="fill:#FFECB3;" d="M425.426,318.178c-1.28,24.917-7.595,73.045-48.811,107.605
			c-26.965,14.165-63.744,23.381-113.835,23.381H247.25c-169.899,0-186.112-106.325-188.245-148.053
			c-2.048-41.813,7.765-38.144,16.981-171.605c2.816-40.704,18.773-67.84,39.765-85.931c29.785-13.872,62.499-20.286,95.317-18.688
			h36.693c0,0,151.552-11.691,160.683,121.685C417.661,280.034,427.474,276.365,425.426,318.178z"/>
		<g>
			<path style="fill:#2980BA;" d="M196.05,214.679c-2.288,12.717-12.741,22.369-25.6,23.637
				c-16.213,2.731-31.232-5.632-33.365-18.603c-0.841-5.482,0.541-11.072,3.84-15.531"/>
			<path style="fill:#2980BA;" d="M369.106,204.183c3.299,4.458,4.681,10.049,3.84,15.531
				c-2.133,12.971-17.152,21.333-33.365,18.603c-12.859-1.268-23.312-10.92-25.6-23.637"/>
		</g>
		<path style="fill:#37474F;" d="M178.215,331.832c10.063,11.561,19.328,23.792,27.733,36.608
			c4.179,6.378,7.942,13.019,11.264,19.883c1.365,2.901,2.475,5.803,3.755,8.704c1.407,3.538,3.334,6.845,5.717,9.813
			c7.522,7.351,17.842,11.112,28.331,10.325c10.488,0.787,20.808-2.974,28.331-10.325c2.381-3.017,4.333-6.348,5.803-9.899v-0.085
			c1.28-2.816,2.389-5.717,3.669-8.533c3.322-6.863,7.085-13.505,11.264-19.883c8.405-12.816,17.671-25.047,27.733-36.608H178.215z"
			/>
		<path style="fill:#E91E63;" d="M289.149,396.856v0.085c-1.469,3.551-3.422,6.882-5.803,9.899
			c-7.522,7.351-17.842,11.112-28.331,10.325c-10.488,0.787-20.808-2.974-28.331-10.325c-2.384-2.968-4.311-6.276-5.717-9.813
			l0.256-0.085c1.536-12.629,16.128-22.443,33.963-22.443S287.527,384.226,289.149,396.856z"/>
	</g>
	<g>
		<path d="M454.962,235.729c-3.049-21.057-6.752-52.065-10.371-104.789c-0.995-35.254-16.49-68.537-42.829-91.992
			C353.095-3.085,281.336,0.844,275.032,1.294l-35.688,0.025c-3.121-0.246-77.221-5.446-127.079,37.633
			C85.929,62.407,70.436,95.688,69.444,130.94c-3.622,52.733-7.327,83.742-10.378,104.798c-16.597,0.794-31.438,10.578-38.71,25.518
			c-13.996,23.921-14.475,53.583-1.137,70.538c7.298,9.183,18.519,14.362,30.242,13.958c3.225-0.043,6.441-0.359,9.613-0.944
			c11.186,40.255,39.34,83.959,105.903,103.87c-24.081,9.688-43.099,28.88-52.566,53.049c-0.896,2.607-0.476,5.486,1.125,7.73
			c1.602,2.243,4.189,3.575,6.945,3.575h273.067c2.757,0,5.344-1.331,6.945-3.574s2.021-5.123,1.125-7.73
			c-9.467-24.169-28.486-43.362-52.567-53.049c66.558-19.911,94.712-63.614,105.901-103.868c3.172,0.585,6.387,0.9,9.612,0.943
			c11.725,0.403,22.948-4.775,30.25-13.958c13.333-16.954,12.858-46.617-1.15-70.554
			C486.401,246.298,471.558,236.514,454.962,235.729z M32.632,321.24c-8.875-11.279-7.796-33.842,2.446-51.346
			c4.128-8.605,11.998-14.823,21.325-16.846l-0.366,2.276c-3.176,15.852-4.358,32.038-3.521,48.183
			c0.418,8.277,1.35,16.52,2.793,24.681C47.046,330.276,38.307,327.599,32.632,321.24L32.632,321.24z M380.22,495.965H133.811
			c14.427-24.097,43.598-35.358,62.012-40.286c17.677,2.761,35.547,4.105,53.438,4.019h15.508
			c17.891,0.086,35.76-1.258,53.438-4.019C336.621,460.607,365.793,471.868,380.22,495.965z M264.77,442.632h-15.508
			c-112.925,0-175.063-48.408-179.704-139.988c-0.786-14.949,0.333-29.937,3.329-44.604c0.572-3.551,1.198-7.446,1.86-11.744
			l0.048-0.127c0.009-0.053-0.013-0.102-0.005-0.154c3.286-21.382,7.545-53.678,11.68-113.908
			c0.753-30.657,14.091-59.653,36.879-80.175c35.333-30.583,86.633-33.8,106.779-33.8c5.167,0,8.283,0.212,8.558,0.229h36.658
			c0.221,0,0.438-0.009,0.658-0.025c0.695-0.05,70.074-4.933,114.604,33.529c22.83,20.526,36.196,49.55,36.95,80.242
			c4.137,60.206,8.397,92.499,11.681,113.883c0.009,0.062-0.016,0.118-0.006,0.18c0.009,0.054,0.046,0.093,0.056,0.146
			c0.659,4.284,1.282,8.167,1.852,11.708c2.999,14.671,4.116,29.664,3.325,44.617C439.832,394.223,377.69,442.632,264.77,442.632
			L264.77,442.632z M481.399,321.24c-5.677,6.356-14.415,9.033-22.678,6.946c1.443-8.161,2.376-16.403,2.794-24.68
			c0.838-16.151-0.346-32.343-3.525-48.2l-0.362-2.25c9.318,2.018,17.183,8.224,21.313,16.817
			C489.199,287.398,490.274,309.961,481.399,321.24z"/>
		<path d="M214.349,291.165c0,4.713,3.821,8.533,8.533,8.533s8.533-3.821,8.533-8.533c0-9.25,11.725-17.067,25.6-17.067
			c13.875,0,25.6,7.817,25.6,17.067c0,4.713,3.82,8.533,8.533,8.533s8.533-3.821,8.533-8.533c0-18.821-19.142-34.133-42.667-34.133
			S214.349,272.344,214.349,291.165z"/>
		<path d="M123.465,178.594c1.058,0.46,2.2,0.697,3.354,0.696c3.397-0.003,6.473-2.009,7.846-5.117
			c5.563-11.061,16.661-18.26,29.029-18.829c3.048-0.188,5.763-1.991,7.12-4.726c1.357-2.736,1.148-5.988-0.547-8.528
			c-1.695-2.54-4.618-3.981-7.665-3.779c-18.793,0.98-35.54,12.173-43.633,29.163C117.152,171.786,119.161,176.756,123.465,178.594
			L123.465,178.594z"/>
		<path d="M197.282,120.498c2.63-0.001,5.113-1.214,6.73-3.288c1.617-2.074,2.187-4.778,1.546-7.329
			c-4.002-15.899,6.963-27.503,16.988-34.491c12.478,17.184,27.288,44.352,18.011,67.537c-1.349,3.37-0.417,7.225,2.321,9.608
			c2.739,2.383,6.685,2.772,9.837,0.971c2.273-1.297,48.215-28.193,55.316-71.42c7.916,6.883,11.372,17.582,8.976,27.795
			c-0.641,2.551-0.071,5.254,1.545,7.329c1.617,2.074,4.1,3.287,6.73,3.288c1.471,0,36.125-0.667,42.612-58.787
			c0.522-4.683-2.85-8.903-7.533-9.425c-4.683-0.522-8.903,2.85-9.425,7.533c-2.612,23.367-10.021,34.217-16.212,39.254
			c-2.514-16.245-12.274-30.467-26.527-38.656c-0.054-0.359-0.038-0.696-0.098-1.057c-0.478-3.029-2.545-5.568-5.413-6.652
			c-2.869-1.084-6.098-0.545-8.459,1.411c-2.361,1.956-3.492,5.029-2.961,8.049c4.733,28.404-15.371,51.512-30.767,64.65
			c-0.413-40.371-38.217-78.721-40.117-80.62c-3.341-3.281-8.701-3.256-12.012,0.054c-3.311,3.311-3.335,8.671-0.054,12.012
			c0.077,0.077,1.471,1.51,3.548,3.843c-13.036,8.19-21.825,21.685-24.044,36.92c-6.217-5.058-13.587-15.913-16.192-39.208
			c-0.338-3.029-2.266-5.648-5.059-6.87s-6.025-0.861-8.479,0.946c-2.455,1.807-3.758,4.787-3.42,7.816
			C161.157,119.832,195.811,120.498,197.282,120.498z"/>
		<path d="M203.027,228.923c2.185,1.26,4.38,2.569,6.597,4.042c2.54,1.703,5.796,1.917,8.537,0.562
			c2.741-1.355,4.547-4.073,4.736-7.125c0.189-3.052-1.27-5.971-3.823-7.654c-27.029-19.367-61.139-26.034-93.471-18.271
			c-4.416,1.39-6.906,6.06-5.6,10.501c1.306,4.442,5.926,7.021,10.392,5.801c-0.157,2.11-0.066,4.23,0.271,6.319
			c1.379,7.772,5.815,14.666,12.317,19.142c6.846,4.736,14.996,7.226,23.321,7.125c2.534-0.001,5.064-0.213,7.562-0.633
			C186.093,246.909,196.826,239.618,203.027,228.923L203.027,228.923z M152.903,228.353c-2.81-1.866-4.758-4.778-5.408-8.087
			c-0.317-1.977-0.085-4.003,0.67-5.857c13.528-0.305,26.979,2.114,39.553,7.114c-3.835,5.673-9.901,9.448-16.685,10.381
			C164.757,233.109,158.259,231.837,152.903,228.353L152.903,228.353z"/>
		<path d="M351.428,138.311c-3.047-0.202-5.97,1.239-7.665,3.779c-1.695,2.54-1.903,5.792-0.547,8.528
			c1.357,2.736,4.072,4.538,7.12,4.726c12.367,0.569,23.464,7.768,29.025,18.829c1.863,4.314,6.863,6.31,11.185,4.466
			c4.322-1.844,6.34-6.836,4.515-11.166C386.968,150.484,370.221,139.291,351.428,138.311L351.428,138.311z"/>
		<path d="M388.428,200.478c-32.332-7.761-66.441-1.093-93.471,18.271c-3.904,2.618-4.957,7.9-2.355,11.814
			c2.602,3.915,7.88,4.989,11.805,2.402c2.217-1.474,4.411-2.787,6.594-4.048c6.2,10.699,16.934,17.992,29.165,19.814
			c2.499,0.421,5.028,0.633,7.563,0.633c8.324,0.1,16.474-2.39,23.321-7.125c6.485-4.459,10.916-11.328,12.304-19.075
			c0.341-2.109,0.434-4.25,0.276-6.381c4.467,1.221,9.089-1.358,10.396-5.8C395.332,206.542,392.844,201.87,388.428,200.478
			L388.428,200.478z M366.524,220.332c-0.66,3.285-2.602,6.172-5.396,8.021c-5.352,3.494-11.855,4.766-18.129,3.546
			c-6.797-0.93-12.874-4.715-16.706-10.405c12.563-5.032,26.017-7.46,39.547-7.139C366.614,216.246,366.851,218.314,366.524,220.332
			L366.524,220.332z"/>
		<path d="M342.111,335.007c0.108-0.385,0.188-0.778,0.237-1.176c0-0.118-0.062-0.216-0.067-0.333
			c-0.246-2.209-1.202-4.279-2.725-5.898c-0.085-0.079-0.119-0.189-0.208-0.265c-0.334-0.22-0.684-0.414-1.047-0.581
			c-0.963-0.745-2.133-1.173-3.349-1.226c-0.373-0.104-0.753-0.181-1.137-0.23h-153.6c-0.38,0.049-0.756,0.125-1.125,0.227
			c-1.215,0.05-2.384,0.476-3.346,1.219c-0.369,0.17-0.724,0.367-1.062,0.591c-0.089,0.076-0.122,0.186-0.208,0.265
			c-1.522,1.62-2.478,3.689-2.725,5.898c-0.005,0.117-0.067,0.215-0.067,0.333c0.05,0.397,0.129,0.79,0.237,1.176
			c0.056,1.206,0.484,2.364,1.223,3.318c0.166,0.361,0.359,0.708,0.577,1.04c9.828,11.272,18.877,23.202,27.083,35.704
			c3.962,6.048,7.521,12.351,10.654,18.867c0.738,1.579,1.404,3.183,2.075,4.783c2.054,5.594,4.956,10.839,8.604,15.55
			c9.072,9.484,21.912,14.411,35,13.429c13.009,0.936,25.756-3.988,34.758-13.425c3.652-4.711,6.554-9.957,8.604-15.554
			c0.671-1.6,1.338-3.204,2.075-4.779c3.132-6.518,6.692-12.822,10.654-18.871c8.206-12.503,17.255-24.432,27.083-35.704
			c0.218-0.332,0.41-0.68,0.577-1.04C341.628,337.372,342.055,336.213,342.111,335.007L342.111,335.007z M257.136,410.632
			c-7.967,0.624-15.849-1.991-21.862-7.254c-1.226-1.526-2.281-3.182-3.146-4.937c2.151-7.51,12.841-13.408,25.059-13.408
			c10.155-0.971,19.93,4.126,24.946,13.008c-0.916,1.903-2.048,3.694-3.376,5.338C272.817,408.602,265.025,411.217,257.136,410.632
			L257.136,410.632z M298.861,365.861c-3.401,5.306-6.059,9.975-8.45,14.48c-19.167-16.577-47.62-16.491-66.687,0.2
			c-2.415-4.564-5.103-9.294-8.555-14.68c-4.765-7.438-10.37-15.158-16.948-23.496h117.587
			C309.231,350.703,303.626,358.423,298.861,365.861z"/>
	</g>
</g>
<g>
</g>
<g>
</g>
<g>
</g>
<g>
</g>
<g>
</g>
<g>
</g>
<g>
</g>
<g>
</g>
<g>
</g>
<g>
</g>
<g>
</g>
<g>
</g>
<g>
</g>
<g>
</g>
<g>
</g>
</svg>
