<?xml version="1.0" encoding="iso-8859-1"?>
<!-- Generator: Adobe Illustrator 19.0.0, SVG Export Plug-In . SVG Version: 6.00 Build 0)  -->
<svg version="1.1" id="Capa_1" xmlns="http://www.w3.org/2000/svg" xmlns:xlink="http://www.w3.org/1999/xlink" x="0px" y="0px"
	 viewBox="0 0 512.03 512.03" style="enable-background:new 0 0 512.03 512.03;" xml:space="preserve">
<g transform="translate(-1 -1)">
	<g transform="translate(2 2)">
		<g>
			<path style="fill:#FFE0B2;" d="M446.93,332.683c47.701,14.336,57.003-35.584,37.376-69.12
				c-12.203-20.736-28.075-22.613-38.656-20.821H64.381c-10.581-1.792-26.453,0.085-38.656,20.821
				c-19.627,33.536-10.325,83.456,37.376,69.12H446.93z"/>
			<path style="fill:#FFE0B2;" d="M316.797,444.982c19.883,5.12,61.867,19.968,74.752,57.515H118.482
				c12.885-37.547,54.869-52.395,74.752-57.515H316.797z"/>
			<path style="fill:#FFE0B2;" d="M451.026,301.11c-1.536,29.44-9.984,90.965-74.411,124.672
				c-26.965,14.165-63.744,23.381-113.835,23.381H247.25c-169.899,0-186.112-106.325-188.245-148.053
				c-2.048-41.813,7.765-38.144,16.981-171.605c2.816-40.704,18.773-67.84,39.765-85.931C163.453,2.187,236.669,7.819,236.669,7.819
				h36.693c0,0,151.552-11.691,160.683,121.685C443.261,262.966,453.074,259.297,451.026,301.11z"/>
		</g>
		<path style="fill:#FFECB3;" d="M425.426,318.177c-1.28,24.917-7.595,73.045-48.811,107.605
			c-26.965,14.165-63.744,23.381-113.835,23.381H247.25c-169.899,0-186.112-106.325-188.245-148.053
			c-2.048-41.813,7.765-38.144,16.981-171.605c2.816-40.704,18.773-67.84,39.765-85.931c29.785-13.872,62.499-20.286,95.317-18.688
			h36.693c0,0,151.552-11.691,160.683,121.685C417.661,280.033,427.474,276.363,425.426,318.177z"/>
		<g>
			<path style="fill:#2296F3;" d="M178.13,209.718c-0.839,15.836-13.923,28.246-29.781,28.246s-28.943-12.41-29.781-28.246"/>
			<path style="fill:#2296F3;" d="M391.464,209.718c-0.839,15.836-13.923,28.246-29.781,28.246s-28.943-12.41-29.781-28.246"/>
		</g>
		<path style="fill:#37474F;" d="M314.749,365.963c0,17.835,0,33.024-25.771,39.509c-1.617-17.55-16.338-30.978-33.963-30.978
			c-17.624,0-32.346,13.428-33.963,30.978c-25.771-6.485-25.771-21.675-25.771-39.509c0-23.552,26.709-42.667,59.733-42.667
			S314.749,342.411,314.749,365.963z"/>
		<path style="fill:#E91E63;" d="M288.978,405.473c-11.159,2.374-22.557,3.434-33.963,3.157
			c-11.405,0.277-22.804-0.783-33.963-3.157c1.617-17.55,16.338-30.978,33.963-30.978
			C272.64,374.495,287.362,387.923,288.978,405.473L288.978,405.473z"/>
		<g>
			<path style="fill:#7F6E5D;" d="M195.282,237.963c-4.713,0-8.533-3.821-8.533-8.533c0-6.958-14.958-17.067-38.4-17.067
				s-38.4,10.108-38.4,17.067c0,4.713-3.821,8.533-8.533,8.533c-4.713,0-8.533-3.821-8.533-8.533
				c0-19.458,23.846-34.133,55.467-34.133s55.467,14.675,55.467,34.133C203.816,234.143,199.995,237.963,195.282,237.963z"/>
			<path style="fill:#7F6E5D;" d="M408.616,237.963c-4.713,0-8.533-3.821-8.533-8.533c0-6.958-14.958-17.067-38.4-17.067
				c-23.442,0-38.4,10.108-38.4,17.067c0,4.713-3.82,8.533-8.533,8.533s-8.533-3.821-8.533-8.533
				c0-19.458,23.846-34.133,55.467-34.133s55.467,14.675,55.467,34.133C417.149,234.143,413.328,237.963,408.616,237.963z"/>
		</g>
	</g>
	<g>
		<path d="M454.964,235.736c-3.05-21.057-6.755-52.066-10.378-104.798c-0.992-35.252-16.485-68.533-42.821-91.988
			C353.103-3.087,281.353,0.847,275.032,1.293l-35.688,0.025c-3.138-0.246-77.221-5.446-127.079,37.633
			c-26.336,23.454-41.829,56.735-42.821,91.987c-3.622,52.733-7.327,83.742-10.378,104.798
			c-16.596,0.795-31.438,10.579-38.71,25.518c-13.996,23.921-14.475,53.583-1.137,70.538c7.298,9.183,18.519,14.362,30.242,13.958
			c3.225-0.043,6.441-0.359,9.613-0.944c11.186,40.255,39.34,83.959,105.903,103.87c-24.081,9.688-43.099,28.88-52.566,53.049
			c-0.896,2.607-0.476,5.486,1.125,7.73c1.602,2.243,4.189,3.575,6.945,3.575h273.067c2.757,0,5.344-1.331,6.945-3.574
			c1.602-2.243,2.021-5.123,1.125-7.73c-9.467-24.169-28.485-43.361-52.566-53.049c66.561-19.91,94.716-63.614,105.902-103.869
			c3.172,0.585,6.388,0.9,9.614,0.943c11.723,0.403,22.943-4.776,30.242-13.958c13.338-16.954,12.858-46.617-1.15-70.558
			C486.392,246.302,471.554,236.525,454.964,235.736z M32.632,321.238c-8.875-11.279-7.796-33.842,2.446-51.346
			c4.13-8.603,11.999-14.819,21.325-16.846l-0.366,2.275c-3.176,15.852-4.358,32.038-3.521,48.183
			c0.418,8.277,1.35,16.52,2.793,24.681C47.046,330.273,38.308,327.596,32.632,321.238L32.632,321.238z M380.22,495.963H133.811
			c14.427-24.097,43.598-35.358,62.012-40.286c17.677,2.761,35.547,4.105,53.438,4.019h15.508
			c17.891,0.086,35.761-1.258,53.438-4.019C336.622,460.606,365.793,471.867,380.22,495.963z M264.77,442.63h-15.508
			c-112.925,0-175.063-48.408-179.704-139.988c-0.786-14.949,0.333-29.937,3.329-44.604c0.573-3.551,1.198-7.446,1.86-11.745
			l0.048-0.126c0.009-0.053-0.013-0.102-0.005-0.154c3.286-21.382,7.545-53.678,11.68-113.908
			c0.753-30.657,14.091-59.653,36.879-80.175c35.333-30.583,86.633-33.8,106.779-33.8c5.167,0,8.283,0.212,8.558,0.229h36.658
			c0.212,0,0.438-0.009,0.65-0.025c0.692-0.058,70.296-4.829,114.687,33.596c22.788,20.522,36.126,49.518,36.879,80.175
			c4.134,60.23,8.394,92.527,11.68,113.908c0.008,0.053-0.013,0.101-0.005,0.154l0.048,0.126c0.662,4.298,1.287,8.194,1.86,11.745
			c2.996,14.665,4.115,29.652,3.329,44.6C439.832,394.222,377.695,442.63,264.77,442.63L264.77,442.63z M481.399,321.238
			c-5.674,6.36-14.414,9.037-22.677,6.947c1.443-8.162,2.376-16.406,2.793-24.684c0.838-16.144-0.345-32.329-3.521-48.179
			l-0.366-2.275c9.32,2.019,17.185,8.228,21.312,16.826C489.195,287.397,490.274,309.959,481.399,321.238z"/>
		<path d="M188.749,231.43c0,4.713,3.821,8.533,8.533,8.533c4.713,0,8.533-3.821,8.533-8.533c0-19.458-23.846-34.133-55.467-34.133
			s-55.467,14.675-55.467,34.133c0,4.713,3.821,8.533,8.533,8.533c4.713,0,8.533-3.821,8.533-8.533
			c0.269-2.364,1.429-4.537,3.244-6.075c6.045,14.043,19.867,23.142,35.156,23.142c15.289,0,29.111-9.098,35.156-23.141
			C187.32,226.894,188.48,229.066,188.749,231.43L188.749,231.43z M150.349,231.43c-9.01,0.002-17.035-5.695-20.005-14.202
			c13.063-3.82,26.946-3.82,40.009,0C167.384,225.735,159.359,231.433,150.349,231.43z"/>
		<path d="M214.349,291.163c0,4.713,3.821,8.533,8.533,8.533c4.713,0,8.533-3.82,8.533-8.533c0-9.25,11.725-17.067,25.6-17.067
			c13.875,0,25.6,7.817,25.6,17.067c0,4.713,3.82,8.533,8.533,8.533s8.533-3.82,8.533-8.533c0-18.821-19.142-34.133-42.667-34.133
			S214.349,272.343,214.349,291.163z"/>
		<path d="M100.049,178.593c1.058,0.46,2.2,0.697,3.354,0.696c3.397-0.003,6.473-2.009,7.846-5.117
			c5.563-11.061,16.661-18.259,29.029-18.829c3.048-0.189,5.762-1.991,7.118-4.727c1.356-2.736,1.148-5.987-0.547-8.527
			c-1.695-2.54-4.617-3.981-7.664-3.779c-18.793,0.98-35.54,12.173-43.633,29.163C93.735,171.784,95.745,176.755,100.049,178.593z"
			/>
		<path d="M197.282,120.497c2.63-0.001,5.113-1.214,6.73-3.288c1.617-2.074,2.187-4.778,1.545-7.329
			c-4.002-15.899,6.963-27.503,16.988-34.491c12.478,17.184,27.288,44.352,18.011,67.537c-1.349,3.37-0.417,7.225,2.321,9.608
			s6.685,2.772,9.837,0.971c2.273-1.297,48.215-28.193,55.316-71.42c7.916,6.883,11.372,17.582,8.976,27.795
			c-0.641,2.551-0.071,5.254,1.545,7.329c1.617,2.074,4.1,3.287,6.73,3.288c1.471,0,36.125-0.667,42.612-58.788
			c0.522-4.683-2.85-8.903-7.533-9.425c-4.683-0.522-8.903,2.85-9.425,7.533c-2.613,23.367-10.021,34.217-16.212,39.254
			c-2.514-16.245-12.274-30.467-26.527-38.656c-0.054-0.359-0.038-0.696-0.098-1.057c-0.478-3.029-2.545-5.568-5.413-6.652
			c-2.869-1.084-6.098-0.545-8.459,1.411c-2.361,1.956-3.492,5.029-2.961,8.049c4.733,28.404-15.371,51.512-30.767,64.65
			c-0.413-40.371-38.217-78.721-40.117-80.62c-3.341-3.281-8.701-3.256-12.012,0.054c-3.311,3.311-3.335,8.671-0.054,12.012
			c0.077,0.077,1.471,1.51,3.548,3.843c-13.036,8.19-21.825,21.685-24.044,36.92c-6.217-5.058-13.587-15.913-16.192-39.208
			c-0.338-3.029-2.266-5.648-5.059-6.87c-2.792-1.222-6.025-0.861-8.479,0.946c-2.455,1.807-3.758,4.787-3.42,7.816
			C161.157,119.83,195.811,120.497,197.282,120.497z"/>
		<path d="M363.682,197.297c-31.621,0-55.467,14.675-55.467,34.133c0,4.713,3.821,8.533,8.533,8.533s8.533-3.821,8.533-8.533
			c0.269-2.364,1.429-4.537,3.244-6.075c6.045,14.043,19.867,23.142,35.156,23.142c15.289,0,29.111-9.098,35.156-23.141
			c1.815,1.538,2.975,3.711,3.244,6.074c0,4.713,3.82,8.533,8.533,8.533s8.533-3.821,8.533-8.533
			C419.149,211.972,395.303,197.297,363.682,197.297z M363.682,231.43c-9.01,0.002-17.035-5.695-20.005-14.202
			c13.063-3.82,26.946-3.82,40.009,0C380.718,225.735,372.692,231.433,363.682,231.43z"/>
		<path d="M374.845,138.309c-4.684-0.245-8.708,3.294-9.062,7.971c-0.3,4.703,3.268,8.76,7.971,9.062
			c12.367,0.569,23.465,7.768,29.025,18.829c1.863,4.314,6.863,6.31,11.185,4.466c4.322-1.844,6.34-6.836,4.515-11.166
			C410.385,150.482,393.638,139.289,374.845,138.309L374.845,138.309z"/>
		<path d="M257.016,316.763c-37.642,0-68.267,22.967-68.267,51.2c0,21.915,2.911,39.921,31.58,47.426
			c0.631,0.276,1.295,0.472,1.975,0.582c0.152,0.015,0.284-0.053,0.434-0.047c11.268,2.362,22.767,3.449,34.278,3.239
			c11.393,0.201,22.774-0.86,33.934-3.162l0.02,0.004c0.25,0,0.504-0.012,0.758-0.033c0.68-0.11,1.343-0.306,1.975-0.582
			c28.669-7.505,31.58-25.511,31.58-47.426C325.282,339.73,294.657,316.763,257.016,316.763z M233.436,400.849
			c3.922-9.569,13.238-15.819,23.579-15.819c10.341,0,19.657,6.25,23.579,15.819c-7.825,0.917-15.701,1.334-23.579,1.248
			C249.137,402.182,241.262,401.766,233.436,400.849L233.436,400.849z M297.1,396.373c-5.975-17.019-22.047-28.41-40.084-28.41
			s-34.109,11.391-40.084,28.41c-11.029-5.607-11.116-15.217-11.116-28.41c0-18.504,23.446-34.133,51.2-34.133
			s51.2,15.629,51.2,34.133C308.216,381.157,308.129,390.766,297.1,396.373L297.1,396.373z"/>
	</g>
</g>
<g>
</g>
<g>
</g>
<g>
</g>
<g>
</g>
<g>
</g>
<g>
</g>
<g>
</g>
<g>
</g>
<g>
</g>
<g>
</g>
<g>
</g>
<g>
</g>
<g>
</g>
<g>
</g>
<g>
</g>
</svg>
