<?xml version="1.0" encoding="iso-8859-1"?>
<!-- Generator: Adobe Illustrator 19.0.0, SVG Export Plug-In . SVG Version: 6.00 Build 0)  -->
<svg version="1.1" id="Capa_1" xmlns="http://www.w3.org/2000/svg" xmlns:xlink="http://www.w3.org/1999/xlink" x="0px" y="0px"
	 viewBox="0 0 512.03 512.03" style="enable-background:new 0 0 512.03 512.03;" xml:space="preserve">
<g transform="translate(-1 -1)">
	<g transform="translate(2 2)">
		<g>
			<path style="fill:#FFE0B2;" d="M446.93,332.683c47.701,14.336,57.003-35.584,37.376-69.12
				c-12.203-20.736-28.075-22.613-38.656-20.821H64.381c-10.581-1.792-26.453,0.085-38.656,20.821
				c-19.627,33.536-10.325,83.456,37.376,69.12H446.93z"/>
			<path style="fill:#FFE0B2;" d="M316.797,444.982c19.883,5.12,61.867,19.968,74.752,57.515H118.482
				c12.885-37.547,54.869-52.395,74.752-57.515H316.797z"/>
			<path style="fill:#FFE0B2;" d="M451.026,301.11c-1.536,29.44-9.984,90.965-74.411,124.672
				c-26.965,14.165-63.744,23.381-113.835,23.381H247.25c-169.899,0-186.112-106.325-188.245-148.053
				c-2.048-41.813,7.765-38.144,16.981-171.605c2.816-40.704,18.773-67.84,39.765-85.931C163.453,2.187,236.669,7.819,236.669,7.819
				h36.693c0,0,151.552-11.691,160.683,121.685C443.261,262.966,453.074,259.297,451.026,301.11z"/>
		</g>
		<path style="fill:#FFECB3;" d="M425.426,318.177c-1.28,24.917-7.595,73.045-48.811,107.605
			c-26.965,14.165-63.744,23.381-113.835,23.381H247.25c-169.899,0-186.112-106.325-188.245-148.053
			c-2.048-41.813,7.765-38.144,16.981-171.605c2.816-40.704,18.773-67.84,39.765-85.931c29.785-13.872,62.499-20.286,95.317-18.688
			h36.693c0,0,151.552-11.691,160.683,121.685C417.661,280.033,427.474,276.363,425.426,318.177z"/>
		<g>
			<circle style="fill:#02A9F4;" cx="148.349" cy="225.163" r="21.333"/>
			<circle style="fill:#02A9F4;" cx="361.682" cy="225.163" r="21.333"/>
		</g>
	</g>
	<g>
		<path d="M454.964,235.736c-3.05-21.057-6.755-52.066-10.378-104.798c-0.992-35.252-16.485-68.533-42.821-91.988
			C353.107-3.087,281.357,0.847,275.032,1.293l-35.688,0.025c-3.133-0.246-77.221-5.446-127.079,37.633
			c-26.336,23.454-41.829,56.735-42.821,91.987c-3.622,52.733-7.327,83.742-10.378,104.798c-16.596,0.797-31.436,10.58-38.71,25.518
			c-13.996,23.921-14.475,53.583-1.137,70.538c7.298,9.183,18.519,14.362,30.242,13.958c3.225-0.043,6.441-0.359,9.613-0.944
			c11.186,40.255,39.34,83.959,105.903,103.87c-24.081,9.688-43.099,28.88-52.566,53.049c-0.896,2.607-0.476,5.486,1.125,7.73
			c1.602,2.243,4.189,3.575,6.945,3.575h273.067c2.757,0,5.344-1.331,6.945-3.574c1.602-2.243,2.021-5.123,1.125-7.73
			c-9.467-24.169-28.485-43.361-52.566-53.049c66.561-19.91,94.716-63.614,105.902-103.869c3.172,0.585,6.388,0.9,9.614,0.943
			c11.723,0.403,22.943-4.776,30.242-13.958c13.338-16.954,12.858-46.617-1.15-70.558
			C486.393,246.301,471.554,236.524,454.964,235.736z M32.632,321.238c-8.875-11.279-7.796-33.842,2.446-51.346
			c4.126-8.607,11.997-14.825,21.325-16.847l-0.367,2.276c-3.176,15.852-4.358,32.038-3.521,48.183
			c0.418,8.277,1.35,16.52,2.793,24.681C47.046,330.274,38.307,327.596,32.632,321.238L32.632,321.238z M380.22,495.963H133.811
			c14.427-24.097,43.598-35.358,62.012-40.286c17.677,2.761,35.547,4.105,53.438,4.019h15.508
			c17.891,0.086,35.761-1.258,53.438-4.019C336.622,460.606,365.793,471.867,380.22,495.963z M264.77,442.63h-15.508
			c-112.925,0-175.063-48.408-179.704-139.988c-0.786-14.949,0.333-29.937,3.329-44.604c0.573-3.551,1.198-7.446,1.86-11.745
			l0.048-0.126c0.009-0.053-0.013-0.102-0.005-0.154c3.286-21.382,7.545-53.678,11.68-113.908
			c0.753-30.657,14.091-59.653,36.879-80.175c35.333-30.583,86.633-33.8,106.779-33.8c5.167,0,8.283,0.212,8.558,0.229h36.658
			c0.212,0,0.438-0.009,0.65-0.025c0.692-0.058,70.296-4.829,114.687,33.596c22.788,20.522,36.126,49.518,36.879,80.175
			c4.134,60.23,8.394,92.527,11.68,113.908c0.008,0.053-0.013,0.101-0.005,0.154l0.048,0.127c0.662,4.298,1.288,8.193,1.86,11.744
			c2.996,14.665,4.115,29.652,3.329,44.6C439.832,394.222,377.695,442.63,264.77,442.63L264.77,442.63z M481.399,321.238
			c-5.674,6.36-14.414,9.037-22.677,6.947c1.443-8.162,2.376-16.406,2.793-24.684c0.838-16.144-0.345-32.329-3.521-48.179
			l-0.366-2.274c9.318,2.023,17.182,8.231,21.312,16.824C489.195,287.397,490.274,309.959,481.399,321.238z"/>
		<path d="M150.349,197.297c-29.425-1.097-54.21,21.781-55.467,51.2c0,4.713,3.821,8.533,8.533,8.533
			c4.713,0,8.533-3.821,8.533-8.533c0.102-7.887,3.151-15.45,8.546-21.203c0.068,16.439,13.414,29.73,29.854,29.73
			s29.786-13.291,29.854-29.73c5.396,5.753,8.444,13.316,8.546,21.203c0,4.713,3.821,8.533,8.533,8.533
			c4.713,0,8.533-3.821,8.533-8.533C204.559,219.078,179.774,196.2,150.349,197.297z M150.349,239.963
			c-7.069,0-12.8-5.731-12.8-12.8c0-7.069,5.731-12.8,12.8-12.8c7.069,0,12.8,5.731,12.8,12.8
			C163.141,234.229,157.415,239.956,150.349,239.963L150.349,239.963z"/>
		<path d="M363.682,197.297c-29.425-1.097-54.21,21.781-55.467,51.2c0,4.713,3.821,8.533,8.533,8.533s8.533-3.821,8.533-8.533
			c0.102-7.887,3.15-15.45,8.546-21.203c0.068,16.439,13.414,29.73,29.854,29.73c16.44,0,29.786-13.291,29.854-29.73
			c5.396,5.753,8.444,13.316,8.546,21.203c0,4.713,3.82,8.533,8.533,8.533s8.533-3.821,8.533-8.533
			C417.892,219.078,393.107,196.2,363.682,197.297z M363.682,239.963c-7.069,0-12.8-5.731-12.8-12.8c0-7.069,5.731-12.8,12.8-12.8
			c7.069,0,12.8,5.731,12.8,12.8C376.475,234.229,370.748,239.956,363.682,239.963z"/>
		<path d="M257.016,257.03c-28.708,0-51.2,14.992-51.2,34.133c0,4.713,3.821,8.533,8.533,8.533s8.533-3.82,8.533-8.533
			c0-8.058,14.596-17.067,34.133-17.067s34.133,9.008,34.133,17.067c0,4.713,3.82,8.533,8.533,8.533s8.533-3.82,8.533-8.533
			C308.216,272.022,285.724,257.03,257.016,257.03z"/>
		<path d="M137.549,171.697c2.264,0.003,4.435-0.897,6.033-2.5c9.314-8.124,22.283-10.597,33.933-6.471
			c4.471,1.491,9.305-0.925,10.796-5.396c1.491-4.471-0.925-9.305-5.396-10.796c-17.78-6.155-37.503-2.089-51.4,10.596
			c-2.44,2.44-3.169,6.11-1.849,9.298C130.987,169.617,134.098,171.696,137.549,171.697z"/>
		<path d="M331.116,146.534c-4.471,1.491-6.887,6.325-5.396,10.796c1.491,4.471,6.325,6.887,10.796,5.396
			c11.668-4.124,24.654-1.636,33.971,6.508c3.351,3.271,8.712,3.231,12.013-0.091s3.308-8.683,0.016-12.013
			C368.621,144.441,348.896,140.374,331.116,146.534z"/>
		<path d="M197.282,120.497c2.63-0.001,5.113-1.214,6.73-3.288c1.617-2.074,2.187-4.778,1.545-7.329
			c-4.002-15.899,6.963-27.503,16.988-34.491c12.478,17.184,27.288,44.352,18.011,67.537c-1.349,3.37-0.417,7.225,2.321,9.608
			s6.685,2.772,9.837,0.971c2.273-1.297,48.215-28.193,55.316-71.42c7.916,6.883,11.372,17.582,8.976,27.795
			c-0.641,2.551-0.071,5.254,1.545,7.329c1.617,2.074,4.1,3.287,6.73,3.288c1.471,0,36.125-0.667,42.612-58.788
			c0.522-4.683-2.85-8.903-7.533-9.425c-4.683-0.522-8.903,2.85-9.425,7.533c-2.613,23.367-10.021,34.217-16.212,39.254
			c-2.514-16.245-12.274-30.467-26.527-38.656c-0.054-0.359-0.038-0.696-0.098-1.057c-0.478-3.029-2.545-5.568-5.413-6.652
			c-2.869-1.084-6.098-0.545-8.459,1.411c-2.361,1.956-3.492,5.029-2.961,8.049c4.733,28.404-15.371,51.512-30.767,64.65
			c-0.413-40.371-38.217-78.721-40.117-80.62c-3.341-3.281-8.701-3.256-12.012,0.054c-3.311,3.311-3.335,8.671-0.054,12.012
			c0.077,0.077,1.471,1.51,3.548,3.843c-13.036,8.19-21.825,21.685-24.044,36.92c-6.217-5.058-13.587-15.913-16.192-39.208
			c-0.338-3.029-2.266-5.648-5.059-6.87c-2.792-1.222-6.025-0.861-8.479,0.946c-2.455,1.807-3.758,4.787-3.42,7.816
			C161.157,119.83,195.811,120.497,197.282,120.497z"/>
		<path d="M282.616,342.363h-51.2c-4.713,0-8.533,3.82-8.533,8.533s3.821,8.533,8.533,8.533h51.2c4.713,0,8.533-3.82,8.533-8.533
			S287.328,342.363,282.616,342.363z"/>
		<path d="M265.549,367.963h-17.067c-4.713,0-8.533,3.82-8.533,8.533s3.821,8.533,8.533,8.533h17.067
			c4.713,0,8.533-3.82,8.533-8.533S270.262,367.963,265.549,367.963z"/>
	</g>
</g>
<g>
</g>
<g>
</g>
<g>
</g>
<g>
</g>
<g>
</g>
<g>
</g>
<g>
</g>
<g>
</g>
<g>
</g>
<g>
</g>
<g>
</g>
<g>
</g>
<g>
</g>
<g>
</g>
<g>
</g>
</svg>
