<?xml version="1.0" encoding="iso-8859-1"?>
<!-- Generator: Adobe Illustrator 19.0.0, SVG Export Plug-In . SVG Version: 6.00 Build 0)  -->
<svg version="1.1" id="Capa_1" xmlns="http://www.w3.org/2000/svg" xmlns:xlink="http://www.w3.org/1999/xlink" x="0px" y="0px"
	 viewBox="0 0 503.843 503.843" style="enable-background:new 0 0 503.843 503.843;" xml:space="preserve">
<g transform="translate(0 -1)">
	<g transform="translate(0 2)">
		<g>
			<path style="fill:#AD1457;" d="M487.2,431.421c-0.632-3.045-2.058-5.869-4.135-8.184c-5.283,5.721-12.808,8.838-20.589,8.529
				c-7.876-0.983-13.745-7.743-13.612-15.679c0.691-3.59,1.941-7.049,3.704-10.252c4.737-10.862,5.168-23.119,1.206-34.287
				c-6.287-16.484-20.91-28.346-38.336-31.099c-7.544-1.234-15.213-1.523-22.829-0.862c-3.183,0.073-6.353,0.419-9.476,1.034
				c2.444-8.852,0.969-18.326-4.049-26.017c-6.506,5.697-15.443,7.737-23.777,5.427c-4.91,8.27-6.805,17.918-11.285,26.361
				c-3.095,5.698-6.761,11.066-10.941,16.023c-1.551,1.981-3.273,3.877-4.997,5.772c-0.431,0.517-0.948,1.034-1.378,1.465
				c6.613,5.751,15.197,8.716,23.949,8.27c-0.517,36.01,11.371,78.481,46.692,95.28c21.546,8.972,45.85,8.598,67.109-1.034
				c12.544-5.167,21.334-16.688,23.001-30.152C487.89,438.491,487.803,434.921,487.2,431.421z"/>
			<g>
				<path style="fill:#FFEB3A;" d="M487.434,442.996c-1.625,13.117-10.189,24.343-22.411,29.377
					c-6.641,2.943-13.639,5.002-20.816,6.127c-15.034,2.801-30.562,1.018-44.569-5.12c-34.413-16.367-45.996-57.747-45.492-92.831
					l25.516-29.209l6.043-6.967l0.084-0.168c3.043-0.599,6.132-0.936,9.233-1.007c7.42-0.645,14.892-0.363,22.243,0.839
					c16.978,2.682,31.225,14.24,37.351,30.3c3.86,10.881,3.44,22.823-1.175,33.406c-1.718,3.12-2.936,6.49-3.609,9.988
					c-0.13,7.732,5.588,14.319,13.262,15.276c7.581,0.301,14.913-2.736,20.06-8.31c2.023,2.256,3.413,5.007,4.029,7.974
					C487.769,436.082,487.853,439.56,487.434,442.996L487.434,442.996z"/>
				<path style="fill:#FFEB3A;" d="M462.254,451.389c-1.339,11.401-8.045,21.476-18.046,27.111
					c-15.034,2.801-30.562,1.018-44.569-5.12c-34.413-16.367-45.996-57.747-45.492-92.831l25.516-29.209
					c4.163,0.026,8.318,0.391,12.422,1.091c16.978,2.682,31.225,14.24,37.351,30.3c3.86,10.881,3.44,22.823-1.175,33.406
					c-1.718,3.12-2.936,6.49-3.609,9.988c-0.13,7.732,5.588,14.319,13.262,15.276c7.581,0.301,14.913-2.736,20.06-8.309
					c2.023,2.256,3.413,5.007,4.029,7.974C462.588,444.476,462.673,447.954,462.254,451.389z"/>
			</g>
		</g>
		<path style="fill:none;stroke:#000000;stroke-width:2;stroke-linecap:round;stroke-linejoin:round;" d="M319.145,327.25
			c-3.699,12.938-11.007,24.554-21.068,33.49c2.645,5.414,6.39,10.216,10.995,14.101"/>
		<g>
			<path style="fill:#AD1457;" d="M433.716,55.546c0.011-21.754-15.174-40.56-36.442-45.134
				c-21.268-4.573-42.841,6.329-51.773,26.164c-10.81-6.54-22.327-11.834-34.329-15.78c-38.065-11.939-78.405-14.757-117.76-8.226
				c-24.542,3.911-48.362,11.464-70.673,22.41c-10.036,4.925-19.737,10.505-29.041,16.703c-7.538,4.975-14.822,10.326-21.823,16.031
				c-11.026,8.998-21.3,18.879-30.72,29.545c-3.674,4.089-7.12,8.376-10.324,12.842l0.168,0.504
				c-0.235,0.146-0.489,0.259-0.755,0.336c-4.285,1.799-7.63,5.296-9.237,9.657c-1.607,4.36-1.332,9.192,0.76,13.342l9.065,18.13
				c0,0,187.509-97.868,337.584,116.417c0.336,0.42,0.671,0.923,1.007,1.427c0.42,0.504,0.755,1.091,1.175,1.679
				c1.511,2.098,2.938,4.197,4.365,6.379l16.703-8.393c4.347-2.164,7.545-6.103,8.768-10.803c1.223-4.699,0.352-9.698-2.389-13.706
				c-0.504-0.755-1.007-1.511-1.511-2.182l0.839-0.587c6.697-15,11.871-30.634,15.444-46.668c1.278-5.906,2.259-11.873,2.938-17.878
				c1.398-10.526,1.455-21.187,0.168-31.727c-1.638-16.29-5.948-32.199-12.758-47.087C421.51,92.406,433.75,75.021,433.716,55.546z"
				/>
			<g>
				<path style="fill:#FFEB3A;" d="M412.816,195.633c-3.573,16.034-8.747,31.668-15.444,46.668l-0.839,0.587
					C257.957,39.431,85.052,88.532,30.998,110.607l-0.168-0.504c3.204-4.466,6.65-8.753,10.324-12.842
					c9.42-10.666,19.694-20.547,30.72-29.545c7.001-5.706,14.285-11.056,21.823-16.031l0.755,1.091
					c0,0,207.738-46.164,317.608,142.689L412.816,195.633z"/>
				<path style="fill:#FFEB3A;" d="M433.716,55.554c0.01,16.423-8.719,31.61-22.914,39.869c-2.422,1.428-4.98,2.609-7.638,3.525
					c-0.504-1.091-1.007-2.098-1.595-3.19c-7.943-15.554-18.667-29.522-31.643-41.212c-7.514-6.797-15.698-12.815-24.425-17.962
					c0.654-1.478,1.411-2.909,2.266-4.281c10.486-18.02,31.76-26.759,51.885-21.315S433.744,34.706,433.716,55.554z"/>
				<path style="fill:#FFEB3A;" d="M416.929,72.341c-0.006,8.095-2.118,16.05-6.127,23.082c-2.422,1.428-4.98,2.609-7.638,3.525
					c-0.504-1.091-1.007-2.098-1.595-3.19c-7.943-15.554-18.667-29.522-31.643-41.212c-7.514-6.797-15.698-12.815-24.425-17.962
					c0.654-1.478,1.411-2.909,2.266-4.281c6.986-4.047,14.924-6.162,22.998-6.127c12.246-0.007,23.992,4.854,32.651,13.513
					C412.074,48.35,416.936,60.096,416.929,72.341L416.929,72.341z"/>
			</g>
			<path style="fill:#AD1457;" d="M291.027,494.447H123.158c-4.587-0.131-8.933-2.08-12.082-5.417s-4.841-7.79-4.705-12.377v-53.382
				l0.252-0.755c14.233,4.927,28.994,8.166,43.982,9.652c1.091,0.084,2.266,0.252,3.441,0.336c18.2,1.532,36.528,0,54.222-4.532
				c0.238-0.121,0.492-0.206,0.755-0.252c0.252-0.084,0.504-0.084,0.755-0.168c21.697-5.869,42.263-15.315,60.852-27.95
				c7.638-5.204,15.192-10.66,22.411-16.703c6.215-5.109,12.024-10.694,17.374-16.703c1.679-1.93,3.357-3.861,4.868-5.959
				l0.923,0.839c7.245,13.395,13.203,27.447,17.795,41.967C345.585,440.058,349.362,488.992,291.027,494.447z"/>
			<g>
				<path style="fill:#E91E63;" d="M257.453,494.447H123.158c-4.587-0.131-8.933-2.08-12.082-5.417s-4.841-7.79-4.705-12.377
					v-45.828c4.532,0.671,9.233,1.259,14.101,1.679c10.032,0.855,20.122,0.742,30.132-0.336c8.127-0.764,16.182-2.168,24.089-4.197
					c0.238-0.121,0.492-0.206,0.755-0.252c0.252-0.084,0.504-0.084,0.755-0.168c21.697-5.869,42.263-15.315,60.852-27.95
					c14.599-9.438,27.964-20.66,39.785-33.406c1.679-1.93,3.357-3.861,4.868-5.959l0.923,0.839
					c3.865,7.079,7.34,14.364,10.408,21.823c2.518,5.959,5.036,12.758,7.386,20.144
					C312.011,440.058,315.788,488.992,257.453,494.447z"/>
				<path style="fill:#E91E63;" d="M223.88,494.447H123.158c-9.544-0.281-17.056-8.24-16.787-17.785v-53.354l0.252-0.801
					c15.322,5.317,31.257,8.663,47.423,9.96c18.2,1.533,36.529,0,54.222-4.535c0.252-0.089,0.504-0.089,0.755-0.178
					c0.252-0.089,0.504-0.089,0.755-0.178l2.602,10.226C220.984,455.394,224.942,474.894,223.88,494.447L223.88,494.447z"/>
			</g>
			<path style="fill:#FFE0B2;" d="M362.288,319.025c-0.685,0.769-1.414,1.497-2.182,2.182c-6.339,5.551-15.046,7.538-23.166,5.288
				c-4.784,8.058-6.631,17.458-10.995,25.684c-3.016,5.551-6.587,10.782-10.66,15.612c-1.511,1.931-3.19,3.777-4.868,5.624
				c-0.42,0.504-0.923,1.007-1.343,1.427c-11.625,11.451-24.523,21.533-38.442,30.049c-18.729,12.031-39.277,20.959-60.852,26.439
				c-0.252,0.084-0.504,0.084-0.755,0.168c-0.252,0.084-0.504,0.084-0.755,0.168c-4.789,1.173-9.636,2.098-14.521,2.77
				c-13.125,2.101-26.455,2.608-39.701,1.511c-16.128-1.216-32.051-4.372-47.423-9.401c-66.644-21.823-95.266-74.534-95.266-115.997
				c-0.097-29.749,8.669-58.852,25.18-83.599c-8.267-20.192-11.715-42.033-10.072-63.79c0.088-3.307,0.51-6.598,1.259-9.82
				c1.091-3.441,5.204-4.113,8.142-5.372c5.036-2.266,10.156-4.197,15.36-6.043c1.343-0.42,2.685-0.924,4.029-1.343
				c6.631-2.182,13.43-4.029,20.312-5.708c10.51-2.449,21.163-4.243,31.895-5.372c12.621-1.425,25.335-1.846,38.022-1.259
				c14.32,0.647,28.558,2.529,42.555,5.624c15.743,3.527,31.096,8.616,45.828,15.192c16.756,7.439,32.704,16.579,47.591,27.279
				c17.266,12.442,33.288,26.525,47.843,42.051c6.883,7.302,13.513,14.94,19.809,22.746c1.763,2.098,19.641,25.348,19.305,25.6
				l-2.518,1.763c1.692,2.025,3.078,4.287,4.113,6.715C374.665,290.205,371.789,306.525,362.288,319.025z"/>
			<path style="fill:#FFECB3;" d="M328.714,327.418c-0.685,0.769-1.414,1.497-2.182,2.182c-6.339,5.551-15.046,7.538-23.166,5.288
				c-4.784,8.058-6.631,17.458-10.995,25.684c-3.016,5.551-6.587,10.782-10.66,15.612c-1.511,1.931-3.19,3.777-4.868,5.624
				c-0.42,0.504-0.923,1.007-1.343,1.427c-11.625,11.451-24.523,21.533-38.442,30.049c-13.591,8.664-28.121,15.76-43.31,21.151
				c-13.125,2.101-26.455,2.608-39.701,1.511c-16.128-1.216-32.051-4.372-47.423-9.401c-66.644-21.823-95.266-74.534-95.266-115.997
				c-0.097-29.749,8.669-58.852,25.18-83.599c-8.267-20.192-11.715-42.033-10.072-63.79c0.088-3.307,0.51-6.598,1.259-9.82
				c1.091-3.441,5.204-4.113,8.142-5.372c5.036-2.266,10.156-4.197,15.36-6.043c1.343-0.42,2.685-0.924,4.029-1.343
				c6.211-1.175,12.422-2.014,18.633-2.686c12.621-1.425,25.335-1.846,38.022-1.259c14.32,0.647,28.558,2.529,42.555,5.624
				c15.743,3.527,31.096,8.616,45.828,15.192c16.756,7.439,32.704,16.579,47.591,27.279c17.266,12.442,33.288,26.525,47.843,42.051
				c6.883,7.302,13.513,14.94,19.809,22.746c1.763,2.098,19.641,25.348,19.305,25.6l-2.518,1.763
				c1.692,2.025,3.078,4.287,4.113,6.715C341.092,298.599,338.215,314.919,328.714,327.418L328.714,327.418z"/>
			<path style="fill:#FFFFFF;" d="M99.668,358.832c2.676-0.469,5.31-1.154,7.875-2.05c32.365-10.788,107.882-43.153,107.882,0
				C215.425,398.965,143.145,389.579,99.668,358.832c-26.323,5.179-35.278-12.838-35.278-12.838"/>
			<g>
				<path style="fill:#4482C3;" d="M81.174,209.07L81.174,209.07c9.271,0,16.787,7.516,16.787,16.787l0,0
					c0,9.271-7.516,16.787-16.787,16.787l0,0c-9.271,0-16.787-7.516-16.787-16.787l0,0C64.388,216.586,71.903,209.07,81.174,209.07z
					"/>
				<path style="fill:#4482C3;" d="M207.093,209.07L207.093,209.07c9.271,0,16.787,7.516,16.787,16.787l0,0
					c0,9.271-7.516,16.787-16.787,16.787l0,0c-9.271,0-16.787-7.516-16.787-16.787l0,0
					C190.306,216.586,197.822,209.07,207.093,209.07z"/>
			</g>
		</g>
	</g>
	<g>
		<path d="M99.295,434.512v45.151c0.015,13.9,11.28,25.165,25.18,25.18l100.625-0.019l0.097,0.019l0.097-0.019l67.788-0.013
			c25.455-2.246,42.779-12.02,51.496-29.049c13.601-26.586,1.521-64.159-8.861-87.692c4.203,2.367,8.798,3.958,13.564,4.697
			c1.417,43.838,19.842,78.111,50.173,92.532c10.703,4.848,22.345,7.272,34.094,7.098c13.225,0.04,26.311-2.699,38.41-8.041
			c14.917-6.303,25.321-20.107,27.27-36.184c0.51-4.26,0.383-8.572-0.377-12.795c-0.962-4.724-3.256-9.074-6.611-12.537
			c-3.02-2.75-7.582-2.925-10.803-0.414l-0.996,0.779c-5.431,4.25-8.447,6.451-12.775,5.84c-3.197-0.438-6.303-3.574-6.037-6.176
			c0.382-1.786,1.02-3.507,1.893-5.111l1.037-2.283c5.478-12.561,5.973-26.735,1.386-39.648
			c-7.177-18.876-23.88-32.489-43.816-35.709c-7.798-1.266-15.72-1.583-23.594-0.946c-0.769-13.466-7.489-25.891-18.337-33.906
			c1.603-6.664,2.109-13.545,1.498-20.371l15.079-7.539c6.1-3.034,10.698-8.425,12.733-14.926c2.035-6.502,1.33-13.552-1.952-19.522
			c9.002-20.341,15.031-41.871,17.899-63.929c1.433-11.219,1.482-22.572,0.148-33.803c-1.611-14.307-5.015-28.354-10.131-41.812
			c19.727-10.998,30.629-33.022,27.413-55.377S423.003,7.573,400.975,2.583s-44.851,4.12-57.388,22.907
			c-9.113-4.938-18.633-9.084-28.456-12.392c-39.338-12.356-81.029-15.298-121.713-8.59c-25.364,4.051-49.979,11.872-73.029,23.205
			c-18.723,9.22-36.331,20.55-52.479,33.771c-11.4,9.276-22.019,19.473-31.75,30.488c-3.01,3.429-6.859,7.98-10.364,12.879
			c-5.181,2.855-9.183,7.453-11.296,12.978c-2.44,6.569-2.05,13.856,1.078,20.127l6.314,12.625
			c-0.211,0.365-0.393,0.747-0.544,1.141c-4.803,25.559-2.337,51.954,7.119,76.18c-15.799,25.416-24.168,54.746-24.16,84.672
			C4.307,352.065,30.625,409.325,99.295,434.512z M116.082,479.663v-39.88c12.656,3.301,25.577,5.484,38.615,6.523
			c5.115,0.426,10.127,0.627,15.066,0.627c11.478-0.004,22.93-1.097,34.201-3.264c4.65,6.054,11.3,19.103,12.562,44.387h-92.05
			C119.842,488.05,116.088,484.296,116.082,479.663L116.082,479.663z M329.623,468.13c-5.996,11.7-18.43,18.23-37.279,19.926
			h-59.035c-0.038-16.94-4.173-33.62-12.053-48.617c35.26-10.908,67.422-30.041,93.836-55.82
			C326.003,405.054,341.44,445.068,329.623,468.13L329.623,468.13z M419.266,356.659c13.997,2.184,25.771,11.661,30.893,24.869
			c3.143,8.866,2.794,18.595-0.975,27.213l-0.877,1.926c-1.733,3.295-2.878,6.868-3.381,10.557
			c-0.631,12.249,8.291,22.911,20.459,24.451c6.021,0.828,12.143-0.435,17.344-3.578c0.019,1.474-0.05,2.948-0.205,4.414
			c-1.318,10.142-8.022,18.775-17.52,22.565c-18.449,8.432-39.572,8.82-58.32,1.074c-36.339-17.281-40.523-63.774-40.709-82.101
			l27.645-31.752c1.429-0.136,3.033-0.231,4.104-0.291c0.824-0.049,1.43-0.094,1.422-0.094l-0.02,0.004
			C405.845,355.326,412.61,355.576,419.266,356.659z M381.367,344.802l-27.502,31.588c-8.213-0.939-15.589-5.467-20.144-12.366
			c7.406-7.752,13.181-16.91,16.985-26.934c7.966-1.218,15.179-5.398,20.196-11.706c0.901-1.187,1.735-2.423,2.497-3.704
			C379.84,327.513,382.847,336.238,381.367,344.802L381.367,344.802z M393.615,256.966c-0.593,2.34-2.181,4.303-4.344,5.373
			l-10.168,5.086c-80.766-117.406-173.529-145.266-243.385-145.266c-34.143-0.021-67.973,6.502-99.66,19.217l-5.463-10.93
			c-1.064-2.097-1.198-4.545-0.369-6.746c0.792-2.15,2.452-3.868,4.574-4.734c49.423-20.438,221.25-71.369,357.64,131.049
			C393.826,252.049,394.256,254.588,393.615,256.966L393.615,256.966z M388.869,18.023c17.003-0.031,31.923,11.323,36.426,27.72
			c4.502,16.396-2.527,33.778-17.162,42.434c-8.138-14.865-18.7-28.267-31.252-39.655c-5.928-5.248-12.234-10.055-18.866-14.38
			C365.048,24.051,376.568,18.033,388.869,18.023L388.869,18.023z M196.057,21.085c38.034-6.302,77.016-3.578,113.803,7.951
			c20.589,6.688,39.573,17.562,55.758,31.938c12.226,11.028,22.341,24.189,29.852,38.84c7.271,14.921,11.838,31.013,13.488,47.529
			c1.008,8.567,1.068,17.22,0.178,25.8C325.814,48.491,197.25,37.228,133.14,40.398C153.128,31.108,174.299,24.609,196.057,21.085z
			 M78.533,74.482c5.783-4.724,11.794-9.093,17.908-13.274c0.391,0.022,0.784,0.015,1.174-0.022
			c2.021-0.437,201.484-42.343,307.293,136.803c-2.285,9.599-5.196,19.038-8.716,28.256
			C275.106,58.969,130.051,72.355,58.347,93.059C64.739,86.511,71.477,80.31,78.533,74.482z M44.586,234.04
			c1.768-2.348,2.178-5.449,1.082-8.176c-2.452-6.124-4.459-12.418-6.005-18.831l36.022-36.022c3.277-3.278,3.277-8.591,0-11.869
			c-3.278-3.277-8.591-3.277-11.869,0l-27.519,27.519c-0.84-9.119-0.608-18.304,0.694-27.369
			c13.561-6.51,175.674-78.812,312.051,95.736c-7.886,0.846-15.46,3.547-22.102,7.88c-2.496,1.678-3.904,4.563-3.69,7.563
			s2.016,5.656,4.725,6.964c2.709,1.307,5.91,1.066,8.391-0.633c5.521-3.823,12.252-5.488,18.918-4.68
			c3.944,1.41,7.03,4.543,8.381,8.508c3.271,11.683,1.147,24.216-5.791,34.168c-4.197,5.375-11.301,7.563-17.795,5.48
			c-3.876-0.864-7.827,1.111-9.462,4.73c-1.635,3.619-0.504,7.889,2.707,10.226c-3.942,8.077-9.336,15.361-15.913,21.486
			c-0.134,0.131-0.207,0.3-0.331,0.438c-0.11,0.121-0.262,0.175-0.366,0.304c-0.639,0.807-65.479,80.099-160.631,72.115
			C57.045,421.36,21.094,355.101,21.094,312.572C21.073,284.66,29.241,257.355,44.586,234.04z"/>
		<path d="M116.082,279.933c4.635,0,8.393-3.758,8.393-8.393c0.026-3.369,1.304-6.607,3.586-9.086
			c2.68-1.947,7.758-0.676,10.545,0.262c2.845,0.949,5.98,0.308,8.224-1.682c2.244-1.989,3.257-5.025,2.656-7.963
			c-0.601-2.938-2.723-5.333-5.568-6.281c-8.362-3.645-17.992-2.878-25.672,2.045c-6.713,5.627-10.581,13.945-10.557,22.705
			C107.689,276.175,111.446,279.933,116.082,279.933z"/>
		<path d="M213.947,334.634c-20.75-14.648-63.852,0.68-95.34,11.865c-4.566,1.619-8.754,3.107-12.484,4.352
			c-2.131,0.748-4.32,1.318-6.545,1.705l-0.152,0.029l-0.07,0.012c-18.996,3.75-25.5-7.201-26.119-8.34
			c-1.328-2.699-3.998-4.481-6.999-4.672c-3.002-0.191-5.876,1.238-7.535,3.747c-1.659,2.509-1.849,5.713-0.498,8.401
			c8.305,14.174,24.776,21.409,40.832,17.934c23.669,15.78,51.211,24.768,79.631,25.988c9.674,0.289,19.278-1.726,28.02-5.877
			c11.699-5.818,18.917-17.938,18.459-30.996C225.773,349.35,221.552,340.248,213.947,334.634L213.947,334.634z M198.971,374.868
			c-16.406,8.492-49.635,3-77.656-11.52c0.951-0.336,1.921-0.68,2.91-1.032c23.209-8.238,66.414-23.607,80.037-13.963
			c1.763,1.238,4.098,3.672,4.098,10.43C208.869,365.572,205.134,371.972,198.971,374.868z"/>
		<path d="M250.402,353.773h-0.025c-4.619,0.006-8.367,3.738-8.393,8.357c0.081,6.885-1.994,13.624-5.934,19.27
			c-2.126,2.119-2.959,5.212-2.184,8.112c0.775,2.9,3.04,5.165,5.94,5.94c2.9,0.775,5.993-0.057,8.112-2.184
			c7.133-8.79,10.971-19.795,10.853-31.115C258.771,357.53,255.026,353.78,250.402,353.773z"/>
		<path d="M82.508,253.04c13.907,0,25.18-11.274,25.18-25.18c0-13.907-11.274-25.18-25.18-25.18s-25.18,11.274-25.18,25.18
			C57.343,241.76,68.608,253.025,82.508,253.04z M82.508,219.466c4.636,0,8.393,3.758,8.393,8.393c0,4.636-3.758,8.393-8.393,8.393
			c-4.636,0-8.393-3.758-8.393-8.393C74.121,223.226,77.875,219.472,82.508,219.466z"/>
		<path d="M208.41,253.04c13.907,0,25.18-11.274,25.18-25.18c0-13.907-11.274-25.18-25.18-25.18s-25.18,11.274-25.18,25.18
			C183.245,241.76,194.509,253.025,208.41,253.04z M208.41,219.466c4.636,0,8.393,3.758,8.393,8.393
			c0,4.636-3.758,8.393-8.393,8.393s-8.393-3.758-8.393-8.393C200.022,223.226,203.777,219.472,208.41,219.466z"/>
		<path d="M254.115,218.056c3.856,2.534,9.035,1.481,11.594-2.358c2.56-3.839,1.54-9.025-2.283-11.609l-50.361-33.574
			c-3.856-2.535-9.035-1.481-11.594,2.358c-2.56,3.839-1.54,9.025,2.283,11.609L254.115,218.056z"/>
		<path d="M257.885,256.794c1.345-2.683,1.156-5.88-0.497-8.385c-1.653-2.505-4.517-3.937-7.513-3.756
			c-2.996,0.181-5.667,1.947-7.006,4.633c-3.315,6.937-10.088,11.57-17.754,12.147c-2.999,0.015-5.762,1.628-7.248,4.232
			c-1.487,2.604-1.471,5.804,0.041,8.393c1.512,2.59,4.291,4.176,7.289,4.161C239.196,277.61,251.74,269.388,257.885,256.794
			L257.885,256.794z"/>
	</g>
</g>
<g>
</g>
<g>
</g>
<g>
</g>
<g>
</g>
<g>
</g>
<g>
</g>
<g>
</g>
<g>
</g>
<g>
</g>
<g>
</g>
<g>
</g>
<g>
</g>
<g>
</g>
<g>
</g>
<g>
</g>
</svg>
