<?xml version="1.0" encoding="iso-8859-1"?>
<!-- Generator: Adobe Illustrator 19.0.0, SVG Export Plug-In . SVG Version: 6.00 Build 0)  -->
<svg version="1.1" id="Capa_1" xmlns="http://www.w3.org/2000/svg" xmlns:xlink="http://www.w3.org/1999/xlink" x="0px" y="0px"
	 viewBox="0 0 503.841 503.841" style="enable-background:new 0 0 503.841 503.841;" xml:space="preserve">
<g transform="translate(0 -1)">
	<g transform="translate(1 2)">
		<path style="fill:#1566C0;" d="M431.547,98.947c6.81,14.888,11.12,30.797,12.758,47.087c1.287,10.54,1.231,21.201-0.168,31.727
			c-0.679,6.005-1.66,11.972-2.938,17.878c-3.573,16.034-8.747,31.668-15.444,46.668l-0.839,0.588
			c0.504,0.671,1.007,1.427,1.511,2.182c2.741,4.008,3.612,9.007,2.389,13.706c-1.223,4.699-4.421,8.639-8.768,10.802l-16.703,8.393
			c-0.084-0.168-0.252-0.336-0.336-0.504c-1.343-2.014-2.602-3.945-4.029-5.875c-0.42-0.588-0.755-1.175-1.175-1.679
			c-0.336-0.504-0.671-1.007-1.007-1.427C246.724,54.209,59.214,152.077,59.214,152.077l-9.065-18.13
			c-2.092-4.15-2.367-8.981-0.76-13.342c1.607-4.36,4.953-7.857,9.237-9.656c0.266-0.076,0.52-0.189,0.755-0.336l-0.168-0.504
			c3.204-4.466,6.651-8.753,10.324-12.842c9.42-10.666,19.694-20.547,30.72-29.545c2.854-2.35,5.791-4.616,8.813-6.799
			c4.197-3.273,8.561-6.295,13.01-9.233c9.304-6.198,19.005-11.778,29.041-16.703c22.311-10.946,46.131-18.499,70.673-22.41
			c39.355-6.531,79.695-3.713,117.76,8.226c9.517,3.136,18.731,7.125,27.53,11.919c2.266,1.175,4.532,2.518,6.799,3.861
			c1.413-3.204,3.217-6.22,5.372-8.981c11.919-15.671,32.471-22.049,51.168-15.88c18.697,6.169,31.418,23.525,31.672,43.212
			S450.079,92.298,431.547,98.947z"/>
		<path style="fill:#F0C419;" d="M441.2,195.631c-3.573,16.034-8.747,31.668-15.444,46.668l-0.839,0.587
			C286.341,39.429,113.436,88.53,59.382,110.605l-0.168-0.504c3.204-4.466,6.65-8.753,10.324-12.842
			c9.42-10.666,19.694-20.547,30.72-29.545c7.001-5.706,14.285-11.056,21.823-16.031l0.755,1.091
			c0,0,207.738-46.164,317.608,142.689L441.2,195.631z"/>
		<g>
			<path style="fill:#FFB301;" d="M462.099,55.544c0.034,19.475-12.206,36.859-30.552,43.394c-0.504-1.091-1.007-2.098-1.595-3.19
				c-7.943-15.554-18.667-29.522-31.643-41.212c-7.514-6.797-15.697-12.815-24.425-17.962c8.932-19.835,30.505-30.738,51.773-26.164
				C446.925,14.984,462.11,33.79,462.099,55.544L462.099,55.544z"/>
			<path style="fill:#FFB301;" d="M462.099,63.069c0.027,19.114-11.995,36.171-30.007,42.571c-0.495-1.07-0.989-2.059-1.566-3.129
				c-0.66-1.318-1.402-2.717-2.226-4.035c-7.523-13.654-17.275-25.955-28.853-36.395c-7.381-6.669-15.418-12.572-23.989-17.621
				c7.292-16.267,23.474-26.719,41.3-26.678c12.02-0.014,23.553,4.751,32.057,13.246C457.32,39.522,462.099,51.049,462.099,63.069
				L462.099,63.069z"/>
		</g>
		<path style="fill:#FEC108;" d="M438.493,70.395c0.014,9.991-3.227,19.714-9.233,27.698c-7.658-13.916-17.587-26.455-29.377-37.099
			c-7.514-6.797-15.698-12.815-24.425-17.962c3.322-7.52,8.632-13.992,15.36-18.717c0.5-0.07,1.006-0.098,1.511-0.084
			c12.246-0.007,23.992,4.854,32.651,13.513C433.638,46.403,438.5,58.149,438.493,70.395L438.493,70.395z"/>
		<path style="fill:#795548;" d="M403.177,416.638c-13.303-5.493-27.518-8.448-41.908-8.709
			c-4.751-14.131-10.874-27.763-18.282-40.701l-0.948-0.776c4.184-4.962,7.853-10.336,10.952-16.039
			c4.484-8.451,6.381-18.109,11.296-26.387c9.435,2.704,19.582-0.286,26.042-7.675c0.603,8.197,0.343,16.434-0.776,24.576
			C382.568,389.13,403.177,416.638,403.177,416.638z"/>
		<path style="fill:#1566C0;" d="M319.411,494.445H151.542c-4.587-0.131-8.933-2.08-12.082-5.417s-4.841-7.79-4.705-12.377v-53.382
			l0.252-0.755c15.324,5.314,31.258,8.67,47.423,9.988c12.341,1.082,24.767,0.688,37.015-1.175
			c5.795-0.787,11.54-1.908,17.207-3.357c0.238-0.121,0.492-0.206,0.755-0.252c0.252-0.084,0.504-0.084,0.755-0.168
			c21.697-5.869,42.263-15.315,60.852-27.95c6.715-4.532,13.346-9.317,19.725-14.521c7.225-5.698,13.937-12.017,20.06-18.885
			c1.679-1.93,3.357-3.861,4.868-5.959l0.923,0.839c7.245,13.395,13.203,27.447,17.795,41.967
			C373.968,440.056,377.745,488.99,319.411,494.445z"/>
		<path style="fill:#2296F3;" d="M314.459,494.445H151.542c-4.587-0.131-8.933-2.08-12.082-5.417s-4.841-7.79-4.705-12.377v-37.435
			c4.532,0.671,9.233,1.259,14.101,1.679c18.2,1.532,36.528,0,54.222-4.532c0.238-0.121,0.492-0.206,0.755-0.252
			c0.252-0.084,0.504-0.084,0.755-0.168c5.036-1.343,9.988-2.854,14.856-4.616c5.795-0.787,11.54-1.908,17.207-3.357
			c0.238-0.121,0.492-0.206,0.755-0.252c0.252-0.084,0.504-0.084,0.755-0.168c21.697-5.869,42.263-15.315,60.852-27.95
			c6.715-4.532,13.346-9.317,19.725-14.521c3.883,8.575,7.247,17.376,10.072,26.355
			C338.044,440.811,342.241,477.743,314.459,494.445z"/>
		<path style="fill:#02A9F4;" d="M252.263,494.445H151.542c-9.544-0.281-17.056-8.24-16.787-17.785v-53.354l0.252-0.801
			c15.322,5.317,31.257,8.663,47.423,9.96c18.2,1.533,36.529,0,54.222-4.535c0.252-0.089,0.504-0.089,0.755-0.178
			c0.252-0.089,0.504-0.089,0.755-0.178l2.602,10.226C249.367,455.392,253.326,474.892,252.263,494.445L252.263,494.445z"/>
		<path style="fill:#FFE0B2;" d="M390.671,319.023c-4.902,5.759-12.269,8.818-19.809,8.226c-1.864-0.098-3.717-0.35-5.54-0.755
			c-2.579,4.647-4.688,9.539-6.295,14.605c-1.342,3.784-2.912,7.484-4.7,11.079c-3.016,5.551-6.587,10.782-10.66,15.612
			c-1.511,1.931-3.19,3.777-4.868,5.624c-11.909,12.097-25.273,22.669-39.785,31.475c-2.266,1.427-4.532,2.854-6.883,4.197
			c-0.084,0.084-0.168,0.168-0.252,0.168c-16.756,9.894-34.847,17.328-53.718,22.075c-0.252,0.084-0.504,0.084-0.755,0.168
			c-0.252,0.084-0.504,0.084-0.755,0.168c-17.734,4.284-36.035,5.729-54.222,4.281c-16.128-1.216-32.051-4.372-47.423-9.401
			c-66.644-21.823-95.266-74.534-95.266-115.997c-0.097-29.749,8.669-58.852,25.18-83.599c-8.267-20.192-11.715-42.033-10.072-63.79
			c0.084-1.427,0.168-3.106,0.336-4.7c0.13-1.734,0.439-3.45,0.923-5.12c1.091-3.441,5.204-4.113,8.142-5.372
			c5.036-2.266,10.156-4.197,15.36-6.043c7.973-2.77,16.115-5.036,24.341-7.05c10.51-2.449,21.163-4.243,31.895-5.372
			c12.621-1.425,25.335-1.846,38.022-1.259c14.32,0.647,28.558,2.529,42.555,5.624c15.743,3.527,31.096,8.616,45.828,15.192
			c16.756,7.439,32.704,16.579,47.591,27.279c17.266,12.442,33.288,26.525,47.843,42.051c6.883,7.302,13.513,14.94,19.809,22.746
			c1.763,2.098,19.641,25.348,19.305,25.6l-2.518,1.763c1.692,2.025,3.078,4.287,4.113,6.715
			C403.049,290.203,400.173,306.523,390.671,319.023z"/>
		<path style="fill:#FFECB3;" d="M370.863,327.248c-1.327,3.12-3.14,6.009-5.372,8.561c-1.836,2.12-4.022,3.908-6.463,5.288
			c-5.802,3.061-12.539,3.839-18.885,2.182c-4.784,8.058-6.631,17.458-10.995,25.684c-3.016,5.551-6.587,10.782-10.66,15.612
			c-1.511,1.931-3.19,3.777-4.868,5.624c-6.56,6.949-13.754,13.271-21.487,18.885c-0.084,0.084-0.168,0.168-0.252,0.168
			c-16.756,9.894-34.847,17.328-53.718,22.075c-0.252,0.084-0.504,0.084-0.755,0.168c-0.252,0.084-0.504,0.084-0.755,0.168
			c-17.734,4.284-36.035,5.729-54.222,4.281c-16.128-1.216-32.051-4.372-47.423-9.401c-66.644-21.823-95.266-74.534-95.266-115.997
			c-0.097-29.749,8.669-58.852,25.18-83.599c-8.267-20.192-11.715-42.033-10.072-63.79c0.084-1.427,0.168-3.106,0.336-4.7
			c7.722-2.686,15.612-4.868,23.586-6.799c10.51-2.449,21.163-4.243,31.895-5.372c12.621-1.425,25.335-1.846,38.022-1.259
			c14.32,0.647,28.558,2.529,42.555,5.624c15.743,3.527,31.096,8.616,45.828,15.192c16.756,7.439,32.704,16.579,47.591,27.279
			c17.266,12.442,33.288,26.525,47.843,42.051c6.883,7.302,13.513,14.94,19.809,22.746c1.763,2.098,19.641,25.348,19.305,25.6
			l-2.518,1.763c1.692,2.025,3.078,4.287,4.113,6.715C376.871,303.626,376.032,316.206,370.863,327.248z"/>
		<path style="fill:#FFFFFF;" d="M128.052,358.831c2.676-0.469,5.31-1.154,7.875-2.05c32.365-10.788,107.882-43.153,107.882,0
			C243.809,398.963,171.528,389.577,128.052,358.831c-26.323,5.179-35.278-12.838-35.278-12.838"/>
		<g>
			<path style="fill:#02A9F4;" d="M109.558,209.068L109.558,209.068c9.271,0,16.787,7.516,16.787,16.787l0,0
				c0,9.271-7.516,16.787-16.787,16.787l0,0c-9.271,0-16.787-7.516-16.787-16.787l0,0
				C92.771,216.584,100.287,209.068,109.558,209.068z"/>
			<path style="fill:#02A9F4;" d="M235.476,209.068L235.476,209.068c9.271,0,16.787,7.516,16.787,16.787l0,0
				c0,9.271-7.516,16.787-16.787,16.787l0,0c-9.271,0-16.787-7.516-16.787-16.787l0,0
				C218.69,216.584,226.205,209.068,235.476,209.068z"/>
		</g>
	</g>
	<g>
		<path d="M144.133,279.931c4.635,0,8.393-3.758,8.393-8.393c0.026-3.369,1.304-6.607,3.586-9.086
			c2.68-1.947,7.762-0.676,10.545,0.262c2.845,0.949,5.98,0.308,8.224-1.682c2.244-1.989,3.257-5.025,2.656-7.963
			c-0.601-2.938-2.723-5.333-5.568-6.281c-8.362-3.646-17.992-2.879-25.672,2.045c-6.713,5.627-10.581,13.945-10.557,22.705
			C135.74,276.173,139.498,279.931,144.133,279.931z"/>
		<path d="M471.478,55.792c0.026-24.024-15.683-45.231-38.671-52.208c-22.988-6.977-47.834,1.921-61.166,21.907
			c-9.114-4.938-18.635-9.085-28.458-12.395C303.845,0.742,262.156-2.2,221.474,4.505c-25.365,4.051-49.982,11.872-73.033,23.205
			c-18.721,9.222-36.327,20.552-52.476,33.771c-11.4,9.276-22.019,19.473-31.75,30.488c-3.205,3.651-6.914,8.047-10.374,12.886
			c-5.175,2.856-9.173,7.45-11.286,12.97c-2.44,6.569-2.05,13.856,1.078,20.127l6.313,12.628c-0.211,0.364-0.392,0.745-0.542,1.138
			c-4.803,25.559-2.337,51.954,7.119,76.18c-15.799,25.416-24.167,54.746-24.159,84.672c0,39.492,26.317,96.75,94.984,121.938
			v45.152c0.015,13.9,11.28,25.165,25.18,25.18l100.625-0.019l0.097,0.019l0.097-0.019l67.788-0.013
			c25.455-2.246,42.783-12.021,51.496-29.049c8.508-16.628,6.907-37.562,2.017-56.691c9.015,1.53,17.846,3.992,26.352,7.347
			c3.493,1.419,7.503,0.335,9.806-2.65s2.334-7.139,0.075-10.158c-0.18-0.238-17.898-24.484-11.672-67.426
			c1.003-7.45,1.3-14.979,0.887-22.485c7.585-11.44,10.996-25.144,9.66-38.805l15.076-7.538c6.1-3.033,10.7-8.422,12.735-14.924
			c2.035-6.501,1.331-13.552-1.951-19.521c9.003-20.34,15.029-41.87,17.892-63.928c1.44-11.22,1.491-22.575,0.152-33.807
			c-1.611-14.307-5.015-28.354-10.129-41.813C460.774,93.738,471.466,75.54,471.478,55.792L471.478,55.792z M224.113,21.083
			c38.032-6.296,77.012-3.572,113.799,7.951c20.591,6.688,39.576,17.562,55.762,31.938c12.226,11.026,22.34,24.188,29.848,38.84
			c7.272,14.922,11.839,31.016,13.488,47.533c1.012,8.565,1.072,17.215,0.179,25.794C353.864,48.488,225.299,37.225,161.191,40.396
			C181.181,31.105,202.353,24.607,224.113,21.083z M106.588,74.48c5.783-4.724,11.794-9.093,17.907-13.274
			c0.392,0.022,0.784,0.015,1.175-0.022c2.021-0.437,201.478-42.343,307.291,136.8c-2.285,9.601-5.197,19.041-8.717,28.261
			C303.169,58.969,158.107,72.36,86.397,93.063C92.791,86.513,99.531,80.31,106.588,74.48L106.588,74.48z M144.133,479.661V439.78
			c12.657,3.302,25.58,5.485,38.619,6.524c5.115,0.426,10.127,0.627,15.066,0.627c11.478-0.004,22.93-1.097,34.201-3.264
			c4.65,6.052,11.297,19.1,12.558,44.387h-92.05C147.894,488.048,144.139,484.294,144.133,479.661z M357.679,468.124
			c-5.996,11.705-18.434,18.234-37.283,19.93h-59.035c-0.038-16.94-4.172-33.62-12.05-48.617
			c35.259-10.908,67.421-30.039,93.835-55.818C354.056,405.056,369.492,445.066,357.679,468.124z M369.255,401.701
			c-3.885-10.59-8.519-20.889-13.868-30.82c1.275-1.465,2.217-2.588,2.472-2.905c1.879-2.338,2.367-5.501,1.281-8.297
			c-1.086-2.796-3.581-4.8-6.545-5.258c-2.964-0.458-5.948,0.701-7.826,3.039c-0.639,0.807-65.455,80.099-160.631,72.115
			C85.101,421.358,49.15,355.099,49.15,312.57c-0.021-27.912,8.147-55.217,23.492-78.533c1.768-2.348,2.178-5.449,1.082-8.176
			c-2.452-6.125-4.46-12.42-6.006-18.834l36.018-36.018c3.277-3.277,3.277-8.591,0-11.869c-3.277-3.277-8.591-3.277-11.869,0
			l-27.515,27.516c-0.84-9.118-0.607-18.304,0.694-27.368c13.587-6.522,175.692-78.794,312.05,95.741
			c-7.885,0.847-15.458,3.546-22.101,7.878c-2.496,1.678-3.904,4.563-3.69,7.563c0.214,3,2.016,5.656,4.725,6.964
			c2.709,1.307,5.91,1.066,8.391-0.633c5.525-3.811,12.25-5.475,18.914-4.68c3.946,1.409,7.034,4.542,8.385,8.508
			c3.271,11.683,1.147,24.216-5.791,34.168c-4.197,5.375-11.301,7.563-17.795,5.48c-2.927-0.649-5.978,0.313-8.003,2.524
			c-2.025,2.21-2.717,5.333-1.816,8.193c0.902,2.859,3.26,5.02,6.187,5.669c2.899,0.656,5.86,0.992,8.832,1.004
			c3.375-0.045,6.723-0.605,9.928-1.662c-0.157,2.654-0.306,5.317-0.666,7.74c-3.283,20.427-1.456,41.348,5.316,60.898
			C381.804,403.052,375.555,402.068,369.255,401.701z M421.67,256.964c-0.595,2.34-2.183,4.303-4.348,5.373l-10.168,5.086
			c-80.766-117.406-173.529-145.266-243.385-145.266c-34.141-0.021-67.97,6.502-99.655,19.217l-5.464-10.93
			c-1.064-2.097-1.198-4.545-0.369-6.746c0.79-2.15,2.449-3.868,4.57-4.734c49.41-20.438,221.25-71.369,357.644,131.054
			C421.882,252.05,422.312,254.588,421.67,256.964L421.67,256.964z M436.187,88.174c-8.138-14.864-18.7-28.266-31.25-39.653
			c-5.929-5.248-12.235-10.053-18.867-14.378c8.819-12.634,24.438-18.63,39.446-15.145s26.385,15.751,28.734,30.979
			C456.599,65.204,449.447,80.329,436.187,88.174L436.187,88.174z"/>
		<path d="M242.002,334.632c-20.758-14.648-63.857,0.68-95.34,11.865c-4.566,1.619-8.754,3.107-12.479,4.352
			c-2.139,0.746-4.334,1.318-6.566,1.709h-0.004l-0.008,0.004l-0.025,0.004l-0.025,0.004l-0.152,0.029
			c-18.967,3.717-25.492-7.201-26.115-8.344c-1.328-2.699-3.998-4.481-6.999-4.672c-3.002-0.191-5.876,1.238-7.535,3.747
			c-1.659,2.509-1.849,5.713-0.498,8.401c8.305,14.176,24.778,21.411,40.836,17.934c23.666,15.781,51.208,24.77,79.627,25.988
			c9.674,0.289,19.278-1.725,28.02-5.877c11.702-5.816,18.922-17.937,18.463-30.996
			C253.829,349.348,249.607,340.246,242.002,334.632z M227.027,374.866c-16.402,8.492-49.639,2.996-77.656-11.516
			c0.951-0.34,1.921-0.686,2.91-1.037c23.209-8.238,66.414-23.607,80.037-13.963c1.763,1.238,4.098,3.672,4.098,10.43
			C236.925,365.57,233.19,371.97,227.027,374.866z"/>
		<path d="M278.453,353.771h-0.025c-4.619,0.006-8.367,3.738-8.393,8.357c0.081,6.885-1.994,13.624-5.934,19.27
			c-3.277,3.278-3.278,8.591,0,11.869c3.277,3.277,8.591,3.278,11.869,0c7.133-8.79,10.971-19.795,10.853-31.115
			C286.823,357.528,283.078,353.778,278.453,353.771z"/>
		<path d="M110.56,253.038c13.907,0,25.18-11.274,25.18-25.18c0-13.907-11.274-25.18-25.18-25.18s-25.18,11.274-25.18,25.18
			C85.395,241.758,96.659,253.023,110.56,253.038z M110.56,219.464c4.636,0,8.393,3.758,8.393,8.393
			c0,4.636-3.758,8.393-8.393,8.393c-4.636,0-8.393-3.758-8.393-8.393C102.172,223.224,105.927,219.47,110.56,219.464z"/>
		<path d="M236.461,253.038c13.907,0,25.18-11.274,25.18-25.18c0-13.907-11.274-25.18-25.18-25.18s-25.18,11.274-25.18,25.18
			C211.296,241.758,222.561,253.023,236.461,253.038z M236.461,219.464c4.636,0,8.393,3.758,8.393,8.393
			c0,4.636-3.758,8.393-8.393,8.393s-8.393-3.758-8.393-8.393C228.074,223.224,231.828,219.47,236.461,219.464z"/>
		<path d="M241.117,170.513c-3.856-2.535-9.035-1.481-11.594,2.358c-2.559,3.839-1.54,9.025,2.283,11.609l50.361,33.574
			c3.856,2.534,9.035,1.481,11.594-2.358c2.56-3.839,1.54-9.025-2.283-11.609L241.117,170.513z"/>
		<path d="M285.937,256.792c1.341-2.682,1.149-5.877-0.503-8.379c-1.652-2.503-4.515-3.934-7.508-3.754
			c-2.994,0.18-5.664,1.943-7.005,4.625c-3.315,6.937-10.088,11.57-17.754,12.147c-4.636,0.023-8.375,3.799-8.352,8.434
			c0.023,4.636,3.799,8.375,8.434,8.353C267.248,277.608,279.792,269.386,285.937,256.792L285.937,256.792z"/>
	</g>
</g>
<g>
</g>
<g>
</g>
<g>
</g>
<g>
</g>
<g>
</g>
<g>
</g>
<g>
</g>
<g>
</g>
<g>
</g>
<g>
</g>
<g>
</g>
<g>
</g>
<g>
</g>
<g>
</g>
<g>
</g>
</svg>
