<?xml version="1.0" encoding="iso-8859-1"?>
<!-- Generator: Adobe Illustrator 19.0.0, SVG Export Plug-In . SVG Version: 6.00 Build 0)  -->
<svg version="1.1" id="Capa_1" xmlns="http://www.w3.org/2000/svg" xmlns:xlink="http://www.w3.org/1999/xlink" x="0px" y="0px"
	 viewBox="0 0 512.029 512.029" style="enable-background:new 0 0 512.029 512.029;" xml:space="preserve">
<g transform="translate(0 -1)">
	<g transform="translate(1 1)">
		<path style="fill:#D84315;" d="M469.47,349.888c0,0,51.883,68.267-8.533,136.533c-1.963-1.621-3.755-3.243-5.461-4.949
			c-43.861-43.264-20.139-121.088-20.139-121.088v-36.096c-4.416-5.103-8.492-10.491-12.203-16.128
			c-4.657,12.585-10.817,24.562-18.346,35.669c-3.757,5.423-7.983,10.506-12.629,15.189c-14.357,13.79-24.986,30.994-30.892,50.005
			c-3.08,10.186-12.24,17.329-22.869,17.835c-0.509,0.071-1.022,0.099-1.535,0.085h-69.206v44.117
			c35.243,2.645,59.733,8.619,59.733,15.445c0,6.144-20.053,11.605-50.091,14.592c-3.072,0.341-6.315,0.597-9.643,0.853
			c-12.971,0.939-27.477,1.536-42.667,1.536s-29.696-0.597-42.667-1.536c-11.822-0.811-23.589-2.292-35.243-4.437
			c-15.274-2.987-24.491-6.827-24.491-11.008c0-5.035,13.141-9.557,34.133-12.629c7.595-1.195,16.213-2.133,25.6-2.816v-26.624
			c-2.816,0-5.717-0.256-8.533-0.427c-102.4-8.533-145.067-76.459-145.067-127.488c-0.098-30.245,8.814-59.833,25.6-84.992
			c-10.118-23.99-13.11-50.386-8.619-76.032l-4.693-0.256c-8.962,6.584-16.147,15.293-20.907,25.344
			c0,0-15.787-47.189,36.267-111.36c2.048-2.475,4.181-5.035,6.4-7.595c43.35-49.408,112.896-57.856,174.933-51.029
			c56.917,6.229,115.969,22.869,152.832,69.717c0.426,0.597,0.939,1.195,1.365,1.792c61.099,22.869,139.775,82.176,77.568,233.643
			V349.888z"/>
		<path style="fill:#FF5722;" d="M443.87,375.488c0,0,37.461,49.323,11.605,105.984c-43.861-43.264-20.139-121.088-20.139-121.088
			v-36.096c-4.416-5.103-8.492-10.491-12.203-16.128c-4.657,12.585-10.817,24.562-18.346,35.669
			c-2.646-3.413-5.035-6.741-7.254-10.069c-6.646,18.937-17.199,36.264-30.975,50.859c-12.309,11.897-21.913,26.303-28.161,42.24
			c-0.509,0.071-1.022,0.099-1.535,0.085h-69.206v25.6h-25.6v44.117c11.822,0.81,23.589,2.292,35.243,4.437
			c-3.072,0.341-6.315,0.597-9.643,0.853c-12.971,0.939-27.477,1.536-42.667,1.536s-29.696-0.597-42.667-1.536
			c-11.822-0.811-23.589-2.292-35.243-4.437c3.072-0.341,6.316-0.597,9.643-0.853v-22.784c7.595-1.195,16.213-2.133,25.6-2.816
			v-26.624c-2.816,0-5.717-0.256-8.533-0.427c-102.4-8.533-145.067-76.459-145.067-127.488c-0.098-30.245,8.814-59.833,25.6-84.992
			c-10.118-23.99-13.11-50.386-8.619-76.032l-4.693-0.256c-8.962,6.584-16.147,15.293-20.907,25.344
			c0,0-15.787-47.189,36.267-111.36c43.093-33.451,102.229-38.912,155.733-33.024c56.917,6.229,115.969,22.869,152.832,69.717
			c0.426,0.597,0.939,1.195,1.365,1.792c61.099,22.869,139.775,82.176,77.568,233.643V375.488z"/>
		<path style="fill:#FFE0B2;" d="M374.323,332.394c-4.769,1.457-9.846,1.575-14.677,0.341c-0.682,6.056-2.415,11.947-5.121,17.408
			c-4.703,9.458-10.738,18.194-17.919,25.941c-4.792,5.275-9.893,10.262-15.275,14.933c-8.036,6.848-16.501,13.176-25.344,18.944
			c-9.608,6.395-19.709,12.016-30.208,16.811c-26.069,12.292-54.643,18.34-83.456,17.664c-2.816,0-5.717-0.256-8.533-0.427
			c-102.4-8.533-145.067-76.459-145.067-127.488c-0.098-30.245,8.814-59.833,25.6-84.992c-9.16-22.262-12.479-46.495-9.643-70.4
			c0.427-2.901,0.853-4.864,1.024-5.632l-4.693-0.256c1.025-0.768,2.133-1.536,3.244-2.304h0.171
			c13.338-8.828,28.821-13.871,44.8-14.592c-4.305,16.514-4.481,33.834-0.513,50.432c0,0.085,0.085,0.256,0.085,0.341
			c0.255-0.392,0.54-0.763,0.853-1.109l0.171-0.171c8.022-9.984,63.744-73.387,164.778-43.435
			c4.161,11.132,4.934,23.246,2.219,34.816c11.625,1.757,23.448,1.757,35.073,0c21.674,1.195,72.619,12.459,67.498,90.453
			c9.046-3.925,25.429-7.765,33.877,10.923C398.899,292.97,395.144,325.994,374.323,332.394z"/>
		<path style="fill:#FFECB3;" d="M374.323,332.394c-3.033,8.977-10.544,15.711-19.798,17.749c-3.961,0.73-8.033,0.614-11.946-0.341
			c-2.841,15.541-10.236,29.887-21.248,41.216c-8.036,6.848-16.501,13.176-25.344,18.944c-9.608,6.395-19.709,12.016-30.208,16.811
			c-26.069,12.292-54.643,18.34-83.456,17.664c-2.816,0-5.717-0.256-8.533-0.427c-102.4-8.533-145.067-76.459-145.067-127.488
			c-0.098-30.245,8.814-59.833,25.6-84.992c-9.16-22.262-12.479-46.495-9.643-70.4c8.829-3.245,18.088-5.171,27.478-5.717
			c-4.31,16.633-4.457,34.071-0.427,50.773c5.045-6.373,10.736-12.206,16.981-17.408c0.296-0.276,0.609-0.533,0.939-0.768
			l0.171-0.171c24.576-20.48,74.155-48.128,147.711-26.368c4.161,11.132,4.933,23.246,2.218,34.816
			c11.625,1.757,23.448,1.757,35.073,0c21.674,1.195,72.619,12.459,67.498,90.453c9.046-3.925,25.429-7.765,33.877,10.923
			C379.817,309.084,379.15,321.43,374.323,332.394z"/>
		<path style="fill:#FFE0B2;" d="M267.663,426.95v75.008c-12.971,0.939-27.477,1.536-42.667,1.536
			c-15.189,0-29.696-0.597-42.667-1.536v-57.515c28.813,0.676,57.387-5.372,83.456-17.664l0.085,0.171L267.663,426.95z"/>
		<g>
			<path style="fill:#2C2F38;" d="M182.33,471.068v30.891c-35.243-2.731-59.733-8.619-59.733-15.445S147.087,473.713,182.33,471.068
				z"/>
			<path style="fill:#2C2F38;" d="M327.397,486.513c0,6.827-24.491,12.715-59.733,15.445v-30.891
				C302.906,473.713,327.397,479.686,327.397,486.513z"/>
		</g>
		<polygon style="fill:#955BA5;" points="469.478,315.763 469.478,349.896 435.345,358.429 435.345,324.296 		"/>
		<path style="fill:#D84315;" d="M460.944,486.428c-51.2-41.984-25.6-126.037-25.6-126.037v-1.963l34.133-8.533
			C469.477,349.894,521.36,418.161,460.944,486.428z"/>
		<path style="fill:#607D8B;" d="M272.251,382.4c-13.653,20.907-35.327,24.491-58.283,26.027
			c-18.563,1.578-37.219,1.75-55.807,0.512c-16.981-1.365-36.694-5.376-45.91-21.333c-6.976-12.979-5.881-28.81,2.817-40.704
			c3.449-5.171,7.615-9.825,12.373-13.824c4.352-3.755,8.875-7.424,13.569-10.837l1.535,2.048h85.333c0,0,16.64,0,25.259-24.747
			c3.552,1.911,6.849,4.262,9.813,6.997C283.211,326.636,287.057,358.002,272.251,382.4L272.251,382.4z"/>
		<path style="fill:#ECF0F1;" d="M253.136,299.541c-8.619,24.747-25.259,24.747-25.259,24.747h-85.333l-1.535-2.048
			c6.571-5.023,13.502-9.557,20.736-13.568C187.345,294.592,225.83,284.181,253.136,299.541z"/>
	</g>
	<g>
		<path d="M20.869,190.121l0.242,0.004c3.491,0,6.63-2.125,7.925-5.367c1.89-3.977,4.287-7.692,7.132-11.053
			c-0.494,16.545,1.73,33.058,6.584,48.882c-0.035,1.899,0.574,3.754,1.729,5.262c0.413,1.207,0.778,2.394,1.229,3.617
			c-16.059,25.84-24.566,55.659-24.558,86.083c0,49.554,40.717,126.658,152.892,135.967c0.241,0.02,0.469,0.011,0.708,0.03v10.685
			c-59.563,5.608-59.733,17.888-59.733,23.269c0,22.212,69.5,25.529,110.933,25.529s110.933-3.317,110.933-25.529
			c0-5.38-0.171-17.661-59.733-23.269v-27.748h60.692c14.969,0.02,28.196-9.735,32.6-24.042
			c5.533-17.625,15.418-33.571,28.742-46.367c11.264-11.622,20.397-25.133,26.983-39.916c0.556,0.694,1.069,1.387,1.642,2.082
			v31.188c0,0.144,0.087,0.268,0.095,0.411c-2.834,9.894-23.972,90.664,28.359,133.953l0.021,0.028l0.033,0.02l0.208,0.184
			c0.498,0.358,1.034,0.66,1.598,0.899c0.297,0.192,0.606,0.366,0.924,0.521c0.925,0.338,1.902,0.513,2.886,0.517l0.004-0.001
			l0.004,0.001c1.212-0.005,2.409-0.268,3.511-0.772c0.343-0.216,0.67-0.456,0.98-0.717c0.696-0.37,1.336-0.838,1.9-1.39l0.19-0.227
			l0.019-0.015l0.011-0.022c57.333-65.078,19.339-131.071,10.455-144.558v-29.903c29.494-72.745,30.296-132.59,2.292-177.879
			c-19.927-30.011-49.127-52.678-83.142-64.542c-32.206-40.841-84.059-64.662-158.517-72.813
			c-56.15-6.183-133.383-1.846-182.275,53.883c-62.258,70.884-45.108,125.025-44.35,127.296
			C14.154,187.699,17.29,190.023,20.869,190.121z M79.996,182.057L56.12,205.929c-3.555-15.688-3.924-31.93-1.087-47.764
			c7.606-4.338,15.893-7.352,24.508-8.914C78.192,160.156,78.345,171.194,79.996,182.057L79.996,182.057z M174.752,481.353v12.273
			c-12.218-0.979-24.327-3.019-36.192-6.097C150.408,484.359,162.524,482.292,174.752,481.353L174.752,481.353z M191.819,494.967
			v-40.932c23.417-0.395,46.561-5.109,68.267-13.905v54.837c-10.192,0.607-21.481,0.996-34.133,0.996
			C213.3,495.963,202.011,495.574,191.819,494.967z M313.344,487.529c-11.864,3.078-23.974,5.118-36.192,6.097v-12.273
			C289.381,482.292,301.496,484.359,313.344,487.529L313.344,487.529z M387.152,353.975c-15.351,14.813-26.725,33.251-33.075,53.617
			c-2.226,7.079-8.812,11.877-16.233,11.825h-38.035c19.515-12.592,37.116-27.929,52.26-45.537c1.913-2.375,2.413-5.592,1.311-8.436
			s-3.639-4.883-6.654-5.349c-3.014-0.465-6.048,0.714-7.957,3.093c-0.64,0.798-63.026,76.855-155.213,73.771
			c-0.096-0.003-0.175-0.055-0.271-0.055c-0.054,0-0.1,0.03-0.154,0.031c-2.537-0.092-5.087-0.212-7.671-0.427
			C74.769,428.155,38.219,360.793,38.219,317.551c-0.018-28.377,8.285-56.136,23.883-79.842c1.799-2.386,2.217-5.541,1.1-8.312
			c-0.635-1.581-1.173-3.127-1.733-4.682l26.329-26.328l0.146,0.056c0.61,0.139,1.233,0.209,1.858,0.208
			c2.715-0.004,5.268-1.293,6.883-3.475c2.134-2.906,52.908-69.733,152.034-42.787c2.639,8.129,2.991,16.827,1.015,25.142
			c-0.283,0.967-0.391,1.976-0.319,2.981c-3.874-0.934-7.876,0.953-9.621,4.536c-1.744,3.583-0.761,7.897,2.364,10.37l42.667,34.133
			c2.379,1.916,5.601,2.415,8.448,1.307c2.847-1.108,4.885-3.653,5.343-6.674c0.458-3.021-0.734-6.055-3.124-7.958l-33.541-26.833
			c4.845,0.545,9.716,0.821,14.591,0.829c5.606,0.002,11.203-0.467,16.731-1.401c16.243,0.598,31.615,7.494,42.86,19.23
			c11.504,12.988,16.795,32.285,15.906,57.27c-1.435,0.812-2.519,1.492-2.881,1.739c-3.867,2.659-4.862,7.941-2.228,11.824
			s7.911,4.911,11.811,2.3c5.615-3.874,12.452-5.565,19.226-4.755c4.013,1.431,7.152,4.617,8.525,8.65
			c3.327,11.875,1.169,24.616-5.883,34.733c-4.266,5.471-11.495,7.696-18.1,5.571c-2.979-0.663-6.086,0.315-8.148,2.565
			c-2.062,2.251-2.765,5.431-1.843,8.341c0.921,2.91,3.327,5.106,6.308,5.76c2.946,0.664,5.955,1.004,8.975,1.017
			c10.152,0.111,19.778-4.504,26.05-12.487c8.021-11.085,11.947-24.611,11.108-38.268c2.817,6.079,6.019,11.972,9.585,17.644
			C408.471,326.324,399.154,341.296,387.152,353.975z M444.877,331.958l17.067-4.267v16.542l-17.067,4.267V331.958z
			 M461.194,474.915c-33.805-35.491-20.575-96.061-17.346-108.566l22.923-5.731C489.927,395.887,487.674,442.069,461.194,474.915
			L461.194,474.915z M70.194,68.267c44.05-50.217,115.442-53.917,167.592-48.175c55.542,6.08,97.32,21.151,126.671,45.603
			c-9.836-2.332-19.823-3.972-29.887-4.908c-4.692-0.336-8.771,3.189-9.118,7.881c-0.347,4.691,3.169,8.778,7.86,9.136
			c0.933,0.071,94.067,7.808,133.525,71.733c24.633,39.908,23.742,93.729-2.642,160l-24.717,6.179
			c-43.275-53.796-29.042-105.267-28.4-107.458c1.342-4.52-1.235-9.271-5.754-10.613c-4.52-1.342-9.271,1.235-10.613,5.754
			c-5.083,21.698-4.482,44.341,1.744,65.74c-3.596-4.362-8.419-7.544-13.843-9.135c-4.347-1.158-8.89-1.386-13.331-0.669
			c1.157-22.664-6.097-44.958-20.369-62.602c-8.153-9.084-18.484-15.943-30.021-19.93c3.051-3.09,5.362-6.83,6.763-10.941
			c0.975-2.894,0.329-6.088-1.694-8.375c-2.023-2.287-5.114-3.319-8.106-2.705c-2.991,0.614-5.426,2.781-6.384,5.68
			c-4.083,12.275-26.925,13.354-41.542,12.321c2.217-27.429-17.342-61.033-19.85-65.213c-1.569-2.614-4.413-4.192-7.462-4.141
			c-3.048,0.052-5.837,1.726-7.317,4.392s-1.424,5.918,0.145,8.532c3.167,5.421,6,11.031,8.482,16.798
			c-52.012-12.502-106.831,1.806-146.099,38.131c-1.025-10.6,0.068-21.298,3.217-31.471c1.29-4.186,3.454-8.051,6.35-11.337
			c3.487-3.124,3.807-8.474,0.717-11.991c-3.091-3.517-8.437-3.887-11.983-0.83c-4.529,4.47-7.997,9.898-10.15,15.886
			c-15.229,1.458-29.883,6.559-42.725,14.872c-0.275,0.147-0.542,0.308-0.8,0.483c-4.708,3.207-9.075,6.887-13.033,10.983
			C28.511,138.28,36.677,106.429,70.194,68.267z"/>
		<path d="M136.561,282.621c0,4.713,3.82,8.533,8.533,8.533s8.533-3.82,8.533-8.533c0.027-3.424,1.325-6.716,3.642-9.237
			c2.717-1.971,7.892-0.679,10.725,0.267c4.471,1.491,9.305-0.925,10.796-5.396s-0.925-9.305-5.396-10.796
			c-8.501-3.708-18.293-2.928-26.1,2.079C140.469,265.259,136.537,273.715,136.561,282.621z"/>
		<path d="M133.461,241.721c4.324,1.873,9.348-0.114,11.221-4.438c1.873-4.324-0.114-9.348-4.438-11.221
			c-20.895-8.84-45.112-3.057-59.758,14.271c-3.01,3.627-2.51,9.007,1.117,12.017c3.627,3.01,9.007,2.51,12.017-1.117
			C103.499,239.868,119.512,236.045,133.461,241.721L133.461,241.721z"/>
		<path d="M207.711,244.183c2.008-0.7,48.942-16.833,63.892,15.029c2.017,4.24,7.08,6.055,11.331,4.06
			c4.251-1.995,6.091-7.049,4.119-11.31c-17.225-36.721-63.167-31.659-85.058-23.858c-4.423,1.591-6.726,6.459-5.151,10.887
			C198.417,243.42,203.276,245.741,207.711,244.183L207.711,244.183z"/>
		<path d="M160.152,302.046c-12.716,7.238-24.678,15.727-35.708,25.342c-5.393,4.535-10.093,9.836-13.95,15.733
			c-10.559,14.534-11.764,33.863-3.092,49.596c11.633,20.092,35.617,24.221,52.65,25.583c7.708,0.613,15.383,0.854,22.858,0.854
			c12.125,0,23.725-0.633,34.142-1.346c22.95-1.554,48.775-5.279,64.892-29.879c17.217-27.878,12.762-63.974-10.717-86.829
			C240.919,273.333,192.444,284.258,160.152,302.046z M244.392,304.742c-6.176,11.107-13.781,11.832-13.965,11.85h-61.267
			c16.675-9.377,35.363-14.603,54.483-15.238C230.702,301.296,237.719,302.442,244.392,304.742L244.392,304.742z M267.661,378.579
			c-10.708,16.358-27.092,20.529-51.767,22.204c-18.127,1.498-36.34,1.665-54.492,0.5c-20.975-1.671-33.442-7.112-39.158-16.992
			c-5.36-10.237-4.362-22.643,2.567-31.892v-0.004c2.964-4.49,6.559-8.53,10.675-11.996c2.91-2.469,5.746-4.779,8.525-6.96
			c0.356,0.098,0.718,0.171,1.084,0.219h85.333c12.526-1.177,23.486-8.913,28.79-20.321c0.149,0.132,0.33,0.211,0.477,0.346
			C276.984,330.896,280.274,357.696,267.661,378.579L267.661,378.579z"/>
	</g>
</g>
<g>
</g>
<g>
</g>
<g>
</g>
<g>
</g>
<g>
</g>
<g>
</g>
<g>
</g>
<g>
</g>
<g>
</g>
<g>
</g>
<g>
</g>
<g>
</g>
<g>
</g>
<g>
</g>
<g>
</g>
</svg>
