<?xml version="1.0" encoding="iso-8859-1"?>
<!-- Generator: Adobe Illustrator 19.0.0, SVG Export Plug-In . SVG Version: 6.00 Build 0)  -->
<svg version="1.1" id="Capa_1" xmlns="http://www.w3.org/2000/svg" xmlns:xlink="http://www.w3.org/1999/xlink" x="0px" y="0px"
	 viewBox="0 0 512.022 512.022" style="enable-background:new 0 0 512.022 512.022;" xml:space="preserve">
<g transform="translate(0 -1)">
	<g transform="translate(1 1)">
		<path style="fill:#FDD834;" d="M465.624,308.076c-0.065-9.41-0.635-18.811-1.707-28.16c-0.23-8.09-2.585-15.977-6.827-22.869
			c-2.383,14.16-6.155,28.052-11.263,41.472c-5.985,16.959-14.911,32.73-26.368,46.592c-1.621,1.877-3.243,3.669-5.035,5.461
			c-9.979,9.765-18.256,21.128-24.49,33.621c-0.023,0-0.045,0.008-0.061,0.024c-0.016,0.016-0.025,0.038-0.024,0.061
			c-5.526,10.62-8.781,22.273-9.558,34.219c0,0-2.645-4.352-6.741-9.984c-8.448-11.605-23.297-28.587-34.73-24.405l-0.683,0.683
			c-17.935,16.861-38.409,30.798-60.672,41.301l0.426,0.939v44.032c35.244,2.645,59.733,8.619,59.733,15.445
			c0,5.803-17.833,10.923-44.885,13.994c-4.693,0.597-9.642,1.024-14.848,1.451c-12.971,0.939-27.477,1.536-42.667,1.536
			c-15.189,0-29.696-0.597-42.667-1.536c-12.117-0.939-22.869-2.219-31.914-3.84c-17.237-3.072-27.819-7.083-27.819-11.605
			c0-5.632,16.811-10.752,42.667-13.739c5.292-0.682,11.008-1.28,17.067-1.707v-26.624c-2.816,0-5.631-0.171-8.533-0.427
			c-102.4-8.533-145.067-76.459-145.067-127.488c-0.098-30.245,8.814-59.833,25.6-84.992c-10.117-23.99-13.109-50.386-8.619-76.032
			l-4.693-0.256c-8.904,6.623-16.053,15.324-20.822,25.344c0,0-11.178-33.28,16.129-82.005
			c7.548-13.198,16.441-25.581,26.537-36.949c43.35-49.408,112.896-57.856,174.933-51.029
			c55.467,6.059,112.981,22.016,149.931,66.133c1.024,1.109,1.963,2.304,2.902,3.499c6.464-5.728,10.97-13.338,12.885-21.76
			c1.745-6.89,2.036-14.069,0.853-21.077c-0.467-3.007,0.709-6.035,3.084-7.938c2.375-1.903,5.586-2.392,8.419-1.282
			c2.834,1.11,4.858,3.65,5.307,6.661c2.319,13.081,0.623,26.557-4.864,38.656c15.53-1.707,34.901,0.427,46.251,17.323
			c2.578,3.943,1.514,9.224-2.389,11.861c-1.374,0.963-3.016,1.471-4.693,1.451c-2.839,0.006-5.494-1.402-7.082-3.755
			c-10.07-15.019-33.877-10.069-44.374-6.997c2.133,1.707,4.182,3.413,6.145,5.291c2.816,2.475,5.547,5.12,8.107,7.851
			c6.882,7.149,13.161,14.856,18.772,23.04c8.531,12.415,15.631,25.754,21.163,39.765
			C487.258,213.874,486.234,264.326,465.624,308.076z"/>
		<path style="fill:#FFEB3A;" d="M463.918,279.916c-0.23-8.09-2.585-15.977-6.827-22.869c-2.383,14.161-6.156,28.052-11.264,41.472
			c-0.526-5.704-2.525-11.174-5.803-15.872c-3.674,21.737-10.607,42.796-20.565,62.464c-5.727,11.428-13.182,21.905-22.102,31.061
			c-2.645,2.645-5.119,5.376-7.423,8.021c-0.023,0-0.045,0.008-0.061,0.024c-0.016,0.016-0.025,0.038-0.024,0.061
			c-6.395,7.388-11.868,15.526-16.299,24.235c-8.448-11.605-23.297-28.587-34.73-24.405l-0.683,0.683
			c-17.935,16.861-38.409,30.798-60.672,41.301l0.426,0.939v15.531c-5.717,3.328-11.519,6.315-17.493,9.131l0.426,0.939v44.032
			c12.118,0.939,22.87,2.219,31.915,3.84c-4.693,0.597-9.642,1.024-14.848,1.451c-12.971,0.939-27.477,1.536-42.667,1.536
			s-29.696-0.597-42.667-1.536c-12.117-0.939-22.869-2.219-31.915-3.84c4.693-0.597,9.644-1.024,14.848-1.451v-23.893
			c5.292-0.682,11.008-1.28,17.067-1.707v-26.624c-2.816,0-5.631-0.171-8.533-0.427c-102.4-8.533-145.067-76.459-145.067-127.488
			c-0.098-30.245,8.814-59.833,25.6-84.992c-10.117-23.99-13.109-50.386-8.619-76.032l-4.693-0.256
			c-8.904,6.623-16.053,15.324-20.822,25.344c0,0-11.178-33.28,16.129-82.005c2.985-3.669,6.059-7.509,9.471-11.349
			c43.35-49.408,112.896-57.856,174.933-51.029c56.918,6.229,115.969,22.869,152.833,69.632c8.346-7.473,13.431-17.92,14.165-29.099
			c1.024,1.109,1.963,2.304,2.902,3.499c6.464-5.728,10.97-13.338,12.885-21.76c0.326,0.609,0.529,1.276,0.597,1.963
			c2.319,13.081,0.624,26.557-4.864,38.656c3.623-0.445,7.276-0.588,10.923-0.427c2.816,2.475,5.547,5.12,8.107,7.851
			c6.882,7.149,13.161,14.856,18.773,23.04c-2.32-0.35-4.391-1.648-5.717-3.584c-10.07-15.019-33.877-10.069-44.374-6.997
			c5.052,4.042,9.815,8.433,14.252,13.141c17.279,18.131,30.845,39.467,39.935,62.805
			C462.253,221.854,466.553,250.991,463.918,279.916L463.918,279.916z"/>
		<path style="fill:#FFE0B2;" d="M375.683,333.505c-1.927-0.062-3.842-0.32-5.717-0.768c-0.883,4.524-2.197,8.953-3.925,13.227
			c-6.087,14.601-15.392,27.64-27.221,38.144l-0.683,0.683c-13.472,12.629-28.363,23.653-44.373,32.853c0,0.085,0,0.085-0.085,0.085
			c-5.292,2.987-10.667,5.803-16.213,8.363c-26.436,12.795-55.547,19.085-84.907,18.347c-2.816,0-5.631-0.171-8.533-0.427
			c-102.4-8.533-145.067-76.459-145.067-127.488c-0.098-30.245,8.814-59.833,25.6-84.992c-9.583-23.107-12.766-48.369-9.215-73.131
			c0.256-1.451,0.511-2.389,0.597-2.901l-4.693-0.256c1.024-0.768,2.133-1.536,3.243-2.304h0.171
			c13.364-8.84,28.878-13.884,44.885-14.592c-3.916,14.801-4.383,30.302-1.365,45.312c0.256,1.792,0.597,3.584,0.939,5.461
			c5.991-6.814,12.589-13.069,19.712-18.688l0.171-0.085c19.712-15.872,52.907-35.669,93.355-32.853
			c-18.055,8.208-31.551,23.985-36.865,43.093c0,0,106.411-50.944,145.067-20.395l3.584,0.597
			c-2.109,16.33,2.789,32.791,13.482,45.312c1.257-5.871,2.881-11.656,4.865-17.323l3.669,0.341c0,0,32.427,8.021,26.112,79.531
			c5.687-2.922,12.348-3.289,18.323-1.01c5.974,2.279,10.698,6.99,12.994,12.957C409.902,294.593,404.355,334.956,375.683,333.505z"
			/>
		<path style="fill:#FFECB3;" d="M375.683,333.505c-2.099,4.907-5.419,9.196-9.643,12.459c-6.273,4.49-14.241,5.902-21.675,3.84
			c-4.622,20.013-15.538,38.018-31.146,51.371l-0.683,0.683c-5.983,5.581-12.249,10.85-18.773,15.787c0,0.085,0,0.085-0.085,0.085
			c-5.292,2.987-10.667,5.803-16.213,8.363c-26.436,12.795-55.547,19.085-84.907,18.347c-2.816,0-5.631-0.171-8.533-0.427
			c-102.4-8.533-145.067-76.459-145.067-127.488c-0.098-30.245,8.814-59.833,25.6-84.992c-9.583-23.107-12.766-48.368-9.216-73.131
			c6.083-1.628,12.316-2.629,18.603-2.987c-4.31,16.633-4.456,34.071-0.427,50.773c7.407-8.354,15.673-15.905,24.661-22.528
			c6.542-4.921,13.445-9.342,20.651-13.227l0.171-0.085c20.617-11.615,44.126-17.093,67.755-15.787
			c-18.055,8.208-31.551,23.985-36.865,43.093c0,0,106.411-50.944,145.067-20.395l3.584,0.597
			c-2.109,16.33,2.789,32.791,13.482,45.312c1.257-5.871,2.881-11.656,4.865-17.323l3.669,0.341c0,0,32.427,8.021,26.113,79.531
			c5.687-2.922,12.348-3.289,18.322-1.01c5.974,2.279,10.698,6.99,12.994,12.957C381.697,309.483,380.876,322.259,375.683,333.505
			L375.683,333.505z"/>
		<path style="fill:#FFE0B2;" d="M277.919,427.017v74.923c-12.971,0.939-27.477,1.536-42.667,1.536
			c-15.189,0-29.696-0.597-42.667-1.536v-57.515c29.36,0.739,58.471-5.552,84.907-18.347L277.919,427.017z"/>
		<g>
			<path style="fill:#2C2F38;" d="M192.585,471.049v30.891c-35.243-2.731-59.733-8.619-59.733-15.445
				S157.343,473.694,192.585,471.049z"/>
			<path style="fill:#2C2F38;" d="M337.652,486.494c0,6.827-24.491,12.715-59.733,15.445v-30.891
				C313.161,473.694,337.652,479.667,337.652,486.494z"/>
		</g>
		<path style="fill:#607D8B;" d="M282.329,382.401c-13.653,20.907-35.327,24.491-58.282,26.027
			c-18.563,1.578-37.219,1.75-55.807,0.512c-16.981-1.365-36.693-5.376-45.91-21.333c-6.976-12.979-5.881-28.81,2.816-40.704
			c3.449-5.171,7.615-9.826,12.373-13.824c4.352-3.755,8.875-7.424,13.569-10.837l1.535,2.048h85.333c0,0,16.64,0,25.259-24.747
			c3.552,1.911,6.849,4.262,9.813,6.997C293.289,326.638,297.135,358.004,282.329,382.401L282.329,382.401z"/>
		<path style="fill:#ECF0F1;" d="M263.214,299.542c-8.619,24.747-25.259,24.747-25.259,24.747h-85.333l-1.535-2.048
			c6.571-5.023,13.502-9.557,20.735-13.568C197.422,294.593,235.907,284.182,263.214,299.542z"/>
	</g>
	<g>
		<path d="M343.88,393.137c6.048-0.047,20.003,14.01,30.133,30.785c1.984,3.26,5.888,4.809,9.567,3.796
			c3.679-1.013,6.24-4.343,6.275-8.158c0.017-1.258,0.692-31.179,31.625-61.979c16.642-17.903,29.018-39.34,36.2-62.704
			c0.283,4.608,0.442,9.412,0.442,14.171c0,3.955,2.717,7.392,6.565,8.304c3.848,0.912,7.819-0.94,9.593-4.475
			c21.656-45.931,22.795-98.897,3.133-145.717c-9.534-24.348-23.701-46.615-41.717-65.567c-3.421-3.579-6.748-6.71-10.043-9.62
			c11.545-1.892,26.496-1.698,33.909,9.387c1.686,2.556,4.613,4.013,7.669,3.818c3.056-0.196,5.773-2.014,7.119-4.764
			c1.346-2.75,1.116-6.011-0.604-8.545c-11.35-16.954-30.733-19.058-46.217-17.367c5.485-12.112,7.19-25.596,4.892-38.692
			c-0.729-4.658-5.097-7.842-9.754-7.113c-4.658,0.729-7.842,5.097-7.113,9.754c2.412,12.722-0.446,25.878-7.919,36.453
			c-32.281-40.211-83.855-63.705-157.639-71.748C193.889-3.078,116.689,1.21,67.714,56.989
			c-62.258,70.854-45.108,125.038-44.35,127.309c1.134,3.397,4.27,5.723,7.85,5.821c3.6,0.179,6.902-1.991,8.166-5.367
			c1.879-3.956,4.262-7.653,7.09-10.998c-0.576,19.673,2.665,39.27,9.544,57.71c-16.06,25.84-24.567,55.659-24.558,86.083
			c0,49.554,40.717,126.654,152.892,135.963c0.241,0.02,0.469,0.01,0.708,0.03v10.689c-59.563,5.6-59.733,17.885-59.733,23.265
			c0,22.212,69.5,25.529,110.933,25.529s110.933-3.317,110.933-25.529c0-5.38-0.171-17.665-59.733-23.265v-31.791
			C307.987,422.004,326.975,408.778,343.88,393.137z M89.274,172.774l-24.401,24.398c-2.062-12.921-1.909-26.098,0.453-38.967
			c7.61-4.372,15.916-7.401,24.554-8.955C88.843,157.048,88.64,164.933,89.274,172.774L89.274,172.774z M48.522,317.547
			c-0.019-28.377,8.284-56.137,23.883-79.842c1.799-2.386,2.217-5.541,1.1-8.312c-1.707-4.247-3.093-8.385-4.292-12.429
			l23.252-23.25c1.23,2.637,3.724,4.461,6.61,4.834c2.886,0.373,5.762-0.758,7.621-2.997c20.836-22.993,48.088-39.212,78.235-46.56
			c-8.196,8.542-13.964,19.116-16.71,30.631c-0.757,3.199,0.39,6.549,2.95,8.611c2.56,2.063,6.077,2.472,9.042,1.051
			c28.169-13.503,107.273-43.586,135.81-21.563c-0.083,16.222,5.511,31.962,15.815,44.492c2.022,2.685,5.432,3.933,8.71,3.188
			c3.278-0.746,5.812-3.346,6.474-6.642c0.544-2.711,1.227-5.39,1.967-8.027c6.674,5.203,18.838,20.785,16.117,63.154
			c-1.943,0.94-3.828,1.998-5.642,3.168c-3.898,2.642-4.919,7.942-2.282,11.844c2.637,3.902,7.936,4.93,11.841,2.298
			c5.634-3.888,12.495-5.582,19.292-4.763c3.995,1.443,7.118,4.622,8.492,8.642c3.319,11.877,1.158,24.615-5.892,34.733
			c-4.264,5.47-11.49,7.694-18.092,5.571c-2.976-0.661-6.078,0.316-8.138,2.562c-2.06,2.247-2.765,5.422-1.85,8.329
			c0.915,2.908,3.313,5.106,6.288,5.767c2.948,0.666,5.961,1.009,8.983,1.021c10.152,0.114,19.779-4.499,26.05-12.483
			c11.053-15.154,14.107-34.714,8.2-52.517c-3.369-8.682-10.535-15.338-19.442-18.058c-3.409-0.919-6.951-1.246-10.47-0.966
			c1.815-51.33-17.404-69.031-27.417-74.699c3.24-6.731,6.671-11.209,9.229-11.209c4.713,0,8.533-3.821,8.533-8.533
			c0-4.713-3.821-8.533-8.533-8.533c-14.075,0-22.983,15.025-28.225,29.025c-4.552-10.561-4.102-22.612,1.225-32.804
			c2.577-3.927,1.496-9.199-2.42-11.794c-3.915-2.595-9.192-1.538-11.805,2.365c-1.377,2.228-2.532,4.586-3.447,7.04
			c-33.809-17.495-93.401,1.831-125.628,14.793c11.147-12.723,25.938-21.708,42.367-25.737c2.982-0.631,5.402-2.806,6.346-5.704
			s0.271-6.081-1.767-8.348c-2.038-2.267-5.13-3.275-8.113-2.644c-7.351,1.771-14.487,4.341-21.279,7.664
			c-48.767-2.399-86.654,24.928-105.304,41.882c-1.127-10.763-0.047-21.643,3.175-31.975c1.281-4.136,3.4-7.964,6.225-11.246v0.004
			c3.576-3.07,3.986-8.457,0.917-12.033c-3.07-3.576-8.457-3.986-12.033-0.917c-4.545,4.47-8.022,9.909-10.173,15.91
			c-15.248,1.441-29.918,6.559-42.753,14.916c-0.259,0.138-0.509,0.291-0.75,0.458c-4.717,3.198-9.092,6.871-13.058,10.963
			c1.092-19.608,9.259-51.471,42.775-89.625c44.134-50.242,115.475-53.892,167.6-48.129c69.717,7.6,117.817,29.342,147,66.417
			c1.633,2.116,3.275,4.317,4.692,6.308c0.298,0.353,0.618,0.687,0.957,1c0.277,0.338,0.58,0.655,0.906,0.947
			c1.488,1.439,3.132,2.706,4.903,3.778c0.539,0.304,1.059,0.639,1.558,1.004c5.433,4.203,10.526,8.827,15.233,13.829
			c16.482,17.347,29.441,37.728,38.158,60.012c12.229,30.052,15.676,62.958,9.941,94.892c-0.992-5.976-3.522-11.59-7.342-16.292
			c-2.287-2.275-5.662-3.065-8.722-2.044c-3.06,1.021-5.283,3.681-5.745,6.873c-0.075,0.567-8.583,57.125-40.242,88.642
			c-15.072,14.554-26.315,32.605-32.733,52.55c-5.48-7.101-12.166-13.184-19.752-17.969c3.067-3.344,5.01-5.675,5.427-6.193
			c1.913-2.376,2.413-5.592,1.311-8.436c-1.102-2.844-3.639-4.883-6.654-5.349c-3.015-0.465-6.048,0.714-7.957,3.093
			c-0.631,0.797-62.926,76.918-155.16,73.778c-0.114-0.005-0.208-0.065-0.323-0.065c-0.065,0-0.118,0.035-0.181,0.036
			c-2.53-0.094-5.071-0.216-7.644-0.432C85.072,428.147,48.522,360.785,48.522,317.547z M185.055,481.348v12.271
			c-12.221-0.979-24.333-3.019-36.2-6.097C160.706,484.352,172.824,482.286,185.055,481.348L185.055,481.348z M323.647,487.522
			c-11.864,3.078-23.974,5.118-36.192,6.097V481.35C299.684,482.288,311.799,484.354,323.647,487.522L323.647,487.522z
			 M270.388,494.96c-10.191,0.607-21.481,0.996-34.133,0.996s-23.942-0.388-34.133-0.995v-40.933
			c23.417-0.395,46.561-5.108,68.267-13.905V494.96z"/>
		<path d="M145.089,274.089c0,4.713,3.821,8.533,8.533,8.533c4.713,0,8.533-3.82,8.533-8.533c0.027-3.424,1.325-6.716,3.642-9.237
			c2.725-1.963,7.892-0.683,10.725,0.267c2.892,0.965,6.08,0.313,8.361-1.71c2.282-2.023,3.311-5.109,2.7-8.096
			c-0.611-2.987-2.769-5.422-5.661-6.386c-8.502-3.708-18.293-2.928-26.1,2.079C148.997,256.727,145.065,265.183,145.089,274.089z"
			/>
		<path d="M141.989,233.189c4.324,1.873,9.348-0.114,11.221-4.438c1.873-4.324-0.114-9.348-4.438-11.221
			c-20.896-8.836-45.11-3.053-59.758,14.271c-3.01,3.627-2.51,9.007,1.117,12.017c3.627,3.01,9.007,2.51,12.017-1.117
			C112.024,231.332,128.041,227.508,141.989,233.189z"/>
		<path d="M216.239,235.652c2-0.7,48.95-16.838,63.892,15.029c2.017,4.24,7.08,6.055,11.331,4.06
			c4.251-1.995,6.091-7.049,4.119-11.31c-17.225-36.721-63.158-31.663-85.058-23.858c-4.423,1.591-6.726,6.459-5.151,10.887
			C206.945,234.888,211.804,237.209,216.239,235.652L216.239,235.652z"/>
		<path d="M293.355,221.018c2.379,1.916,5.601,2.415,8.448,1.307c2.847-1.108,4.885-3.653,5.342-6.674
			c0.458-3.021-0.734-6.055-3.124-7.958l-42.667-34.133c-2.379-1.916-5.601-2.415-8.448-1.307c-2.847,1.108-4.885,3.653-5.343,6.674
			c-0.458,3.021,0.734,6.055,3.124,7.958L293.355,221.018z"/>
		<path d="M225.589,417.977c22.942-1.558,48.767-5.288,64.883-29.884c17.217-27.877,12.762-63.971-10.717-86.825
			c-30.308-27.779-78.783-16.858-111.075,0.942c-12.716,7.239-24.678,15.728-35.708,25.342c-5.393,4.536-10.093,9.836-13.95,15.733
			c-10.563,14.534-11.768,33.866-3.092,49.6c11.633,20.092,35.617,24.221,52.65,25.583c7.692,0.613,15.35,0.854,22.825,0.854
			C203.53,419.322,215.147,418.685,225.589,417.977z M252.92,304.909c-6.176,11.104-13.781,11.829-13.965,11.847h-61.259
			c16.674-9.374,35.358-14.599,54.476-15.233C239.23,301.464,246.246,302.609,252.92,304.909z M130.772,384.46
			c-5.361-10.237-4.362-22.644,2.567-31.892l0.009-0.004c2.962-4.491,6.554-8.532,10.666-12c2.91-2.469,5.746-4.779,8.525-6.96
			c0.356,0.098,0.718,0.171,1.084,0.219h85.333c12.525-1.177,23.484-8.912,28.79-20.318c0.149,0.132,0.329,0.212,0.477,0.347
			c17.29,17.211,20.58,44.009,7.967,64.892c-10.708,16.358-27.092,20.529-51.758,22.208c-18.13,1.494-36.345,1.661-54.5,0.5
			C148.964,399.781,136.497,394.339,130.772,384.46z"/>
	</g>
</g>
<g>
</g>
<g>
</g>
<g>
</g>
<g>
</g>
<g>
</g>
<g>
</g>
<g>
</g>
<g>
</g>
<g>
</g>
<g>
</g>
<g>
</g>
<g>
</g>
<g>
</g>
<g>
</g>
<g>
</g>
</svg>
