<?xml version="1.0" encoding="iso-8859-1"?>
<!-- Generator: Adobe Illustrator 19.0.0, SVG Export Plug-In . SVG Version: 6.00 Build 0)  -->
<svg version="1.1" id="Capa_1" xmlns="http://www.w3.org/2000/svg" xmlns:xlink="http://www.w3.org/1999/xlink" x="0px" y="0px"
	 viewBox="0 0 512.029 512.029" style="enable-background:new 0 0 512.029 512.029;" xml:space="preserve">
<g transform="translate(0 -1)">
	<g transform="translate(1 2)">
		<path style="fill:#FFB301;" d="M471.063,315.512c62.208-151.467-16.469-210.773-77.568-233.643
			c-0.427-0.597-0.939-1.195-1.365-1.792c-36.864-46.848-95.915-63.488-152.832-69.717C177.26,3.533,107.714,11.981,64.364,61.389
			C4.631,129.4,21.698,180.344,21.698,180.344c4.76-10.051,11.944-18.76,20.907-25.344l4.693,0.256
			c-4.492,25.646-1.5,52.042,8.619,76.032c-16.786,25.159-25.698,54.747-25.6,84.992c0,51.03,42.667,118.955,145.067,127.488
			c2.816,0.171,5.717,0.427,8.533,0.427v26.625c-35.243,2.645-59.733,8.619-59.733,15.445c0,6.827,24.491,12.715,59.733,15.445
			c12.971,0.939,27.477,1.536,42.667,1.536c15.189,0,29.696-0.597,42.667-1.536c35.243-2.731,59.733-8.619,59.733-15.445
			c0-6.827-24.491-12.8-59.733-15.445v-44.117h69.205c11.207,0.092,21.138-7.2,24.405-17.92
			c5.906-19.011,16.533-36.215,30.891-50.005c13.776-14.594,24.33-31.922,30.976-50.859c3.71,5.637,7.786,11.025,12.203,16.128
			v36.096c0,0-25.6,84.053,25.6,126.037c60.416-68.267,8.533-136.533,8.533-136.533V315.512z"/>
		<path style="fill:#FFE0B2;" d="M375.945,332.162c-4.769,1.457-9.846,1.575-14.677,0.341c-0.762,6.04-2.491,11.917-5.12,17.408
			c-4.704,9.459-10.738,18.194-17.92,25.941c-4.706,5.218-9.721,10.147-15.019,14.763c-8.127,6.899-16.677,13.283-25.6,19.115
			c-9.608,6.395-19.709,12.016-30.208,16.811c-26.069,12.292-54.643,18.34-83.456,17.664c-2.816,0-5.717-0.256-8.533-0.427
			C73.011,435.245,30.345,367.32,30.345,316.29c-0.098-30.245,8.814-59.833,25.6-84.992c-9.159-22.262-12.479-46.495-9.643-70.4
			c0.427-2.901,0.853-4.864,1.024-5.632l-4.693-0.256c1.024-0.768,2.133-1.536,3.243-2.304h0.171
			c13.338-8.828,28.821-13.871,44.8-14.592c-4.304,16.514-4.48,33.834-0.512,50.432c0,0.085,0.085,0.256,0.085,0.341
			c0.254-0.392,0.54-0.763,0.853-1.109l0.171-0.171c8.021-9.984,63.744-73.387,164.779-43.435
			c4.161,11.132,4.933,23.246,2.219,34.816c11.625,1.758,23.447,1.758,35.072,0c21.675,1.195,72.619,12.459,67.499,90.453
			c9.045-3.925,25.429-7.765,33.877,10.923C400.521,292.738,396.766,325.762,375.945,332.162z"/>
		<path style="fill:#FFECB3;" d="M375.945,332.162c-3.033,8.977-10.544,15.711-19.797,17.749c-3.962,0.73-8.033,0.614-11.947-0.341
			c-2.839,15.438-10.137,29.707-20.992,41.045c-8.127,6.899-16.677,13.283-25.6,19.115c-9.608,6.395-19.709,12.016-30.208,16.811
			c-26.069,12.292-54.643,18.34-83.456,17.664c-2.816,0-5.717-0.256-8.533-0.427C73.011,435.245,30.345,367.32,30.345,316.29
			c-0.098-30.245,8.814-59.833,25.6-84.992c-9.159-22.262-12.479-46.495-9.643-70.4c8.829-3.244,18.087-5.171,27.477-5.717
			c-4.309,16.633-4.456,34.071-0.427,50.773c5.045-6.373,10.736-12.206,16.981-17.408c0.295-0.277,0.609-0.533,0.939-0.768
			l0.171-0.171c24.576-20.48,74.155-48.128,147.712-26.368c4.161,11.132,4.933,23.246,2.219,34.816
			c11.625,1.758,23.447,1.758,35.072,0c21.675,1.195,72.619,12.459,67.499,90.453c9.045-3.925,25.429-7.765,33.877,10.923
			C381.438,308.852,380.771,321.198,375.945,332.162z"/>
		<path style="fill:#FFE0B2;" d="M269.25,426.701v75.008c-12.971,0.939-27.477,1.536-42.667,1.536
			c-15.189,0-29.696-0.597-42.667-1.536v-57.515c28.813,0.676,57.387-5.372,83.456-17.664l0.085,0.171L269.25,426.701z"/>
		<g>
			<path style="fill:#2C2F38;" d="M183.916,470.819v30.891c-35.243-2.731-59.733-8.619-59.733-15.445
				C124.183,479.437,148.674,473.464,183.916,470.819z"/>
			<path style="fill:#2C2F38;" d="M328.983,486.264c0,6.827-24.491,12.715-59.733,15.445v-30.891
				C304.492,473.464,328.983,479.437,328.983,486.264z"/>
		</g>
		<polygon style="fill:#E91E63;" points="471.066,315.514 471.066,349.647 436.932,358.18 436.932,324.047 		"/>
		<path style="fill:#FFB301;" d="M462.53,486.179c-51.2-41.984-25.6-126.037-25.6-126.037v-1.963l34.133-8.533
			C471.063,349.645,522.946,417.912,462.53,486.179z"/>
		<g>
			<path style="fill:#2980BA;" d="M101.427,220.888L101.427,220.888c9.426,0,17.067,7.641,17.067,17.067l0,0
				c0,9.426-7.641,17.067-17.067,17.067l0,0c-9.426,0-17.067-7.641-17.067-17.067l0,0
				C84.361,228.529,92.002,220.888,101.427,220.888z"/>
			<path style="fill:#2980BA;" d="M237.961,220.888L237.961,220.888c9.426,0,17.067,7.641,17.067,17.067l0,0
				c0,9.426-7.641,17.067-17.067,17.067l0,0c-9.426,0-17.067-7.641-17.067-17.067l0,0
				C220.894,228.529,228.535,220.888,237.961,220.888z"/>
		</g>
		<path style="fill:#ECF0F1;" d="M135.189,400.088c0-17.067-42.667-59.733-42.667-59.733l0.683-2.475
			c54.528,15.117,112.925,6.006,160.256-25.003l1.195,1.877C305.856,417.154,135.189,400.088,135.189,400.088z"/>
	</g>
	<g>
		<path d="M142.069,299.746c2.845-0.002,5.503-1.418,7.09-3.779c1.588-2.361,1.897-5.356,0.826-7.992
			c-1.372-3.182-1.459-6.772-0.242-10.017c1.766-2.85,7-3.667,9.967-3.896c4.689-0.381,8.185-4.483,7.818-9.173
			c-0.367-4.69-4.46-8.198-9.151-7.844c-9.274-0.103-17.988,4.426-23.233,12.075c-4.063,7.925-4.392,17.246-0.9,25.438
			C135.569,297.707,138.654,299.751,142.069,299.746L142.069,299.746z"/>
		<path d="M102.427,265.554c14.138,0,25.6-11.462,25.6-25.6c0-14.139-11.462-25.6-25.6-25.6s-25.6,11.462-25.6,25.6
			C76.843,254.086,88.295,265.539,102.427,265.554L102.427,265.554z M102.427,231.421c4.713,0,8.533,3.821,8.533,8.533
			c0,4.713-3.821,8.533-8.533,8.533c-4.713,0-8.533-3.821-8.533-8.533C93.899,235.243,97.717,231.426,102.427,231.421
			L102.427,231.421z"/>
		<path d="M238.961,265.554c14.139,0,25.6-11.462,25.6-25.6c0-14.139-11.462-25.6-25.6-25.6c-14.138,0-25.6,11.462-25.6,25.6
			C213.376,254.086,224.829,265.539,238.961,265.554L238.961,265.554z M238.961,231.421c4.713,0,8.533,3.821,8.533,8.533
			c0,4.713-3.821,8.533-8.533,8.533c-4.713,0-8.533-3.821-8.533-8.533C230.432,235.243,234.25,231.426,238.961,231.421
			L238.961,231.421z"/>
		<path d="M269.577,315.121c2.475-1.789,3.805-4.764,3.487-7.801c-0.317-3.037-2.234-5.673-5.025-6.911
			c-2.791-1.238-6.031-0.891-8.496,0.912c-51.428,38.702-119.213,48.054-179.2,24.725c-4.282-1.894-9.29,0.015-11.224,4.278
			c-1.934,4.264-0.072,9.29,4.174,11.263c4.341,1.887,8.785,3.527,13.312,4.91c0.329,0.685,0.751,1.321,1.254,1.89
			c19.4,19.408,40.167,45.617,40.167,53.7c0.002,4.383,3.322,8.053,7.683,8.492c1.3,0.129,11.808,1.129,26.508,1.129
			c32.017,0,83.892-4.742,103.742-33.542c10.936-15.869,10.786-36.216-0.139-60.434
			C267.074,316.859,268.325,316.032,269.577,315.121z M251.919,368.471c-17.9,26.008-79.4,27.55-108.367,25.625
			c-6.875-15.083-16.25-28.896-27.729-40.855c10.546,1.648,21.204,2.48,31.879,2.489c36.509-0.005,72.333-9.913,103.657-28.668
			C258.69,344.385,258.913,358.31,251.919,368.471L251.919,368.471z"/>
		<path d="M243.694,181.655c-2.536-1.727-5.805-1.959-8.56-0.608c-2.755,1.351-4.573,4.077-4.76,7.14
			c-0.188,3.063,1.284,5.99,3.853,7.668l51.2,34.133c2.536,1.727,5.805,1.959,8.56,0.608c2.755-1.351,4.573-4.077,4.76-7.14
			s-1.284-5.99-3.853-7.668L243.694,181.655z"/>
		<path d="M20.869,190.121l0.242,0.004c3.491,0,6.63-2.125,7.925-5.367c1.889-3.977,4.287-7.693,7.132-11.053
			c-0.583,19.69,2.658,39.305,9.543,57.761c-16.059,25.84-24.566,55.659-24.558,86.083c0,49.554,40.717,126.658,152.892,135.967
			c0.241,0.02,0.468,0.011,0.708,0.03v10.685c-59.563,5.608-59.733,17.888-59.733,23.269c0,22.212,69.5,25.529,110.933,25.529
			s110.933-3.317,110.933-25.529c0-5.38-0.171-17.661-59.733-23.269v-27.748h60.692c14.969,0.02,28.196-9.735,32.6-24.042
			c5.533-17.625,15.418-33.571,28.742-46.367c11.264-11.622,20.397-25.133,26.983-39.916c0.557,0.694,1.069,1.387,1.642,2.082
			v31.188c0,0.144,0.087,0.268,0.095,0.411c-2.835,9.894-23.971,90.664,28.359,133.953l0.021,0.028l0.033,0.02l0.209,0.184
			c0.497,0.358,1.033,0.66,1.597,0.899c0.297,0.192,0.606,0.366,0.924,0.521c0.925,0.338,1.902,0.513,2.886,0.517l0.004-0.001
			l0.005,0.001c1.212-0.005,2.409-0.268,3.511-0.772c0.343-0.216,0.67-0.456,0.98-0.717c0.697-0.37,1.337-0.838,1.9-1.39l0.19-0.227
			l0.019-0.015l0.011-0.022c57.333-65.078,19.339-131.071,10.455-144.558v-29.903c29.493-72.745,30.295-132.59,2.292-177.879
			c-19.927-30.011-49.126-52.678-83.141-64.542c-32.206-40.841-84.06-64.662-158.517-72.813
			c-56.15-6.183-133.383-1.846-182.275,53.883c-62.258,70.884-45.108,125.025-44.35,127.296
			C14.155,187.699,17.291,190.023,20.869,190.121z M78.996,174.523l-24.19,24.186c-2.297-13.424-2.22-27.147,0.227-40.544
			c7.606-4.338,15.894-7.353,24.509-8.914C78.407,157.627,78.223,166.105,78.996,174.523L78.996,174.523z M174.752,481.353v12.273
			c-12.218-0.979-24.327-3.019-36.192-6.097C150.409,484.359,162.524,482.292,174.752,481.353L174.752,481.353z M191.819,494.967
			v-40.932c23.417-0.395,46.561-5.109,68.267-13.905v54.837c-10.191,0.607-21.482,0.996-34.133,0.996
			C213.301,495.963,202.01,495.574,191.819,494.967L191.819,494.967z M313.344,487.529c-11.864,3.078-23.974,5.118-36.192,6.097
			v-12.273C289.381,482.292,301.496,484.359,313.344,487.529L313.344,487.529z M387.152,353.975
			c-15.351,14.813-26.725,33.251-33.075,53.617c-2.226,7.079-8.812,11.877-16.233,11.825h-38.035
			c19.515-12.592,37.116-27.929,52.26-45.537c1.913-2.375,2.413-5.592,1.311-8.436s-3.639-4.883-6.654-5.349
			c-3.014-0.465-6.048,0.714-7.957,3.093c-0.64,0.798-63.04,76.854-155.212,73.771c-0.095-0.003-0.175-0.055-0.271-0.055
			c-0.055,0-0.1,0.03-0.154,0.031c-2.539-0.092-5.088-0.212-7.671-0.427C74.769,428.155,38.219,360.793,38.219,317.551
			c-0.018-28.377,8.285-56.136,23.883-79.842c1.799-2.386,2.217-5.541,1.1-8.312c-1.518-3.778-2.76-7.458-3.872-11.077
			l23.469-23.467c1.193,1.811,3.034,3.095,5.146,3.59c0.61,0.139,1.233,0.209,1.858,0.208c2.715-0.004,5.268-1.293,6.883-3.475
			c2.134-2.906,52.908-69.733,152.034-42.787c2.639,8.129,2.99,16.827,1.015,25.142c-0.79,2.368-0.504,4.962,0.784,7.101
			c1.287,2.138,3.446,3.606,5.908,4.016c6.654,1.048,13.38,1.575,20.117,1.575c5.606,0.002,11.203-0.467,16.731-1.401
			c16.243,0.598,31.615,7.494,42.86,19.23c11.504,12.988,16.795,32.286,15.907,57.27c-1.436,0.811-2.52,1.492-2.882,1.738
			c-3.867,2.659-4.862,7.941-2.228,11.824s7.911,4.911,11.811,2.3c5.615-3.875,12.451-5.566,19.225-4.755
			c4.013,1.431,7.152,4.617,8.525,8.65c3.327,11.875,1.169,24.616-5.883,34.733c-4.266,5.471-11.495,7.696-18.1,5.571
			c-2.979-0.663-6.086,0.315-8.148,2.565c-2.062,2.251-2.765,5.431-1.843,8.341c0.921,2.91,3.327,5.106,6.308,5.76
			c2.946,0.664,5.955,1.004,8.975,1.017c10.152,0.111,19.778-4.504,26.05-12.487c8.021-11.085,11.947-24.61,11.109-38.268
			c2.817,6.079,6.019,11.972,9.585,17.644C408.472,326.324,399.154,341.296,387.152,353.975L387.152,353.975z M444.877,331.958
			l17.067-4.267v16.542l-17.067,4.267V331.958z M461.194,474.915c-33.805-35.491-20.574-96.061-17.346-108.566l22.923-5.731
			C489.927,395.887,487.673,442.069,461.194,474.915L461.194,474.915z M70.194,68.267c44.05-50.217,115.442-53.917,167.592-48.175
			c55.541,6.08,97.32,21.151,126.67,45.603c-9.835-2.332-19.822-3.972-29.887-4.908c-4.692-0.336-8.771,3.189-9.118,7.881
			c-0.347,4.691,3.169,8.778,7.86,9.136c0.933,0.071,94.067,7.808,133.525,71.733c24.633,39.908,23.742,93.729-2.642,160
			l-24.717,6.179c-43.275-53.796-29.042-105.267-28.4-107.458c1.342-4.52-1.235-9.271-5.754-10.613
			c-4.52-1.342-9.271,1.235-10.613,5.754c-5.082,21.698-4.482,44.341,1.743,65.74c-3.596-4.361-8.419-7.544-13.843-9.135
			c-4.347-1.159-8.89-1.387-13.332-0.669c1.158-22.664-6.096-44.958-20.368-62.602c-8.153-9.084-18.485-15.943-30.021-19.93
			c3.051-3.09,5.363-6.83,6.763-10.941c0.975-2.894,0.329-6.088-1.694-8.375c-2.023-2.287-5.114-3.319-8.106-2.705
			c-2.991,0.614-5.426,2.781-6.384,5.68c-4.083,12.275-26.908,13.354-41.542,12.321c2.217-27.429-17.342-61.033-19.85-65.213
			c-1.569-2.614-4.413-4.192-7.462-4.141c-3.048,0.052-5.837,1.726-7.317,4.392s-1.424,5.918,0.145,8.532
			c3.167,5.421,6,11.031,8.482,16.798c-51.878-12.472-106.56,1.732-145.81,37.875c-0.115-0.151-0.184-0.323-0.311-0.468
			c-0.936-10.362,0.164-20.807,3.24-30.746c1.29-4.186,3.454-8.051,6.35-11.337c3.487-3.124,3.807-8.474,0.717-11.991
			c-3.091-3.517-8.437-3.887-11.983-0.83c-4.529,4.47-7.997,9.898-10.15,15.886c-15.228,1.458-29.882,6.559-42.725,14.872
			c-0.275,0.147-0.542,0.308-0.8,0.483c-4.708,3.207-9.075,6.887-13.034,10.983C28.511,138.28,36.677,106.429,70.194,68.267z"/>
	</g>
</g>
<g>
</g>
<g>
</g>
<g>
</g>
<g>
</g>
<g>
</g>
<g>
</g>
<g>
</g>
<g>
</g>
<g>
</g>
<g>
</g>
<g>
</g>
<g>
</g>
<g>
</g>
<g>
</g>
<g>
</g>
</svg>
