<?xml version="1.0" encoding="iso-8859-1"?>
<!-- Generator: Adobe Illustrator 19.0.0, SVG Export Plug-In . SVG Version: 6.00 Build 0)  -->
<svg version="1.1" id="Capa_1" xmlns="http://www.w3.org/2000/svg" xmlns:xlink="http://www.w3.org/1999/xlink" x="0px" y="0px"
	 viewBox="0 0 512.022 512.022" style="enable-background:new 0 0 512.022 512.022;" xml:space="preserve">
<g transform="translate(0 -1)">
	<g transform="translate(1 1)">
		<path style="fill:#4E342E;" d="M465.625,308.076c-0.06-10.76-0.801-21.505-2.219-32.171c-0.436-6.727-2.612-13.225-6.315-18.859
			c-2.206,13.295-5.663,26.352-10.325,38.997c-6.711,20.301-17.745,38.904-32.341,54.528
			c-34.133,33.963-34.133,67.925-34.133,67.925c-2.82-4.579-5.897-8.995-9.216-13.227c-8.619-11.264-21.845-25.003-32.256-21.163
			l-0.683,0.683c-17.935,16.861-38.409,30.798-60.672,41.301l0.427,0.939v44.032c35.243,2.645,59.733,8.619,59.733,15.445
			c0,4.181-9.045,7.936-24.064,10.923c-11.8,2.144-23.707,3.654-35.669,4.523c-12.971,0.939-27.477,1.536-42.667,1.536
			s-29.696-0.597-42.667-1.536c-17.92-0.687-35.662-3.817-52.736-9.301c-4.523-1.877-6.997-4.011-6.997-6.144
			c0-5.632,16.811-10.752,42.667-13.739c5.291-0.682,11.008-1.28,17.067-1.707v-26.624c-2.816,0-5.632-0.171-8.533-0.427
			c-102.4-8.533-145.067-76.459-145.067-127.488c-0.098-30.245,8.814-59.833,25.6-84.992c-10.118-23.99-13.11-50.386-8.619-76.032
			l-4.693-0.256c-6.279,4.823-11.751,10.612-16.213,17.152c-1.778,2.587-3.32,5.329-4.608,8.192
			c-0.443-1.396-0.785-2.822-1.024-4.267c-0.171-0.939-0.341-1.792-0.512-2.987v-0.171c-0.434-3.055-0.69-6.132-0.768-9.216v-1.963
			c0-20.224,6.656-55.552,42.667-97.707c0.768-0.853,1.537-1.792,2.304-2.645c43.349-49.408,112.896-57.856,174.933-51.029
			c54.869,5.973,111.701,21.675,148.736,64.683c1.365,1.621,2.731,3.243,4.096,4.949c7.507-6.688,12.405-15.817,13.824-25.771
			v-0.171c0.868-5.572,0.839-11.247-0.085-16.811c-0.502-3.016,0.653-6.07,3.026-7.999c2.373-1.929,5.598-2.437,8.449-1.329
			c2.85,1.107,4.888,3.659,5.336,6.684c2.319,13.081,0.623,26.557-4.864,38.656c15.531-1.707,34.901,0.427,46.251,17.408
			c2.587,3.913,1.518,9.181-2.389,11.776c-1.374,0.963-3.016,1.471-4.693,1.451c-2.848,0.044-5.521-1.373-7.083-3.755
			c-6.997-10.411-20.565-11.264-31.744-9.728c-4.27,0.608-8.49,1.52-12.629,2.731c5.052,4.042,9.814,8.433,14.251,13.141
			c0.853,0.939,1.792,1.877,2.56,2.816h0.085c16.005,17.54,28.645,37.875,37.291,59.989
			C487.258,213.874,486.234,264.326,465.625,308.076z"/>
		<path style="fill:#795548;" d="M463.406,275.905c-0.436-6.727-2.612-13.225-6.315-18.859
			c-2.206,13.295-5.663,26.352-10.325,38.997c-0.332-7.767-2.653-15.319-6.741-21.931c0,0-8.533,59.477-42.667,93.525
			c-11.067,10.765-19.986,23.536-26.283,37.632c-8.619-11.264-21.845-25.003-32.256-21.163l-0.683,0.683
			c-17.935,16.861-38.409,30.798-60.672,41.301l0.427,0.939v6.997c-5.717,3.328-11.52,6.315-17.493,9.131l0.427,0.939v44.032
			c17.929,0.601,35.683,3.732,52.736,9.301c-11.8,2.144-23.707,3.654-35.669,4.523c-12.971,0.939-27.477,1.536-42.667,1.536
			s-29.696-0.597-42.667-1.536c-17.92-0.687-35.662-3.817-52.736-9.301c11.787-2.228,23.699-3.739,35.669-4.523v-15.36
			c5.291-0.682,11.008-1.28,17.067-1.707v-26.624c-2.816,0-5.632-0.171-8.533-0.427c-102.4-8.533-145.067-76.459-145.067-127.488
			c-0.098-30.245,8.814-59.833,25.6-84.992c-10.118-23.99-13.11-50.386-8.619-76.032l-4.693-0.256
			c-6.279,4.823-11.751,10.612-16.213,17.152l-0.853-0.085c-1.707,1.365-3.328,2.645-4.779,4.011
			c-0.171-0.939-0.341-1.792-0.512-2.987v-0.171c-0.434-3.055-0.69-6.132-0.768-9.216v-1.963c0-20.224,6.656-55.552,42.667-97.707
			C114.137,27.67,175.577,21.612,230.958,27.67C287.875,33.9,346.926,50.54,383.79,97.302c6.556-5.771,11.1-13.484,12.971-22.016
			c1.365,1.621,2.731,3.243,4.096,4.949c7.507-6.688,12.405-15.817,13.824-25.771c1.726,12.282-0.08,24.802-5.205,36.096
			c5.784-0.696,11.632-0.668,17.408,0.085c-4.27,0.608-8.49,1.52-12.629,2.731c5.052,4.042,9.814,8.433,14.251,13.141
			c0.853,0.939,1.792,1.877,2.56,2.816c-11.147-3.043-22.953-2.656-33.877,1.109c5.052,4.042,9.814,8.433,14.251,13.141
			c17.28,18.131,30.846,39.467,39.936,62.805C462.846,214.743,466.984,245.53,463.406,275.905z"/>
		<path style="fill:#FFE0B2;" d="M370.734,332.908c-0.256-0.085-0.512-0.085-0.768-0.171c-0.102,0.55-0.244,1.092-0.427,1.621
			c-4.839,19.365-15.574,36.749-30.72,49.749l-0.683,0.683c-17.935,16.861-38.409,30.798-60.672,41.301
			c-11.222,5.342-22.94,9.572-34.987,12.629c-16.269,4.344-33.09,6.271-49.92,5.717c-2.816,0-5.632-0.171-8.533-0.427
			c-102.4-8.533-145.067-76.459-145.067-127.488c-0.098-30.245,8.814-59.833,25.6-84.992c-10.118-23.99-13.11-50.386-8.619-76.032
			l-4.693-0.256c1.024-0.768,2.133-1.536,3.243-2.304h0.171c2.521-1.72,5.142-3.287,7.851-4.693
			c11.52-5.845,24.135-9.217,37.035-9.899c-3.401,12.242-4.215,25.058-2.389,37.632c0.405,4.414,1.06,8.802,1.963,13.141
			c15.306-17.047,33.915-30.808,54.699-40.448c0.085,0,0.256-0.085,0.341-0.085c18.171-8.492,38.177-12.305,58.197-11.093
			c-17.214,7.854-30.319,22.601-36.096,40.619c-0.345,0.794-0.603,1.624-0.768,2.475c0,0,11.776-5.632,28.843-12.032
			c0.256-0.085,0.427-0.171,0.683-0.256c34.389-12.8,89.856-28.416,115.541-8.107l3.584,0.597
			c-2.109,16.33,2.789,32.791,13.483,45.312c1.256-5.871,2.881-11.656,4.864-17.323l3.669,0.341c0,0,32.427,8.021,26.112,79.531
			c5.687-2.922,12.349-3.289,18.323-1.01c5.974,2.279,10.698,6.99,12.995,12.957C410.243,295.361,403.673,339.478,370.734,332.908z"
			/>
		<path style="fill:#FFECB3;" d="M370.734,332.908c-0.351,0.521-0.751,1.006-1.195,1.451c-6.444,6.821-16.15,9.486-25.173,6.912
			c-4.622,20.014-15.538,38.018-31.147,51.371l-0.683,0.683c-17.935,16.861-38.409,30.798-60.672,41.301
			c-3.072,1.451-6.229,2.816-9.387,4.096c-15.938,6.711-32.744,11.135-49.92,13.141v-7.424c-2.816,0-5.632-0.171-8.533-0.427
			c-102.4-8.533-145.067-76.459-145.067-127.488c-0.098-30.245,8.814-59.833,25.6-84.992c-10.118-23.99-13.11-50.386-8.619-76.032
			l-4.693-0.256c-6.279,4.823-11.751,10.612-16.213,17.152c-1.778,2.587-3.32,5.329-4.608,8.192
			c-0.443-1.396-0.785-2.822-1.024-4.267c-0.171-0.939-0.341-1.792-0.512-2.987v-0.171c0.597-4.864,1.195-8.107,1.451-9.131
			l-2.219-0.085l-2.475-0.171c0.768-0.597,1.621-1.195,2.475-1.792l0.768-0.512h0.171c10.073-6.755,21.481-11.266,33.451-13.227
			c3.78-0.69,7.599-1.146,11.435-1.365c-4.309,16.633-4.456,34.071-0.427,50.773c7.112-8.019,15.033-15.283,23.637-21.675
			c16.684-13.102,36.018-22.419,56.661-27.307c0.085,0,0.256-0.085,0.341-0.085c10.684-2.43,21.665-3.292,32.597-2.56
			c-18.055,8.208-31.551,23.985-36.864,43.093c0,0,10.581-5.12,26.368-11.008c8.192-3.157,17.835-6.571,28.075-9.557
			c0.256-0.085,0.427-0.171,0.683-0.256c32.085-9.387,69.973-15.36,89.941,0.427l3.584,0.597
			c-2.109,16.331,2.789,32.791,13.483,45.312c1.256-5.871,2.881-11.656,4.864-17.323l3.669,0.341c0,0,32.427,8.021,26.112,79.531
			c5.687-2.922,12.349-3.289,18.323-1.01c5.974,2.279,10.698,6.99,12.995,12.957C382.668,304.047,379.975,320.299,370.734,332.908z"
			/>
		<path style="fill:#FFE0B2;" d="M277.919,427.037v74.923c-12.971,0.939-27.477,1.536-42.667,1.536
			c-15.189,0-29.696-0.597-42.667-1.536v-57.515c29.36,0.739,58.471-5.552,84.907-18.347L277.919,427.037z"/>
		<g>
			<path style="fill:#2C2F38;" d="M192.585,471.069v30.891c-35.243-2.731-59.733-8.619-59.733-15.445
				S157.343,473.714,192.585,471.069z"/>
			<path style="fill:#2C2F38;" d="M337.652,486.514c0,6.827-24.491,12.715-59.733,15.445v-30.891
				C313.161,473.714,337.652,479.687,337.652,486.514z"/>
		</g>
		<g>
			<path style="fill:#2980BA;" d="M109.955,221.889L109.955,221.889c9.426,0,17.067,7.641,17.067,17.067l0,0
				c0,9.426-7.641,17.067-17.067,17.067l0,0c-9.426,0-17.067-7.641-17.067-17.067l0,0C92.889,229.53,100.53,221.889,109.955,221.889
				z"/>
			<path style="fill:#2980BA;" d="M246.489,221.889L246.489,221.889c9.426,0,17.067,7.641,17.067,17.067l0,0
				c0,9.426-7.641,17.067-17.067,17.067l0,0c-9.426,0-17.067-7.641-17.067-17.067l0,0
				C229.422,229.53,237.063,221.889,246.489,221.889z"/>
		</g>
		<path style="fill:#ECF0F1;" d="M144.089,401.089c0-17.067-42.667-59.733-42.667-59.733l0.683-2.475
			c54.528,15.117,112.925,6.006,160.256-25.003l1.195,1.877C314.755,418.156,144.089,401.089,144.089,401.089z"/>
	</g>
	<g>
		<path d="M150.597,299.747c2.845-0.002,5.503-1.418,7.09-3.779s1.897-5.356,0.826-7.992c-1.372-3.182-1.459-6.772-0.242-10.017
			c1.766-2.85,7-3.667,9.967-3.896c4.689-0.381,8.185-4.483,7.818-9.173c-0.367-4.69-4.46-8.198-9.151-7.844
			c-9.274-0.103-17.988,4.426-23.233,12.075c-4.063,7.925-4.392,17.246-0.9,25.438C144.097,297.708,147.182,299.753,150.597,299.747
			L150.597,299.747z"/>
		<path d="M249.997,3.156C193.889-3.078,116.689,1.21,67.714,56.989c-62.258,70.854-45.108,125.038-44.35,127.309
			c1.134,3.397,4.27,5.723,7.85,5.821c3.601,0.184,6.906-1.988,8.166-5.367c1.879-3.956,4.262-7.653,7.089-10.998
			c-0.575,19.673,2.666,39.27,9.544,57.71c-16.06,25.84-24.567,55.659-24.558,86.083c0,49.554,40.717,126.654,152.892,135.963
			c0.241,0.02,0.468,0.01,0.708,0.03v10.689c-59.563,5.6-59.733,17.885-59.733,23.265c0,22.212,69.5,25.529,110.933,25.529
			s110.933-3.317,110.933-25.529c0-5.38-0.171-17.665-59.733-23.265v-31.791c20.532-10.434,39.521-23.66,56.426-39.301
			c6.07-0.054,19.992,14.007,30.132,30.785c1.984,3.26,5.888,4.809,9.567,3.796c3.679-1.013,6.24-4.343,6.275-8.158
			c0.017-1.258,0.692-31.179,31.625-61.979c16.642-17.903,29.018-39.34,36.2-62.704c0.283,4.608,0.442,9.412,0.442,14.171
			c0,3.955,2.717,7.392,6.565,8.304c3.848,0.912,7.819-0.94,9.593-4.475c21.656-45.931,22.795-98.897,3.133-145.717
			c-9.534-24.348-23.701-46.615-41.717-65.567c-3.421-3.579-6.748-6.71-10.042-9.619c11.543-1.892,26.491-1.698,33.909,9.386
			c1.686,2.556,4.613,4.013,7.669,3.818c3.056-0.196,5.773-2.014,7.119-4.764c1.346-2.75,1.116-6.011-0.604-8.545
			c-11.35-16.954-30.708-19.058-46.217-17.367c5.485-12.112,7.19-25.596,4.892-38.692c-0.729-4.658-5.097-7.842-9.754-7.113
			c-4.658,0.729-7.842,5.097-7.113,9.754c2.413,12.722-0.445,25.878-7.919,36.453C375.355,34.693,323.781,11.199,249.997,3.156z
			 M89.274,172.774l-24.402,24.398c-2.062-12.921-1.909-26.098,0.452-38.967c7.61-4.372,15.917-7.401,24.555-8.955
			C88.844,157.048,88.64,164.933,89.274,172.774L89.274,172.774z M185.055,481.348v12.271c-12.221-0.979-24.333-3.019-36.2-6.097
			C160.706,484.352,172.824,482.286,185.055,481.348L185.055,481.348z M323.647,487.522c-11.864,3.078-23.974,5.118-36.192,6.097
			V481.35C299.684,482.288,311.799,484.354,323.647,487.522L323.647,487.522z M270.388,494.96
			c-10.191,0.607-21.481,0.996-34.133,0.996s-23.942-0.388-34.133-0.995v-40.933c23.417-0.395,46.561-5.108,68.267-13.905V494.96z
			 M461.539,173.418c12.229,30.052,15.676,62.958,9.941,94.892c-0.992-5.976-3.522-11.59-7.342-16.292
			c-2.287-2.275-5.662-3.065-8.722-2.044c-3.06,1.021-5.283,3.681-5.745,6.873c-0.075,0.567-8.583,57.125-40.242,88.642
			c-15.072,14.554-26.315,32.605-32.733,52.55c-5.479-7.101-12.165-13.184-19.751-17.969c3.066-3.344,5.01-5.675,5.427-6.193
			c1.913-2.376,2.413-5.592,1.311-8.436c-1.102-2.844-3.639-4.883-6.654-5.349c-3.015-0.465-6.048,0.714-7.957,3.093
			c-0.64,0.797-62.867,76.922-155.163,73.777c-0.113-0.004-0.207-0.065-0.321-0.065c-0.064,0-0.117,0.035-0.181,0.036
			c-2.53-0.094-5.07-0.216-7.644-0.432C85.072,428.147,48.522,360.785,48.522,317.547c-0.019-28.377,8.284-56.137,23.883-79.842
			c1.799-2.386,2.217-5.541,1.1-8.312c-1.707-4.247-3.093-8.385-4.292-12.429l23.253-23.25c1.23,2.637,3.724,4.461,6.61,4.834
			c2.886,0.373,5.762-0.758,7.621-2.997c20.83-23.003,48.086-39.224,78.239-46.563c-8.197,8.542-13.967,19.117-16.714,30.634
			c-0.757,3.199,0.39,6.548,2.95,8.611s6.077,2.472,9.041,1.051c28.169-13.503,107.273-43.586,135.81-21.563
			c-0.083,16.222,5.511,31.962,15.815,44.492c2.022,2.685,5.432,3.933,8.71,3.188c3.278-0.746,5.812-3.346,6.474-6.642
			c0.544-2.711,1.227-5.39,1.967-8.027c6.674,5.203,18.838,20.784,16.117,63.152c-1.944,0.941-3.828,1.999-5.642,3.17
			c-3.898,2.642-4.919,7.942-2.282,11.844c2.637,3.902,7.936,4.93,11.841,2.298c5.634-3.889,12.495-5.583,19.292-4.763
			c3.995,1.443,7.118,4.622,8.492,8.642c3.319,11.877,1.158,24.615-5.892,34.733c-4.265,5.468-11.49,7.693-18.092,5.571
			c-2.976-0.661-6.078,0.316-8.138,2.562c-2.06,2.247-2.765,5.422-1.85,8.329c0.915,2.908,3.313,5.106,6.288,5.767
			c2.948,0.666,5.961,1.009,8.983,1.021c10.152,0.114,19.779-4.499,26.05-12.483c11.053-15.154,14.107-34.714,8.2-52.517
			c-3.369-8.682-10.535-15.338-19.442-18.058c-3.41-0.918-6.951-1.245-10.471-0.966c1.815-51.33-17.404-69.031-27.417-74.699
			c3.24-6.731,6.672-11.209,9.23-11.209c4.713,0,8.533-3.821,8.533-8.533c0-4.713-3.82-8.533-8.533-8.533
			c-14.075,0-22.983,15.025-28.225,29.025c-4.551-10.561-4.102-22.612,1.225-32.804c2.577-3.927,1.496-9.199-2.42-11.794
			c-3.915-2.595-9.192-1.538-11.805,2.365c-1.377,2.228-2.532,4.586-3.447,7.04c-33.809-17.495-93.401,1.831-125.628,14.793
			c11.147-12.723,25.938-21.708,42.367-25.737c2.982-0.631,5.402-2.806,6.346-5.704c0.945-2.898,0.271-6.081-1.767-8.348
			c-2.038-2.267-5.13-3.275-8.113-2.644c-7.351,1.771-14.487,4.341-21.28,7.664c-48.767-2.399-86.653,24.928-105.304,41.882
			c-1.127-10.763-0.047-21.643,3.175-31.975c1.281-4.136,3.4-7.964,6.225-11.246v0.004c2.313-1.986,3.391-5.055,2.828-8.051
			c-0.563-2.996-2.682-5.465-5.558-6.475c-2.876-1.01-6.073-0.41-8.387,1.576c-4.545,4.47-8.023,9.909-10.173,15.91
			c-15.247,1.441-29.918,6.559-42.752,14.916c-0.259,0.138-0.509,0.291-0.75,0.458c-4.717,3.198-9.092,6.871-13.058,10.963
			c1.092-19.608,9.259-51.471,42.775-89.625c44.134-50.242,115.492-53.892,167.6-48.129c69.717,7.6,117.817,29.342,147,66.417
			c1.633,2.116,3.275,4.317,4.692,6.308c0.3,0.354,0.622,0.69,0.963,1.005c0.275,0.336,0.576,0.65,0.899,0.94
			c1.488,1.44,3.133,2.708,4.905,3.78c0.539,0.304,1.059,0.639,1.558,1.004c5.433,4.203,10.526,8.827,15.233,13.829
			C439.862,130.753,452.821,151.134,461.539,173.418z"/>
		<path d="M110.955,265.556c14.138,0,25.6-11.462,25.6-25.6s-11.462-25.6-25.6-25.6s-25.6,11.462-25.6,25.6
			C85.371,254.088,96.823,265.54,110.955,265.556L110.955,265.556z M110.955,231.422c4.713,0,8.533,3.821,8.533,8.533
			s-3.821,8.533-8.533,8.533c-4.713,0-8.533-3.821-8.533-8.533C102.427,235.245,106.244,231.427,110.955,231.422z"/>
		<path d="M247.489,265.556c14.138,0,25.6-11.462,25.6-25.6s-11.462-25.6-25.6-25.6c-14.139,0-25.6,11.462-25.6,25.6
			C221.904,254.088,233.356,265.54,247.489,265.556L247.489,265.556z M247.489,231.422c4.713,0,8.533,3.821,8.533,8.533
			s-3.821,8.533-8.533,8.533c-4.713,0-8.533-3.821-8.533-8.533C238.96,235.245,242.778,231.427,247.489,231.422z"/>
		<path d="M278.105,315.122c2.475-1.789,3.805-4.764,3.487-7.801c-0.317-3.037-2.234-5.673-5.025-6.911
			c-2.791-1.238-6.031-0.891-8.496,0.912c-51.428,38.702-119.213,48.054-179.2,24.725c-4.282-1.894-9.29,0.015-11.224,4.278
			c-1.934,4.264-0.072,9.29,4.174,11.263c4.341,1.887,8.785,3.527,13.312,4.91c0.329,0.685,0.751,1.321,1.254,1.89
			c19.4,19.408,40.167,45.617,40.167,53.7c0.002,4.383,3.322,8.053,7.683,8.492c1.3,0.129,11.808,1.129,26.508,1.129
			c32.017,0,83.892-4.742,103.742-33.542c10.936-15.869,10.786-36.216-0.139-60.434C275.602,316.86,276.853,316.033,278.105,315.122
			z M260.447,368.473c-17.908,26.008-79.392,27.55-108.367,25.625c-6.875-15.083-16.25-28.896-27.729-40.855
			c10.546,1.648,21.204,2.48,31.879,2.488c36.509-0.005,72.333-9.913,103.657-28.668
			C267.218,344.387,267.441,358.311,260.447,368.473L260.447,368.473z"/>
		<path d="M252.222,181.656c-2.536-1.727-5.805-1.959-8.56-0.608c-2.755,1.351-4.573,4.077-4.76,7.14s1.284,5.99,3.853,7.668
			l51.2,34.133c2.536,1.727,5.805,1.959,8.56,0.608c2.755-1.351,4.573-4.077,4.76-7.14c0.188-3.063-1.284-5.99-3.853-7.668
			L252.222,181.656z"/>
	</g>
</g>
<g>
</g>
<g>
</g>
<g>
</g>
<g>
</g>
<g>
</g>
<g>
</g>
<g>
</g>
<g>
</g>
<g>
</g>
<g>
</g>
<g>
</g>
<g>
</g>
<g>
</g>
<g>
</g>
<g>
</g>
</svg>
