<?xml version="1.0" encoding="iso-8859-1"?>
<!-- Generator: Adobe Illustrator 19.0.0, SVG Export Plug-In . SVG Version: 6.00 Build 0)  -->
<svg version="1.1" id="Capa_1" xmlns="http://www.w3.org/2000/svg" xmlns:xlink="http://www.w3.org/1999/xlink" x="0px" y="0px"
	 viewBox="0 0 512.029 512.029" style="enable-background:new 0 0 512.029 512.029;" xml:space="preserve">
<g transform="translate(0 -1)">
	<g transform="translate(1 2)">
		<path style="fill:#AD1457;" d="M469.47,348.888c0,0,51.883,68.267-8.533,136.533c-2.914-2.419-5.651-5.043-8.192-7.851
			c-40.107-43.691-17.408-118.187-17.408-118.187v-36.096c-4.416-5.103-8.492-10.491-12.203-16.128
			c-3.996,10.83-9.116,21.212-15.275,30.976c-4.447,7.213-9.716,13.885-15.701,19.883c-14.357,13.79-24.985,30.994-30.891,50.005
			c-3.267,10.72-13.199,18.013-24.405,17.92h-69.205v44.117c35.243,2.645,59.733,8.619,59.733,15.445
			c0,4.693-11.605,8.96-30.293,12.032c-8.448,1.365-18.432,2.56-29.44,3.413c-12.971,0.939-27.477,1.536-42.667,1.536
			s-29.696-0.597-42.667-1.536c-18.788-0.476-37.376-3.992-55.04-10.411c-3.072-1.536-4.694-3.243-4.694-5.035
			c0-5.035,13.141-9.557,34.133-12.629c7.595-1.195,16.213-2.133,25.6-2.816v-26.624c-2.816,0-5.717-0.256-8.533-0.427
			c-102.4-8.533-145.067-76.459-145.067-127.488c-0.098-30.245,8.814-59.833,25.6-84.992c-10.118-23.99-13.11-50.386-8.619-76.032
			l-4.693-0.256c-8.963,6.584-16.147,15.293-20.907,25.344c-0.368-1.144-0.653-2.314-0.853-3.499v-0.085
			c-0.256-1.195-0.512-2.731-0.768-4.523c-2.133-16.896-1.365-58.88,44.288-110.848c4.625-5.323,9.676-10.26,15.104-14.763
			C121.225,9.602,182.409,3.544,237.705,9.602c56.917,6.229,115.968,22.869,152.832,69.717c0.427,0.597,0.939,1.195,1.365,1.792
			c61.099,22.869,139.776,82.176,77.568,233.643V348.888z"/>
		<path style="fill:#E91E63;" d="M443.87,365.954c0,0,39.936,52.565,8.875,111.616c-40.107-43.691-17.408-118.187-17.408-118.187
			v-36.096c-4.416-5.103-8.492-10.491-12.203-16.128c-3.996,10.83-9.116,21.212-15.275,30.976
			c-3.714-4.428-7.162-9.073-10.325-13.909c-6.646,18.937-17.2,36.265-30.976,50.859c-14.357,13.79-24.985,30.994-30.891,50.005
			c-0.076,0.298-0.191,0.585-0.341,0.853h-67.669v17.067h-25.6v44.117c18.798,0.389,37.399,3.907,55.04,10.411
			c-8.448,1.365-18.432,2.56-29.44,3.413c-12.971,0.939-27.477,1.536-42.667,1.536s-29.696-0.597-42.667-1.536
			c-18.788-0.476-37.376-3.992-55.04-10.411c8.448-1.451,18.432-2.56,29.44-3.413v-14.251c7.595-1.195,16.213-2.133,25.6-2.816
			v-26.624c-2.816,0-5.717-0.256-8.533-0.427c-102.4-8.533-145.067-76.459-145.067-127.488c-0.098-30.245,8.814-59.833,25.6-84.992
			c-10.118-23.99-13.11-50.386-8.619-76.032l-4.693-0.256c-8.963,6.584-16.147,15.293-20.907,25.344
			c-0.368-1.144-0.653-2.314-0.853-3.499v-0.085c0.427-2.219,0.683-3.755,0.853-4.437l-1.621-0.085
			c-2.133-16.896-1.365-58.88,44.288-110.848c4.625-5.323,9.676-10.26,15.104-14.763c40.021-21.077,89.088-24.149,134.229-19.2
			c56.917,6.229,115.968,22.869,152.832,69.717c0.427,0.597,0.939,1.195,1.365,1.792c61.099,22.869,139.776,82.176,77.568,233.643
			V365.954z"/>
		<path style="fill:#FFE0B2;" d="M365.363,332.504c-1.93-0.02-3.85-0.278-5.717-0.768c-0.477,4.297-1.509,8.513-3.072,12.544
			c-4.756,11.382-11.52,21.816-19.968,30.805c-12.028,12.991-25.68,24.377-40.619,33.877c-3.755,2.475-7.509,4.864-11.435,7.083
			c-6.078,3.579-12.345,6.826-18.773,9.728c-26.069,12.292-54.643,18.34-83.456,17.664c-2.816,0-5.717-0.256-8.533-0.427
			c-102.4-8.533-145.067-76.459-145.067-127.488c-0.098-30.245,8.814-59.833,25.6-84.992c-9.583-23.107-12.767-48.368-9.216-73.131
			c0.256-1.451,0.512-2.389,0.597-2.901l-4.693-0.256c1.024-0.768,2.133-1.536,3.243-2.304h0.171
			c13.338-8.828,28.821-13.871,44.8-14.592c-3.901,14.508-4.427,29.716-1.536,44.459c0.341,2.048,0.683,4.181,1.109,6.315
			c5.447-6.908,11.659-13.178,18.517-18.688c24.747-20.48,74.155-47.701,147.285-26.027c4.161,11.132,4.933,23.246,2.219,34.816
			c11.625,1.757,23.447,1.757,35.072,0c21.675,1.195,72.619,12.459,67.499,90.453c9.045-3.925,25.429-7.765,33.877,10.923
			C399.582,293.592,394.035,333.954,365.363,332.504z"/>
		<path style="fill:#FFECB3;" d="M365.363,332.504c-1.981,4.552-4.989,8.582-8.789,11.776c-6.346,5.041-14.728,6.724-22.528,4.523
			c-3.143,16.439-11.173,31.547-23.04,43.349c-8.005,8.82-16.867,16.824-26.453,23.893c-6.078,3.579-12.345,6.826-18.773,9.728
			c-26.069,12.292-54.643,18.34-83.456,17.664c-2.816,0-5.717-0.256-8.533-0.427c-102.4-8.533-145.067-76.459-145.067-127.488
			c-0.098-30.245,8.814-59.833,25.6-84.992c-9.583-23.107-12.767-48.368-9.216-73.131c6.055-1.621,12.26-2.622,18.517-2.987
			c-4.309,16.633-4.456,34.071-0.427,50.773c7.052-8.881,15.293-16.748,24.491-23.381c6.194-4.653,12.758-8.791,19.627-12.373
			c27.733-14.592,68.437-24.747,121.685-8.96c4.161,11.132,4.933,23.246,2.219,34.816c11.625,1.757,23.447,1.757,35.072,0
			c21.675,1.195,72.619,12.459,67.499,90.453c9.045-3.925,25.429-7.765,33.877,10.923
			C371.377,308.482,370.556,321.258,365.363,332.504z"/>
		<path style="fill:#FFE0B2;" d="M267.657,425.944v75.008c-12.971,0.939-27.477,1.536-42.667,1.536s-29.696-0.597-42.667-1.536
			v-57.515c28.813,0.676,57.387-5.372,83.456-17.664l0.085,0.171H267.657z"/>
		<g>
			<path style="fill:#2C2F38;" d="M182.323,470.061v30.891c-35.243-2.731-59.733-8.619-59.733-15.445
				C122.59,478.68,147.081,472.706,182.323,470.061z"/>
			<path style="fill:#2C2F38;" d="M327.39,485.506c0,6.827-24.491,12.715-59.733,15.445v-30.891
				C302.899,472.706,327.39,478.68,327.39,485.506z"/>
		</g>
		<polygon style="fill:#FDD834;" points="469.47,314.754 469.47,348.888 435.337,357.421 435.337,323.288 		"/>
		<path style="fill:#AD1457;" d="M460.937,485.421c-51.2-41.984-25.6-126.037-25.6-126.037v-1.963l34.133-8.533
			C469.47,348.888,521.353,417.154,460.937,485.421z"/>
		<g>
			<path style="fill:#02A9F4;" d="M84.361,220.886h34.133v17.067c0,9.426-7.641,17.067-17.067,17.067l0,0
				c-9.426,0-17.067-7.641-17.067-17.067V220.886z"/>
			<path style="fill:#02A9F4;" d="M220.894,220.886h34.133v17.067c0,9.426-7.641,17.067-17.067,17.067l0,0
				c-9.426,0-17.067-7.641-17.067-17.067V220.886z"/>
		</g>
	</g>
	<g>
		<path d="M133.786,307.967c0.625,0.147,1.266,0.221,1.908,0.221c3.959-0.017,7.394-2.738,8.317-6.588
			c0.725-3.389,2.736-6.365,5.608-8.304c3.067-1.296,7.825,1.071,10.375,2.596c4.041,2.425,9.283,1.116,11.708-2.925
			c2.425-4.041,1.116-9.283-2.925-11.708c-7.498-5.46-17.225-6.821-25.933-3.629c-7.901,4.109-13.572,11.51-15.483,20.208
			C126.349,302.407,129.221,306.934,133.786,307.967z"/>
		<path d="M290.161,214.354h-102.4c-4.713,0-8.533,3.821-8.533,8.533c0,4.713,3.821,8.533,8.533,8.533h25.6v8.533
			c0,14.138,11.462,25.6,25.6,25.6c14.139,0,25.6-11.462,25.6-25.6v-8.533h25.6c4.713,0,8.533-3.821,8.533-8.533
			C298.694,218.175,294.874,214.354,290.161,214.354z M247.494,239.954c0,4.713-3.821,8.533-8.533,8.533
			c-4.713,0-8.533-3.821-8.533-8.533v-8.533h17.067V239.954z"/>
		<path d="M259.844,317.654c-2.728-1.372-5.982-1.182-8.531,0.498c-2.55,1.681-4.007,4.596-3.822,7.644
			c0.185,3.048,1.985,5.765,4.72,7.124c0.437,0.268,0.854,0.569,1.246,0.9H76.827c-4.713,0-8.533,3.82-8.533,8.533
			s3.821,8.533,8.533,8.533h181.104c-0.338,1.979-0.827,3.929-1.462,5.833c-0.973,2.893-0.326,6.086,1.697,8.372
			c2.023,2.286,5.113,3.317,8.103,2.704c2.99-0.613,5.425-2.778,6.384-5.676C281.26,336.317,268.036,321.75,259.844,317.654z"/>
		<path d="M20.869,190.121l0.242,0.004c3.491,0,6.63-2.125,7.925-5.367c1.889-3.977,4.287-7.693,7.132-11.053
			c-0.583,19.69,2.658,39.305,9.543,57.761c-16.059,25.84-24.566,55.659-24.558,86.083c0,49.554,40.717,126.658,152.892,135.967
			c0.241,0.02,0.468,0.011,0.708,0.03v10.685c-59.563,5.608-59.733,17.888-59.733,23.269c0,22.212,69.5,25.529,110.933,25.529
			s110.933-3.317,110.933-25.529c0-5.38-0.171-17.661-59.733-23.269v-27.748h60.692c14.969,0.02,28.196-9.735,32.6-24.042
			c5.533-17.625,15.418-33.571,28.742-46.367c11.264-11.622,20.397-25.133,26.983-39.916c0.557,0.694,1.069,1.387,1.642,2.082
			v31.188c0,0.144,0.087,0.268,0.095,0.411c-2.835,9.894-23.971,90.664,28.359,133.953l0.021,0.028l0.033,0.02l0.209,0.184
			c0.497,0.358,1.033,0.66,1.597,0.899c0.297,0.192,0.606,0.366,0.924,0.521c0.925,0.338,1.902,0.513,2.886,0.517l0.004-0.001
			l0.005,0.001c1.212-0.005,2.409-0.268,3.511-0.772c0.343-0.216,0.67-0.456,0.98-0.717c0.697-0.37,1.337-0.838,1.9-1.39l0.19-0.227
			l0.019-0.015l0.011-0.022c57.333-65.078,19.339-131.071,10.455-144.558v-29.903c29.493-72.745,30.295-132.59,2.292-177.879
			c-19.927-30.011-49.126-52.678-83.141-64.542c-32.206-40.841-84.06-64.662-158.517-72.813
			C183.503-3.058,106.261,1.279,57.369,57.008c-62.258,70.884-45.108,125.025-44.35,127.296
			C14.155,187.699,17.291,190.023,20.869,190.121z M174.752,481.353v12.273c-12.218-0.979-24.327-3.019-36.192-6.097
			C150.409,484.359,162.524,482.292,174.752,481.353z M191.819,494.967v-40.932c23.417-0.395,46.561-5.109,68.267-13.905v54.837
			c-10.191,0.607-21.482,0.996-34.133,0.996C213.301,495.963,202.01,495.574,191.819,494.967z M313.344,487.529
			c-11.864,3.078-23.974,5.118-36.192,6.097v-12.273C289.381,482.292,301.496,484.359,313.344,487.529L313.344,487.529z
			 M387.152,353.975c-15.351,14.813-26.725,33.251-33.075,53.617c-2.226,7.079-8.812,11.877-16.233,11.825h-38.035
			c19.515-12.592,37.116-27.929,52.26-45.537c1.913-2.375,2.413-5.592,1.311-8.436s-3.639-4.883-6.654-5.349
			c-3.014-0.465-6.048,0.714-7.957,3.093c-0.64,0.798-63.063,76.853-155.211,73.771c-0.096-0.003-0.176-0.055-0.272-0.055
			c-0.055,0-0.1,0.03-0.154,0.031c-2.539-0.092-5.088-0.212-7.671-0.427C74.769,428.155,38.219,360.793,38.219,317.551
			c-0.018-28.377,8.285-56.136,23.883-79.842c1.352-1.799,1.936-4.06,1.625-6.288h13.1v8.533c0,14.138,11.462,25.6,25.6,25.6
			s25.6-11.462,25.6-25.6v-8.533h33.8c4.713,0,8.533-3.821,8.533-8.533c0-4.713-3.82-8.533-8.533-8.533h-102.4
			c-0.413,0.05-0.822,0.133-1.223,0.247c-5.408-18.314-6.493-37.632-3.171-56.436c7.606-4.338,15.894-7.353,24.509-8.914
			c-1.746,14.181-1.109,28.553,1.885,42.524c0.659,3.317,3.215,5.932,6.517,6.667c0.61,0.139,1.233,0.209,1.858,0.208
			c2.715-0.004,5.268-1.293,6.883-3.475c2.134-2.906,52.908-69.733,152.034-42.788c2.639,8.129,2.99,16.827,1.015,25.142
			c-0.79,2.368-0.504,4.962,0.784,7.101s3.446,3.606,5.908,4.016c6.654,1.048,13.38,1.575,20.117,1.575
			c5.606,0.002,11.203-0.467,16.731-1.401c16.243,0.598,31.615,7.495,42.86,19.23c11.504,12.988,16.795,32.285,15.907,57.27
			c-1.436,0.812-2.52,1.492-2.882,1.739c-3.867,2.659-4.862,7.941-2.228,11.824c2.635,3.884,7.911,4.911,11.811,2.3
			c5.614-3.876,12.452-5.567,19.225-4.754c4.013,1.431,7.152,4.617,8.525,8.65c3.327,11.875,1.169,24.616-5.883,34.733
			c-4.266,5.471-11.495,7.696-18.1,5.571c-2.979-0.663-6.086,0.315-8.148,2.565c-2.062,2.251-2.765,5.431-1.843,8.341
			c0.921,2.91,3.327,5.106,6.308,5.76c2.946,0.664,5.955,1.004,8.975,1.017c10.152,0.111,19.778-4.504,26.05-12.487
			c8.021-11.085,11.947-24.61,11.109-38.268c2.817,6.079,6.019,11.972,9.585,17.644
			C408.472,326.324,399.154,341.296,387.152,353.975L387.152,353.975z M93.894,231.421h17.067v8.533
			c0,4.713-3.821,8.533-8.533,8.533c-4.713,0-8.533-3.821-8.533-8.533V231.421z M444.877,331.958l17.067-4.267v16.542l-17.067,4.267
			V331.958z M461.194,474.915c-33.805-35.491-20.574-96.061-17.346-108.566l22.923-5.731
			C489.927,395.887,487.673,442.069,461.194,474.915L461.194,474.915z M70.194,68.267c44.05-50.217,115.442-53.917,167.592-48.175
			c55.541,6.08,97.32,21.151,126.67,45.603c-9.835-2.332-19.822-3.972-29.887-4.908c-4.692-0.336-8.771,3.189-9.118,7.881
			c-0.347,4.691,3.169,8.778,7.86,9.136c0.933,0.071,94.067,7.808,133.525,71.733c24.633,39.908,23.742,93.729-2.642,160
			l-24.717,6.179c-43.275-53.796-29.042-105.267-28.4-107.458c1.342-4.52-1.235-9.271-5.754-10.613
			c-4.52-1.342-9.271,1.235-10.613,5.754c-5.082,21.698-4.482,44.341,1.743,65.74c-3.596-4.361-8.419-7.544-13.843-9.135
			c-4.347-1.158-8.89-1.386-13.332-0.669c1.157-22.664-6.096-44.957-20.368-62.602c-8.153-9.084-18.485-15.943-30.021-19.93
			c3.051-3.09,5.363-6.83,6.763-10.941c0.975-2.894,0.329-6.088-1.694-8.375c-2.023-2.287-5.114-3.319-8.106-2.705
			c-2.991,0.614-5.426,2.781-6.384,5.68c-4.092,12.275-26.908,13.354-41.542,12.321c2.217-27.429-17.342-61.033-19.85-65.213
			c-1.569-2.614-4.413-4.192-7.462-4.141c-3.048,0.052-5.837,1.726-7.317,4.392s-1.424,5.918,0.145,8.532
			c3.167,5.421,6,11.031,8.482,16.798c-52.012-12.498-106.829,1.809-146.098,38.131c-1.025-10.6,0.068-21.298,3.217-31.471
			c1.29-4.186,3.454-8.051,6.35-11.337c3.487-3.124,3.807-8.474,0.717-11.991c-3.091-3.517-8.437-3.887-11.983-0.83
			c-4.529,4.47-7.997,9.898-10.15,15.886c-15.228,1.458-29.882,6.559-42.725,14.872c-0.275,0.147-0.542,0.308-0.8,0.483
			c-4.708,3.207-9.075,6.887-13.034,10.983C28.511,138.28,36.677,106.429,70.194,68.267z"/>
	</g>
</g>
<g>
</g>
<g>
</g>
<g>
</g>
<g>
</g>
<g>
</g>
<g>
</g>
<g>
</g>
<g>
</g>
<g>
</g>
<g>
</g>
<g>
</g>
<g>
</g>
<g>
</g>
<g>
</g>
<g>
</g>
</svg>
