<?xml version="1.0" encoding="iso-8859-1"?>
<!-- Generator: Adobe Illustrator 19.0.0, SVG Export Plug-In . SVG Version: 6.00 Build 0)  -->
<svg version="1.1" id="Capa_1" xmlns="http://www.w3.org/2000/svg" xmlns:xlink="http://www.w3.org/1999/xlink" x="0px" y="0px"
	 viewBox="0 0 512.012 512.012" style="enable-background:new 0 0 512.012 512.012;" xml:space="preserve">
<g transform="translate(0 -1)">
	<g transform="translate(1 2)">
		<path style="fill:#00695C;" d="M465.622,307.065c0,0,0-42.496-8.533-51.029c0,0-0.341,2.219-1.109,6.059
			c-3.42,17.286-8.892,34.102-16.299,50.091c-6.19,13.828-14.737,26.475-25.259,37.376c-34.133,33.963-34.133,67.925-34.133,67.925
			c-4.332-6.975-9.211-13.595-14.592-19.797c-8.192-9.216-18.432-17.664-26.88-14.592l-0.683,0.683
			c-6.059,5.632-12.373,10.923-18.944,15.957c-8.094,6.188-16.589,11.832-25.429,16.896c0,0.085,0,0.085-0.085,0.085
			c-5.291,2.987-10.667,5.803-16.213,8.363l0.427,0.939v44.032c35.243,2.645,59.733,8.619,59.733,15.445
			c0,4.693-11.605,8.96-30.293,12.032c-8.448,1.365-18.432,2.56-29.44,3.413c-12.971,0.939-27.477,1.536-42.667,1.536
			s-29.696-0.597-42.667-1.536c-18.788-0.476-37.376-3.992-55.04-10.411c-3.072-1.536-4.693-3.243-4.693-5.035
			c0-5.035,13.141-9.557,34.133-12.629c7.595-1.195,16.213-2.133,25.6-2.816v-26.624c-2.816,0-5.632-0.171-8.533-0.427
			c-102.4-8.533-145.067-76.459-145.067-127.488c-0.098-30.245,8.814-59.833,25.6-84.992c-10.118-23.99-13.11-50.386-8.619-76.032
			l-4.693-0.256c-8.904,6.623-16.053,15.324-20.821,25.344c-0.369-1.231-0.654-2.485-0.853-3.755
			c-0.342-1.434-0.598-2.887-0.768-4.352c-2.133-16.896-1.365-58.88,44.288-110.848c4.625-5.323,9.676-10.261,15.104-14.763
			C131.542,9.593,192.726,3.535,248.022,9.593c51.371,5.632,104.533,19.712,141.483,56.832c4.026,4.045,7.816,8.319,11.349,12.8
			c1.86-1.522,3.523-3.271,4.949-5.205c8.097-10.715,11.289-24.352,8.789-37.547c-0.502-3.016,0.653-6.07,3.026-7.999
			c2.373-1.929,5.598-2.437,8.449-1.329c2.85,1.107,4.888,3.659,5.336,6.684c2.319,13.081,0.623,26.557-4.864,38.656
			c15.531-1.707,34.901,0.427,46.251,17.408c2.587,3.913,1.518,9.181-2.389,11.776c-1.374,0.963-3.016,1.471-4.693,1.451
			c-2.848,0.044-5.521-1.373-7.083-3.755c-7.936-11.861-24.491-11.264-36.267-8.96h-0.085c-3.072,0.597-5.803,1.365-8.021,1.963
			c5.052,4.042,9.814,8.433,14.251,13.141c4.456,4.646,8.671,9.516,12.629,14.592c11.367,14.679,20.563,30.916,27.307,48.213
			C487.256,212.864,486.232,263.315,465.622,307.065z"/>
		<path style="fill:#009688;" d="M455.98,262.095c-0.933,21.566-6.368,42.698-15.957,62.037c0,0,0-5.035-0.341-11.947
			c-0.683-13.227-2.56-33.451-8.192-39.083c0,0-8.533,59.477-42.667,93.525c-9.248,9.114-17.046,19.589-23.125,31.061
			c-8.192-9.216-18.432-17.664-26.88-14.592l-0.683,0.683c-6.059,5.632-12.373,10.923-18.944,15.957
			c-1.995-0.376-4.052-0.229-5.973,0.427l-0.683,0.683c-5.983,5.581-12.249,10.85-18.773,15.787c0,0.085,0,0.085-0.085,0.085
			c-5.12,3.925-10.325,7.595-15.787,11.008v0.085c-8.344,5.358-17.039,10.147-26.027,14.336l0.427,0.939v44.032
			c18.798,0.388,37.399,3.907,55.04,10.411c-8.448,1.365-18.432,2.56-29.44,3.413c-12.971,0.939-27.477,1.536-42.667,1.536
			s-29.696-0.597-42.667-1.536c-18.788-0.476-37.376-3.992-55.04-10.411c8.448-1.451,18.432-2.56,29.44-3.413v-14.251
			c7.595-1.195,16.213-2.133,25.6-2.816v-26.624c-2.816,0-5.632-0.171-8.533-0.427c-102.4-8.533-145.067-76.459-145.067-127.488
			c-0.098-30.245,8.814-59.833,25.6-84.992c-10.118-23.99-13.11-50.386-8.619-76.032l-4.693-0.256
			c-8.904,6.623-16.053,15.324-20.821,25.344c-0.369-1.231-0.654-2.485-0.853-3.755c0.341-2.133,0.597-3.584,0.768-4.267
			l-1.536-0.085c-2.133-16.896-1.365-58.88,44.288-110.848c4.625-5.323,9.676-10.261,15.104-14.763
			c40.021-21.077,89.088-24.149,134.229-19.2c56.917,6.229,115.968,22.869,152.832,69.632c8.551-7.651,13.683-18.407,14.251-29.867
			c4.026,4.045,7.816,8.319,11.349,12.8c1.86-1.522,3.523-3.271,4.949-5.205c-0.939,5.366-2.575,10.587-4.864,15.531
			c7.109-0.902,14.319-0.614,21.333,0.853c-3.072,0.597-5.803,1.365-8.021,1.963c5.052,4.042,9.814,8.433,14.251,13.141
			c4.456,4.646,8.671,9.516,12.629,14.592c-0.336,0.071-0.68,0.099-1.024,0.085c-2.848,0.044-5.521-1.373-7.083-3.755
			c-10.069-15.019-33.877-10.069-44.373-6.997c5.052,4.042,9.814,8.433,14.251,13.141c17.28,18.131,30.846,39.467,39.936,62.805
			C452.61,209.73,457.09,235.881,455.98,262.095z"/>
		<path style="fill:#FFE0B2;" d="M370.732,331.897c-0.256-0.085-0.512-0.085-0.768-0.171c-0.102,0.55-0.244,1.092-0.427,1.621
			c-4.839,19.365-15.574,36.749-30.72,49.749l-0.683,0.683c-17.935,16.861-38.409,30.798-60.672,41.301
			c-11.238,5.305-22.952,9.533-34.987,12.629c-16.269,4.344-33.09,6.271-49.92,5.717c-2.816,0-5.632-0.171-8.533-0.427
			c-102.4-8.533-145.067-76.459-145.067-127.488c-0.098-30.245,8.814-59.833,25.6-84.992c-10.118-23.99-13.11-50.386-8.619-76.032
			l-4.693-0.256c1.024-0.768,2.133-1.536,3.243-2.304h0.171c2.521-1.72,5.142-3.287,7.851-4.693
			c11.52-5.845,24.135-9.217,37.035-9.899c-3.401,12.242-4.215,25.058-2.389,37.632c0.405,4.414,1.06,8.802,1.963,13.141
			c15.306-17.047,33.915-30.808,54.699-40.448c0.085,0,0.256-0.085,0.341-0.085c18.171-8.492,38.177-12.305,58.197-11.093
			c-17.214,7.854-30.319,22.601-36.096,40.619c-0.345,0.794-0.603,1.624-0.768,2.475c0,0,11.776-5.632,28.843-12.032
			c0.256-0.085,0.427-0.171,0.683-0.256c34.389-12.8,89.856-28.416,115.541-8.107l3.584,0.597
			c-2.109,16.331,2.789,32.791,13.483,45.312c1.256-5.871,2.881-11.656,4.864-17.323l3.669,0.341c0,0,32.427,8.021,26.112,79.531
			c5.687-2.922,12.349-3.289,18.323-1.01c5.974,2.279,10.698,6.99,12.995,12.957C410.241,294.351,403.67,338.468,370.732,331.897z"
			/>
		<path style="fill:#FFECB3;" d="M370.732,331.897c-0.351,0.521-0.751,1.006-1.195,1.451c-6.444,6.821-16.15,9.486-25.173,6.912
			c-4.622,20.014-15.538,38.018-31.147,51.371l-0.683,0.683c-17.935,16.861-38.409,30.798-60.672,41.301
			c-3.072,1.451-6.229,2.816-9.387,4.096c-16.269,4.344-33.09,6.271-49.92,5.717c-2.816,0-5.632-0.171-8.533-0.427
			c-102.4-8.533-145.067-76.459-145.067-127.488c-0.098-30.245,8.814-59.833,25.6-84.992c-10.118-23.99-13.11-50.386-8.619-76.032
			l-4.693-0.256c1.024-0.768,2.133-1.536,3.243-2.304h0.171c2.521-1.72,5.142-3.287,7.851-4.693c3.78-0.69,7.599-1.146,11.435-1.365
			c-4.309,16.633-4.456,34.071-0.427,50.773c7.112-8.019,15.033-15.283,23.637-21.675c16.684-13.102,36.018-22.419,56.661-27.307
			c0.085,0,0.256-0.085,0.341-0.085c10.684-2.43,21.665-3.292,32.597-2.56c-18.055,8.208-31.551,23.985-36.864,43.093
			c0,0,10.581-5.12,26.368-11.008c8.192-3.157,17.835-6.571,28.075-9.557c0.256-0.085,0.427-0.171,0.683-0.256
			c32.085-9.387,69.973-15.36,89.941,0.427l3.584,0.597c-2.109,16.331,2.789,32.791,13.483,45.312
			c1.256-5.871,2.881-11.656,4.864-17.323l3.669,0.341c0,0,32.427,8.021,26.112,79.531c5.687-2.922,12.349-3.289,18.323-1.01
			c5.974,2.279,10.698,6.99,12.995,12.957C382.666,303.037,379.973,319.289,370.732,331.897z"/>
		<path style="fill:#FFE0B2;" d="M277.917,426.026v74.923c-12.971,0.939-27.477,1.536-42.667,1.536
			c-15.189,0-29.696-0.597-42.667-1.536v-57.515c29.36,0.739,58.471-5.552,84.907-18.347L277.917,426.026z"/>
		<g>
			<path style="fill:#2C2F38;" d="M192.583,470.059v30.891c-35.243-2.731-59.733-8.619-59.733-15.445
				S157.341,472.704,192.583,470.059z"/>
			<path style="fill:#2C2F38;" d="M337.65,485.504c0,6.827-24.491,12.715-59.733,15.445v-30.891
				C313.159,472.704,337.65,478.677,337.65,485.504z"/>
		</g>
		<g>
			<path style="fill:#02A9F4;" d="M92.886,220.879h34.133v17.067c0,9.426-7.641,17.067-17.067,17.067l0,0
				c-9.426,0-17.067-7.641-17.067-17.067V220.879z"/>
			<path style="fill:#02A9F4;" d="M229.42,220.879h34.133v17.067c0,9.426-7.641,17.067-17.067,17.067l0,0
				c-9.426,0-17.067-7.641-17.067-17.067V220.879z"/>
		</g>
	</g>
	<g>
		<path d="M142.374,308.008c0.61,0.137,1.233,0.206,1.858,0.204c3.996-0.005,7.454-2.783,8.321-6.683
			c0.237-1.063,2.15-6.762,5.563-8.229c3.1-1.321,7.85,1.05,10.408,2.583c4.04,2.415,9.273,1.102,11.694-2.935
			s1.115-9.272-2.919-11.698c-7.499-5.454-17.221-6.815-25.929-3.629c-7.902,4.105-13.572,11.509-15.475,20.208
			c-0.491,2.209-0.084,4.523,1.131,6.432C138.241,306.17,140.165,307.518,142.374,308.008L142.374,308.008z"/>
		<path d="M249.991,3.145C193.87-3.063,116.682,1.204,67.707,56.979c-62.258,70.854-45.112,125.038-44.35,127.309
			c1.144,3.374,4.262,5.684,7.823,5.796s6.818-1.997,8.173-5.292c1.886-3.968,4.275-7.677,7.108-11.035
			c-0.573,19.669,2.67,39.263,9.55,57.698c-16.062,25.839-24.57,55.658-24.562,86.083c0,49.554,40.717,126.654,152.896,135.963
			c0.239,0.02,0.466,0.01,0.704,0.029v10.69c-59.563,5.601-59.733,17.884-59.733,23.265c0,22.212,69.504,25.529,110.933,25.529
			s110.933-3.317,110.933-25.529c0-5.38-0.171-17.664-59.733-23.265v-31.791c20.535-10.436,39.526-23.663,56.433-39.307
			c6.016-0.072,19.998,14.033,30.129,30.791c1.541,2.552,4.306,4.109,7.287,4.105c4.69,0.002,8.506-3.777,8.55-8.467
			c0.012-1.258,0.696-31.179,31.629-61.979c16.642-17.904,29.017-39.34,36.2-62.705c0.283,4.608,0.442,9.412,0.442,14.171
			c0,3.955,2.717,7.392,6.565,8.304s7.819-0.94,9.593-4.475c21.656-45.931,22.795-98.897,3.133-145.717
			c-9.534-24.348-23.701-46.615-41.717-65.567c-3.421-3.579-6.748-6.71-10.043-9.62c11.546-1.892,26.496-1.698,33.909,9.387
			c1.686,2.556,4.613,4.013,7.669,3.818c3.056-0.196,5.773-2.014,7.119-4.764c1.346-2.75,1.116-6.011-0.604-8.545
			c-11.35-16.954-30.717-19.058-46.217-17.367c5.485-12.112,7.19-25.596,4.892-38.692c-0.729-4.658-5.097-7.842-9.754-7.113
			c-4.658,0.729-7.842,5.097-7.113,9.754c2.413,12.722-0.445,25.878-7.919,36.453C375.353,34.682,323.779,11.189,249.991,3.145z
			 M185.049,481.339v12.27c-12.219-0.979-24.33-3.019-36.196-6.097C160.702,484.344,172.819,482.277,185.049,481.339
			L185.049,481.339z M323.645,487.512c-11.866,3.078-23.977,5.118-36.196,6.097v-12.27
			C299.679,482.277,311.796,484.344,323.645,487.512L323.645,487.512z M270.382,494.95c-10.191,0.607-21.482,0.996-34.133,0.996
			c-12.652,0-23.942-0.389-34.133-0.996v-40.932c23.417-0.394,46.561-5.108,68.267-13.905V494.95z M461.537,173.408
			c12.229,30.052,15.676,62.958,9.941,94.892c-0.992-5.976-3.522-11.59-7.342-16.292c-2.287-2.275-5.662-3.066-8.722-2.044
			c-3.06,1.021-5.283,3.681-5.745,6.873c-0.075,0.567-8.583,57.125-40.242,88.642c-15.072,14.555-26.318,32.606-32.742,52.55
			c-5.476-7.102-12.157-13.187-19.739-17.977c3.062-3.34,5.005-5.668,5.422-6.186c1.91-2.377,2.406-5.593,1.303-8.436
			c-1.104-2.843-3.64-4.88-6.654-5.346s-6.047,0.712-7.957,3.09c-0.635,0.794-62.862,76.897-155.177,73.773
			c-0.106-0.004-0.195-0.061-0.303-0.061c-0.06,0-0.11,0.033-0.171,0.034c-2.534-0.093-5.08-0.215-7.658-0.43
			C85.066,428.137,48.516,360.775,48.516,317.537c-0.022-28.377,8.282-56.138,23.883-79.842c1.349-1.798,1.933-4.056,1.625-6.283
			h11.329v8.533c0,14.138,11.462,25.6,25.6,25.6s25.6-11.462,25.6-25.6v-8.533h33.8c4.713,0,8.533-3.821,8.533-8.533
			c0-4.713-3.82-8.533-8.533-8.533H68.44c-5.347-18.227-6.415-37.442-3.12-56.149c7.612-4.373,15.919-7.403,24.559-8.957
			c-1.744,14.17-1.103,28.532,1.896,42.49c0.638,3.227,3.073,5.799,6.26,6.613c3.187,0.814,6.558-0.276,8.665-2.801
			c20.801-23.023,48.057-39.242,78.214-46.543c-8.188,8.539-13.953,19.106-16.701,30.613c-0.757,3.199,0.39,6.548,2.95,8.611
			c2.56,2.063,6.077,2.472,9.041,1.051c28.185-13.498,107.313-43.564,135.815-21.567c-0.085,16.223,5.51,31.965,15.815,44.496
			c2.022,2.685,5.432,3.933,8.71,3.188c3.278-0.746,5.812-3.346,6.474-6.642c0.545-2.712,1.228-5.39,1.968-8.028
			c6.673,5.202,18.841,20.783,16.119,63.154c-1.945,0.941-3.83,1.999-5.646,3.169c-2.538,1.706-3.969,4.639-3.752,7.689
			c0.217,3.05,2.049,5.751,4.803,7.08s6.008,1.083,8.531-0.644c5.607-3.898,12.456-5.591,19.233-4.754
			c4.012,1.432,7.151,4.617,8.525,8.65c3.323,11.876,1.164,24.616-5.887,34.733c-4.267,5.467-11.493,7.692-18.096,5.571
			c-4.594-1.005-9.135,1.897-10.152,6.488c-1.017,4.591,1.872,9.14,6.46,10.17c2.947,0.667,5.958,1.009,8.979,1.021
			c10.152,0.114,19.779-4.499,26.05-12.483c11.053-15.154,14.107-34.714,8.2-52.517c-3.37-8.68-10.534-15.335-19.437-18.058
			c-3.412-0.915-6.955-1.241-10.476-0.961c1.812-51.337-17.409-69.037-27.42-74.705c3.239-6.731,6.669-11.208,9.229-11.208
			c4.713,0,8.533-3.821,8.533-8.533s-3.821-8.533-8.533-8.533c-14.079,0-22.988,15.025-28.229,29.025
			c-4.549-10.562-4.098-22.612,1.229-32.804c2.577-3.927,1.496-9.199-2.42-11.794c-3.915-2.595-9.192-1.538-11.805,2.365
			c-1.378,2.228-2.532,4.587-3.447,7.041c-33.806-17.504-93.397,1.823-125.623,14.792c11.146-12.726,25.94-21.712,42.371-25.737
			c4.61-0.978,7.555-5.508,6.577-10.119c-0.978-4.61-5.508-7.555-10.119-6.577c-7.351,1.772-14.486,4.342-21.278,7.664
			c-48.691-2.378-86.656,24.932-105.301,41.882c-1.126-10.764-0.044-21.644,3.179-31.975c1.273-4.139,3.391-7.968,6.221-11.246
			l-0.004,0.004c2.313-1.986,3.391-5.055,2.828-8.051c-0.563-2.996-2.682-5.465-5.558-6.475c-2.876-1.01-6.073-0.41-8.387,1.576
			c-4.546,4.469-8.022,9.908-10.17,15.91c-15.238,1.443-29.899,6.556-42.73,14.903c-0.268,0.143-0.528,0.3-0.779,0.471
			c-4.713,3.2-9.086,6.875-13.05,10.967c1.088-19.608,9.247-51.47,42.776-89.629C124.649,18,196.007,14.329,248.124,20.112
			c69.721,7.6,117.821,29.342,147.004,66.417c1.637,2.116,3.275,4.317,4.692,6.308c0.311,0.369,0.645,0.717,1,1.044
			c0.263,0.319,0.55,0.618,0.857,0.895c1.489,1.443,3.136,2.713,4.91,3.786c0.539,0.304,1.059,0.639,1.558,1.004
			c5.433,4.203,10.526,8.827,15.233,13.829C439.86,130.743,452.819,151.124,461.537,173.408z M102.42,231.412h17.067v8.533
			c0,4.713-3.821,8.533-8.533,8.533c-4.713,0-8.533-3.821-8.533-8.533V231.412z"/>
		<path d="M298.686,214.345h-102.4c-4.713,0-8.533,3.821-8.533,8.533c0,4.713,3.82,8.533,8.533,8.533h25.6v8.533
			c0,14.138,11.462,25.6,25.6,25.6c14.138,0,25.6-11.462,25.6-25.6v-8.533h25.6c4.713,0,8.533-3.821,8.533-8.533
			C307.22,218.166,303.399,214.345,298.686,214.345z M256.02,239.945c0,4.713-3.821,8.533-8.533,8.533
			c-4.713,0-8.533-3.821-8.533-8.533v-8.533h17.067V239.945z"/>
		<path d="M268.37,317.645c-2.728-1.372-5.982-1.182-8.531,0.499c-2.55,1.681-4.007,4.596-3.822,7.644
			c0.185,3.048,1.985,5.765,4.72,7.124c0.437,0.269,0.852,0.57,1.244,0.9H85.353c-4.713,0-8.533,3.821-8.533,8.533
			s3.821,8.533,8.533,8.533h181.101c-0.339,1.979-0.828,3.929-1.463,5.833c-0.965,2.892-0.313,6.08,1.71,8.361
			c2.023,2.282,5.109,3.311,8.096,2.7c2.987-0.611,5.422-2.769,6.386-5.661C289.782,336.308,276.562,321.741,268.37,317.645z"/>
	</g>
</g>
<g>
</g>
<g>
</g>
<g>
</g>
<g>
</g>
<g>
</g>
<g>
</g>
<g>
</g>
<g>
</g>
<g>
</g>
<g>
</g>
<g>
</g>
<g>
</g>
<g>
</g>
<g>
</g>
<g>
</g>
</svg>
