<?xml version="1.0" encoding="iso-8859-1"?>
<!-- Generator: Adobe Illustrator 19.0.0, SVG Export Plug-In . SVG Version: 6.00 Build 0)  -->
<svg version="1.1" id="Capa_1" xmlns="http://www.w3.org/2000/svg" xmlns:xlink="http://www.w3.org/1999/xlink" x="0px" y="0px"
	 viewBox="0 0 512.024 512.024" style="enable-background:new 0 0 512.024 512.024;" xml:space="preserve">
<g transform="translate(0 -1)">
	<g transform="translate(1 1)">
		<path style="fill:#D84315;" d="M469.467,349.89c0,0,51.883,68.267-8.533,136.533c-1.963-1.621-3.755-3.243-5.461-4.949
			c-43.861-43.264-20.139-121.088-20.139-121.088V324.29c-4.416-5.103-8.492-10.491-12.203-16.128
			c-4.657,12.585-10.817,24.562-18.347,35.669c-3.756,5.423-7.983,10.506-12.629,15.189c-14.357,13.79-24.985,30.994-30.891,50.005
			c-3.081,10.186-12.24,17.328-22.869,17.835c-0.509,0.071-1.023,0.1-1.536,0.085h-69.205v44.117
			c35.243,2.645,59.733,8.619,59.733,15.445c0,6.144-20.053,11.605-50.091,14.592c-3.072,0.341-6.315,0.597-9.643,0.853
			c-12.971,0.939-27.477,1.536-42.667,1.536c-15.189,0-29.696-0.597-42.667-1.536c-11.822-0.811-23.589-2.292-35.243-4.437
			c-15.275-2.987-24.491-6.827-24.491-11.008c0-5.035,13.141-9.557,34.133-12.629c7.595-1.195,16.213-2.133,25.6-2.816V444.44
			c-2.816,0-5.717-0.256-8.533-0.427c-102.4-8.533-145.067-76.459-145.067-127.488c-0.098-30.245,8.814-59.833,25.6-84.992
			c-10.118-23.99-13.11-50.386-8.619-76.032l-4.693-0.256c-8.963,6.584-16.147,15.293-20.907,25.344
			c0,0-15.787-47.189,36.267-111.36c2.048-2.475,4.182-5.035,6.4-7.595c43.349-49.408,112.896-57.856,174.933-51.029
			c56.917,6.229,115.968,22.869,152.832,69.717c0.427,0.597,0.939,1.195,1.365,1.792c61.099,22.869,139.776,82.176,77.568,233.643
			V349.89z"/>
		<path style="fill:#FF5722;" d="M443.867,375.49c0,0,37.461,49.323,11.605,105.984c-43.861-43.264-20.139-121.088-20.139-121.088
			V324.29c-4.416-5.103-8.492-10.491-12.203-16.128c-4.657,12.585-10.817,24.562-18.347,35.669
			c-2.645-3.413-5.035-6.741-7.253-10.069c-6.646,18.937-17.2,36.265-30.976,50.859c-12.309,11.897-21.913,26.303-28.16,42.24
			c-0.509,0.071-1.023,0.1-1.536,0.085h-69.205v25.6h-25.6v44.117c11.822,0.811,23.589,2.292,35.243,4.437
			c-3.072,0.341-6.315,0.597-9.643,0.853c-12.971,0.939-27.477,1.536-42.667,1.536c-15.189,0-29.696-0.597-42.667-1.536
			c-11.822-0.811-23.589-2.292-35.243-4.437c3.072-0.341,6.315-0.597,9.643-0.853V473.88c7.595-1.195,16.213-2.133,25.6-2.816
			V444.44c-2.816,0-5.717-0.256-8.533-0.427c-102.4-8.533-145.067-76.459-145.067-127.488c-0.098-30.245,8.814-59.833,25.6-84.992
			c-10.118-23.99-13.11-50.386-8.619-76.032l-4.693-0.256c-8.963,6.584-16.147,15.293-20.907,25.344
			c0,0-15.787-47.189,36.267-111.36c43.093-33.451,102.229-38.912,155.733-33.024c56.917,6.229,115.968,22.869,152.832,69.717
			c0.427,0.597,0.939,1.195,1.365,1.792c61.099,22.869,139.776,82.176,77.568,233.643V375.49z"/>
		<path style="fill:#FFE0B2;" d="M377.393,331.202c-5.559,2.557-11.834,3.1-17.749,1.536c-1.303,9.482-4.778,18.535-10.155,26.453
			c-3.353,5.344-7.15,10.396-11.349,15.104l-1.536,1.792c-12.028,12.991-25.68,24.377-40.619,33.877
			c-9.608,6.395-19.709,12.016-30.208,16.811c-26.069,12.292-54.643,18.34-83.456,17.664c-2.816,0-5.717-0.256-8.533-0.427
			c-102.4-8.533-145.067-76.459-145.067-127.488c-0.098-30.245,8.814-59.833,25.6-84.992c-7.991-19.482-11.547-40.499-10.411-61.525
			c0.194-4.877,0.793-9.729,1.792-14.507l-4.693-0.256c1.024-0.768,2.133-1.536,3.243-2.304h0.171
			c13.338-8.828,28.821-13.871,44.8-14.592c-4.309,16.633-4.456,34.071-0.427,50.773c0,0,56.32-77.141,165.803-44.715
			c4.161,11.132,4.933,23.246,2.219,34.816c11.625,1.757,23.447,1.757,35.072,0c21.675,1.195,72.619,12.459,67.499,90.453
			c9.045-3.925,25.429-7.765,33.877,10.923C398.555,292.29,395.483,322.669,377.393,331.202z"/>
		<path style="fill:#FFECB3;" d="M377.393,322.669c-2.901,14.165-11.435,28.075-27.904,27.989c-2.33-0.009-4.65-0.296-6.912-0.853
			c-0.674,5.511-2.17,10.89-4.437,15.957l-1.536,1.792c-12.028,12.991-25.68,24.377-40.619,33.877
			c-9.608,6.395-19.709,12.016-30.208,16.811c-26.069,12.292-54.643,18.34-83.456,17.664c-2.816,0-5.717-0.256-8.533-0.427
			c-102.4-8.533-145.067-76.459-145.067-127.488c-0.098-30.245,8.814-59.833,25.6-84.992c-7.991-19.482-11.547-40.499-10.411-61.525
			c9.035-3.502,18.569-5.547,28.245-6.059c-4.309,16.633-4.456,34.071-0.427,50.773c0,0,56.32-77.141,165.803-44.715
			c4.161,11.132,4.933,23.246,2.219,34.816c11.625,1.757,23.447,1.757,35.072,0c21.675,1.195,72.619,12.459,67.499,90.453
			c9.045-3.925,25.429-7.765,33.877,10.923C378.973,305.716,379.388,314.391,377.393,322.669L377.393,322.669z"/>
		<g>
			<path style="fill:#02A9F4;" d="M203.02,232.426c2.34,12.673,11.263,23.134,23.408,27.444c12.145,4.31,25.667,1.813,35.471-6.55
				c9.805-8.363,14.403-21.321,12.063-33.994"/>
			<path style="fill:#02A9F4;" d="M77.502,223c-3.423,18.538,8.83,36.341,27.368,39.764c18.538,3.423,36.341-8.83,39.764-27.368"/>
		</g>
		<path style="fill:#37474F;" d="M89.873,335.273c0.092-0.058,0.188-0.108,0.289-0.15c1.37-0.575,3.205,0.155,4.608,0.299
			c3.75,0.386,7.509,0.665,11.278,0.835c7.531,0.344,15.075,0.233,22.592-0.331c14.722-1.001,29.213-4.184,42.999-9.445
			c1.768-0.691,3.52-1.423,5.255-2.194c28.916-12.857,70.598-43.628,94.804-6.946c9.19,15.117,11.418,33.461,6.114,50.339
			c-6.255,20.339-26.204,23.187-45.252,26.174c-25.854,4.053-48.217,20.493-75.836,13.986c-29.195-6.879-49.99-35.476-62.471-59.825
			c-0.978-1.907-1.641-3.95-2.448-5.931C91.247,340.716,87.829,336.578,89.873,335.273z"/>
		<path style="fill:#7F6E5D;" d="M267.654,426.946v75.008c-12.971,0.939-27.477,1.536-42.667,1.536
			c-15.189,0-29.696-0.597-42.667-1.536V444.44c28.813,0.676,57.388-5.372,83.456-17.664l0.085,0.171H267.654z"/>
		<g>
			<path style="fill:#2C2F38;" d="M182.321,471.064v30.891c-35.243-2.731-59.733-8.619-59.733-15.445
				C122.587,479.682,147.078,473.709,182.321,471.064z"/>
			<path style="fill:#2C2F38;" d="M327.387,486.509c0,6.827-24.491,12.715-59.733,15.445v-30.891
				C302.897,473.709,327.387,479.682,327.387,486.509z"/>
		</g>
		<polygon style="fill:#955BA5;" points="469.467,315.757 469.467,349.89 435.334,358.424 435.334,324.29 		"/>
		<path style="fill:#D84315;" d="M460.934,486.424c-51.2-41.984-25.6-126.037-25.6-126.037v-1.963l34.133-8.533
			C469.467,349.89,521.35,418.157,460.934,486.424z"/>
	</g>
	<g>
		<path d="M288.608,202.107l-106.413,19.654c-4.337,0.8-7.349,4.774-6.949,9.166c0.4,4.392,4.081,7.756,8.491,7.759
			c0.523,0,1.044-0.048,1.558-0.142l9.483-1.752c0.023,0.243-0.057,0.47-0.012,0.714c2.879,15.686,13.913,28.641,28.941,33.98
			c15.028,5.338,31.762,2.247,43.892-8.107c12.129-10.355,17.807-26.397,14.892-42.076c-0.045-0.243-0.201-0.427-0.266-0.661
			l9.482-1.752c4.635-0.856,7.698-5.307,6.842-9.942C297.694,204.314,293.243,201.251,288.608,202.107L288.608,202.107z
			 M243.629,256.486c-14.951,2.741-29.3-7.135-32.079-22.079c-0.045-0.244-0.201-0.428-0.266-0.663l54.436-10.054
			c0.023,0.242-0.057,0.469-0.012,0.713C268.449,239.355,258.573,253.705,243.629,256.486L243.629,256.486z"/>
		<path d="M142.379,308.019c0.61,0.137,1.233,0.206,1.858,0.204c3.996-0.005,7.454-2.782,8.321-6.683
			c0.237-1.063,2.15-6.763,5.563-8.229c3.112-1.321,7.846,1.05,10.408,2.583c4.04,2.415,9.273,1.102,11.694-2.935
			s1.115-9.272-2.919-11.698c-7.499-5.454-17.221-6.815-25.929-3.629c-7.902,4.105-13.572,11.509-15.475,20.208
			c-0.491,2.209-0.084,4.523,1.131,6.432C138.246,306.181,140.17,307.529,142.379,308.019L142.379,308.019z"/>
		<path d="M188.204,310.328c-5.129,2.608-10.05,5.121-14.642,7.163c-27.826,11.203-58.237,14.373-87.775,9.15
			c-4.491-0.686-8.733,2.268-9.647,6.719s1.819,8.837,6.217,9.977c1.078,1.749,1.973,3.605,2.671,5.537
			c0.612,1.525,1.196,2.921,1.766,4.033c12.817,25.004,35.038,56.446,68.108,64.237c4.933,1.167,9.985,1.754,15.054,1.75
			c13.371-0.645,26.538-3.541,38.946-8.567c8.4-3.16,17.066-5.559,25.896-7.167c19.412-3.038,43.571-6.817,51.308-31.971
			c6.09-19.31,3.479-40.315-7.154-57.546C254.504,276.578,214.6,296.89,188.204,310.328z M269.791,366.174
			c-4.288,13.954-17.075,16.912-38.417,20.25c-9.547,1.756-18.92,4.353-28.008,7.763c-14.971,5.129-29.104,9.967-44.546,6.35
			c-27.9-6.575-47.363-37.05-56.604-54.958c26.718,2.18,53.568-2.106,78.279-12.496c4.846-2.15,10.042-4.792,15.45-7.546
			c31.846-16.204,53.837-25.125,68.767-2.492C272.491,336.034,274.34,351.732,269.791,366.174L269.791,366.174z"/>
		<path d="M20.862,190.119l0.246,0.004c3.489,0.001,6.626-2.123,7.921-5.363c1.89-3.976,4.287-7.69,7.131-11.051
			c-0.581,19.688,2.662,39.302,9.549,57.755c-16.062,25.839-24.571,55.659-24.563,86.083c0,49.554,40.717,126.654,152.896,135.963
			c0.239,0.02,0.466,0.01,0.704,0.029v10.69c-59.563,5.601-59.733,17.884-59.733,23.265c0,22.212,69.504,25.529,110.933,25.529
			s110.933-3.317,110.933-25.529c0-5.38-0.171-17.664-59.733-23.265v-27.752h60.692c14.968,0.025,28.196-9.731,32.596-24.038
			c5.542-17.622,15.427-33.566,28.746-46.367c11.264-11.622,20.399-25.133,26.986-39.916c0.557,0.695,1.069,1.388,1.643,2.083
			v31.183c0,0.147,0.09,0.274,0.097,0.42c-2.844,9.916-23.969,90.67,28.361,133.944l0.021,0.028l0.033,0.02l0.209,0.184
			c0.497,0.359,1.033,0.661,1.597,0.901c0.296,0.192,0.604,0.365,0.922,0.519c2.084,0.769,4.388,0.678,6.404-0.254
			c0.344-0.217,0.673-0.457,0.984-0.72c0.696-0.369,1.335-0.836,1.897-1.388l0.197-0.236l0.007-0.006l0.005-0.009
			c57.358-65.088,19.342-131.092,10.466-144.575v-29.89c29.498-72.75,30.293-132.599,2.288-177.89
			c-19.928-30.013-49.129-52.681-83.146-64.544C365.951,35.091,314.1,11.274,239.641,3.124
			C183.475-3.056,106.262,1.278,57.362,57.003c-62.254,70.883-45.104,125.029-44.346,127.3
			C14.153,187.695,17.286,190.017,20.862,190.119z M174.746,481.351v12.27c-12.219-0.979-24.33-3.019-36.196-6.097
			C150.399,484.355,162.516,482.289,174.746,481.351L174.746,481.351z M191.812,494.961v-40.932
			c23.417-0.394,46.561-5.108,68.267-13.905v54.836c-10.191,0.607-21.482,0.996-34.133,0.996
			C213.294,495.957,202.003,495.568,191.812,494.961L191.812,494.961z M313.341,487.524c-11.866,3.078-23.977,5.118-36.196,6.097
			v-12.27C289.375,482.288,301.492,484.355,313.341,487.524L313.341,487.524z M387.141,353.97
			c-15.344,14.819-26.716,33.258-33.071,53.621c-2.226,7.079-8.813,11.875-16.233,11.821h-38.033
			c19.514-12.593,37.115-27.928,52.262-45.533c1.91-2.377,2.406-5.593,1.303-8.436c-1.104-2.843-3.64-4.88-6.654-5.346
			c-3.014-0.465-6.047,0.712-7.957,3.09c-0.631,0.794-62.91,76.895-155.175,73.774c-0.107-0.004-0.196-0.061-0.304-0.061
			c-0.061,0-0.111,0.034-0.172,0.035c-2.534-0.093-5.079-0.215-7.657-0.431C74.762,428.149,38.212,360.786,38.212,317.549
			c-0.022-28.377,8.282-56.138,23.883-79.842c1.797-2.387,2.215-5.54,1.1-8.312c-1.031-2.568-1.952-5.099-2.792-7.596
			c0.433,0.221,0.885,0.402,1.35,0.542l8.435,1.558c-0.015,0.07-0.064,0.121-0.077,0.192c-2.058,11.128,0.391,22.617,6.807,31.939
			c6.416,9.322,16.273,15.713,27.402,17.765c2.588,0.479,5.214,0.72,7.846,0.721c20.539-0.057,38.125-14.732,41.858-34.929
			c0.013-0.071-0.015-0.137-0.004-0.207l8.433,1.557c0.514,0.094,1.036,0.142,1.558,0.142c4.409-0.005,8.089-3.368,8.489-7.759
			s-2.611-8.364-6.947-9.165l-100.7-18.596c-3.094-0.545-6.235,0.672-8.154,3.159c-4.115-16.543-4.686-33.77-1.675-50.549
			c7.607-4.342,15.897-7.359,24.516-8.921c-1.747,14.184-1.107,28.56,1.892,42.532c0.655,3.325,3.216,5.947,6.525,6.679
			c0.606,0.132,1.225,0.199,1.846,0.2c2.724,0.001,5.285-1.3,6.892-3.5c0.521-0.71,52.445-69.784,152.025-42.77
			c2.638,8.127,2.987,16.824,1.009,25.136c-0.79,2.368-0.504,4.962,0.784,7.101s3.446,3.606,5.908,4.016
			c6.656,1.048,13.383,1.575,20.121,1.575c5.606,0.002,11.202-0.466,16.73-1.4c16.244,0.598,31.616,7.496,42.862,19.233
			c11.507,12.983,16.795,32.284,15.91,57.267c-1.441,0.812-2.526,1.495-2.89,1.742c-3.905,2.638-4.932,7.943-2.294,11.848
			c2.638,3.905,7.943,4.932,11.848,2.294c5.634-3.899,12.503-5.594,19.304-4.763c3.99,1.447,7.108,4.625,8.479,8.642
			c3.325,11.874,1.167,24.613-5.883,34.729c-4.265,5.471-11.492,7.697-18.096,5.575c-4.593-1.003-9.132,1.899-10.149,6.489
			s1.871,9.138,6.457,10.169c2.947,0.667,5.958,1.009,8.979,1.021c10.152,0.113,19.78-4.503,26.05-12.488
			c8.021-11.082,11.947-24.603,11.11-38.257c2.816,6.075,6.016,11.965,9.58,17.633C408.469,326.321,399.15,341.294,387.141,353.97
			L387.141,353.97z M86.892,226.982l50.426,9.312c-0.015,0.07-0.064,0.121-0.077,0.192c-2.567,13.903-15.918,23.092-29.821,20.525
			s-23.092-15.918-20.525-29.821C86.908,227.119,86.88,227.053,86.892,226.982z M444.875,331.954l17.067-4.267v16.541l-17.067,4.267
			V331.954z M461.189,474.912c-33.807-35.492-20.567-96.072-17.342-108.568l22.92-5.73
			C489.925,395.883,487.671,442.066,461.189,474.912z M70.187,68.265c44.058-50.217,115.467-53.921,167.592-48.175
			c55.539,6.079,97.31,21.144,126.668,45.598c-9.832-2.331-19.815-3.971-29.876-4.907c-4.699-0.349-8.791,3.178-9.14,7.877
			c-0.349,4.699,3.178,8.791,7.877,9.14c0.933,0.071,94.063,7.808,133.521,71.733c24.638,39.908,23.746,93.729-2.638,160
			l-24.717,6.179c-43.275-53.796-29.038-105.267-28.404-107.458c0.868-2.922,0.111-6.085-1.986-8.298
			c-2.097-2.213-5.215-3.139-8.179-2.429c-2.965,0.709-5.325,2.947-6.193,5.869c-5.088,21.698-4.489,44.341,1.736,65.74
			c-3.595-4.359-8.415-7.54-13.836-9.132c-4.349-1.153-8.891-1.379-13.332-0.664c1.158-22.666-6.097-44.962-20.372-62.607
			c-8.154-9.084-18.486-15.942-30.023-19.93c3.053-3.091,5.367-6.832,6.769-10.945c0.965-2.892,0.313-6.08-1.71-8.361
			c-2.023-2.282-5.109-3.311-8.096-2.7c-2.987,0.611-5.422,2.769-6.386,5.661c-4.087,12.267-26.879,13.338-41.542,12.321
			c2.217-27.429-17.338-61.033-19.846-65.213c-2.425-4.041-7.667-5.35-11.708-2.925c-4.041,2.425-5.35,7.667-2.925,11.708
			c3.167,5.421,6,11.031,8.483,16.798c-52.011-12.5-106.829,1.809-146.095,38.135c-1.023-10.598,0.067-21.293,3.209-31.467
			c1.29-4.19,3.456-8.057,6.354-11.346c3.465-3.128,3.774-8.459,0.694-11.966c-3.081-3.507-8.408-3.888-11.956-0.854
			c-4.534,4.468-8.005,9.897-10.159,15.886c-15.22,1.46-29.866,6.558-42.703,14.864c-0.282,0.148-0.554,0.312-0.817,0.492
			c-4.706,3.21-9.075,6.89-13.037,10.983C28.508,138.274,36.67,106.424,70.187,68.265z"/>
	</g>
</g>
<g>
</g>
<g>
</g>
<g>
</g>
<g>
</g>
<g>
</g>
<g>
</g>
<g>
</g>
<g>
</g>
<g>
</g>
<g>
</g>
<g>
</g>
<g>
</g>
<g>
</g>
<g>
</g>
<g>
</g>
</svg>
