<?xml version="1.0" encoding="iso-8859-1"?>
<!-- Generator: Adobe Illustrator 19.0.0, SVG Export Plug-In . SVG Version: 6.00 Build 0)  -->
<svg version="1.1" id="Capa_1" xmlns="http://www.w3.org/2000/svg" xmlns:xlink="http://www.w3.org/1999/xlink" x="0px" y="0px"
	 viewBox="0 0 512.012 512.012" style="enable-background:new 0 0 512.012 512.012;" xml:space="preserve">
<g transform="translate(0 -1)">
	<g transform="translate(1 1)">
		<path style="fill:#4E342E;" d="M465.622,308.065c-0.06-10.76-0.801-21.505-2.219-32.171c-0.436-6.727-2.612-13.225-6.315-18.859
			c-2.206,13.295-5.663,26.352-10.325,38.997c-6.711,20.301-17.745,38.904-32.341,54.528
			c-34.133,33.963-34.133,67.925-34.133,67.925c-2.82-4.579-5.897-8.995-9.216-13.227c-8.619-11.264-21.845-25.003-32.256-21.163
			l-0.683,0.683c-17.935,16.861-38.409,30.798-60.672,41.301l0.427,0.939v44.032c35.243,2.645,59.733,8.619,59.733,15.445
			c0,4.181-9.045,7.936-24.064,10.923c-11.8,2.144-23.707,3.654-35.669,4.523c-12.971,0.939-27.477,1.536-42.667,1.536
			s-29.696-0.597-42.667-1.536c-17.92-0.687-35.662-3.817-52.736-9.301c-4.523-1.877-6.997-4.011-6.997-6.144
			c0-5.632,16.811-10.752,42.667-13.739c5.291-0.682,11.008-1.28,17.067-1.707v-26.624c-2.816,0-5.632-0.171-8.533-0.427
			c-102.4-8.533-145.067-76.459-145.067-127.488c-0.098-30.245,8.814-59.833,25.6-84.992c-10.118-23.99-13.11-50.386-8.619-76.032
			l-4.693-0.256c-6.279,4.823-11.751,10.612-16.213,17.152c-1.778,2.587-3.32,5.329-4.608,8.192
			c-0.443-1.396-0.785-2.822-1.024-4.267c-2.56-13.397-5.803-56.832,41.387-112.043c0.768-0.853,1.537-1.792,2.304-2.645
			c43.349-49.408,112.896-57.856,174.933-51.029c54.869,5.973,111.701,21.675,148.736,64.768c1.365,1.536,2.731,3.158,4.011,4.864
			c7.579-6.643,12.516-15.79,13.909-25.771v-0.171c0.868-5.572,0.839-11.247-0.085-16.811c-0.502-3.016,0.653-6.07,3.026-7.999
			c2.373-1.929,5.598-2.437,8.449-1.329c2.85,1.107,4.888,3.659,5.336,6.684c2.319,13.081,0.623,26.557-4.864,38.656
			c15.531-1.707,34.901,0.427,46.165,17.408c1.272,1.862,1.745,4.157,1.312,6.37c-0.433,2.213-1.735,4.161-3.616,5.406
			c-1.4,0.976-3.073,1.484-4.779,1.451c-2.843,0.024-5.507-1.388-7.083-3.755c-6.997-10.411-20.565-11.264-31.744-9.728
			c-4.27,0.608-8.49,1.52-12.629,2.731c5.098,4.019,9.89,8.411,14.336,13.141c0.853,0.939,1.792,1.877,2.56,2.816h0.085
			c16.005,17.54,28.645,37.875,37.291,59.989C487.256,213.864,486.232,264.315,465.622,308.065z"/>
		<path style="fill:#795548;" d="M463.404,275.895c-0.436-6.727-2.612-13.225-6.315-18.859
			c-2.206,13.295-5.663,26.352-10.325,38.997c-0.332-7.767-2.653-15.319-6.741-21.931c0,0-8.533,59.477-42.667,93.525
			c-11.067,10.765-19.986,23.536-26.283,37.632c-8.619-11.264-21.845-25.003-32.256-21.163l-0.683,0.683
			c-17.935,16.861-38.409,30.798-60.672,41.301l0.427,0.939v6.997c-5.717,3.328-11.52,6.315-17.493,9.131l0.427,0.939v44.032
			c17.929,0.601,35.683,3.732,52.736,9.301c-11.8,2.144-23.707,3.654-35.669,4.523c-12.971,0.939-27.477,1.536-42.667,1.536
			s-29.696-0.597-42.667-1.536c-17.92-0.687-35.662-3.817-52.736-9.301c11.787-2.228,23.699-3.739,35.669-4.523v-15.36
			c5.291-0.682,11.008-1.28,17.067-1.707v-26.624c-2.816,0-5.632-0.171-8.533-0.427c-102.4-8.533-145.067-76.459-145.067-127.488
			c-0.098-30.245,8.814-59.833,25.6-84.992c-10.118-23.99-13.11-50.386-8.619-76.032l-4.693-0.256
			c-6.279,4.823-11.751,10.612-16.213,17.152l-0.853-0.085c-1.707,1.365-3.328,2.645-4.779,4.011
			c-2.56-13.397-5.803-56.832,41.387-112.043C114.134,27.66,175.574,21.601,230.956,27.66
			c56.917,6.229,115.883,22.869,152.747,69.632c6.604-5.71,11.184-13.403,13.056-21.931c1.365,1.536,2.731,3.158,4.011,4.864
			c7.579-6.643,12.516-15.79,13.909-25.771c1.726,12.282-0.079,24.802-5.205,36.096c5.755-0.696,11.575-0.668,17.323,0.085
			c-4.27,0.608-8.49,1.52-12.629,2.731c5.098,4.019,9.89,8.411,14.336,13.141c0.853,0.939,1.792,1.877,2.56,2.816
			c-11.176-3.045-23.009-2.658-33.963,1.109c5.098,4.019,9.89,8.411,14.336,13.141c17.28,18.131,30.846,39.467,39.936,62.805
			C462.844,214.732,466.982,245.52,463.404,275.895L463.404,275.895z"/>
		<path style="fill:#FFE0B2;" d="M384.641,332.385c-4.769,1.457-9.846,1.575-14.677,0.341c-1.223,6.071-3.171,11.973-5.803,17.579
			c-6.125,12.832-14.74,24.319-25.344,33.792l-0.683,0.683c-1.707,1.621-3.499,3.243-5.291,4.779
			c-16.612,14.769-35.264,27.069-55.381,36.523c-26.436,12.795-55.547,19.085-84.907,18.347c-2.816,0-5.632-0.171-8.533-0.427
			c-102.4-8.533-145.067-76.459-145.067-127.488c-0.098-30.245,8.814-59.833,25.6-84.992c-9.159-22.262-12.479-46.495-9.643-70.4
			c0.427-2.901,0.853-4.864,1.024-5.632l-4.693-0.256c1.024-0.768,2.133-1.536,3.243-2.304h0.171
			c13.364-8.84,28.878-13.884,44.885-14.592c-4.309,16.633-4.456,34.071-0.427,50.773c0,0,46.848-56.235,113.237-51.627
			c-8.527,4.252-16.239,9.971-22.784,16.896c-1.977,2.123-3.776,4.407-5.376,6.827l-0.085,0.085
			c-4.067,5.825-6.992,12.369-8.619,19.285c0,0,106.411-50.944,145.067-20.395l3.584,0.597
			c-2.109,16.331,2.789,32.791,13.483,45.312c1.256-5.871,2.881-11.656,4.864-17.323l3.669,0.341c0,0,32.427,8.021,26.112,79.531
			c5.687-2.922,12.349-3.289,18.323-1.01c5.974,2.279,10.698,6.99,12.995,12.957C409.217,292.961,405.462,325.985,384.641,332.385z"
			/>
		<path style="fill:#FFECB3;" d="M384.641,332.385c-3.101,9.226-10.924,16.071-20.48,17.92c-3.754,0.538-7.575,0.364-11.264-0.512
			c-3.092,14.781-10.007,28.492-20.053,39.765c-16.612,14.769-35.264,27.069-55.381,36.523
			c-26.436,12.795-55.547,19.085-84.907,18.347c-2.816,0-5.632-0.171-8.533-0.427c-102.4-8.533-145.067-76.459-145.067-127.488
			c-0.098-30.245,8.814-59.833,25.6-84.992c-9.159-22.262-12.479-46.495-9.643-70.4c8.858-3.244,18.145-5.17,27.563-5.717
			c-4.309,16.633-4.456,34.071-0.427,50.773c5.315-6.061,11.139-11.656,17.408-16.725c24.917-22.024,56.862-34.457,90.112-35.072
			c1.877,0,3.755,0.085,5.717,0.171c-3.823,2.003-7.527,4.225-11.093,6.656l-0.085,0.085c-12.772,8.514-21.926,21.469-25.685,36.352
			c0,0,106.411-50.944,145.067-20.395l3.584,0.597c-2.109,16.331,2.789,32.791,13.483,45.312c1.256-5.871,2.881-11.656,4.864-17.323
			l3.669,0.341c0,0,32.427,8.021,26.112,79.531c5.687-2.922,12.349-3.289,18.323-1.01c5.974,2.279,10.698,6.99,12.995,12.957
			C390.134,309.075,389.467,321.421,384.641,332.385z"/>
		<path style="fill:#FFE0B2;" d="M277.889,427.02v74.923c-12.971,0.939-27.477,1.536-42.667,1.536s-29.696-0.597-42.667-1.536
			v-57.515c29.36,0.739,58.471-5.552,84.907-18.347L277.889,427.02z"/>
		<g>
			<path style="fill:#2C2F38;" d="M192.556,471.052v30.891c-35.243-2.731-59.733-8.619-59.733-15.445
				C132.822,479.671,157.313,473.697,192.556,471.052z"/>
			<path style="fill:#2C2F38;" d="M337.622,486.497c0,6.827-24.491,12.715-59.733,15.445v-30.891
				C313.132,473.697,337.622,479.671,337.622,486.497z"/>
		</g>
		<g>
			<path style="fill:#02A9F4;" d="M211.548,232.414c2.34,12.673,11.263,23.134,23.408,27.444c12.145,4.31,25.667,1.813,35.471-6.55
				c9.805-8.363,14.403-21.321,12.063-33.994"/>
			<path style="fill:#02A9F4;" d="M88.767,220.459c-3.423,18.538,8.83,36.341,27.368,39.764s36.341-8.83,39.764-27.368"/>
		</g>
		<path style="fill:#37474F;" d="M98.401,335.261c0.092-0.058,0.188-0.108,0.289-0.15c1.37-0.575,3.205,0.155,4.608,0.3
			c3.75,0.386,7.509,0.665,11.278,0.835c7.531,0.344,15.075,0.233,22.592-0.331c14.722-1.001,29.213-4.184,42.999-9.445
			c1.768-0.691,3.52-1.423,5.255-2.194c28.916-12.857,70.598-43.628,94.804-6.946c9.19,15.117,11.418,33.461,6.114,50.339
			c-6.255,20.339-26.204,23.187-45.252,26.174c-25.854,4.053-48.217,20.493-75.836,13.986c-29.195-6.879-49.99-35.476-62.471-59.825
			c-0.978-1.907-1.641-3.95-2.448-5.931C99.775,340.704,96.358,336.567,98.401,335.261z"/>
	</g>
	<g>
		<path d="M249.99,3.145C193.874-3.063,116.682,1.204,67.707,56.979c-62.258,70.854-45.112,125.038-44.35,127.309
			c1.144,3.374,4.262,5.684,7.823,5.796s6.818-1.997,8.173-5.292c1.886-3.968,4.275-7.677,7.108-11.035
			c-0.573,19.669,2.67,39.263,9.55,57.698c-16.062,25.839-24.57,55.658-24.562,86.083c0,49.554,40.717,126.654,152.896,135.963
			c0.239,0.02,0.466,0.01,0.704,0.029v10.69c-59.563,5.601-59.733,17.884-59.733,23.265c0,22.212,69.504,25.529,110.933,25.529
			s110.933-3.317,110.933-25.529c0-5.38-0.171-17.664-59.733-23.265v-31.791c20.535-10.436,39.526-23.663,56.433-39.307
			c6.003-0.067,19.999,14.035,30.129,30.791c1.541,2.552,4.307,4.109,7.287,4.105c4.69,0.002,8.506-3.777,8.55-8.467
			c0.012-1.258,0.696-31.179,31.621-61.979c16.645-17.902,29.022-39.339,36.204-62.705c0.283,4.608,0.442,9.412,0.442,14.171
			c-0.001,3.955,2.717,7.392,6.565,8.304s7.819-0.94,9.593-4.475c21.662-45.93,22.801-98.898,3.133-145.717
			c-9.529-24.349-23.694-46.616-41.708-65.567c-3.425-3.583-6.755-6.716-10.05-9.625c11.54-1.889,26.485-1.69,33.908,9.392
			c2.635,3.881,7.908,4.907,11.806,2.299c3.898-2.609,4.96-7.875,2.378-11.79c-11.346-16.945-30.696-19.046-46.213-17.366
			c5.484-12.112,7.186-25.597,4.883-38.692c-0.736-4.649-5.098-7.823-9.748-7.095s-7.832,5.085-7.111,9.736
			c2.407,12.721-0.452,25.874-7.923,36.448C375.35,34.681,323.776,11.189,249.99,3.145z M185.049,481.339v12.27
			c-12.219-0.979-24.33-3.019-36.196-6.097C160.702,484.344,172.819,482.277,185.049,481.339L185.049,481.339z M323.645,487.512
			c-11.866,3.078-23.977,5.118-36.196,6.097v-12.27C299.678,482.277,311.795,484.344,323.645,487.512L323.645,487.512z
			 M270.382,494.95c-10.191,0.607-21.482,0.996-34.133,0.996c-12.652,0-23.942-0.389-34.133-0.996v-40.932
			c23.417-0.394,46.561-5.108,68.267-13.905V494.95z M461.528,173.408c12.234,30.052,15.683,62.96,9.946,94.896
			c-0.994-5.975-3.523-11.59-7.338-16.296c-2.287-2.276-5.662-3.067-8.722-2.045c-3.06,1.022-5.283,3.681-5.745,6.875
			c-0.083,0.567-8.592,57.125-40.242,88.642c-15.075,14.553-26.322,32.604-32.742,52.55c-5.474-7.104-12.154-13.189-19.736-17.98
			c3.06-3.338,5.003-5.665,5.419-6.183c1.91-2.377,2.406-5.593,1.303-8.436c-1.104-2.843-3.64-4.88-6.654-5.346
			c-3.014-0.465-6.047,0.712-7.957,3.09c-0.631,0.794-62.887,76.896-155.175,73.774c-0.107-0.004-0.196-0.061-0.304-0.061
			c-0.061,0-0.111,0.033-0.171,0.034c-2.534-0.093-5.079-0.214-7.658-0.43C85.065,428.137,48.515,360.775,48.515,317.537
			c-0.022-28.377,8.282-56.138,23.883-79.842c1.797-2.387,2.215-5.54,1.1-8.312c-0.973-2.423-1.859-4.816-2.658-7.178
			c0.111,0.025,0.194,0.102,0.308,0.123l8.431,1.557c-0.015,0.07-0.064,0.122-0.077,0.193c-2.058,11.128,0.391,22.617,6.807,31.939
			c6.416,9.322,16.273,15.713,27.402,17.765c2.588,0.479,5.214,0.72,7.846,0.721c20.54-0.053,38.129-14.73,41.859-34.929
			c0.013-0.071-0.015-0.137-0.004-0.207l8.433,1.557c0.514,0.094,1.036,0.141,1.558,0.142c4.409-0.005,8.089-3.368,8.489-7.76
			c0.4-4.391-2.612-8.364-6.948-9.165L74.249,205.545c-2.718-0.467-5.492,0.432-7.42,2.404c-3.958-16.299-4.472-33.244-1.51-49.754
			c7.612-4.373,15.919-7.403,24.559-8.957c-1.744,14.17-1.103,28.532,1.896,42.49c0.638,3.227,3.073,5.799,6.26,6.613
			c3.187,0.814,6.558-0.276,8.665-2.801c20.789-23.04,48.053-39.265,78.219-46.548c-8.191,8.54-13.958,19.109-16.706,30.619
			c-0.757,3.199,0.39,6.548,2.95,8.611c2.56,2.063,6.077,2.472,9.041,1.051c28.181-13.498,107.313-43.564,135.815-21.567
			c-0.084,16.223,5.51,31.965,15.815,44.496c2.022,2.685,5.432,3.933,8.71,3.188c3.278-0.746,5.812-3.346,6.474-6.642
			c0.545-2.712,1.228-5.39,1.968-8.028c6.673,5.202,18.84,20.783,16.119,63.153c-1.945,0.941-3.831,2-5.646,3.17
			c-3.905,2.638-4.932,7.943-2.294,11.848c2.638,3.905,7.943,4.932,11.848,2.294c5.634-3.9,12.503-5.595,19.304-4.763
			c3.99,1.447,7.108,4.625,8.479,8.642c3.325,11.874,1.167,24.613-5.883,34.729c-4.264,5.472-11.492,7.699-18.096,5.575
			c-4.594-1.005-9.135,1.897-10.152,6.488s1.872,9.14,6.46,10.17c2.947,0.667,5.958,1.009,8.979,1.021
			c10.152,0.112,19.78-4.503,26.05-12.488c11.047-15.155,14.101-34.711,8.2-52.512c-3.372-8.679-10.535-15.333-19.437-18.058
			c-3.412-0.915-6.955-1.24-10.476-0.961c1.813-51.337-17.409-69.037-27.42-74.705c3.239-6.731,6.669-11.208,9.229-11.208
			c4.713,0,8.533-3.82,8.533-8.533c0-4.713-3.82-8.533-8.533-8.533c-14.079,0-22.988,15.025-28.229,29.025
			c-4.549-10.562-4.098-22.612,1.229-32.804c2.577-3.927,1.496-9.199-2.42-11.794c-3.915-2.595-9.192-1.538-11.805,2.365
			c-1.377,2.228-2.532,4.586-3.447,7.041c-33.8-17.502-93.394,1.823-125.624,14.793c11.146-12.726,25.94-21.712,42.371-25.737
			c4.61-0.978,7.555-5.508,6.577-10.119s-5.508-7.555-10.119-6.577c-7.351,1.772-14.486,4.342-21.278,7.664
			c-48.66-2.377-86.656,24.932-105.301,41.882c-1.126-10.764-0.044-21.644,3.179-31.975c1.273-4.139,3.391-7.968,6.221-11.246
			l-0.004,0.004c3.576-3.07,3.986-8.457,0.917-12.033c-3.07-3.576-8.457-3.986-12.033-0.917c-4.546,4.469-8.022,9.908-10.17,15.91
			c-15.238,1.443-29.899,6.556-42.73,14.903c-0.268,0.143-0.528,0.3-0.779,0.471c-4.713,3.2-9.086,6.875-13.05,10.967
			c1.087-19.608,9.246-51.47,42.775-89.629C124.653,18,196.015,14.329,248.124,20.112c69.717,7.6,117.821,29.342,147.008,66.417
			c1.633,2.113,3.267,4.308,4.692,6.321c0.318,0.378,0.659,0.734,1.023,1.068c0.252,0.303,0.526,0.589,0.818,0.854
			c1.488,1.444,3.135,2.714,4.909,3.786c0.542,0.306,1.067,0.643,1.571,1.008c5.433,4.203,10.526,8.827,15.233,13.829
			C439.86,130.741,452.816,151.123,461.528,173.408L461.528,173.408z M96.283,226.97l50.428,9.313
			c-0.015,0.071-0.065,0.124-0.078,0.196c-2.585,13.885-15.927,23.054-29.816,20.488s-23.076-15.896-20.529-29.788
			C96.299,227.107,96.271,227.042,96.283,226.97z"/>
		<path d="M297.999,202.095L191.586,221.75c-4.337,0.8-7.349,4.774-6.949,9.166c0.4,4.392,4.081,7.756,8.491,7.759
			c0.523,0,1.044-0.048,1.558-0.142l9.483-1.752c0.023,0.243-0.057,0.47-0.012,0.714c2.87,15.695,13.904,28.661,28.937,34.006
			c15.033,5.344,31.776,2.251,43.908-8.11c12.132-10.362,17.806-26.415,14.88-42.099c-0.045-0.243-0.201-0.427-0.265-0.661
			l9.481-1.751c4.635-0.856,7.698-5.307,6.842-9.942C307.084,204.303,302.633,201.24,297.999,202.095L297.999,202.095z
			 M253.02,256.475c-14.952,2.747-29.305-7.132-32.079-22.079c-0.045-0.244-0.201-0.428-0.266-0.663l54.436-10.054
			c0.023,0.242-0.057,0.469-0.012,0.713C277.844,239.344,267.966,253.697,253.02,256.475L253.02,256.475z"/>
		<path d="M151.711,307.958c0.626,0.147,1.266,0.221,1.908,0.221c3.96-0.014,7.396-2.736,8.317-6.588
			c0.724-3.39,2.734-6.367,5.608-8.304c3.087-1.308,7.829,1.067,10.379,2.596c2.614,1.573,5.869,1.63,8.537,0.149
			c2.668-1.48,4.342-4.272,4.391-7.323c0.049-3.05-1.534-5.895-4.153-7.46c-7.497-5.463-17.225-6.824-25.933-3.629
			c-7.901,4.106-13.571,11.51-15.475,20.208C144.277,302.397,147.147,306.925,151.711,307.958L151.711,307.958z"/>
		<path d="M197.599,310.316c-5.125,2.608-10.05,5.121-14.642,7.163c-27.823,11.219-58.24,14.389-87.779,9.15
			c-4.491-0.686-8.733,2.268-9.647,6.719c-0.914,4.451,1.819,8.837,6.218,9.977c1.078,1.746,1.971,3.599,2.667,5.53
			c0.621,1.529,1.204,2.933,1.771,4.042c12.817,25.004,35.033,56.446,68.108,64.237c4.934,1.167,9.988,1.755,15.058,1.75
			c13.373-0.645,26.541-3.541,38.95-8.567c8.396-3.163,17.06-5.562,25.887-7.167c19.412-3.038,43.571-6.817,51.308-31.971
			c6.09-19.31,3.48-40.313-7.15-57.546C263.899,276.57,224.003,296.875,197.599,310.316z M279.182,366.162
			c-4.288,13.954-17.075,16.912-38.417,20.25c-9.544,1.755-18.914,4.353-28,7.763c-14.979,5.137-29.121,9.962-44.554,6.35
			c-27.904-6.575-47.354-37.042-56.6-54.958c26.717,2.169,53.565-2.117,78.279-12.496c4.846-2.15,10.042-4.792,15.45-7.546
			c31.842-16.192,53.821-25.133,68.767-2.492C281.885,336.023,283.732,351.721,279.182,366.162z"/>
	</g>
</g>
<g>
</g>
<g>
</g>
<g>
</g>
<g>
</g>
<g>
</g>
<g>
</g>
<g>
</g>
<g>
</g>
<g>
</g>
<g>
</g>
<g>
</g>
<g>
</g>
<g>
</g>
<g>
</g>
<g>
</g>
</svg>
