<?xml version="1.0" encoding="iso-8859-1"?>
<!-- Generator: Adobe Illustrator 19.0.0, SVG Export Plug-In . SVG Version: 6.00 Build 0)  -->
<svg version="1.1" id="Capa_1" xmlns="http://www.w3.org/2000/svg" xmlns:xlink="http://www.w3.org/1999/xlink" x="0px" y="0px"
	 viewBox="0 0 512.024 512.024" style="enable-background:new 0 0 512.024 512.024;" xml:space="preserve">
<g transform="translate(0 -1)">
	<g transform="translate(1 2)">
		<path style="fill:#FDD834;" d="M469.467,348.89c0,0,51.883,68.267-8.533,136.533c-2.914-2.419-5.651-5.043-8.192-7.851
			c-40.107-43.691-17.408-118.187-17.408-118.187V323.29c-4.416-5.103-8.492-10.491-12.203-16.128
			c-3.996,10.83-9.116,21.212-15.275,30.976c-4.447,7.213-9.716,13.885-15.701,19.883c-14.357,13.79-24.985,30.994-30.891,50.005
			c-3.267,10.72-13.199,18.013-24.405,17.92h-69.205v44.117c35.243,2.645,59.733,8.619,59.733,15.445
			c0,4.693-11.605,8.96-30.293,12.032c-8.448,1.365-18.432,2.56-29.44,3.413c-12.971,0.939-27.477,1.536-42.667,1.536
			c-15.189,0-29.696-0.597-42.667-1.536c-18.788-0.476-37.376-3.992-55.04-10.411c-3.072-1.536-4.694-3.243-4.694-5.035
			c0-5.035,13.141-9.557,34.133-12.629c7.595-1.195,16.213-2.133,25.6-2.816V443.44c-2.816,0-5.717-0.256-8.533-0.427
			C71.387,434.479,28.72,366.554,28.72,315.525c-0.098-30.245,8.814-59.833,25.6-84.992c-10.118-23.99-13.11-50.386-8.619-76.032
			l-4.693-0.256c-8.963,6.584-16.147,15.293-20.907,25.344c-0.368-1.144-0.653-2.314-0.853-3.499v-0.085
			c-0.256-1.195-0.512-2.731-0.768-4.523c-2.133-16.896-1.365-58.88,44.288-110.848c4.625-5.323,9.676-10.26,15.104-14.763
			C121.222,9.605,182.406,3.546,237.702,9.605c56.917,6.229,115.968,22.869,152.832,69.717c0.427,0.597,0.939,1.195,1.365,1.792
			c61.099,22.869,139.776,82.176,77.568,233.643V348.89z"/>
		<path style="fill:#FFEB3A;" d="M443.867,365.957c0,0,39.936,52.565,8.875,111.616c-40.107-43.691-17.408-118.187-17.408-118.187
			V323.29c-4.416-5.103-8.492-10.491-12.203-16.128c-3.996,10.83-9.116,21.212-15.275,30.976
			c-3.714-4.428-7.162-9.073-10.325-13.909c-6.646,18.937-17.2,36.265-30.976,50.859c-14.357,13.79-24.985,30.994-30.891,50.005
			c-0.076,0.298-0.191,0.585-0.341,0.853h-67.669v17.067h-25.6v44.117c18.798,0.389,37.399,3.907,55.04,10.411
			c-8.448,1.365-18.432,2.56-29.44,3.413c-12.971,0.939-27.477,1.536-42.667,1.536c-15.189,0-29.696-0.597-42.667-1.536
			c-18.788-0.476-37.376-3.992-55.04-10.411c8.448-1.451,18.432-2.56,29.44-3.413v-14.251c7.595-1.195,16.213-2.133,25.6-2.816
			V443.44c-2.816,0-5.717-0.256-8.533-0.427c-102.4-8.533-145.067-76.459-145.067-127.488c-0.098-30.245,8.814-59.833,25.6-84.992
			c-10.118-23.99-13.11-50.386-8.619-76.032l-4.693-0.256c-8.963,6.584-16.147,15.293-20.907,25.344
			c-0.368-1.144-0.653-2.314-0.853-3.499v-0.085c0.427-2.219,0.683-3.755,0.853-4.437l-1.621-0.085
			c-2.133-16.896-1.365-58.88,44.288-110.848c4.625-5.323,9.676-10.26,15.104-14.763c40.021-21.077,89.088-24.149,134.229-19.2
			c56.917,6.229,115.968,22.869,152.832,69.717c0.427,0.597,0.939,1.195,1.365,1.792c61.099,22.869,139.776,82.176,77.568,233.643
			V365.957z"/>
		<path style="fill:#FFE0B2;" d="M365.361,332.506c-1.93-0.02-3.85-0.278-5.717-0.768c-0.477,4.297-1.509,8.513-3.072,12.544
			c-4.756,11.382-11.52,21.816-19.968,30.805c-12.028,12.991-25.68,24.377-40.619,33.877c-3.755,2.475-7.509,4.864-11.435,7.083
			c-6.078,3.579-12.345,6.826-18.773,9.728c-26.068,12.292-54.643,18.34-83.456,17.664c-2.816,0-5.717-0.256-8.533-0.427
			c-102.4-8.533-145.067-76.459-145.067-127.488c-0.098-30.245,8.814-59.833,25.6-84.992c-9.583-23.107-12.767-48.368-9.216-73.131
			c0.256-1.451,0.512-2.389,0.597-2.901l-4.693-0.256c1.024-0.768,2.133-1.536,3.243-2.304h0.171
			c13.338-8.828,28.821-13.871,44.8-14.592c-3.901,14.508-4.427,29.716-1.536,44.459c0.341,2.048,0.683,4.181,1.109,6.315
			c5.447-6.908,11.659-13.178,18.517-18.688c24.747-20.48,74.155-47.701,147.285-26.027c4.161,11.132,4.933,23.246,2.219,34.816
			c11.625,1.757,23.447,1.757,35.072,0c21.675,1.195,72.619,12.459,67.499,90.453c9.045-3.925,25.429-7.765,33.877,10.923
			C399.579,293.594,394.033,333.957,365.361,332.506z"/>
		<path style="fill:#FFECB3;" d="M365.361,332.506c-1.981,4.552-4.989,8.582-8.789,11.776c-6.346,5.041-14.728,6.724-22.528,4.523
			c-3.143,16.439-11.173,31.547-23.04,43.349c-8.005,8.82-16.867,16.824-26.453,23.893c-6.078,3.579-12.345,6.826-18.773,9.728
			c-26.068,12.292-54.643,18.34-83.456,17.664c-2.816,0-5.717-0.256-8.533-0.427c-102.4-8.533-145.067-76.459-145.067-127.488
			c-0.098-30.245,8.814-59.833,25.6-84.992c-9.583-23.107-12.767-48.368-9.216-73.131c6.055-1.621,12.26-2.622,18.517-2.987
			c-4.309,16.633-4.456,34.071-0.427,50.773c7.052-8.881,15.293-16.748,24.491-23.381c6.194-4.653,12.758-8.791,19.627-12.373
			c27.733-14.592,68.437-24.747,121.685-8.96c4.161,11.132,4.933,23.246,2.219,34.816c11.625,1.757,23.447,1.757,35.072,0
			c21.675,1.195,72.619,12.459,67.499,90.453c9.045-3.925,25.429-7.765,33.877,10.923
			C371.374,308.484,370.553,321.26,365.361,332.506z"/>
		<path style="fill:#FFE0B2;" d="M267.654,425.946v75.008c-12.971,0.939-27.477,1.536-42.667,1.536
			c-15.189,0-29.696-0.597-42.667-1.536V443.44c28.813,0.676,57.388-5.372,83.456-17.664l0.085,0.171H267.654z"/>
		<g>
			<path style="fill:#2C2F38;" d="M182.321,470.064v30.891c-35.243-2.731-59.733-8.619-59.733-15.445
				C122.587,478.682,147.078,472.709,182.321,470.064z"/>
			<path style="fill:#2C2F38;" d="M327.387,485.509c0,6.827-24.491,12.715-59.733,15.445v-30.891
				C302.897,472.709,327.387,478.682,327.387,485.509z"/>
		</g>
		<polygon style="fill:#DF4D60;" points="469.467,314.757 469.467,348.89 435.334,357.423 435.334,323.29 		"/>
		<path style="fill:#37474F;" d="M162.268,301.123c-4.481-1.189-8.848-2.77-13.051-4.725c-19.004-8.53-43.615-12.723-58.224,5.916
			c-9.835,13.725-14.496,30.487-13.158,47.319c0.994,12.234,6.828,25.482,20.696,25.482c25.037,0,52.261-12.772,76.787-4.587
			c17.489,5.837,36.022,19.951,55.34,13.335c8.548-3.305,15.512-9.749,19.469-18.016c6.795-13.936,8.982-29.672,6.245-44.933
			c-1.21-7.881-5.122-15.096-11.065-20.411c-11.506-7.921-25.99-10.176-39.359-6.128c-7.464,2.026-14.622,5.137-22.146,6.919
			C176.721,303.026,169.321,302.968,162.268,301.123z"/>
	</g>
	<g>
		<path d="M20.862,190.119l0.246,0.004c3.489,0.001,6.626-2.123,7.921-5.363c1.89-3.976,4.287-7.69,7.131-11.051
			c-0.581,19.688,2.662,39.302,9.549,57.755c-16.062,25.839-24.571,55.659-24.563,86.084c0,49.554,40.717,126.654,152.896,135.963
			c0.239,0.02,0.466,0.01,0.704,0.029v10.69c-59.563,5.601-59.733,17.884-59.733,23.265c0,22.212,69.504,25.529,110.933,25.529
			s110.933-3.317,110.933-25.529c0-5.38-0.171-17.664-59.733-23.265v-27.752h60.692c14.968,0.025,28.196-9.731,32.596-24.038
			c5.542-17.622,15.427-33.566,28.746-46.367c11.264-11.622,20.399-25.133,26.986-39.916c0.557,0.695,1.069,1.388,1.643,2.083
			v31.183c0,0.147,0.09,0.274,0.097,0.42c-2.844,9.916-23.969,90.67,28.361,133.944l0.021,0.028l0.033,0.02l0.209,0.184
			c0.497,0.359,1.033,0.661,1.597,0.901c0.296,0.192,0.604,0.365,0.922,0.519c2.084,0.769,4.388,0.678,6.404-0.254
			c0.344-0.217,0.673-0.457,0.984-0.72c0.696-0.369,1.335-0.836,1.897-1.388l0.197-0.236l0.007-0.006l0.005-0.009
			c57.358-65.088,19.342-131.092,10.466-144.575v-29.89c29.498-72.75,30.293-132.599,2.288-177.89
			c-19.928-30.013-49.129-52.681-83.146-64.544C365.951,35.091,314.1,11.273,239.641,3.123
			C183.47-3.055,106.266,1.278,57.362,57.003c-62.254,70.883-45.104,125.029-44.346,127.3
			C14.153,187.695,17.286,190.017,20.862,190.119z M174.745,481.351v12.27c-12.219-0.979-24.33-3.019-36.196-6.097
			C150.399,484.355,162.516,482.288,174.745,481.351L174.745,481.351z M191.812,494.961v-40.932
			c23.417-0.394,46.561-5.108,68.267-13.905v54.836c-10.191,0.607-21.482,0.996-34.133,0.996S202.003,495.568,191.812,494.961
			L191.812,494.961z M313.341,487.524c-11.866,3.078-23.977,5.118-36.196,6.097v-12.27
			C289.375,482.288,301.492,484.355,313.341,487.524L313.341,487.524z M387.141,353.97c-15.344,14.819-26.716,33.258-33.071,53.621
			c-2.226,7.079-8.813,11.875-16.233,11.821h-38.033c19.514-12.593,37.115-27.928,52.262-45.533c1.91-2.377,2.406-5.593,1.303-8.436
			c-1.104-2.843-3.64-4.88-6.654-5.346c-3.014-0.465-6.047,0.712-7.957,3.09c-0.635,0.794-62.862,76.897-155.177,73.773
			c-0.106-0.004-0.195-0.061-0.303-0.061c-0.06,0-0.11,0.033-0.171,0.034c-2.534-0.093-5.08-0.215-7.658-0.43
			C74.762,428.148,38.212,360.786,38.212,317.548c-0.022-28.377,8.282-56.138,23.883-79.842c1.797-2.387,2.215-5.54,1.1-8.312
			c-9.458-22.478-12.293-47.192-8.171-71.228c7.607-4.342,15.897-7.359,24.516-8.921c-1.747,14.184-1.107,28.56,1.892,42.532
			c0.655,3.325,3.216,5.947,6.525,6.679c0.606,0.132,1.225,0.199,1.846,0.2c2.724,0.001,5.285-1.3,6.892-3.5
			c0.521-0.71,52.445-69.784,152.025-42.77c2.638,8.127,2.987,16.824,1.009,25.136c-0.79,2.368-0.504,4.962,0.784,7.101
			c1.287,2.138,3.446,3.606,5.908,4.016c6.656,1.048,13.383,1.575,20.121,1.575c5.606,0.002,11.202-0.466,16.73-1.4
			c16.244,0.598,31.616,7.496,42.861,19.233c11.507,12.983,16.795,32.283,15.91,57.265c-1.441,0.813-2.527,1.496-2.89,1.743
			c-3.905,2.638-4.932,7.943-2.294,11.848c2.638,3.905,7.943,4.932,11.848,2.294c5.634-3.899,12.503-5.594,19.304-4.763
			c3.99,1.447,7.108,4.625,8.479,8.642c3.325,11.874,1.167,24.613-5.883,34.729c-4.265,5.471-11.492,7.697-18.096,5.575
			c-4.593-1.003-9.132,1.899-10.149,6.489s1.871,9.138,6.457,10.169c2.947,0.667,5.958,1.009,8.979,1.021
			c10.152,0.113,19.779-4.503,26.05-12.488c8.021-11.082,11.947-24.603,11.11-38.257c2.816,6.075,6.016,11.965,9.58,17.633
			C408.469,326.321,399.15,341.294,387.141,353.97L387.141,353.97z M444.875,331.954l17.067-4.267v16.541l-17.067,4.267V331.954z
			 M461.189,474.912c-33.807-35.492-20.567-96.072-17.342-108.568l22.92-5.73C489.925,395.882,487.671,442.066,461.189,474.912
			L461.189,474.912z M70.187,68.265c44.058-50.217,115.458-53.921,167.592-48.175c55.539,6.079,97.31,21.144,126.668,45.598
			c-9.832-2.331-19.815-3.971-29.876-4.907c-4.699-0.349-8.791,3.178-9.14,7.877c-0.349,4.699,3.178,8.791,7.877,9.14
			c0.933,0.071,94.063,7.808,133.521,71.733c24.638,39.908,23.746,93.729-2.637,160l-24.717,6.179
			c-43.275-53.796-29.038-105.267-28.404-107.458c0.868-2.922,0.111-6.085-1.986-8.298c-2.097-2.213-5.215-3.139-8.179-2.429
			c-2.965,0.709-5.325,2.947-6.193,5.869c-5.088,21.698-4.489,44.341,1.736,65.74c-3.595-4.359-8.415-7.54-13.836-9.132
			c-4.348-1.153-8.891-1.379-13.332-0.665c1.157-22.666-6.097-44.961-20.372-62.606c-8.154-9.084-18.486-15.942-30.023-19.93
			c3.053-3.091,5.367-6.832,6.769-10.945c0.965-2.892,0.313-6.08-1.71-8.361c-2.023-2.282-5.109-3.311-8.096-2.7
			c-2.987,0.611-5.422,2.769-6.386,5.661c-4.087,12.267-26.888,13.338-41.542,12.321c2.217-27.429-17.337-61.033-19.846-65.213
			c-2.425-4.041-7.667-5.35-11.708-2.925c-4.041,2.425-5.35,7.667-2.925,11.708c3.167,5.421,6,11.031,8.483,16.798
			c-52.011-12.501-106.83,1.808-146.095,38.135c-1.023-10.598,0.067-21.293,3.209-31.467c1.29-4.19,3.456-8.057,6.354-11.346
			c3.465-3.128,3.774-8.459,0.694-11.966c-3.081-3.507-8.408-3.888-11.956-0.854c-4.534,4.468-8.005,9.897-10.159,15.886
			c-15.22,1.46-29.866,6.558-42.703,14.864c-0.282,0.148-0.554,0.312-0.817,0.492c-4.706,3.21-9.075,6.89-13.037,10.983
			C28.508,138.274,36.67,106.423,70.187,68.265z"/>
		<path d="M251.754,295.932c-13.639-9.71-30.995-12.586-47.038-7.796c-3.541,0.962-7.017,2.146-10.487,3.337
			c-3.942,1.354-7.663,2.629-11.4,3.513c-5.746,1.427-11.76,1.38-17.483-0.137c-3.994-1.07-7.886-2.486-11.633-4.233
			c-29.071-13.05-54.013-9.975-68.437,8.433c-11.142,15.422-16.438,34.304-14.942,53.271c1.642,20.246,13.104,33.329,29.2,33.329
			c10.269-0.328,20.486-1.593,30.525-3.779c15.617-2.904,30.375-5.658,43.558-1.246c4.614,1.651,9.142,3.534,13.567,5.642
			c10.48,5.67,22.051,9.036,33.937,9.871c4.525,0.01,9.02-0.733,13.3-2.2c10.659-3.976,19.364-11.927,24.287-22.183
			c7.671-15.609,10.143-33.264,7.054-50.379C264.202,311.519,259.247,302.519,251.754,295.932z M243.537,363.936
			c-2.952,6.305-8.186,11.254-14.646,13.85c-10.892,3.733-22.437-1.508-34.65-7.058c-4.963-2.357-10.043-4.458-15.221-6.296
			c-6.764-2.192-13.84-3.268-20.95-3.187c-10.474,0.327-20.895,1.614-31.133,3.846c-9.012,1.983-18.183,3.151-27.404,3.492
			c-9.983,0-11.854-13.5-12.192-17.642c-1.15-14.691,2.87-29.322,11.366-41.362c12.575-16.05,35.479-9.025,48.017-3.392
			c4.657,2.162,9.497,3.906,14.462,5.213c8.379,2.17,17.164,2.238,25.575,0.196c4.55-1.075,8.85-2.55,13.004-3.975
			c3.121-1.071,6.238-2.146,9.421-3.012c10.699-3.253,22.288-1.62,31.671,4.463c4.404,4.034,7.274,9.471,8.121,15.383
			C251.363,337.859,249.459,351.675,243.537,363.936z"/>
		<path d="M129.825,265.557c0,4.713,3.82,8.533,8.533,8.533c4.713,0,8.533-3.82,8.533-8.533c0.027-3.425,1.326-6.718,3.646-9.238
			c2.717-1.971,7.888-0.683,10.721,0.267c4.471,1.491,9.305-0.925,10.796-5.396c1.491-4.471-0.925-9.305-5.396-10.796
			c-8.502-3.706-18.292-2.926-26.1,2.079C133.733,248.194,129.801,256.651,129.825,265.557L129.825,265.557z"/>
		<path d="M83.745,229.715c12.25-8.754,28.709-8.754,40.958,0c2.438,1.829,5.667,2.219,8.471,1.022
			c2.804-1.197,4.756-3.799,5.121-6.825c0.365-3.026-0.912-6.018-3.35-7.847c-18.275-13.442-43.167-13.442-61.442,0
			c-2.438,1.829-3.715,4.821-3.35,7.847c0.365,3.026,2.317,5.628,5.121,6.825C78.078,231.934,81.307,231.545,83.745,229.715
			L83.745,229.715z"/>
		<path d="M202.425,233.745c0.446-0.258,44.771-25.904,65.567,2.696c2.771,3.811,8.106,4.654,11.917,1.883s4.654-8.106,1.883-11.917
			c-23.85-32.808-68.017-19.171-88.033-7.362c-2.635,1.544-4.245,4.378-4.22,7.432c0.025,3.054,1.68,5.862,4.341,7.362
			S199.798,235.303,202.425,233.745L202.425,233.745z"/>
		<path d="M274.891,248.49c-4.401,0.001-8.081,3.349-8.495,7.731s2.572,8.36,6.895,9.186c1.337,2.687,1.891,5.696,1.6,8.683
			c0,4.713,3.82,8.533,8.533,8.533c4.713,0,8.533-3.82,8.533-8.533C291.958,248.782,275.587,248.49,274.891,248.49z"/>
		<path d="M300.491,231.423c-4.66,0.004-8.444,3.766-8.475,8.425c-0.032,4.682,3.694,8.527,8.375,8.642
			c2.339-0.249,4.667,0.566,6.34,2.22c1.673,1.654,2.515,3.972,2.293,6.314c0,4.713,3.82,8.533,8.533,8.533s8.533-3.821,8.533-8.533
			c0.201-6.849-2.431-13.478-7.276-18.324C313.97,233.854,307.341,231.222,300.491,231.423z"/>
	</g>
</g>
<g>
</g>
<g>
</g>
<g>
</g>
<g>
</g>
<g>
</g>
<g>
</g>
<g>
</g>
<g>
</g>
<g>
</g>
<g>
</g>
<g>
</g>
<g>
</g>
<g>
</g>
<g>
</g>
<g>
</g>
</svg>
