<?xml version="1.0" encoding="iso-8859-1"?>
<!-- Generator: Adobe Illustrator 19.0.0, SVG Export Plug-In . SVG Version: 6.00 Build 0)  -->
<svg version="1.1" id="Capa_1" xmlns="http://www.w3.org/2000/svg" xmlns:xlink="http://www.w3.org/1999/xlink" x="0px" y="0px"
	 viewBox="0 0 512.012 512.012" style="enable-background:new 0 0 512.012 512.012;" xml:space="preserve">
<g transform="translate(0 -1)">
	<g transform="translate(1 1)">
		<path style="fill:#F57C00;" d="M465.622,308.065c-0.06-10.76-0.801-21.505-2.219-32.171c-0.436-6.727-2.612-13.225-6.315-18.859
			c-2.206,13.295-5.663,26.352-10.325,38.997c-6.711,20.301-17.745,38.904-32.341,54.528
			c-34.133,33.963-34.133,67.925-34.133,67.925c-2.82-4.579-5.897-8.995-9.216-13.227c-8.619-11.264-21.845-25.003-32.256-21.163
			l-0.683,0.683c-17.935,16.861-38.409,30.798-60.672,41.301l0.427,0.939v44.032c35.243,2.645,59.733,8.619,59.733,15.445
			c0,4.181-9.045,7.936-24.064,10.923c-11.8,2.144-23.707,3.654-35.669,4.523c-12.971,0.939-27.477,1.536-42.667,1.536
			c-15.189,0-29.696-0.597-42.667-1.536c-17.92-0.687-35.662-3.817-52.736-9.301c-4.523-1.877-6.997-4.011-6.997-6.144
			c0-5.632,16.811-10.752,42.667-13.739c5.291-0.682,11.008-1.28,17.067-1.707v-26.624c-2.816,0-5.632-0.171-8.533-0.427
			c-102.4-8.533-145.067-76.459-145.067-127.488c-0.098-30.245,8.814-59.833,25.6-84.992c-10.118-23.99-13.11-50.386-8.619-76.032
			l-4.693-0.256c-6.279,4.823-11.751,10.612-16.213,17.152c-1.778,2.587-3.32,5.329-4.608,8.192
			c-0.443-1.396-0.785-2.822-1.024-4.267c-2.56-13.397-5.803-56.832,41.387-112.043c0.768-0.853,1.537-1.792,2.304-2.645
			c43.349-49.408,112.896-57.856,174.933-51.029c54.869,5.973,111.701,21.675,148.736,64.768c1.365,1.536,2.731,3.158,4.011,4.864
			c7.579-6.643,12.516-15.79,13.909-25.771v-0.171c0.868-5.572,0.839-11.247-0.085-16.811c-0.502-3.016,0.653-6.07,3.026-7.999
			c2.373-1.929,5.598-2.437,8.449-1.329s4.888,3.659,5.336,6.684c2.319,13.081,0.623,26.557-4.864,38.656
			c15.531-1.707,34.901,0.427,46.165,17.408c1.272,1.862,1.745,4.157,1.312,6.37c-0.433,2.213-1.735,4.161-3.616,5.406
			c-1.4,0.976-3.073,1.484-4.779,1.451c-2.843,0.024-5.507-1.388-7.083-3.755c-6.997-10.411-20.565-11.264-31.744-9.728
			c-4.27,0.608-8.49,1.52-12.629,2.731c5.098,4.019,9.89,8.411,14.336,13.141c0.853,0.939,1.792,1.877,2.56,2.816h0.085
			c16.005,17.54,28.645,37.875,37.291,59.989C487.256,213.864,486.232,264.315,465.622,308.065z"/>
		<path style="fill:#FF9801;" d="M463.404,275.895c-0.436-6.727-2.612-13.225-6.315-18.859
			c-2.206,13.295-5.663,26.352-10.325,38.997c-0.332-7.767-2.653-15.319-6.741-21.931c0,0-8.533,59.477-42.667,93.525
			c-11.067,10.765-19.986,23.536-26.283,37.632c-8.619-11.264-21.845-25.003-32.256-21.163l-0.683,0.683
			c-17.935,16.861-38.409,30.798-60.672,41.301l0.427,0.939v6.997c-5.717,3.328-11.52,6.315-17.493,9.131l0.427,0.939v44.032
			c17.929,0.601,35.683,3.732,52.736,9.301c-11.8,2.144-23.707,3.654-35.669,4.523c-12.971,0.939-27.477,1.536-42.667,1.536
			c-15.189,0-29.696-0.597-42.667-1.536c-17.92-0.687-35.662-3.817-52.736-9.301c11.787-2.228,23.699-3.739,35.669-4.523v-15.36
			c5.291-0.682,11.008-1.28,17.067-1.707v-26.624c-2.816,0-5.632-0.171-8.533-0.427c-102.4-8.533-145.067-76.459-145.067-127.488
			c-0.098-30.245,8.814-59.833,25.6-84.992c-10.118-23.99-13.11-50.386-8.619-76.032l-4.693-0.256
			c-6.279,4.823-11.751,10.612-16.213,17.152l-0.853-0.085c-1.707,1.365-3.328,2.645-4.779,4.011
			c-2.56-13.397-5.803-56.832,41.387-112.043C114.134,27.66,175.574,21.601,230.956,27.66
			c56.917,6.229,115.883,22.869,152.747,69.632c6.604-5.71,11.184-13.403,13.056-21.931c1.365,1.536,2.731,3.158,4.011,4.864
			c7.579-6.643,12.516-15.79,13.909-25.771c1.726,12.282-0.08,24.802-5.205,36.096c5.755-0.696,11.575-0.668,17.323,0.085
			c-4.27,0.608-8.49,1.52-12.629,2.731c5.098,4.019,9.89,8.411,14.336,13.141c0.853,0.939,1.792,1.877,2.56,2.816
			c-11.176-3.045-23.009-2.658-33.963,1.109c5.098,4.019,9.89,8.411,14.336,13.141c17.28,18.131,30.846,39.467,39.936,62.805
			C462.844,214.732,466.982,245.52,463.404,275.895L463.404,275.895z"/>
		<path style="fill:#FFE0B2;" d="M375.681,333.495c-1.927-0.062-3.842-0.32-5.717-0.768c-0.882,4.524-2.197,8.953-3.925,13.227
			c-6.087,14.602-15.392,27.64-27.221,38.144l-0.683,0.683c-13.472,12.629-28.362,23.654-44.373,32.853c0,0.085,0,0.085-0.085,0.085
			c-5.291,2.987-10.667,5.803-16.213,8.363c-26.436,12.795-55.547,19.085-84.907,18.347c-2.816,0-5.632-0.171-8.533-0.427
			c-102.4-8.533-145.067-76.459-145.067-127.488c-0.098-30.245,8.814-59.833,25.6-84.992c-9.583-23.107-12.767-48.368-9.216-73.131
			c0.256-1.451,0.512-2.389,0.597-2.901l-4.693-0.256c1.024-0.768,2.133-1.536,3.243-2.304h0.171
			c13.364-8.84,28.878-13.884,44.885-14.592c-3.916,14.801-4.383,30.302-1.365,45.312c0.256,1.792,0.597,3.584,0.939,5.461
			c5.991-6.814,12.588-13.069,19.712-18.688l0.171-0.085c19.712-15.872,52.907-35.669,93.355-32.853
			c-18.055,8.208-31.551,23.985-36.864,43.093c0,0,106.411-50.944,145.067-20.395l3.584,0.597
			c-2.109,16.331,2.789,32.791,13.483,45.312c1.256-5.871,2.881-11.656,4.864-17.323l3.669,0.341c0,0,32.427,8.021,26.112,79.531
			c5.687-2.922,12.349-3.289,18.323-1.01c5.974,2.279,10.698,6.99,12.995,12.957C409.9,294.583,404.353,334.945,375.681,333.495z"/>
		<path style="fill:#FFECB3;" d="M375.681,333.495c-2.099,4.907-5.419,9.196-9.643,12.459c-6.273,4.49-14.241,5.902-21.675,3.84
			c-4.622,20.014-15.538,38.018-31.147,51.371l-0.683,0.683c-5.983,5.581-12.249,10.85-18.773,15.787c0,0.085,0,0.085-0.085,0.085
			c-5.291,2.987-10.667,5.803-16.213,8.363c-26.436,12.795-55.547,19.085-84.907,18.347c-2.816,0-5.632-0.171-8.533-0.427
			c-102.4-8.533-145.067-76.459-145.067-127.488c-0.098-30.245,8.814-59.833,25.6-84.992c-9.583-23.107-12.767-48.368-9.216-73.131
			c6.083-1.628,12.316-2.629,18.603-2.987c-4.309,16.633-4.456,34.071-0.427,50.773c7.407-8.354,15.673-15.905,24.661-22.528
			c6.542-4.921,13.445-9.342,20.651-13.227l0.171-0.085c20.618-11.615,44.127-17.093,67.755-15.787
			c-18.055,8.208-31.551,23.985-36.864,43.093c0,0,106.411-50.944,145.067-20.395l3.584,0.597
			c-2.109,16.331,2.789,32.791,13.483,45.312c1.256-5.871,2.881-11.656,4.864-17.323l3.669,0.341c0,0,32.427,8.021,26.112,79.531
			c5.687-2.922,12.349-3.289,18.323-1.01c5.974,2.279,10.698,6.99,12.995,12.957C381.694,309.473,380.873,322.249,375.681,333.495z"
			/>
		<path style="fill:#FFE0B2;" d="M277.889,427.02v74.923c-12.971,0.939-27.477,1.536-42.667,1.536
			c-15.189,0-29.696-0.597-42.667-1.536v-57.515c29.36,0.739,58.471-5.552,84.907-18.347L277.889,427.02z"/>
		<g>
			<path style="fill:#2C2F38;" d="M192.556,471.052v30.891c-35.243-2.731-59.733-8.619-59.733-15.445
				C132.822,479.671,157.313,473.697,192.556,471.052z"/>
			<path style="fill:#2C2F38;" d="M337.622,486.497c0,6.827-24.491,12.715-59.733,15.445v-30.891
				C313.132,473.697,337.622,479.671,337.622,486.497z"/>
		</g>
		<path style="fill:#37474F;" d="M177.531,302.111c-4.481-1.189-8.848-2.77-13.051-4.725c-19.003-8.53-43.615-12.723-58.224,5.916
			c-9.835,13.725-14.496,30.487-13.158,47.319c0.994,12.234,6.828,25.482,20.696,25.482c25.037,0,52.261-12.772,76.787-4.587
			c17.489,5.837,36.022,19.951,55.34,13.335c8.548-3.305,15.512-9.749,19.469-18.016c6.795-13.936,8.982-29.672,6.245-44.933
			c-1.21-7.881-5.122-15.096-11.065-20.411c-11.506-7.921-25.99-10.176-39.359-6.128c-7.464,2.026-14.622,5.137-22.146,6.919
			C191.984,304.015,184.583,303.956,177.531,302.111z"/>
	</g>
	<g>
		<path d="M477.407,167.15c-9.529-24.349-23.694-46.616-41.708-65.567c-3.424-3.583-6.755-6.715-10.049-9.624
			c11.541-1.89,26.486-1.691,33.908,9.391c2.635,3.881,7.908,4.907,11.806,2.299c3.898-2.609,4.96-7.875,2.378-11.79
			c-11.342-16.946-30.704-19.046-46.213-17.367c5.484-12.112,7.186-25.597,4.883-38.692c-0.736-4.649-5.098-7.823-9.748-7.095
			s-7.832,5.085-7.111,9.736c2.407,12.721-0.452,25.874-7.923,36.448c-32.28-40.208-83.854-63.7-157.64-71.744
			C193.882-3.063,116.682,1.204,67.707,56.979c-62.258,70.854-45.112,125.038-44.35,127.309c1.144,3.374,4.262,5.684,7.823,5.796
			s6.818-1.997,8.173-5.292c1.886-3.968,4.275-7.677,7.108-11.035c-0.573,19.669,2.67,39.263,9.55,57.698
			c-16.062,25.839-24.57,55.658-24.562,86.083c0,49.554,40.717,126.654,152.896,135.963c0.239,0.02,0.466,0.01,0.704,0.029v10.69
			c-59.563,5.601-59.733,17.884-59.733,23.265c0,22.212,69.504,25.529,110.933,25.529s110.933-3.317,110.933-25.529
			c0-5.38-0.171-17.664-59.733-23.265v-31.791c20.535-10.436,39.526-23.663,56.433-39.307c6.035-0.077,19.996,14.029,30.129,30.791
			c1.541,2.552,4.306,4.109,7.287,4.105c4.69,0.002,8.506-3.777,8.55-8.467c0.012-1.258,0.696-31.179,31.621-61.979
			c16.645-17.902,29.022-39.339,36.204-62.705c0.283,4.608,0.442,9.412,0.442,14.171c-0.001,3.955,2.717,7.392,6.565,8.304
			c3.848,0.912,7.819-0.94,9.593-4.475C495.936,266.936,497.075,213.968,477.407,167.15z M185.049,481.339v12.27
			c-12.219-0.979-24.33-3.019-36.196-6.097C160.702,484.344,172.819,482.277,185.049,481.339L185.049,481.339z M323.645,487.512
			c-11.866,3.078-23.977,5.118-36.196,6.097v-12.27C299.678,482.277,311.795,484.344,323.645,487.512L323.645,487.512z
			 M270.382,494.95c-10.191,0.607-21.482,0.996-34.133,0.996s-23.942-0.389-34.133-0.996v-40.932
			c23.417-0.394,46.561-5.108,68.267-13.905V494.95z M471.474,268.304c-0.994-5.975-3.523-11.59-7.338-16.296
			c-2.287-2.276-5.662-3.067-8.722-2.045c-3.06,1.022-5.283,3.681-5.745,6.875c-0.083,0.567-8.592,57.125-40.242,88.642
			c-15.075,14.553-26.322,32.604-32.742,52.55c-5.475-7.103-12.156-13.188-19.738-17.978c3.061-3.339,5.004-5.667,5.421-6.185
			c1.91-2.377,2.406-5.593,1.303-8.436c-1.104-2.843-3.64-4.88-6.654-5.346c-3.014-0.465-6.047,0.712-7.957,3.09
			c-0.631,0.794-62.917,76.895-155.175,73.774c-0.107-0.004-0.196-0.061-0.304-0.061c-0.061,0-0.112,0.034-0.172,0.035
			c-2.534-0.093-5.079-0.215-7.657-0.431C85.065,428.137,48.515,360.775,48.515,317.537c-0.022-28.377,8.282-56.138,23.883-79.842
			c1.797-2.387,2.215-5.54,1.1-8.312c-9.452-22.465-12.29-47.163-8.18-71.187c7.612-4.373,15.919-7.403,24.559-8.957
			c-1.744,14.17-1.103,28.532,1.896,42.49c0.638,3.227,3.073,5.799,6.26,6.613c3.187,0.814,6.558-0.276,8.665-2.801
			c20.794-23.034,48.054-39.257,78.217-46.546c-8.19,8.54-13.956,19.108-16.704,30.617c-0.757,3.199,0.39,6.548,2.95,8.611
			c2.56,2.063,6.077,2.472,9.041,1.051c28.185-13.498,107.313-43.564,135.815-21.567c-0.085,16.223,5.51,31.965,15.815,44.496
			c2.022,2.685,5.432,3.933,8.71,3.188s5.812-3.346,6.474-6.642c0.545-2.712,1.228-5.39,1.968-8.028
			c6.673,5.202,18.84,20.782,16.119,63.152c-1.945,0.941-3.831,2-5.646,3.172c-3.905,2.638-4.932,7.943-2.294,11.848
			c2.638,3.905,7.943,4.932,11.848,2.294c5.634-3.9,12.503-5.595,19.304-4.763c3.99,1.447,7.108,4.625,8.479,8.642
			c3.325,11.874,1.167,24.613-5.883,34.729c-4.265,5.471-11.492,7.698-18.096,5.575c-4.594-1.005-9.135,1.897-10.152,6.488
			s1.872,9.14,6.46,10.17c2.947,0.667,5.958,1.009,8.979,1.021c10.152,0.112,19.78-4.503,26.05-12.488
			c11.047-15.155,14.101-34.711,8.2-52.512c-3.372-8.679-10.535-15.333-19.437-18.058c-3.412-0.914-6.955-1.24-10.476-0.962
			c1.813-51.337-17.409-69.036-27.42-74.705c3.239-6.731,6.669-11.208,9.229-11.208c4.713,0,8.533-3.82,8.533-8.533
			c0-4.713-3.82-8.533-8.533-8.533c-14.079,0-22.987,15.025-28.229,29.025c-4.549-10.562-4.098-22.612,1.229-32.804
			c2.577-3.927,1.496-9.199-2.42-11.794s-9.192-1.538-11.805,2.365c-1.378,2.228-2.532,4.586-3.447,7.041
			c-33.803-17.503-93.393,1.823-125.624,14.793c11.146-12.726,25.94-21.712,42.371-25.737c4.61-0.978,7.555-5.508,6.577-10.119
			c-0.978-4.61-5.508-7.555-10.119-6.577c-7.351,1.772-14.486,4.342-21.278,7.664c-48.629-2.377-86.656,24.932-105.301,41.882
			c-1.126-10.764-0.044-21.644,3.179-31.975c1.273-4.139,3.391-7.968,6.221-11.246l-0.004,0.004
			c2.313-1.986,3.391-5.055,2.828-8.051c-0.563-2.996-2.682-5.465-5.558-6.475c-2.876-1.01-6.073-0.41-8.387,1.576
			c-4.546,4.469-8.022,9.908-10.17,15.91c-15.238,1.443-29.899,6.556-42.73,14.903c-0.268,0.143-0.528,0.3-0.779,0.471
			c-4.713,3.2-9.086,6.875-13.05,10.967c1.087-19.608,9.246-51.47,42.775-89.629C124.653,18,196.003,14.329,248.124,20.112
			c69.717,7.6,117.821,29.342,147.008,66.417c1.633,2.113,3.267,4.308,4.692,6.321c0.316,0.376,0.656,0.731,1.018,1.062
			c0.254,0.306,0.53,0.594,0.824,0.861c1.488,1.443,3.134,2.712,4.908,3.784c0.542,0.306,1.067,0.643,1.571,1.008
			c5.433,4.203,10.526,8.827,15.233,13.829c16.482,17.346,29.439,37.727,38.15,60.013
			C473.762,203.46,477.211,236.368,471.474,268.304z"/>
		<path d="M267.02,295.925c-13.639-9.715-30.997-12.593-47.042-7.8c-3.541,0.962-7.017,2.146-10.487,3.342
			c-3.937,1.35-7.658,2.625-11.396,3.508c-5.747,1.423-11.76,1.376-17.483-0.137c-3.995-1.069-7.889-2.485-11.637-4.233
			c-29.054-13.05-54.004-9.975-68.433,8.433c-11.142,15.422-16.439,34.303-14.946,53.271c1.642,20.246,13.104,33.329,29.2,33.329
			c10.27-0.327,20.489-1.592,30.529-3.779c15.621-2.904,30.363-5.658,43.558-1.246c4.613,1.651,9.14,3.534,13.563,5.642
			c10.482,5.67,22.054,9.036,33.942,9.871c4.523,0.01,9.017-0.733,13.296-2.2c10.661-3.978,19.367-11.928,24.296-22.183
			c7.666-15.61,10.135-33.264,7.046-50.379C279.465,311.509,274.511,302.511,267.02,295.925z M258.807,363.925
			c-2.957,6.305-8.193,11.255-14.654,13.854c-10.908,3.712-22.429-1.512-34.65-7.062c-4.963-2.357-10.043-4.458-15.221-6.296
			c-6.764-2.192-13.84-3.269-20.95-3.187c-10.474,0.327-20.895,1.615-31.133,3.846c-9.012,1.983-18.183,3.152-27.404,3.492
			c-9.983,0-11.854-13.5-12.192-17.642c-1.15-14.693,2.872-29.326,11.371-41.367c12.575-16.046,35.475-9.021,48.013-3.388
			c4.659,2.161,9.5,3.905,14.467,5.212c8.375,2.202,17.168,2.269,25.575,0.196c4.55-1.075,8.846-2.55,13.004-3.975
			c3.117-1.071,6.233-2.146,9.417-3.012c10.699-3.254,22.288-1.621,31.671,4.463c4.405,4.034,7.274,9.471,8.121,15.383
			C266.623,337.847,264.722,351.662,258.807,363.925L258.807,363.925z"/>
		<path d="M145.086,265.545c0,4.713,3.821,8.533,8.533,8.533s8.533-3.82,8.533-8.533c0.027-3.425,1.326-6.718,3.646-9.237
			c2.725-1.971,7.883-0.683,10.721,0.267c4.471,1.491,9.305-0.925,10.796-5.396c1.491-4.471-0.925-9.305-5.396-10.796
			c-8.502-3.706-18.292-2.926-26.1,2.079C148.994,248.183,145.062,256.64,145.086,265.545L145.086,265.545z"/>
		<path d="M99.007,229.704c12.249-8.754,28.709-8.754,40.958,0c2.438,1.829,5.667,2.219,8.471,1.022
			c2.804-1.197,4.756-3.799,5.121-6.825c0.365-3.026-0.912-6.018-3.35-7.847c-18.275-13.441-43.167-13.441-61.442,0
			c-2.438,1.83-3.715,4.821-3.35,7.847c0.365,3.026,2.317,5.628,5.121,6.825C93.34,231.923,96.569,231.533,99.007,229.704
			L99.007,229.704z"/>
		<path d="M217.686,233.733c0.446-0.258,44.767-25.904,65.567,2.696c2.776,3.796,8.099,4.63,11.903,1.864
			c3.803-2.765,4.652-8.087,1.897-11.898c-23.85-32.808-68.017-19.171-88.033-7.362c-2.635,1.544-4.245,4.378-4.22,7.432
			c0.025,3.054,1.68,5.862,4.341,7.362C211.801,235.328,215.06,235.292,217.686,233.733L217.686,233.733z"/>
		<path d="M290.153,248.479c-4.402,0.001-8.081,3.349-8.495,7.731c-0.414,4.382,2.572,8.36,6.895,9.186
			c1.337,2.687,1.891,5.696,1.6,8.683c0,4.713,3.82,8.533,8.533,8.533s8.533-3.821,8.533-8.533
			C307.22,248.77,290.849,248.479,290.153,248.479z"/>
		<path d="M315.753,231.412c-4.659,0.004-8.444,3.766-8.475,8.425c-0.032,4.682,3.694,8.527,8.375,8.642
			c2.339-0.249,4.667,0.566,6.34,2.22c1.673,1.654,2.515,3.972,2.293,6.314c0,4.713,3.82,8.533,8.533,8.533s8.533-3.82,8.533-8.533
			c0.201-6.849-2.431-13.478-7.276-18.324C329.231,233.843,322.602,231.211,315.753,231.412z"/>
	</g>
</g>
<g>
</g>
<g>
</g>
<g>
</g>
<g>
</g>
<g>
</g>
<g>
</g>
<g>
</g>
<g>
</g>
<g>
</g>
<g>
</g>
<g>
</g>
<g>
</g>
<g>
</g>
<g>
</g>
<g>
</g>
</svg>
