<?xml version="1.0" encoding="iso-8859-1"?>
<!-- Generator: Adobe Illustrator 19.0.0, SVG Export Plug-In . SVG Version: 6.00 Build 0)  -->
<svg version="1.1" id="Capa_1" xmlns="http://www.w3.org/2000/svg" xmlns:xlink="http://www.w3.org/1999/xlink" x="0px" y="0px"
	 viewBox="0 0 512.062 512.062" style="enable-background:new 0 0 512.062 512.062;" xml:space="preserve">
<g transform="translate(0 -1)">
	<g transform="translate(1 1)">
		<g>
			<path style="fill:#FFE0B2;" d="M417.164,239.009c0.128,11.96-3.222,23.7-9.643,33.792c-7.681,13.693-23.211,20.995-38.656,18.176
				c7.509-20.139,6.144-46.933,3.584-77.397l2.048-0.171C374.498,213.409,417.164,204.876,417.164,239.009z"/>
			<path style="fill:#FFE0B2;" d="M141.196,290.977c-15.553,2.798-31.163-4.612-38.827-18.432
				c-6.326-10.031-9.616-21.678-9.472-33.536c0-34.133,42.667-25.6,42.667-25.6l2.048,0.171
				C135.052,244.044,133.687,270.839,141.196,290.977z"/>
		</g>
		<g>
			<path style="fill:#7F6E5D;" d="M135.556,264.609c-1.322,0-2.626-0.308-3.808-0.9l-17.067-8.533
				c-4.204-2.114-5.903-7.232-3.799-11.441c2.104-4.209,7.218-5.92,11.432-3.826l17.067,8.533c3.542,1.77,5.401,5.745,4.49,9.598
				C142.959,261.894,139.516,264.614,135.556,264.609L135.556,264.609z"/>
			<path style="fill:#7F6E5D;" d="M374.506,264.609c-3.96,0.005-7.403-2.715-8.315-6.569c-0.912-3.854,0.947-7.828,4.49-9.598
				l17.067-8.533c4.214-2.094,9.328-0.383,11.432,3.826c2.104,4.209,0.405,9.327-3.799,11.441l-17.067,8.533
				C377.132,264.301,375.828,264.61,374.506,264.609L374.506,264.609z"/>
		</g>
		<path style="fill:#FFE0B2;" d="M374.498,256.062c0.231,11.85-1.293,23.668-4.523,35.072h-0.085
			c-4.132,14.968-14.744,27.302-28.927,33.621c-2.56,1.195-5.121,2.475-7.681,3.84c-3.242,1.621-6.655,3.328-9.983,5.12
			c-2.817,1.536-5.717,2.987-8.533,4.608c-18.174,11.039-38.58,17.89-59.733,20.053c-21.154-2.164-41.559-9.014-59.733-20.053
			c-2.817-1.621-5.717-3.072-8.533-4.608c-5.973-3.157-11.861-6.229-17.665-8.96c-14.184-6.319-24.796-18.653-28.928-33.621h-0.085
			c-3.229-11.404-4.753-23.222-4.523-35.072c-0.085-13.056,0.939-27.392,2.219-42.496c1.963-22.955,4.523-47.957,4.523-73.728
			c-0.758-17.945,5.73-35.442,18.005-48.555c13.065-12.489,29.551-20.807,47.36-23.893c12.871-2.711,26.022-3.857,39.168-3.413
			c6.315,5.888,12.971,19.968,8.448,53.675c-0.085,0.597-0.171,1.28-0.256,1.877c0,0,14.933-5.803,37.205-30.72
			c5.035-5.632,10.497-12.203,16.213-19.968c28.587,7.424,59.307,25.941,59.307,70.997c0,25.771,2.56,50.773,4.523,73.728
			C373.559,228.67,374.583,243.006,374.498,256.062z"/>
		<path style="fill:#FFECB3;" d="M348.898,273.128c0.231,11.85-1.293,23.668-4.523,35.072h-0.085
			c-2.159,7.511-5.914,14.468-11.008,20.395c-3.242,1.621-6.655,3.328-9.983,5.12c-2.817,1.536-5.717,2.987-8.533,4.608
			c-18.174,11.039-38.58,17.89-59.733,20.053c-21.154-2.164-41.559-9.014-59.733-20.053c-2.817-1.621-5.717-3.072-8.533-4.608
			c-5.973-3.157-11.861-6.229-17.665-8.96c-14.184-6.319-24.796-18.653-28.928-33.621h-0.085
			c-3.229-11.404-4.753-23.222-4.523-35.072c-0.085-13.056,0.939-27.392,2.219-42.496c1.963-22.955,4.523-47.957,4.523-73.728
			c-0.758-17.945,5.73-35.442,18.005-48.555c7.003-3.008,14.294-5.295,21.76-6.827c12.871-2.711,26.022-3.857,39.168-3.413
			c6.4,5.973,13.227,20.48,8.192,55.552c9.641-4.786,18.387-11.194,25.856-18.944c10.062-9.789,19.282-20.408,27.563-31.744
			c3.157,0.853,6.315,1.792,9.387,2.901c25.515,8.875,49.92,27.989,49.92,68.096c0,25.771,2.56,50.773,4.523,73.728
			C347.959,245.736,348.983,260.072,348.898,273.128z"/>
		<path style="fill:#FDD834;" d="M417.164,102.462h-17.067v110.933l-0.341,1.024c-5.425-1.587-11.084-2.222-16.725-1.877
			c-2.861,0.08-5.713,0.365-8.533,0.853l-2.219,0.171c-1.963-22.955-4.523-47.957-4.523-73.728c0-45.056-30.72-63.573-59.307-70.997
			c-5.035,6.741-9.813,12.715-14.335,17.835c-5.653,6.56-11.755,12.719-18.263,18.432c-6.136,5.875-13.163,10.742-20.821,14.421
			c5.035-35.072-1.792-49.579-8.192-55.552c-13.146-0.444-26.298,0.703-39.169,3.413c-21.559,3.384-40.975,14.973-54.187,32.341
			c-7.733,11.914-11.634,25.91-11.178,40.107c0,25.771-2.56,50.773-4.523,73.728l-2.219-0.171c-4.364-0.773-8.8-1.059-13.227-0.853
			c-4.079,0.059-8.129,0.691-12.031,1.877l-0.342-1.024V102.462H92.898c2.225-4.253,4.853-8.282,7.85-12.032
			c7.813-9.701,17.185-18.036,27.733-24.661c7.611-5.096,15.699-9.44,24.15-12.971c-8.067-5.189-17.458-7.945-27.05-7.936h-0.085
			c-4.096-0.341-6.998-0.341-6.998-0.341c42.667-41.472,110.933-24.917,110.933-24.917s68.267-24.832,136.533,0
			c0,0-7.935,0-23.723,14.848c-0.597,0.512-1.194,1.195-1.877,1.792c0,0,1.535,0.512,4.181,1.621
			C375.499,50.342,401.165,73.173,417.164,102.462z"/>
		<path style="fill:#FFEB3A;" d="M400.098,119.528h-17.067v93.013c-2.861,0.08-5.713,0.365-8.533,0.853l-2.219,0.171
			c-1.963-22.955-4.523-47.957-4.523-73.728c0-45.056-30.72-63.573-59.307-70.997c-5.035,6.741-9.813,12.715-14.335,17.835
			c-0.94-0.256-1.793-0.512-2.731-0.768c-5.461,7.424-10.667,13.739-15.531,19.2c-6.136,5.875-13.163,10.742-20.821,14.421
			c5.035-35.072-1.792-49.579-8.192-55.552c-13.146-0.444-26.298,0.703-39.169,3.413c-21.559,3.384-40.975,14.973-54.187,32.341
			c-18.745,12.825-29.45,34.493-28.245,57.173c0,19.115-1.451,37.888-2.902,55.637c-4.079,0.059-8.129,0.691-12.031,1.877
			l-0.341-1.024V102.462H92.898c2.225-4.253,4.853-8.282,7.85-12.032c10.608-8.419,22.323-15.339,34.817-20.565
			c-2.06-1.83-4.469-3.224-7.083-4.096c7.611-5.096,15.699-9.44,24.15-12.971c-8.067-5.189-17.458-7.945-27.05-7.936
			c40.277-19.456,86.783-8.192,86.783-8.192c42.117-13.591,87.321-14.363,129.877-2.219c2.219,0.683,4.437,1.451,6.656,2.219
			c-1.509,0.143-2.982,0.547-4.352,1.195c-8.02,3.717-15.238,8.964-21.248,15.445C356.025,65.433,383.29,88.941,400.098,119.528z"/>
		<path style="fill:#FFE0B2;" d="M375.095,430.412c-18.005,22.784-65.024,38.997-120.064,38.997s-102.059-16.213-120.064-38.997
			c37.035-14.08,60.331-54.869,60.331-54.869v-37.205c18.174,11.039,38.58,17.89,59.733,20.053c-0.794,0.071-1.592,0.1-2.389,0.085
			h4.779c-0.797,0.014-1.595-0.014-2.389-0.085c21.154-2.164,41.559-9.014,59.733-20.053v37.205
			C314.764,375.543,338.06,416.332,375.095,430.412z"/>
		<path style="fill:#F57C00;" d="M485.431,495.009v8.533h-460.8v-8.533c0-17.067,34.133-59.733,85.333-59.733
			c8.567-0.022,17.052-1.673,25.003-4.864c18.005,22.784,65.024,38.997,120.064,38.997s102.059-16.213,120.064-38.997
			c7.951,3.191,16.436,4.842,25.003,4.864C451.298,435.276,485.431,477.943,485.431,495.009z"/>
		<path style="fill:#7F6E5D;" d="M272.106,230.462c-2.812,0.002-5.446-1.38-7.042-3.696c-2.422-3.039-6.089-4.817-9.975-4.837
			c-3.886-0.02-7.571,1.72-10.025,4.733c-1.681,2.561-4.605,4.025-7.663,3.835c-3.058-0.19-5.779-2.004-7.13-4.753
			s-1.125-6.012,0.593-8.549c5.613-7.747,14.6-12.333,24.167-12.333c9.567,0,18.554,4.586,24.167,12.333
			c1.745,2.617,1.908,5.982,0.425,8.756C278.14,228.725,275.252,230.459,272.106,230.462z"/>
		<path style="fill:#4C8056;" d="M175.189,170.728c-3.846,0.006-7.22-2.563-8.239-6.271c-1.018-3.709,0.571-7.64,3.88-9.599
			l44.033-26.121c2.621-1.554,5.873-1.592,8.529-0.098c2.657,1.493,4.315,4.29,4.35,7.338s-1.558,5.882-4.179,7.436l-44.033,26.121
			C178.219,170.318,176.718,170.731,175.189,170.728L175.189,170.728z"/>
		<path style="fill:#2C2F38;" d="M176.906,204.512c-3.277,0-6.264-1.878-7.683-4.831c-1.42-2.953-1.021-6.459,1.025-9.018
			c1.05-1.308,26.175-32.009,60.517-20.167c2.886,0.991,5.023,3.448,5.605,6.444c0.582,2.996-0.48,6.074-2.786,8.073
			c-2.305,1.999-5.503,2.616-8.386,1.616c-22.892-7.892-40.892,13.796-41.65,14.725
			C181.922,203.353,179.482,204.513,176.906,204.512L176.906,204.512z"/>
		<path style="fill:#4C8056;" d="M334.873,170.728c-1.529,0.002-3.03-0.411-4.342-1.196l-44.033-26.121
			c-2.621-1.554-4.215-4.389-4.18-7.436c0.035-3.047,1.693-5.844,4.35-7.338c2.657-1.493,5.908-1.456,8.53,0.098l44.033,26.121
			c3.31,1.959,4.899,5.891,3.881,9.6C342.093,168.166,338.719,170.734,334.873,170.728L334.873,170.728z"/>
		<g>
			<path style="fill:#2C2F38;" d="M333.164,204.528c-2.585,0.006-5.032-1.164-6.65-3.179c-0.808-0.987-18.733-22.633-41.65-14.721
				c-4.453,1.529-9.303-0.837-10.838-5.287c-1.536-4.45,0.823-9.304,5.272-10.846c34.358-11.842,59.475,18.859,60.517,20.167
				c2.051,2.559,2.454,6.067,1.036,9.025C339.432,202.644,336.444,204.526,333.164,204.528L333.164,204.528z"/>
			<ellipse style="fill:#2C2F38;" cx="255.031" cy="285.928" rx="34.133" ry="29.867"/>
		</g>
	</g>
	<g>
		<path d="M231.864,218.195c-1.727,2.536-1.959,5.805-0.608,8.56c1.351,2.755,4.077,4.573,7.14,4.76
			c3.063,0.188,5.99-1.284,7.668-3.853c2.453-3.013,6.139-4.753,10.025-4.733s7.553,1.799,9.975,4.837
			c2.659,3.86,7.933,4.853,11.814,2.225c3.881-2.628,4.916-7.894,2.319-11.796c-5.613-7.747-14.6-12.333-24.167-12.333
			C246.464,205.862,237.477,210.448,231.864,218.195L231.864,218.195z"/>
		<path d="M25.631,513.062h460.8c2.263,0.001,4.434-0.898,6.035-2.499c1.6-1.6,2.499-3.771,2.499-6.035v-8.533
			c0-23.371-39.642-68.267-93.867-68.267c-40.973,0-70.935-44.273-76.8-53.612V344.35c0.665-0.354,1.336-0.706,2-1.059l4.025-2.116
			c5.133-2.687,10.208-5.342,15.267-7.679c14.175-6.283,25.337-17.852,31.109-32.242c0.152,0.002,0.305,0.046,0.457,0.046
			c9.973-0.123,19.592-3.718,27.2-10.167c14.646-12.901,22.827-31.626,22.342-51.138c0.532-10.102-3.674-19.875-11.375-26.433
			c-1.763-1.433-3.671-2.678-5.692-3.717v-97.85h8.533c2.975-0.001,5.735-1.552,7.284-4.092s1.662-5.704,0.3-8.349
			c-15.271-28.377-39.231-51.115-68.366-64.883c2.893-2.329,6.136-4.185,9.609-5.5c4.136-0.015,7.666-2.993,8.377-7.067
			c0.712-4.074-1.6-8.072-5.486-9.488c-63.9-23.254-126.8-5.133-139.958-0.821c-13.367-2.721-75.083-12.496-116.367,27.567
			c-2.495,2.419-3.273,6.11-1.968,9.331s4.434,5.328,7.909,5.327c4.222,0.03,8.437,0.343,12.617,0.938
			c-19.088,10.356-34.94,25.79-45.8,44.596c-1.362,2.645-1.249,5.809,0.3,8.349c1.549,2.541,4.308,4.091,7.284,4.092h8.533v97.851
			c-2.02,1.039-3.928,2.284-5.692,3.716c-7.701,6.559-11.907,16.332-11.375,26.433c-0.485,19.512,7.696,38.236,22.342,51.138
			c7.608,6.45,17.227,10.046,27.2,10.167c0.156,0,0.313-0.045,0.469-0.047c5.783,14.402,16.958,25.978,31.148,32.264
			c5.008,2.317,10.083,4.971,15.217,7.658l4.025,2.116c0.663,0.354,1.335,0.706,2,1.059v29.782
			c-5.852,9.357-35.696,53.597-76.8,53.597c-54.225,0-93.867,44.896-93.867,68.267v8.533c-0.001,2.263,0.898,4.434,2.499,6.035
			C21.197,512.164,23.368,513.062,25.631,513.062z M393.556,277.916c-3.405,2.856-7.445,4.854-11.781,5.828
			c1.218-7.046,1.914-14.173,2.083-21.321l12.523-6.262c4.204-2.114,5.903-7.232,3.799-11.441c-2.104-4.209-7.218-5.92-11.432-3.826
			l-5.022,2.511c-0.276-6.896-0.741-14.005-1.314-21.286c7.691-1.054,15.509,0.594,22.12,4.663c3.662,3.372,5.547,8.255,5.1,13.213
			C410.128,254.388,404.245,268.265,393.556,277.916L393.556,277.916z M119.498,111.995c4.713,0,8.533-3.821,8.533-8.533
			c0-4.713-3.821-8.533-8.533-8.533h-9.7c13.019-14.379,29.042-25.718,46.933-33.212c2.703-1.058,4.684-3.417,5.258-6.263
			c0.575-2.846-0.336-5.788-2.417-7.812c-5.102-4.262-11.23-7.118-17.775-8.283c38-21.683,86.083-10.554,86.633-10.425
			c1.628,0.385,3.333,0.29,4.908-0.275c36.001-11.408,74.327-13.38,111.309-5.729c-2.817,2.233-5.892,4.917-9.225,8.15
			c-2.148,2.086-3.046,5.144-2.367,8.06c0.679,2.916,2.835,5.263,5.683,6.186c25.922,9.767,48.345,27.037,64.408,49.604h-10.583
			c-4.713,0-8.533,3.821-8.533,8.533c0,4.713,3.82,8.533,8.533,8.533v93.158c-3.852-0.341-7.725-0.358-11.58-0.052l-0.036-0.422
			c-1.8-20.558-3.658-41.812-3.658-63.829c0-40.583-22.63-67.959-65.434-79.204c-3.424-1.048-7.137,0.169-9.275,3.041
			c-10.355,14.603-22.588,27.779-36.383,39.188c0.873-20.939-3.168-35.849-11.996-44.545l-0.189-0.206
			c-0.123-0.119-0.224-0.266-0.349-0.383c-0.321-0.232-0.659-0.439-1.01-0.621c-0.916-0.784-2.054-1.264-3.255-1.372
			c-0.389-0.128-0.788-0.227-1.193-0.294c-13.865-0.487-27.739,0.708-41.317,3.558c-46.5,9.921-72.117,38.629-72.117,80.838
			c0,22.017-1.858,43.271-3.658,63.829l-0.035,0.419c-3.855-0.307-7.729-0.289-11.581,0.053V111.995z M118.506,277.916
			c-10.689-9.651-16.572-23.528-16.075-37.921c-0.447-4.958,1.438-9.841,5.1-13.212c6.61-4.071,14.429-5.721,22.121-4.668
			c-0.574,7.283-1.04,14.394-1.314,21.292l-5.023-2.511c-2.728-1.372-5.982-1.182-8.532,0.498c-2.55,1.681-4.007,4.596-3.822,7.644
			c0.185,3.048,1.985,5.765,4.72,7.124l12.525,6.263c0.17,7.155,0.87,14.288,2.092,21.341
			C125.956,282.787,121.912,280.781,118.506,277.916z M173.723,318.045c-11.671-5.154-20.508-15.15-24.192-27.365
			c-0.015-0.085,0.018-0.166,0-0.252c-0.048-0.235-0.202-0.408-0.268-0.634c-6.116-19.371-4.366-46.795-1.149-83.632
			c1.833-20.917,3.725-42.55,3.725-65.313c0-34.267,19.717-55.85,58.617-64.146c10.985-2.287,22.185-3.387,33.405-3.281
			c3.47,5.039,7.834,17.274,3.72,45.894c-0.35,2.45,0.38,4.931,2.001,6.801s3.974,2.944,6.449,2.945
			c1.064,0.002,2.118-0.198,3.108-0.588c0.976-0.38,23.245-9.505,53.396-48.696c31.519,9.865,47.688,30.297,47.688,61.071
			c0,22.762,1.892,44.396,3.725,65.313c3.213,36.788,4.962,64.188-1.115,83.55c-0.077,0.254-0.247,0.451-0.302,0.716
			c-0.02,0.097,0.016,0.189,0,0.286c-3.678,12.189-12.496,22.164-24.142,27.31c-5.267,2.429-10.583,5.204-15.975,8.025l-4.133,2.179
			c-19.973,10.632-40.625,21.576-62.319,22.585c-21.215-0.799-42.041-11.865-62.181-22.585l-4.133-2.179
			C184.256,323.228,178.939,320.453,173.723,318.045z M187.764,402.83v16.365c0,4.713,3.821,8.533,8.533,8.533
			c4.713,0,8.533-3.821,8.533-8.533V353.12c13.981,7.386,29.169,12.217,44.848,14.265c0.963,0.388,1.989,0.595,3.027,0.611h6.65
			c1.063-0.012,2.115-0.224,3.099-0.625c15.645-2.096,30.8-6.922,44.776-14.257v66.083c0,4.713,3.82,8.533,8.533,8.533
			s8.533-3.821,8.533-8.533V402.83c10.418,12.536,22.999,23.103,37.146,31.199c-20.834,16.934-61.085,27.833-105.412,27.833
			s-84.578-10.898-105.412-27.833C164.766,425.933,177.346,415.366,187.764,402.83z M110.964,444.795
			c7.592-0.046,15.135-1.218,22.382-3.479c22.351,23.006,69.447,37.612,122.684,37.612s100.333-14.606,122.684-37.612
			c7.248,2.26,14.791,3.433,22.382,3.479c47.95,0,76.8,40.6,76.8,51.2H34.164C34.164,485.395,63.014,444.795,110.964,444.795z"/>
		<path d="M176.189,171.728c1.529,0.002,3.03-0.411,4.342-1.196l44.033-26.121c4.052-2.402,5.39-7.635,2.988-11.688
			s-7.635-5.39-11.688-2.988l-44.033,26.121c-3.31,1.959-4.899,5.891-3.881,9.6C168.969,169.166,172.343,171.734,176.189,171.728
			L176.189,171.728z"/>
		<path d="M226.198,187.628c2.883,1,6.081,0.383,8.386-1.616c2.305-1.999,3.368-5.078,2.786-8.073
			c-0.582-2.996-2.719-5.453-5.605-6.444c-34.342-11.842-59.467,18.859-60.517,20.167c-2.932,3.674-2.34,9.027,1.324,11.972
			c3.663,2.945,9.018,2.372,11.977-1.28C185.306,201.424,203.306,179.737,226.198,187.628z"/>
		<path d="M287.498,144.412l44.033,26.121c1.312,0.785,2.813,1.199,4.342,1.196c3.846,0.006,7.22-2.563,8.239-6.271
			c1.018-3.709-0.571-7.64-3.88-9.599l-44.034-26.121c-2.621-1.554-5.873-1.592-8.529-0.098c-2.657,1.493-4.315,4.29-4.35,7.338
			C283.283,140.023,284.876,142.858,287.498,144.412L287.498,144.412z"/>
		<path d="M285.864,187.628c22.917-7.912,40.842,13.733,41.65,14.721c2.952,3.671,8.32,4.255,11.992,1.304
			c3.672-2.951,4.257-8.319,1.308-11.992c-1.042-1.308-26.158-32.009-60.517-20.167c-4.448,1.542-6.807,6.395-5.272,10.846
			C276.562,186.792,281.411,189.158,285.864,187.628z"/>
		<path d="M256.031,248.528c-22.354-1.089-41.403,16.055-42.667,38.4c1.264,22.345,20.312,39.489,42.667,38.4
			c22.354,1.089,41.403-16.055,42.667-38.4C297.434,264.583,278.385,247.439,256.031,248.528L256.031,248.528z M256.031,308.262
			c-12.921,1.052-24.305-8.435-25.6-21.333c1.295-12.899,12.679-22.386,25.6-21.333c12.921-1.052,24.305,8.435,25.6,21.333
			C280.336,299.827,268.952,309.314,256.031,308.262L256.031,308.262z"/>
	</g>
</g>
<g>
</g>
<g>
</g>
<g>
</g>
<g>
</g>
<g>
</g>
<g>
</g>
<g>
</g>
<g>
</g>
<g>
</g>
<g>
</g>
<g>
</g>
<g>
</g>
<g>
</g>
<g>
</g>
<g>
</g>
</svg>
