<?xml version="1.0" encoding="iso-8859-1"?>
<!-- Generator: Adobe Illustrator 19.0.0, SVG Export Plug-In . SVG Version: 6.00 Build 0)  -->
<svg version="1.1" id="Capa_1" xmlns="http://www.w3.org/2000/svg" xmlns:xlink="http://www.w3.org/1999/xlink" x="0px" y="0px"
	 viewBox="0 0 512.125 512.125" style="enable-background:new 0 0 512.125 512.125;" xml:space="preserve">
<g transform="translate(0 -1)">
	<g transform="translate(1 2)">
		<path style="fill:#C52828;" d="M347.307,316.565c3.993-2.357,7.616-5.29,10.752-8.704c4.776-5.155,8.463-11.221,10.837-17.835
			c15.445,2.82,30.975-4.483,38.655-18.176l9.643,0.341c14.306,1.945,28.823-1.525,40.704-9.728
			c0.066-0.006,0.126-0.037,0.171-0.085c39.253-27.392,44.459-99.755,44.459-99.755C417.195,196.33,408.661,95.21,357.461,36.245
			C318.805-8.214,246.272,9.621,212.907,21.055h-0.085c-15.472-9.692-34.617-11.495-51.627-4.864
			c-7.422,3.642-13.425,9.645-17.067,17.067c-18.517,31.488-28.843,94.976-69.291,126.635
			c-19.217,14.548-43.293,21.148-67.243,18.432c1.137,5.669,2.648,11.256,4.523,16.725c8.961,26.965,33.194,77.141,89.344,77.141
			l0.939-0.597c7.664,13.82,23.273,21.23,38.826,18.432c4.739,13.425,14.848,24.275,27.904,29.952
			c11.606,5.376,23.467,12.117,35.841,18.176l-1.109,2.304v42.667l-17.067,9.472l-51.2,28.416l-63.402,35.243
			c-7.06,3.871-12.841,9.712-16.641,16.811c-3.47,6.268-5.29,13.315-5.291,20.48v9.045h409.6v-9.045
			c0.007-15.491-8.389-29.768-21.931-37.291l-63.402-35.243l-68.267-37.888v-42.667l-1.109-2.304
			c12.374-6.059,24.235-12.8,35.841-18.176C343.177,318.994,345.288,317.854,347.307,316.565z M252.672,353.173
			c0.797,0.014,1.595-0.014,2.389-0.085c0.794,0.071,1.592,0.1,2.389,0.085H252.672z"/>
		<path style="fill:#F44335;" d="M340.395,53.311C301.739,8.853,229.205,26.687,195.841,38.122h-0.085
			c-15.472-9.692-34.617-11.495-51.627-4.864c-28.246,11.264-34.048,82.261-69.291,126.635
			c-15.054,19.993-37.809,32.748-62.72,35.157c8.961,26.965,33.194,77.141,89.344,77.141l0.939-0.597
			c7.664,13.82,23.273,21.23,38.826,18.432c4.739,13.425,14.848,24.275,27.904,29.952c11.606,5.376,23.467,12.117,35.841,18.176
			l-1.109,2.304v42.667l-17.067,9.472v7.595l-68.267,37.888l-62.976,34.987c-3.47,6.268-5.29,13.315-5.291,20.48v9.045h391.765
			c-2.35-12.418-10.106-23.146-21.163-29.269l-63.402-35.243l-68.267-37.888v-42.667l-1.109-2.304
			c6.229-2.987,12.203-6.229,18.176-9.301c5.973-3.157,11.861-6.144,17.665-8.875c9.708-4.27,17.87-11.419,23.381-20.48
			c1.795-3.012,3.309-6.183,4.523-9.472c2.038,0.507,4.129,0.765,6.229,0.768c4.776-5.155,8.463-11.221,10.837-17.835
			c15.445,2.82,30.975-4.483,38.655-18.176l9.643,0.341c14.306,1.945,28.823-1.525,40.704-9.728
			c0.066-0.006,0.126-0.037,0.171-0.085c23.808-32.512,27.392-82.688,27.392-82.688C400.128,213.397,391.595,112.277,340.395,53.311
			z M235.605,370.24c0.797,0.014,1.595-0.014,2.389-0.085c0.794,0.071,1.592,0.1,2.389,0.085H235.605z"/>
		<g>
			<path style="fill:#FFE0B2;" d="M417.195,238.048c0.128,11.96-3.222,23.7-9.643,33.792c-7.681,13.693-23.211,20.995-38.656,18.176
				c7.509-20.139,6.144-46.933,3.584-77.397l2.048-0.171C374.528,212.448,417.195,203.915,417.195,238.048z"/>
			<path style="fill:#FFE0B2;" d="M141.227,290.016c-15.553,2.798-31.163-4.612-38.827-18.432
				c-6.326-10.031-9.616-21.678-9.472-33.536c0-34.133,42.667-25.6,42.667-25.6l2.048,0.171
				C135.083,243.082,133.717,269.877,141.227,290.016z"/>
			<path style="fill:#FFE0B2;" d="M368.897,290.026c-3.893,11.086-11.527,20.47-21.589,26.539c-2.02,1.289-4.13,2.43-6.315,3.413
				c-11.606,5.376-23.467,12.117-35.841,18.176c-15.438,8.501-32.518,13.593-50.091,14.933c-17.572-1.34-34.653-6.432-50.091-14.933
				c-12.374-6.059-24.235-12.8-35.841-18.176c-13.056-5.677-23.165-16.527-27.904-29.952c-7.508-20.139-6.144-46.933-3.583-77.397
				c1.963-23.211,4.694-48.64,4.694-74.837c-0.424-13.863,3.386-27.526,10.923-39.168c27.221-40.704,96.255-35.413,96.255-35.413
				h11.093c0,0,107.179-8.277,107.179,74.581c0,26.197,2.731,51.627,4.693,74.837C375.041,243.093,376.405,269.887,368.897,290.026z
				"/>
		</g>
		<path style="fill:#FFECB3;" d="M351.83,307.093c-1.214,3.289-2.728,6.46-4.523,9.472c-2.02,1.289-4.13,2.43-6.315,3.413
			c-11.606,5.376-23.467,12.117-35.841,18.176c-15.438,8.501-32.518,13.593-50.091,14.933c-17.572-1.34-34.653-6.432-50.091-14.933
			c-12.374-6.059-24.235-12.8-35.841-18.176c-13.056-5.677-23.165-16.527-27.904-29.952c-7.508-20.139-6.144-46.933-3.583-77.397
			c1.963-23.211,4.694-48.64,4.694-74.837c-0.424-13.863,3.386-27.526,10.923-39.168c31.743-22.016,79.189-18.347,79.189-18.347
			h11.093c0,0,107.179-8.277,107.179,74.581c0,26.197,2.731,51.627,4.693,74.837C357.974,260.159,359.339,286.954,351.83,307.093z"
			/>
		<path style="fill:#FFE0B2;" d="M374.528,421.003v81.579H135.595v-81.579l68.267-37.888v-42.667l1.109-2.304
			c15.438,8.501,32.518,13.593,50.091,14.933c-0.794,0.071-1.592,0.1-2.389,0.085h4.779c-0.797,0.014-1.595-0.014-2.389-0.085
			c17.572-1.34,34.653-6.432,50.091-14.933l1.109,2.304v42.667L374.528,421.003z"/>
		<path style="fill:#7F6E5D;" d="M272.137,229.525c-2.812,0.002-5.446-1.38-7.042-3.696c-2.422-3.039-6.089-4.817-9.975-4.837
			c-3.886-0.02-7.571,1.72-10.025,4.733c-1.681,2.561-4.605,4.025-7.663,3.835c-3.058-0.19-5.779-2.004-7.13-4.753
			c-1.351-2.749-1.125-6.012,0.593-8.549c5.613-7.747,14.6-12.333,24.167-12.333s18.554,4.586,24.167,12.333
			c1.745,2.617,1.908,5.982,0.425,8.756C278.171,227.788,275.282,229.522,272.137,229.525z"/>
		<ellipse style="fill:#2C2F38;" cx="255.061" cy="284.991" rx="34.133" ry="29.867"/>
	</g>
	<g>
		<path d="M231.895,218.258c-1.727,2.536-1.959,5.805-0.608,8.56c1.351,2.755,4.077,4.573,7.14,4.76
			c3.063,0.188,5.99-1.284,7.668-3.853c2.453-3.013,6.139-4.753,10.025-4.733s7.553,1.799,9.975,4.837
			c2.659,3.86,7.933,4.853,11.814,2.225s4.916-7.894,2.319-11.796c-5.613-7.747-14.6-12.333-24.167-12.333
			C246.494,205.925,237.508,210.511,231.895,218.258L231.895,218.258z"/>
		<path d="M170.037,154.308c4.151,2.23,9.325,0.675,11.558-3.475c5.517-10.271,17.175-24.163,23.583-22.571
			c2.959,0.762,6.099-0.117,8.234-2.303c2.134-2.186,2.937-5.347,2.104-8.287c-0.833-2.94-3.174-5.21-6.138-5.952
			c-21.883-5.554-39.508,24.879-42.817,31.029c-1.072,1.994-1.308,4.331-0.656,6.499
			C166.557,151.416,168.043,153.236,170.037,154.308L170.037,154.308z"/>
		<path d="M99.431,282.61c2.612,3.365,5.609,6.413,8.93,9.081c7.517,6.173,16.915,9.599,26.642,9.713
			c0.625,0,1.25-0.079,1.876-0.109c6.155,12.718,16.661,22.811,29.616,28.45c6.383,2.958,12.875,6.358,19.483,9.813
			c3.374,1.765,6.842,3.558,10.35,5.341v35.207l-51.596,28.656c-0.855-3.815-4.228-6.538-8.137-6.57
			c-2.263-0.001-4.434,0.898-6.035,2.499c-1.6,1.6-2.499,3.771-2.499,6.035v7.295l-59,32.768
			c-16.26,9.025-26.342,26.162-26.333,44.758v9.046c-0.001,2.263,0.898,4.434,2.499,6.035c1.6,1.6,3.771,2.499,6.035,2.499h409.6
			c2.263,0.001,4.434-0.898,6.035-2.499c1.6-1.6,2.499-3.771,2.499-6.035v-9.046c0.01-18.593-10.069-35.727-26.325-44.75
			l-59.008-32.774v-7.297c0.001-2.263-0.898-4.434-2.499-6.035c-1.6-1.6-3.771-2.499-6.035-2.499
			c-3.911,0.032-7.283,2.755-8.137,6.571l-51.596-28.657v-35.207c3.508-1.783,6.976-3.576,10.35-5.341
			c6.608-3.454,13.1-6.854,19.483-9.813c12.955-5.639,23.461-15.732,29.616-28.45c0.626,0.03,1.251,0.109,1.876,0.109
			c9.727-0.113,19.124-3.539,26.642-9.712c3.746-2.996,7.084-6.471,9.927-10.334c1.074,0.709,2.296,1.161,3.573,1.322
			c2.884,0.318,5.782,0.479,8.683,0.483c15.706,0.153,30.942-5.357,42.917-15.521c37.633-31.358,42.967-99.492,43.175-102.375
			c0.213-2.926-1.092-5.757-3.457-7.495c-2.365-1.737-5.456-2.138-8.185-1.06c-49.842,19.658-68.092-9.158-96.1-61.821
			c-10.744-22.161-23.959-43.037-39.392-62.229C324.007-14.457,250.874,1.678,214.47,13.772
			c-17.037-9.365-37.361-10.65-55.442-3.506c-18.509,7.404-27.842,32.079-38.658,60.654
			C101.578,120.591,80.311,176.963,9.203,171.812c-2.629-0.186-5.197,0.853-6.957,2.815s-2.514,4.628-2.043,7.222
			C0.384,182.846,19.074,280.181,99.431,282.61z M118.961,278.312c-10.892-9.68-16.935-23.689-16.5-38.254
			c-0.447-4.958,1.438-9.841,5.1-13.213c6.545-4.045,14.288-5.7,21.915-4.681c-0.559,7.271-1.012,14.373-1.24,21.239l-4.892-2.446
			c-2.728-1.372-5.982-1.182-8.532,0.499s-4.007,4.596-3.822,7.644c0.185,3.048,1.985,5.765,4.72,7.124l12.588,6.294
			c0.309,7.214,1.225,14.388,2.739,21.448C126.61,283.099,122.463,281.158,118.961,278.312L118.961,278.312z M59.795,495.546
			c-0.01-12.394,6.706-23.817,17.542-29.833l50.725-28.173v58.519H59.795V495.546z M434.795,465.721
			c10.832,6.015,17.545,17.435,17.533,29.825v0.512h-68.267v-58.517L434.795,465.721z M307.261,444.858
			c2.263,0.001,4.434-0.898,6.035-2.499c1.6-1.6,2.499-3.771,2.499-6.035v-36.702l51.2,28.439v67.997H145.128V428.06l51.2-28.437
			v36.702c0,4.713,3.821,8.533,8.533,8.533s8.533-3.821,8.533-8.533v-83.371c11.637,5.3,24.021,8.778,36.717,10.312
			c0.8,0.256,1.634,0.392,2.475,0.404c0.758,0.004,1.5,0.004,2.258,0h2.433c0.367,0.004,0.733,0.009,1.1,0.009
			c0.383,0,0.767-0.004,1.158-0.009c0.843-0.012,1.68-0.148,2.483-0.404c12.693-1.534,25.074-5.011,36.709-10.311v83.37
			c-0.001,2.263,0.898,4.434,2.499,6.035C302.827,443.96,304.998,444.859,307.261,444.858L307.261,444.858z M338.445,314.262
			c-6.617,3.071-13.358,6.588-20.208,10.171c-20.133,10.529-40.917,21.396-62.175,22.137c-21.258-0.742-42.042-11.613-62.175-22.137
			c-6.85-3.583-13.592-7.1-20.208-10.171c-32.325-14.988-30.883-49.85-25.55-110.183c1.817-20.596,3.7-41.892,3.7-64.296
			c-0.757-16.436,5.612-32.399,17.475-43.8c21.683-20.105,57.983-22.412,73.633-22.412c4.483,0,7.283,0.192,7.542,0.204h11.167
			c0.217,0,0.442-0.009,0.658-0.025c0.517-0.037,52.458-3.733,80.475,22.196c11.892,11.4,18.278,27.382,17.517,43.837
			c0,22.404,1.883,43.7,3.7,64.296C369.328,264.412,370.77,299.275,338.445,314.262z M393.161,278.312
			c-3.501,2.847-7.649,4.79-12.077,5.658c1.513-7.061,2.43-14.236,2.739-21.45l12.588-6.294c4.204-2.114,5.903-7.232,3.799-11.441
			c-2.104-4.209-7.218-5.92-11.432-3.826l-4.892,2.446c-0.227-6.865-0.679-13.966-1.24-21.235
			c7.626-1.018,15.369,0.634,21.915,4.677c3.662,3.371,5.547,8.255,5.1,13.212C410.096,254.623,404.054,268.633,393.161,278.312z
			 M136.337,76.962c8.992-23.775,17.492-46.234,29.042-50.854c8.064-3.284,16.898-4.2,25.465-2.641
			c-2.883,2.418-3.814,6.454-2.281,9.891c1.958,4.282,7.01,6.175,11.3,4.233C200.92,37.116,305.636-9.6,352.02,43.85
			c14.554,18.242,27.031,38.049,37.2,59.054c23.342,43.879,47.4,89.117,104.133,74.1c-3.242,20.042-12.258,58.225-35.417,77.525
			c-9.975,8.451-22.923,12.548-35.944,11.374c3.129-8.258,4.734-17.015,4.735-25.845c0.532-10.102-3.674-19.875-11.375-26.433
			c-9.941-6.943-22.099-9.963-34.133-8.479c-0.077-0.862-0.148-1.707-0.225-2.571c-1.783-20.225-3.633-41.142-3.633-62.792
			c0.846-21.228-7.539-41.783-22.992-56.363c-32.475-30.058-87.708-27.079-93.042-26.712l-10.192,0.025
			c-2.458-0.196-59.95-4.258-93.383,26.687C142.3,98,133.915,118.555,134.761,139.783c0,21.65-1.85,42.567-3.633,62.792
			c-0.077,0.864-0.148,1.708-0.225,2.568c-12.035-1.482-24.192,1.539-34.133,8.482c-7.701,6.559-11.907,16.332-11.375,26.433
			c0.001,8.325,1.421,16.588,4.198,24.436c-45.408-7.564-63.933-54.059-70.056-75.298C94.17,188.383,118.411,124.333,136.337,76.962
			z"/>
		<path d="M224.787,187.691c2.883,1,6.081,0.383,8.386-1.616s3.368-5.078,2.786-8.073c-0.582-2.996-2.719-5.453-5.605-6.444
			c-14.198-4.827-29.816-2.987-42.504,5.006c-3.38-0.702-6.507-2.308-9.046-4.648c-2.915-3.644-8.215-4.271-11.9-1.408
			c-3.684,2.863-4.386,8.154-1.575,11.879c2.071,2.462,4.534,4.566,7.291,6.225c-1.626,1.69-2.605,2.88-2.79,3.113
			c-2.932,3.674-2.34,9.027,1.324,11.972c3.663,2.945,9.018,2.372,11.977-1.28C183.887,201.487,201.886,179.804,224.787,187.691z"/>
		<path d="M306.945,128.262c6.342-1.638,18.033,12.304,23.592,22.579c2.234,4.149,7.409,5.701,11.558,3.467
			c4.149-2.234,5.701-7.409,3.467-11.558c-3.308-6.158-20.875-36.596-42.817-31.029c-2.964,0.742-5.305,3.012-6.138,5.952
			c-0.833,2.94-0.03,6.1,2.104,8.287C300.845,128.146,303.986,129.024,306.945,128.262L306.945,128.262z"/>
		<path d="M333.336,171.896c-2.545,2.351-5.682,3.964-9.075,4.666c-12.685-7.991-28.298-9.829-42.492-5.003
			c-2.886,0.991-5.023,3.448-5.605,6.444c-0.582,2.996,0.48,6.074,2.786,8.073c2.305,1.999,5.503,2.616,8.386,1.616
			c22.958-7.888,40.9,13.796,41.658,14.725c2.954,3.667,8.32,4.248,11.991,1.298c3.67-2.95,4.256-8.316,1.309-11.989
			c-0.185-0.233-1.166-1.423-2.792-3.112c2.757-1.659,5.221-3.763,7.292-6.226c2.778-3.674,2.1-8.896-1.525-11.738
			C341.607,167.78,336.328,168.331,333.336,171.896z"/>
		<path d="M256.061,248.591c-22.354-1.089-41.403,16.055-42.667,38.4c1.264,22.345,20.312,39.489,42.667,38.4
			c22.354,1.089,41.403-16.055,42.667-38.4C297.465,264.646,278.416,247.502,256.061,248.591L256.061,248.591z M256.061,308.325
			c-12.921,1.052-24.305-8.435-25.6-21.333c1.295-12.899,12.679-22.386,25.6-21.333c12.921-1.052,24.305,8.435,25.6,21.333
			C280.367,299.89,268.982,309.377,256.061,308.325L256.061,308.325z"/>
	</g>
</g>
<g>
</g>
<g>
</g>
<g>
</g>
<g>
</g>
<g>
</g>
<g>
</g>
<g>
</g>
<g>
</g>
<g>
</g>
<g>
</g>
<g>
</g>
<g>
</g>
<g>
</g>
<g>
</g>
<g>
</g>
</svg>
