<?xml version="1.0" encoding="iso-8859-1"?>
<!-- Generator: Adobe Illustrator 19.0.0, SVG Export Plug-In . SVG Version: 6.00 Build 0)  -->
<svg version="1.1" id="Capa_1" xmlns="http://www.w3.org/2000/svg" xmlns:xlink="http://www.w3.org/1999/xlink" x="0px" y="0px"
	 viewBox="0 0 512.062 512.062" style="enable-background:new 0 0 512.062 512.062;" xml:space="preserve">
<g transform="translate(0 -1)">
	<g transform="translate(1 1)">
		<g>
			<path style="fill:#FFE0B2;" d="M417.164,239.009c0.128,11.96-3.222,23.7-9.643,33.792c-7.681,13.693-23.211,20.995-38.656,18.176
				c7.509-20.139,6.144-46.933,3.584-77.397l2.048-0.171C374.498,213.409,417.164,204.876,417.164,239.009z"/>
			<path style="fill:#FFE0B2;" d="M141.196,290.977c-15.553,2.798-31.163-4.612-38.827-18.432
				c-6.326-10.031-9.616-21.678-9.472-33.536c0-34.133,42.667-25.6,42.667-25.6l2.048,0.171
				C135.052,244.044,133.687,270.839,141.196,290.977z"/>
			<path style="fill:#FFE0B2;" d="M374.498,256.062c0.231,11.85-1.293,23.668-4.523,35.072h-0.085
				c-4.132,14.968-14.744,27.302-28.928,33.621c-2.56,1.195-5.12,2.475-7.68,3.84c-3.243,1.621-6.656,3.328-9.984,5.12
				c-2.816,1.536-5.717,2.987-8.533,4.608c-18.174,11.039-38.58,17.89-59.733,20.053c-21.154-2.163-41.559-9.014-59.733-20.053
				c-2.816-1.621-5.717-3.072-8.533-4.608c-5.973-3.157-11.861-6.229-17.664-8.96c-14.184-6.319-24.796-18.653-28.928-33.621h-0.085
				c-3.229-11.404-4.753-23.222-4.523-35.072c-0.085-13.056,0.939-27.392,2.219-42.496c1.963-22.955,4.523-47.957,4.523-73.728
				c-0.758-17.945,5.73-35.442,18.005-48.555c13.065-12.489,29.551-20.807,47.36-23.893c12.871-2.711,26.022-3.857,39.168-3.413
				c6.315,5.888,12.971,19.968,8.448,53.675c-0.085,0.597-0.171,1.28-0.256,1.877c0,0,14.933-5.803,37.205-30.72
				c5.035-5.632,10.496-12.203,16.213-19.968c28.587,7.424,59.307,25.941,59.307,70.997c0,25.771,2.56,50.773,4.523,73.728
				C373.559,228.67,374.583,243.006,374.498,256.062z"/>
		</g>
		<path style="fill:#FFECB3;" d="M348.898,273.128c0.231,11.85-1.293,23.668-4.523,35.072h-0.085
			c-2.159,7.511-5.914,14.468-11.008,20.395c-3.243,1.621-6.656,3.328-9.984,5.12c-2.816,1.536-5.717,2.987-8.533,4.608
			c-18.174,11.039-38.58,17.89-59.733,20.053c-21.154-2.163-41.559-9.014-59.733-20.053c-2.816-1.621-5.717-3.072-8.533-4.608
			c-5.973-3.157-11.861-6.229-17.664-8.96c-14.184-6.319-24.796-18.653-28.928-33.621h-0.085
			c-3.229-11.404-4.753-23.222-4.523-35.072c-0.085-13.056,0.939-27.392,2.219-42.496c1.963-22.955,4.523-47.957,4.523-73.728
			c-0.758-17.945,5.73-35.442,18.005-48.555c7.003-3.008,14.294-5.295,21.76-6.827c12.871-2.711,26.022-3.857,39.168-3.413
			c6.4,5.973,13.227,20.48,8.192,55.552c9.641-4.786,18.387-11.194,25.856-18.944c10.062-9.789,19.282-20.408,27.563-31.744
			c3.157,0.853,6.315,1.792,9.387,2.901c25.515,8.875,49.92,27.989,49.92,68.096c0,25.771,2.56,50.773,4.523,73.728
			C347.959,245.736,348.983,260.072,348.898,273.128z"/>
		<path style="fill:#2E7D32;" d="M417.164,102.462h-17.067v110.933l-0.341,1.024c-5.425-1.587-11.084-2.222-16.725-1.877
			c-2.861,0.08-5.713,0.365-8.533,0.853l-2.219,0.171c-1.963-22.955-4.523-47.957-4.523-73.728c0-45.056-30.72-63.573-59.307-70.997
			c-30.976,41.899-53.419,50.688-53.419,50.688c5.035-35.072-1.792-49.579-8.192-55.552c-13.146-0.444-26.297,0.702-39.168,3.413
			c-23.808,5.12-51.029,17.323-61.269,46.336c-2.8,8.418-4.184,17.241-4.096,26.112c0,25.771-2.56,50.773-4.523,73.728l-2.219-0.171
			c-4.139-0.735-8.342-1.05-12.544-0.939c-4.31,0.044-8.592,0.705-12.715,1.963l-0.341-1.024V102.462H92.898
			c6.622-11.972,15.729-22.388,26.709-30.549c10.15-7.751,21.248-14.174,33.024-19.115c-3.292-2.702-7.184-4.575-11.349-5.461
			c-7.465-1.793-15.108-2.738-22.784-2.816c42.667-41.472,110.933-24.917,110.933-24.917s68.267-24.832,136.533,0
			c0,0-8.533,0-25.6,16.64C373.092,48.366,400.357,71.874,417.164,102.462z"/>
		<path style="fill:#4CAF50;" d="M400.098,128.062h-17.067v84.48c-2.861,0.08-5.713,0.365-8.533,0.853l-2.219,0.171
			c-1.963-22.955-4.523-47.957-4.523-73.728c0-45.056-30.72-63.573-59.307-70.997c-30.976,41.899-53.419,50.688-53.419,50.688
			c5.035-35.072-1.792-49.579-8.192-55.552c-13.146-0.444-26.297,0.702-39.168,3.413c-23.808,5.12-51.029,17.323-61.269,46.336
			c-14.323,13.281-22.065,32.2-21.163,51.712c0,16.043-1.024,31.829-2.218,47.019c-4.31,0.044-8.592,0.705-12.715,1.963
			l-0.341-1.024V102.462H96.567c11.674-9.994,24.83-18.112,38.997-24.064c-4.63-3.573-10.147-5.815-15.957-6.485
			c10.15-7.751,21.248-14.174,33.024-19.115c-3.292-2.702-7.184-4.575-11.349-5.461c23.197-6.293,47.551-7.024,71.083-2.133
			c0,0,68.267-24.832,136.533,0c0,0-8.533,0-25.6,16.64C356.025,73.966,383.29,97.474,400.098,128.062L400.098,128.062z"/>
		<path style="fill:#FFE0B2;" d="M375.095,430.412c-18.005,22.784-65.024,38.997-120.064,38.997s-102.059-16.213-120.064-38.997
			c37.035-14.08,60.331-54.869,60.331-54.869v-37.205c18.174,11.039,38.58,17.89,59.733,20.053c-0.794,0.071-1.592,0.1-2.389,0.085
			h4.779c-0.797,0.014-1.595-0.014-2.389-0.085c21.154-2.164,41.559-9.014,59.733-20.053v37.205
			C314.764,375.543,338.06,416.332,375.095,430.412z"/>
		<path style="fill:#607D8B;" d="M485.431,495.009v8.533h-460.8v-8.533c0-17.067,34.133-59.733,85.333-59.733
			c8.567-0.022,17.052-1.673,25.003-4.864c18.005,22.784,65.024,38.997,120.064,38.997s102.059-16.213,120.064-38.997
			c7.951,3.191,16.436,4.842,25.003,4.864C451.298,435.276,485.431,477.943,485.431,495.009z"/>
		<g>
			<path style="fill:#2980BA;" d="M209.988,184.638c0.707,2.411,1.057,4.912,1.038,7.424c1.008,10.638-6.686,20.124-17.303,21.333
				c-10.6-1.239-18.278-10.706-17.303-21.333c-0.975-10.628,6.703-20.094,17.303-21.333c0.781,0.014,1.561,0.071,2.336,0.171"/>
			<path style="fill:#2980BA;" d="M314.002,170.899c0.775-0.099,1.555-0.156,2.336-0.171c10.6,1.239,18.278,10.706,17.303,21.333
				c0.975,10.628-6.703,20.094-17.303,21.333c-10.617-1.209-18.311-10.696-17.303-21.333c-0.019-2.512,0.331-5.013,1.038-7.424"/>
		</g>
		<path style="fill:#FFFFFF;" d="M203.831,303.22c0,0,18.618-47.158,55.855-47.158s46.546,47.158,46.546,47.158
			C274.171,320.046,235.891,320.046,203.831,303.22z"/>
	</g>
	<g>
		<path d="M25.631,513.062h460.8c2.263,0.001,4.434-0.898,6.035-2.499c1.6-1.6,2.499-3.771,2.499-6.035v-8.533
			c0-23.371-39.642-68.267-93.867-68.267c-40.973,0-70.936-44.273-76.8-53.612V344.35c0.665-0.354,1.336-0.706,2-1.059l4.025-2.116
			c5.133-2.687,10.208-5.342,15.267-7.679c14.175-6.283,25.337-17.851,31.109-32.242c0.152,0.002,0.305,0.046,0.457,0.046
			c9.973-0.123,19.592-3.718,27.2-10.167c14.646-12.901,22.827-31.626,22.342-51.138c0.532-10.102-3.674-19.875-11.375-26.433
			c-1.764-1.433-3.671-2.678-5.692-3.717v-97.85h8.533c2.975-0.001,5.735-1.552,7.284-4.092s1.662-5.704,0.3-8.349
			c-15.271-28.377-39.231-51.115-68.366-64.883c2.893-2.329,6.136-4.185,9.609-5.5c4.136-0.015,7.666-2.993,8.377-7.067
			c0.712-4.074-1.6-8.072-5.486-9.488c-63.908-23.254-126.8-5.133-139.958-0.821c-13.358-2.721-75.092-12.496-116.367,27.567
			c-2.495,2.419-3.273,6.11-1.968,9.331s4.434,5.328,7.909,5.327c4.222,0.03,8.437,0.343,12.617,0.938
			c-19.088,10.356-34.94,25.79-45.8,44.596c-1.362,2.645-1.249,5.809,0.3,8.349c1.549,2.541,4.308,4.091,7.284,4.092h8.533v97.851
			c-2.02,1.039-3.928,2.284-5.692,3.716c-7.701,6.559-11.907,16.332-11.375,26.433c-0.485,19.512,7.696,38.236,22.342,51.138
			c7.608,6.45,17.227,10.046,27.2,10.167c0.156,0,0.313-0.045,0.468-0.047c5.783,14.402,16.959,25.978,31.148,32.264
			c5.008,2.317,10.083,4.971,15.217,7.658l4.025,2.116c0.663,0.354,1.335,0.706,2,1.059v29.782
			c-5.852,9.357-35.696,53.597-76.8,53.597c-54.225,0-93.867,44.896-93.867,68.267v8.533c-0.001,2.263,0.898,4.434,2.499,6.035
			C21.197,512.164,23.368,513.062,25.631,513.062z M393.556,277.916c-3.406,2.854-7.445,4.853-11.781,5.828
			c1.217-7.046,1.913-14.172,2.083-21.32l12.523-6.262c4.204-2.114,5.903-7.232,3.799-11.441c-2.104-4.209-7.218-5.92-11.432-3.826
			l-5.022,2.511c-0.276-6.896-0.741-14.005-1.314-21.286c7.691-1.055,15.509,0.593,22.12,4.663c3.662,3.372,5.547,8.255,5.1,13.212
			C410.128,254.388,404.245,268.265,393.556,277.916L393.556,277.916z M119.498,111.995c4.713,0,8.533-3.821,8.533-8.533
			c0-4.713-3.821-8.533-8.533-8.533h-9.7c13.019-14.379,29.042-25.718,46.933-33.212c2.703-1.058,4.684-3.417,5.258-6.263
			c0.575-2.846-0.336-5.788-2.417-7.812c-5.102-4.262-11.23-7.118-17.775-8.283c37.992-21.683,86.075-10.554,86.633-10.425
			c1.628,0.385,3.333,0.29,4.908-0.275c36.001-11.408,74.327-13.38,111.309-5.729c-2.817,2.233-5.892,4.917-9.225,8.15
			c-2.148,2.086-3.046,5.144-2.367,8.06c0.679,2.916,2.835,5.263,5.683,6.186c25.922,9.767,48.345,27.037,64.408,49.604h-10.583
			c-4.713,0-8.533,3.821-8.533,8.533c0,4.713,3.82,8.533,8.533,8.533v93.157c-3.852-0.34-7.726-0.358-11.58-0.051l-0.036-0.422
			c-1.8-20.558-3.658-41.813-3.658-63.829c0-40.582-22.63-67.959-65.431-79.203c-3.424-1.048-7.137,0.169-9.277,3.041
			c-10.355,14.603-22.588,27.779-36.383,39.188c0.873-20.939-3.168-35.849-11.996-44.545l-0.188-0.206
			c-0.123-0.119-0.224-0.266-0.349-0.383c-0.32-0.231-0.657-0.437-1.007-0.619c-0.916-0.785-2.054-1.266-3.256-1.374
			c-0.39-0.129-0.79-0.227-1.195-0.295c-13.865-0.487-27.739,0.708-41.317,3.558c-46.5,9.921-72.117,38.629-72.117,80.837
			c0,22.017-1.858,43.271-3.658,63.829l-0.036,0.419c-3.855-0.307-7.729-0.289-11.58,0.053V111.995z M118.506,277.916
			c-10.689-9.651-16.572-23.528-16.075-37.921c-0.447-4.958,1.438-9.841,5.1-13.212c6.61-4.071,14.429-5.721,22.12-4.668
			c-0.573,7.283-1.039,14.394-1.314,21.292l-5.022-2.511c-2.728-1.372-5.982-1.182-8.532,0.498c-2.55,1.681-4.007,4.596-3.822,7.644
			c0.185,3.048,1.985,5.765,4.72,7.124l12.526,6.263c0.171,7.155,0.869,14.288,2.091,21.341
			C125.956,282.787,121.912,280.781,118.506,277.916L118.506,277.916z M173.723,318.045c-11.671-5.154-20.507-15.15-24.191-27.365
			c-0.015-0.085,0.017-0.166-0.001-0.252c-0.047-0.235-0.203-0.41-0.268-0.636c-6.115-19.371-4.365-46.794-1.148-83.63
			c1.833-20.917,3.725-42.55,3.725-65.313c0-34.267,19.717-55.85,58.617-64.146c10.985-2.288,22.185-3.388,33.405-3.281
			c3.469,5.039,7.834,17.274,3.72,45.894c-0.35,2.45,0.38,4.931,2.001,6.801c1.621,1.87,3.974,2.944,6.449,2.945
			c1.064,0.002,2.118-0.198,3.108-0.588c0.976-0.38,23.245-9.505,53.396-48.696c31.518,9.865,47.687,30.297,47.687,61.071
			c0,22.762,1.892,44.396,3.725,65.313c3.213,36.79,4.962,64.19-1.115,83.553c-0.076,0.253-0.248,0.45-0.302,0.714
			c-0.02,0.097,0.016,0.189-0.001,0.286c-3.678,12.189-12.495,22.164-24.141,27.31c-5.267,2.429-10.583,5.204-15.975,8.025
			l-4.133,2.179c-19.973,10.632-40.624,21.576-62.319,22.585c-21.214-0.799-42.04-11.865-62.181-22.585l-4.133-2.179
			C184.256,323.228,178.939,320.453,173.723,318.045z M187.764,402.83v16.365c0,4.713,3.821,8.533,8.533,8.533
			c4.713,0,8.533-3.821,8.533-8.533V353.12c13.981,7.386,29.169,12.217,44.848,14.265c0.963,0.388,1.989,0.595,3.027,0.611h6.65
			c1.063-0.012,2.114-0.224,3.099-0.625c15.644-2.096,30.8-6.922,44.776-14.257v66.083c0,4.713,3.82,8.533,8.533,8.533
			s8.533-3.821,8.533-8.533V402.83c10.418,12.536,22.999,23.103,37.146,31.199c-20.834,16.934-61.086,27.833-105.412,27.833
			s-84.578-10.898-105.412-27.833C164.766,425.933,177.346,415.366,187.764,402.83L187.764,402.83z M110.964,444.795
			c7.592-0.046,15.135-1.218,22.382-3.479c22.351,23.006,69.447,37.612,122.684,37.612s100.333-14.606,122.684-37.612
			c7.248,2.26,14.791,3.433,22.382,3.479c47.95,0,76.8,40.6,76.8,51.2H34.164C34.164,485.395,63.014,444.795,110.964,444.795z"/>
		<path d="M218.235,205.287c4.269-1.287,6.81-5.662,5.813-10.008c-8.317-35.408-48.125-40.354-49.817-40.55
			c-4.683-0.534-8.912,2.83-9.446,7.513c-0.534,4.683,2.83,8.912,7.513,9.446c0.064,0.007,1.56,0.206,3.838,0.729
			c-4.746,5.829-7.309,13.131-7.246,20.647c-1.011,15.347,10.501,28.656,25.833,29.867
			C205.454,222.475,214.798,215.463,218.235,205.287L218.235,205.287z M185.956,193.062c0-6.628,3.882-12.422,8.386-12.74
			c3.365,2.363,6.277,5.312,8.599,8.705c0.342,1.319,0.525,2.673,0.548,4.035c0,6.938-4.017,12.8-8.767,12.8
			C190.056,205.862,185.956,199.878,185.956,193.062z"/>
		<path d="M215.631,155.141c2.832,1.139,6.057,0.679,8.457-1.208s3.609-4.912,3.171-7.933c-0.438-3.021-2.458-5.578-5.295-6.705
			l-48.1-19.246c-2.832-1.139-6.057-0.679-8.457,1.208c-2.4,1.887-3.609,4.912-3.171,7.933c0.438,3.021,2.458,5.578,5.295,6.705
			L215.631,155.141z"/>
		<path d="M337.831,154.728c-1.692,0.196-41.5,5.142-49.817,40.55c-0.997,4.346,1.544,8.721,5.813,10.008
			c3.436,10.176,12.781,17.187,23.512,17.641c15.333-1.21,26.845-14.52,25.833-29.867c0.063-7.522-2.504-14.83-7.256-20.66
			c2.133-0.482,3.596-0.685,3.873-0.719c4.682-0.541,8.039-4.774,7.498-9.456C346.746,157.545,342.513,154.188,337.831,154.728
			L337.831,154.728z M326.106,193.062c0,6.817-4.1,12.8-8.767,12.8c-4.75,0-8.767-5.862-8.767-12.8
			c0.02-1.379,0.207-2.751,0.555-4.086c2.299-3.374,5.183-6.309,8.516-8.666C322.18,180.566,326.106,186.396,326.106,193.062z"/>
		<path d="M293.264,155.753c1.085-0.001,2.16-0.209,3.167-0.613l48.1-19.246c2.837-1.127,4.856-3.683,5.295-6.705
			c0.438-3.021-0.771-6.046-3.171-7.933c-2.4-1.887-5.625-2.347-8.457-1.208l-48.1,19.246c-3.8,1.517-5.989,5.519-5.215,9.537
			C285.655,152.851,289.172,155.755,293.264,155.753L293.264,155.753z"/>
		<path d="M246.064,227.662c2.453-3.013,6.139-4.753,10.025-4.733s7.553,1.799,9.975,4.837c2.659,3.86,7.933,4.853,11.814,2.225
			c3.881-2.628,4.916-7.894,2.319-11.796c-5.613-7.747-14.6-12.333-24.167-12.333c-9.567,0-18.554,4.586-24.167,12.333
			c-1.716,2.537-1.941,5.798-0.59,8.546c1.351,2.748,4.071,4.562,7.128,4.752C241.458,231.683,244.382,230.221,246.064,227.662z"/>
		<path d="M260.689,248.528c-42.558,0-62.95,50.412-63.792,52.558c-1.621,4.097,0.145,8.754,4.075,10.746
			c17.098,8.849,36.056,13.502,55.308,13.575c19.341,0.145,38.401-4.638,55.383-13.896c3.059-1.861,4.633-5.432,3.942-8.946
			C311.914,283.878,295.689,248.528,260.689,248.528z M216.273,300.108c6.433-11.962,21.583-34.512,44.417-34.512
			c22.808,0,32.908,22.817,36.508,34.125C271.415,310.931,242.161,311.071,216.273,300.108L216.273,300.108z"/>
	</g>
</g>
<g>
</g>
<g>
</g>
<g>
</g>
<g>
</g>
<g>
</g>
<g>
</g>
<g>
</g>
<g>
</g>
<g>
</g>
<g>
</g>
<g>
</g>
<g>
</g>
<g>
</g>
<g>
</g>
<g>
</g>
</svg>
