<?xml version="1.0" encoding="iso-8859-1"?>
<!-- Generator: Adobe Illustrator 19.0.0, SVG Export Plug-In . SVG Version: 6.00 Build 0)  -->
<svg version="1.1" id="Capa_1" xmlns="http://www.w3.org/2000/svg" xmlns:xlink="http://www.w3.org/1999/xlink" x="0px" y="0px"
	 viewBox="0 0 512.125 512.125" style="enable-background:new 0 0 512.125 512.125;" xml:space="preserve">
<g transform="translate(0 -1)">
	<g transform="translate(1 2)">
		<path style="fill:#AD1457;" d="M340.993,319.978c12.997-5.761,23.077-16.58,27.904-29.952c3.913,0.934,7.968,1.108,11.947,0.512
			c1.915-0.322,3.799-0.808,5.632-1.451c8.737-3.259,16.149-9.32,21.077-17.237l9.643,0.341c8.87,1.129,17.881,0.254,26.368-2.56
			c52.48-17.493,58.965-107.008,58.965-107.008C417.196,196.33,408.663,95.21,357.463,36.245
			C318.807-8.214,246.273,9.621,212.908,21.056h-0.085c-15.472-9.692-34.617-11.495-51.627-4.864
			c-6.378,2.965-11.662,7.861-15.104,13.995h-0.085c-22.357,34.304-31.744,115.712-89.941,140.885
			c-15.322,6.339-31.963,8.829-48.469,7.253c1.049,5.255,2.417,10.442,4.096,15.531c8.704,26.624,32.768,78.336,89.771,78.336
			l0.939-0.597c7.664,13.82,23.274,21.23,38.827,18.432c4.739,13.425,14.847,24.276,27.904,29.952
			c11.605,5.376,23.467,12.117,35.84,18.176l-1.109,2.304v42.667l-25.6,14.251l-42.667,23.637l-63.403,35.243
			c-4.197,2.31-7.952,5.343-11.093,8.96c-6.988,7.781-10.848,17.873-10.837,28.331v9.045h409.6v-9.045
			c0.007-15.491-8.389-29.768-21.931-37.291l-63.403-35.243l-68.267-37.888v-42.667l-1.109-2.304
			c9.813-4.779,19.285-9.984,28.501-14.592C336.129,322.282,338.604,321.088,340.993,319.978z M252.673,353.173
			c0.797,0.014,1.595-0.014,2.389-0.085c0.794,0.071,1.592,0.1,2.389,0.085H252.673z"/>
		<path style="fill:#E91E63;" d="M315.393,337.045c13.01-5.742,23.096-16.569,27.904-29.952c5.21,1.229,10.651,1.082,15.787-0.427
			c4.3-4.872,7.631-10.52,9.813-16.64c3.913,0.934,7.968,1.108,11.947,0.512c0.341-0.512,0.768-1.024,1.109-1.621l4.523,0.171
			c8.737-3.259,16.149-9.32,21.077-17.237l9.643,0.341c8.87,1.129,17.881,0.254,26.368-2.56
			c29.184-31.744,33.365-89.941,33.365-89.941c-85.333,33.707-93.867-67.413-145.067-126.379
			C293.207,8.853,220.673,26.688,187.308,38.122h-0.085c-12.287-7.564-26.911-10.385-41.131-7.936h-0.085
			c-22.357,34.304-31.744,115.712-89.941,140.885c-12.24,11.778-27.669,19.701-44.373,22.784
			c8.704,26.624,32.768,78.336,89.771,78.336l0.939-0.597c7.664,13.82,23.274,21.23,38.827,18.432
			c4.739,13.425,14.847,24.276,27.904,29.952c11.605,5.376,23.467,12.117,35.84,18.176l-1.109,2.304v42.667l-25.6,14.251v2.816
			l-68.267,37.888L61.1,465.216c-6.988,7.781-10.848,17.873-10.837,28.331v9.045h383.232c-2.351-12.418-10.107-23.146-21.163-29.269
			l-63.403-35.243l-68.267-37.888v-42.667l-1.109-2.304c9.131-4.523,18.005-9.387,26.709-13.739
			C309.335,339.946,312.407,338.41,315.393,337.045z M227.073,370.24c0.797,0.014,1.595-0.014,2.389-0.085
			c0.794,0.071,1.592,0.1,2.389,0.085H227.073z"/>
		<g>
			<path style="fill:#FFECB3;" d="M417.196,238.048c0.128,11.96-3.222,23.7-9.643,33.792c-7.681,13.693-23.211,20.995-38.656,18.176
				c7.509-20.139,6.144-46.933,3.584-77.397l2.048-0.171C374.529,212.448,417.196,203.915,417.196,238.048z"/>
			<path style="fill:#FFECB3;" d="M141.228,290.016c-15.553,2.798-31.163-4.612-38.827-18.432
				c-6.326-10.031-9.616-21.678-9.472-33.536c0-34.133,42.667-25.6,42.667-25.6l2.048,0.171
				C135.084,243.083,133.719,269.877,141.228,290.016z"/>
		</g>
		<path style="fill:#FFE0B2;" d="M368.897,290.026c-4.739,13.425-14.847,24.276-27.904,29.952c-2.389,1.109-4.864,2.304-7.339,3.584
			c-9.216,4.608-18.688,9.813-28.501,14.592c-15.438,8.501-32.518,13.593-50.091,14.933c-17.572-1.34-34.653-6.432-50.091-14.933
			c-12.373-6.059-24.235-12.8-35.84-18.176c-13.057-5.676-23.165-16.527-27.904-29.952c-7.509-20.139-6.144-46.933-3.584-77.397
			c1.963-23.211,4.693-48.64,4.693-74.837c-0.721-17.53,5.61-34.618,17.579-47.445c30.379-31.744,89.6-27.136,89.6-27.136h11.093
			c0,0,107.179-8.277,107.179,74.581c0,26.197,2.731,51.627,4.693,74.837C375.041,243.093,376.407,269.888,368.897,290.026z"/>
		<g>
			<path style="fill:#FFECB3;" d="M343.297,307.093c-2.157,6.044-5.428,11.63-9.643,16.469c-9.216,4.608-18.688,9.813-28.501,14.592
				c-15.438,8.501-32.518,13.593-50.091,14.933c-17.572-1.34-34.653-6.432-50.091-14.933c-12.373-6.059-24.235-12.8-35.84-18.176
				c-13.057-5.676-23.165-16.527-27.904-29.952c-7.509-20.139-6.144-46.933-3.584-77.397c1.963-23.211,4.693-48.64,4.693-74.837
				c-0.721-17.53,5.61-34.618,17.579-47.445c20.386-7.826,42.196-11.258,64-10.069h11.093c0,0,107.179-8.277,107.179,74.581
				c0,26.197,2.731,51.627,4.693,74.837C349.441,260.16,350.807,286.954,343.297,307.093z"/>
			<path style="fill:#FFECB3;" d="M374.529,421.003v81.579H135.596v-81.579l68.267-37.888v-42.667l1.109-2.304
				c15.438,8.501,32.518,13.593,50.091,14.933c-0.794,0.071-1.592,0.1-2.389,0.085h4.779c-0.797,0.014-1.595-0.014-2.389-0.085
				c17.572-1.34,34.653-6.432,50.091-14.933l1.109,2.304v42.667L374.529,421.003z"/>
		</g>
		<g>
			<path style="fill:#02A9F4;" d="M212.563,180.458c0.354,2.892,0.326,5.819-0.085,8.704c-1.877,13.995-11.093,24.32-20.565,23.04
				c-9.472-1.195-15.701-13.568-13.824-27.648c1.877-13.995,11.093-24.32,20.565-23.04c0.583,0.023,1.159,0.138,1.707,0.341h0.085"
				/>
			<path style="fill:#02A9F4;" d="M309.68,161.856h0.085c0.547-0.203,1.123-0.319,1.707-0.341c9.472-1.28,18.688,9.045,20.565,23.04
				c1.877,14.08-4.352,26.453-13.824,27.648c-9.472,1.28-18.688-9.045-20.565-23.04c-0.411-2.885-0.44-5.812-0.085-8.704"/>
		</g>
		<path style="fill:#FFFFFF;" d="M203.863,302.283c0,0,18.618-47.158,55.855-47.158s46.545,47.158,46.545,47.158
			C274.203,319.109,235.922,319.109,203.863,302.283z"/>
	</g>
	<g>
		<path d="M246.096,227.725c2.453-3.013,6.139-4.753,10.025-4.733c3.886,0.02,7.553,1.799,9.975,4.837
			c2.659,3.86,7.933,4.853,11.814,2.225c3.881-2.628,4.916-7.894,2.319-11.796c-5.613-7.747-14.6-12.333-24.167-12.333
			c-9.567,0-18.554,4.586-24.167,12.333c-1.716,2.537-1.941,5.798-0.59,8.546c1.351,2.748,4.071,4.562,7.128,4.752
			C241.49,231.747,244.414,230.284,246.096,227.725z"/>
		<path d="M185.804,120.296c9.792,2.667,24.308,9.95,24.392,17.125c0.054,4.675,3.858,8.437,8.533,8.438h0.1
			c4.711-0.056,8.485-3.918,8.433-8.629c-0.258-22.871-33.258-32.4-37.017-33.413c-4.551-1.227-9.234,1.468-10.46,6.019
			C178.559,114.386,181.254,119.069,185.804,120.296L185.804,120.296z"/>
		<path d="M508.579,157.771c-2.364-1.737-5.455-2.136-8.183-1.058c-49.85,19.658-68.092-9.158-96.1-61.821
			c-10.744-22.161-23.959-43.036-39.392-62.229C324.015-14.457,250.876,1.678,214.47,13.772
			c-17.037-9.365-37.361-10.65-55.441-3.505c-18.509,7.404-27.842,32.079-38.658,60.654
			c-18.8,49.671-40.142,106.042-111.167,100.892c-2.629-0.179-5.194,0.86-6.958,2.817c-1.764,1.96-2.518,4.627-2.042,7.221
			c0.181,0.996,18.871,98.331,99.228,100.76c2.612,3.365,5.609,6.413,8.93,9.081c7.517,6.173,16.915,9.599,26.642,9.713
			c0.625,0,1.25-0.079,1.876-0.109c6.155,12.718,16.661,22.811,29.616,28.45c6.383,2.958,12.875,6.358,19.483,9.813
			c3.374,1.765,6.841,3.558,10.35,5.341v35.207l-51.596,28.656c-0.855-3.815-4.228-6.538-8.137-6.57
			c-2.263-0.001-4.434,0.898-6.035,2.499c-1.6,1.6-2.499,3.771-2.499,6.035v7.295l-59,32.768
			c-16.26,9.025-26.342,26.162-26.333,44.758v9.046c-0.001,2.263,0.898,4.434,2.499,6.035s3.771,2.499,6.035,2.499h409.6
			c2.263,0.001,4.434-0.898,6.035-2.499s2.499-3.771,2.499-6.035v-9.046c0.01-18.593-10.069-35.727-26.325-44.75l-59.008-32.774
			v-7.297c0.001-2.263-0.898-4.434-2.499-6.035c-1.6-1.6-3.771-2.499-6.035-2.499c-3.911,0.032-7.283,2.755-8.137,6.571
			l-51.596-28.657v-35.207c3.508-1.783,6.976-3.576,10.35-5.341c6.608-3.454,13.1-6.854,19.483-9.813
			c12.955-5.639,23.461-15.732,29.616-28.45c0.626,0.03,1.251,0.109,1.876,0.109c9.727-0.113,19.124-3.539,26.642-9.712
			c3.747-2.996,7.084-6.471,9.928-10.335c1.073,0.709,2.296,1.162,3.573,1.322c2.884,0.318,5.782,0.479,8.683,0.483
			c15.706,0.153,30.942-5.357,42.917-15.521c37.633-31.358,42.967-99.492,43.175-102.375
			C512.254,162.339,510.947,159.507,508.579,157.771z M118.963,278.313c-10.892-9.68-16.935-23.689-16.5-38.254
			c-0.447-4.958,1.438-9.841,5.1-13.212c6.545-4.045,14.288-5.699,21.915-4.682c-0.559,7.27-1.013,14.374-1.239,21.24l-4.892-2.446
			c-2.728-1.372-5.982-1.182-8.532,0.498c-2.55,1.681-4.007,4.596-3.822,7.644c0.185,3.048,1.985,5.765,4.72,7.124l12.588,6.294
			c0.309,7.213,1.225,14.388,2.739,21.447C126.612,283.099,122.465,281.157,118.963,278.313L118.963,278.313z M59.796,495.546
			c-0.01-12.394,6.706-23.817,17.542-29.833l50.725-28.174v58.519H59.796V495.546z M434.796,465.721
			c10.832,6.015,17.545,17.435,17.533,29.825v0.513h-68.267v-58.517L434.796,465.721z M307.263,444.858
			c2.263,0.001,4.434-0.898,6.035-2.499c1.6-1.6,2.499-3.771,2.499-6.035v-36.702l51.2,28.439v67.997H145.129V428.06l51.2-28.437
			v36.702c0,4.713,3.821,8.533,8.533,8.533s8.533-3.82,8.533-8.533v-83.371c11.637,5.3,24.021,8.778,36.717,10.312
			c0.8,0.256,1.634,0.392,2.475,0.404c0.767,0.004,1.508,0.004,2.258,0h2.433c0.367,0.004,0.733,0.009,1.1,0.009
			c0.383,0,0.767-0.004,1.158-0.009c0.843-0.012,1.68-0.148,2.483-0.404c12.693-1.533,25.074-5.011,36.709-10.311v83.37
			c-0.001,2.263,0.898,4.434,2.499,6.035C302.828,443.96,304.999,444.859,307.263,444.858L307.263,444.858z M338.446,314.263
			c-6.617,3.071-13.358,6.588-20.208,10.171c-20.133,10.529-40.917,21.396-62.175,22.137c-21.258-0.742-42.042-11.612-62.175-22.137
			c-6.85-3.583-13.592-7.1-20.208-10.171c-32.325-14.988-30.883-49.85-25.55-110.183c1.817-20.596,3.7-41.892,3.7-64.296
			c-0.757-16.436,5.612-32.399,17.475-43.8c21.683-20.105,57.983-22.412,73.633-22.412c4.483,0,7.283,0.192,7.542,0.204h11.167
			c0.217,0,0.442-0.009,0.658-0.025c0.508-0.037,52.458-3.733,80.475,22.196c11.892,11.4,18.278,27.382,17.517,43.837
			c0,22.404,1.883,43.7,3.7,64.296C369.329,264.413,370.771,299.275,338.446,314.263z M393.163,278.313
			c-3.502,2.845-7.65,4.788-12.078,5.656c1.514-7.06,2.431-14.235,2.739-21.449l12.588-6.294c4.204-2.114,5.903-7.232,3.798-11.441
			c-2.104-4.209-7.218-5.92-11.432-3.826l-4.892,2.446c-0.226-6.865-0.679-13.966-1.239-21.235
			c7.625-1.019,15.368,0.634,21.914,4.676c3.662,3.371,5.548,8.255,5.101,13.213C410.097,254.624,404.055,268.633,393.163,278.313z
			 M457.938,254.529c-9.975,8.451-22.923,12.548-35.944,11.374c3.129-8.257,4.734-17.014,4.735-25.845
			c0.532-10.102-3.674-19.875-11.375-26.433c-9.941-6.943-22.099-9.963-34.134-8.478c-0.076-0.861-0.148-1.707-0.224-2.572
			c-1.783-20.225-3.633-41.142-3.633-62.792c0.846-21.228-7.539-41.783-22.992-56.363c-32.475-30.058-87.717-27.079-93.042-26.712
			l-10.192,0.025c-2.45-0.196-59.958-4.258-93.383,26.687c-15.453,14.579-23.838,35.135-22.992,56.363
			c0,21.65-1.85,42.567-3.633,62.792c-0.077,0.864-0.148,1.708-0.225,2.568c-12.035-1.482-24.192,1.539-34.134,8.482
			c-7.701,6.559-11.907,16.332-11.375,26.433c0.001,8.325,1.421,16.588,4.198,24.436c-45.409-7.564-63.934-54.059-70.057-75.298
			c74.633-0.812,98.875-64.862,116.8-112.233c8.992-23.775,17.492-46.234,29.042-50.854c8.064-3.284,16.898-4.2,25.464-2.641
			c-2.883,2.418-3.813,6.454-2.281,9.891c1.957,4.283,7.01,6.176,11.3,4.233c1.058-0.475,105.775-47.192,152.158,6.258
			c14.554,18.242,27.031,38.049,37.2,59.054c23.342,43.879,47.408,89.117,104.133,74.1
			C490.113,197.046,481.096,235.229,457.938,254.529z"/>
		<path d="M221.929,192.333c0.516-3.624,0.55-7.3,0.1-10.933c-0.028-0.22-0.16-0.391-0.204-0.605
			c-0.042-0.212,0.013-0.42-0.046-0.632c-2.542-8.702-7.384-16.557-14.017-22.738c-6.759-6.522-14.72-11.669-23.442-15.154
			c-4.421-1.608-9.31,0.666-10.929,5.083c-1.619,4.417,0.641,9.311,5.054,10.942c1.692,0.69,3.345,1.473,4.951,2.345
			c-7.183,6.393-11.734,15.228-12.768,24.788c-1.651,9.958,0.681,20.167,6.492,28.421c3.512,4.775,8.786,7.948,14.65,8.813
			c0.923,0.125,1.852,0.187,2.783,0.188c4.994-0.068,9.822-1.796,13.725-4.913C216.004,211.517,220.904,202.325,221.929,192.333
			L221.929,192.333z M197.929,204.371c-1.098,0.936-2.508,1.424-3.95,1.367c-1.366-0.315-2.561-1.139-3.342-2.304
			c-2.996-4.664-4.102-10.295-3.092-15.746c0.463-5.506,2.997-10.631,7.092-14.342c0.981-0.785,2.184-1.242,3.439-1.306
			c3.175,3.451,5.567,7.546,7.013,12.006c0.216,1.99,0.193,3.998-0.069,5.982C204.558,195.535,202.024,200.66,197.929,204.371
			L197.929,204.371z"/>
		<path d="M293.296,145.858h0.1c4.675-0.001,8.48-3.763,8.533-8.438c0.083-7.175,14.6-14.458,24.392-17.125
			c4.551-1.227,7.245-5.91,6.019-10.46s-5.91-7.245-10.46-6.019c-3.758,1.012-36.758,10.542-37.017,33.413
			C284.811,141.94,288.585,145.802,293.296,145.858z"/>
		<path d="M328.726,160.639c1.606-0.872,3.26-1.654,4.953-2.343c4.413-1.631,6.673-6.525,5.054-10.942
			c-1.619-4.417-6.508-6.69-10.929-5.083c-8.701,3.473-16.645,8.603-23.392,15.104c-6.655,6.191-11.515,14.064-14.067,22.788
			c-0.059,0.21-0.004,0.416-0.046,0.627c-0.044,0.216-0.177,0.389-0.204,0.611c-0.448,3.62-0.418,7.284,0.092,10.896
			c1.023,10.005,5.926,19.21,13.658,25.642c3.898,3.113,8.72,4.842,13.708,4.917c0.911-0.001,1.822-0.062,2.725-0.183
			c5.891-0.851,11.195-4.028,14.725-8.821c5.812-8.257,8.143-18.468,6.492-28.429C340.46,175.862,335.909,167.03,328.726,160.639
			L328.726,160.639z M321.488,203.433c-0.797,1.184-2.021,2.013-3.417,2.313c-1.418,0.044-2.801-0.447-3.875-1.375
			c-4.102-3.721-6.639-8.86-7.1-14.379c-0.255-1.972-0.275-3.966-0.061-5.943c1.447-4.461,3.84-8.557,7.015-12.008
			c1.254,0.066,2.456,0.522,3.438,1.306c4.093,3.708,6.627,8.83,7.092,14.333C325.59,193.133,324.485,198.766,321.488,203.433z"/>
		<path d="M260.721,248.592c-42.558,0-62.95,50.412-63.792,52.558c-1.621,4.097,0.145,8.754,4.075,10.746
			c17.098,8.849,36.056,13.502,55.308,13.575c19.341,0.145,38.401-4.638,55.383-13.896c3.059-1.861,4.633-5.432,3.942-8.946
			C311.946,283.942,295.721,248.592,260.721,248.592z M216.304,300.171c6.433-11.962,21.583-34.512,44.417-34.512
			c22.808,0,32.908,22.817,36.508,34.125C271.447,310.994,242.193,311.134,216.304,300.171L216.304,300.171z"/>
	</g>
</g>
<g>
</g>
<g>
</g>
<g>
</g>
<g>
</g>
<g>
</g>
<g>
</g>
<g>
</g>
<g>
</g>
<g>
</g>
<g>
</g>
<g>
</g>
<g>
</g>
<g>
</g>
<g>
</g>
<g>
</g>
</svg>
