<?xml version="1.0" encoding="iso-8859-1"?>
<!-- Generator: Adobe Illustrator 19.0.0, SVG Export Plug-In . SVG Version: 6.00 Build 0)  -->
<svg version="1.1" id="Capa_1" xmlns="http://www.w3.org/2000/svg" xmlns:xlink="http://www.w3.org/1999/xlink" x="0px" y="0px"
	 viewBox="0 0 512.062 512.062" style="enable-background:new 0 0 512.062 512.062;" xml:space="preserve">
<g transform="translate(0 -1)">
	<g transform="translate(1 1)">
		<g>
			<path style="fill:#FFE0B2;" d="M417.164,238.995c0.128,11.96-3.222,23.7-9.643,33.792c-7.681,13.693-23.211,20.995-38.656,18.176
				c7.509-20.139,6.144-46.933,3.584-77.397l2.048-0.171C374.498,213.395,417.164,204.862,417.164,238.995z"/>
			<path style="fill:#FFE0B2;" d="M141.196,290.963c-15.553,2.798-31.163-4.612-38.827-18.432
				c-6.326-10.031-9.616-21.678-9.472-33.536c0-34.133,42.667-25.6,42.667-25.6l2.048,0.171
				C135.052,244.03,133.687,270.824,141.196,290.963z"/>
			<path style="fill:#FFE0B2;" d="M374.498,256.062c0.231,11.85-1.293,23.668-4.523,35.072h-0.085
				c-4.132,14.968-14.744,27.302-28.928,33.621c-2.56,1.195-5.12,2.475-7.68,3.84c-3.243,1.621-6.656,3.328-9.984,5.12
				c-2.816,1.536-5.717,2.987-8.533,4.608c-18.174,11.039-38.58,17.89-59.733,20.053c-21.154-2.163-41.559-9.014-59.733-20.053
				c-2.816-1.621-5.717-3.072-8.533-4.608c-5.973-3.157-11.861-6.229-17.664-8.96c-14.184-6.319-24.796-18.653-28.928-33.621h-0.085
				c-3.229-11.404-4.753-23.222-4.523-35.072c-0.085-13.056,0.939-27.392,2.219-42.496c1.963-22.955,4.523-47.957,4.523-73.728
				c-0.758-17.945,5.73-35.442,18.005-48.555c13.065-12.489,29.551-20.807,47.36-23.893c12.871-2.711,26.022-3.857,39.168-3.413
				c6.315,5.888,12.971,19.968,8.448,53.675c-0.085,0.597-0.171,1.28-0.256,1.877c0,0,14.933-5.803,37.205-30.72
				c5.035-5.632,10.496-12.203,16.213-19.968c28.587,7.424,59.307,25.941,59.307,70.997c0,25.771,2.56,50.773,4.523,73.728
				C373.559,228.67,374.583,243.006,374.498,256.062z"/>
		</g>
		<path style="fill:#FFECB3;" d="M348.898,273.128c0.231,11.85-1.293,23.668-4.523,35.072h-0.085
			c-2.159,7.511-5.914,14.468-11.008,20.395c-3.243,1.621-6.656,3.328-9.984,5.12c-2.816,1.536-5.717,2.987-8.533,4.608
			c-18.174,11.039-38.58,17.89-59.733,20.053c-21.154-2.163-41.559-9.014-59.733-20.053c-2.816-1.621-5.717-3.072-8.533-4.608
			c-5.973-3.157-11.861-6.229-17.664-8.96c-14.184-6.319-24.796-18.653-28.928-33.621h-0.085
			c-3.229-11.404-4.753-23.222-4.523-35.072c-0.085-13.056,0.939-27.392,2.219-42.496c1.963-22.955,4.523-47.957,4.523-73.728
			c-0.758-17.945,5.73-35.442,18.005-48.555c7.003-3.008,14.294-5.295,21.76-6.827c12.871-2.711,26.022-3.857,39.168-3.413
			c6.4,5.973,13.227,20.48,8.192,55.552c9.641-4.786,18.387-11.194,25.856-18.944c10.062-9.789,19.282-20.408,27.563-31.744
			c3.157,0.853,6.315,1.792,9.387,2.901c25.515,8.875,49.92,27.989,49.92,68.096c0,25.771,2.56,50.773,4.523,73.728
			C347.959,245.736,348.983,260.072,348.898,273.128z"/>
		<path style="fill:#FFB301;" d="M417.164,102.462h-17.067v110.933l-0.341,1.024c-5.425-1.587-11.084-2.222-16.725-1.877
			c-2.861,0.08-5.713,0.365-8.533,0.853l-2.219,0.171c-1.963-22.955-4.523-47.957-4.523-73.728c0-45.056-30.72-63.573-59.307-70.997
			c-5.035,6.741-9.813,12.715-14.336,17.835c-5.653,6.56-11.755,12.718-18.261,18.432c-6.136,5.875-13.164,10.742-20.821,14.421
			c5.035-35.072-1.792-49.579-8.192-55.552c-13.146-0.444-26.297,0.702-39.168,3.413c-21.559,3.384-40.974,14.973-54.187,32.341
			c-7.733,11.914-11.634,25.91-11.179,40.107c0,25.771-2.56,50.773-4.523,73.728l-2.219-0.171c-4.364-0.773-8.8-1.059-13.227-0.853
			c-4.079,0.059-8.129,0.691-12.032,1.877l-0.341-1.024V102.462H92.898c2.224-4.253,4.853-8.283,7.851-12.032
			c7.813-9.702,17.185-18.036,27.733-24.661c7.61-5.096,15.698-9.44,24.149-12.971c-8.067-5.189-17.459-7.945-27.051-7.936h-0.085
			c-4.096-0.341-6.997-0.341-6.997-0.341c42.667-41.472,110.933-24.917,110.933-24.917s68.267-24.832,136.533,0
			c0,0-7.936,0-23.723,14.848c-0.597,0.512-1.195,1.195-1.877,1.792c0,0,1.536,0.512,4.181,1.621
			C375.499,50.342,401.165,73.173,417.164,102.462z"/>
		<path style="fill:#FEC108;" d="M400.098,119.528h-17.067v93.013c-2.861,0.08-5.713,0.365-8.533,0.853l-2.219,0.171
			c-1.963-22.955-4.523-47.957-4.523-73.728c0-45.056-30.72-63.573-59.307-70.997c-5.035,6.741-9.813,12.715-14.336,17.835
			c-0.939-0.256-1.792-0.512-2.731-0.768c-5.461,7.424-10.667,13.739-15.531,19.2c-6.136,5.875-13.164,10.742-20.821,14.421
			c5.035-35.072-1.792-49.579-8.192-55.552c-13.146-0.444-26.297,0.702-39.168,3.413c-21.559,3.384-40.974,14.973-54.187,32.341
			c-18.745,12.825-29.45,34.493-28.245,57.173c0,19.115-1.451,37.888-2.901,55.637c-4.079,0.059-8.129,0.691-12.032,1.877
			l-0.341-1.024V102.462H92.898c2.224-4.253,4.853-8.283,7.851-12.032c10.608-8.419,22.323-15.339,34.816-20.565
			c-2.06-1.83-4.469-3.224-7.083-4.096c7.61-5.096,15.698-9.44,24.149-12.971c-8.067-5.189-17.459-7.945-27.051-7.936
			c40.277-19.456,86.784-8.192,86.784-8.192c42.117-13.591,87.321-14.363,129.877-2.219c2.219,0.683,4.437,1.451,6.656,2.219
			c-1.509,0.143-2.982,0.547-4.352,1.195c-8.02,3.717-15.238,8.964-21.248,15.445C356.025,65.433,383.29,88.941,400.098,119.528z"/>
		<path style="fill:#FFE0B2;" d="M375.095,430.398c-18.005,22.784-65.024,38.997-120.064,38.997s-102.059-16.213-120.064-38.997
			c37.035-14.08,60.331-54.869,60.331-54.869v-37.205c18.174,11.039,38.58,17.89,59.733,20.053c-0.794,0.071-1.592,0.1-2.389,0.085
			h4.779c-0.797,0.014-1.595-0.014-2.389-0.085c21.154-2.163,41.559-9.014,59.733-20.053v37.205
			C314.764,375.528,338.06,416.318,375.095,430.398z"/>
		<path style="fill:#C52828;" d="M485.431,494.995v8.533h-460.8v-8.533c0-17.067,34.133-59.733,85.333-59.733
			c8.567-0.022,17.052-1.673,25.003-4.864c18.005,22.784,65.024,38.997,120.064,38.997s102.059-16.213,120.064-38.997
			c7.951,3.191,16.436,4.842,25.003,4.864C451.298,435.262,485.431,477.928,485.431,494.995z"/>
		<g>
			<ellipse style="fill:#2980BA;" cx="195.724" cy="192.062" rx="17.067" ry="21.333"/>
			<ellipse style="fill:#2980BA;" cx="314.312" cy="192.062" rx="17.067" ry="21.333"/>
		</g>
	</g>
	<g>
		<path d="M231.864,236.195c5.613,7.747,14.6,12.333,24.167,12.333c9.567,0,18.554-4.586,24.167-12.333
			c2.576-3.92,1.504-9.184-2.398-11.786c-3.903-2.602-9.174-1.566-11.802,2.319c-2.442,2.995-6.102,4.733-9.967,4.733
			c-3.865,0-7.524-1.738-9.967-4.733c-2.628-3.885-7.899-4.921-11.802-2.319C230.36,227.011,229.289,232.275,231.864,236.195z"/>
		<path d="M25.631,513.062h460.8c2.263,0.001,4.434-0.898,6.035-2.499c1.6-1.6,2.499-3.771,2.499-6.035v-8.533
			c0-23.371-39.642-68.267-93.867-68.267c-40.973,0-70.936-44.273-76.8-53.612V344.35c0.665-0.354,1.336-0.706,2-1.059l4.025-2.116
			c5.133-2.687,10.208-5.342,15.267-7.679c14.175-6.283,25.337-17.851,31.109-32.242c0.152,0.002,0.305,0.046,0.457,0.046
			c9.973-0.123,19.592-3.718,27.2-10.167c14.646-12.901,22.827-31.626,22.342-51.138c0.532-10.102-3.674-19.875-11.375-26.433
			c-1.764-1.433-3.671-2.678-5.692-3.717v-97.85h8.533c2.975-0.001,5.735-1.552,7.284-4.092s1.662-5.704,0.3-8.349
			c-15.271-28.377-39.231-51.115-68.366-64.883c2.893-2.329,6.136-4.185,9.609-5.5c4.136-0.015,7.666-2.993,8.377-7.067
			c0.712-4.074-1.6-8.072-5.486-9.488c-63.917-23.254-126.8-5.133-139.958-0.821c-13.358-2.721-75.083-12.496-116.367,27.567
			c-2.495,2.419-3.273,6.11-1.968,9.331s4.434,5.328,7.909,5.327c4.222,0.03,8.437,0.343,12.617,0.938
			c-19.088,10.356-34.94,25.79-45.8,44.596c-1.362,2.645-1.249,5.809,0.3,8.349c1.549,2.541,4.308,4.091,7.284,4.092h8.533v97.849
			c-2.021,1.039-3.928,2.285-5.692,3.718c-7.701,6.559-11.907,16.332-11.375,26.433c-0.485,19.512,7.696,38.236,22.342,51.138
			c7.608,6.45,17.227,10.046,27.2,10.167c0.156,0,0.313-0.045,0.468-0.047c5.783,14.402,16.959,25.978,31.148,32.264
			c5.008,2.317,10.083,4.971,15.217,7.658l4.025,2.116c0.663,0.354,1.335,0.706,2,1.059v29.782
			c-5.852,9.357-35.696,53.597-76.8,53.597c-54.225,0-93.867,44.896-93.867,68.267v8.533c-0.001,2.263,0.898,4.434,2.499,6.035
			C21.197,512.164,23.368,513.062,25.631,513.062z M393.556,277.916c-3.405,2.856-7.445,4.855-11.781,5.829
			c1.217-7.046,1.914-14.173,2.083-21.322l12.523-6.262c4.204-2.114,5.903-7.232,3.799-11.441c-2.104-4.209-7.218-5.92-11.432-3.826
			l-5.022,2.511c-0.276-6.896-0.741-14.005-1.314-21.286c7.691-1.054,15.509,0.594,22.12,4.663c3.662,3.372,5.547,8.255,5.1,13.212
			C410.128,254.388,404.245,268.265,393.556,277.916z M119.498,111.995c4.713,0,8.533-3.821,8.533-8.533
			c0-4.713-3.821-8.533-8.533-8.533h-9.7c13.019-14.379,29.042-25.718,46.933-33.212c2.703-1.058,4.684-3.417,5.258-6.263
			c0.575-2.846-0.336-5.788-2.417-7.812c-5.102-4.262-11.23-7.118-17.775-8.283c37.992-21.683,86.075-10.554,86.633-10.425
			c1.628,0.385,3.333,0.29,4.908-0.275c36.001-11.407,74.327-13.38,111.309-5.729c-2.817,2.233-5.892,4.917-9.225,8.15
			c-2.148,2.086-3.046,5.144-2.367,8.06c0.679,2.916,2.835,5.263,5.683,6.186c25.922,9.767,48.345,27.037,64.408,49.604h-10.583
			c-4.713,0-8.533,3.821-8.533,8.533c0,4.713,3.82,8.533,8.533,8.533v93.157c-3.852-0.34-7.726-0.358-11.58-0.051l-0.036-0.422
			c-1.8-20.558-3.658-41.813-3.658-63.829c0-40.583-22.63-67.959-65.434-79.204c-3.424-1.048-7.137,0.169-9.275,3.041
			c-10.355,14.603-22.588,27.779-36.383,39.188c0.873-20.939-3.168-35.849-11.996-44.545l-0.188-0.206
			c-0.123-0.119-0.224-0.266-0.349-0.383c-0.32-0.231-0.657-0.437-1.007-0.619c-0.916-0.785-2.054-1.266-3.256-1.374
			c-0.39-0.129-0.79-0.227-1.195-0.295c-13.865-0.487-27.739,0.708-41.317,3.558c-46.5,9.921-72.117,38.629-72.117,80.837
			c0,22.017-1.858,43.271-3.658,63.829l-0.036,0.418c-3.855-0.306-7.729-0.288-11.58,0.054V111.995z M118.506,277.916
			c-10.689-9.651-16.572-23.528-16.075-37.921c-0.447-4.958,1.438-9.841,5.1-13.212c6.61-4.072,14.429-5.722,22.12-4.667
			c-0.573,7.283-1.039,14.394-1.314,21.291l-5.022-2.511c-2.728-1.372-5.982-1.182-8.532,0.498c-2.55,1.681-4.007,4.596-3.822,7.644
			c0.185,3.048,1.985,5.765,4.72,7.124l12.526,6.263c0.171,7.155,0.869,14.288,2.091,21.341
			C125.956,282.787,121.912,280.781,118.506,277.916L118.506,277.916z M173.723,318.045c-11.671-5.154-20.507-15.15-24.191-27.365
			c-0.015-0.085,0.017-0.166-0.001-0.252c-0.047-0.233-0.202-0.406-0.267-0.631c-6.117-19.371-4.367-46.796-1.15-83.636
			c1.833-20.917,3.725-42.55,3.725-65.313c0-34.267,19.717-55.85,58.617-64.146c10.985-2.287,22.185-3.387,33.405-3.281
			c3.469,5.039,7.834,17.274,3.72,45.894c-0.35,2.45,0.38,4.931,2.001,6.801c1.621,1.87,3.974,2.944,6.449,2.945
			c1.064,0.002,2.118-0.198,3.108-0.588c0.976-0.38,23.245-9.505,53.396-48.696c31.518,9.865,47.687,30.297,47.687,61.071
			c0,22.762,1.892,44.396,3.725,65.313c3.213,36.792,4.962,64.193-1.116,83.556c-0.076,0.252-0.247,0.448-0.301,0.711
			c-0.02,0.097,0.016,0.189-0.001,0.286c-3.678,12.189-12.495,22.164-24.141,27.31c-5.267,2.429-10.583,5.204-15.975,8.025
			l-4.133,2.179c-19.973,10.632-40.624,21.576-62.319,22.585c-21.214-0.799-42.04-11.865-62.181-22.585l-4.133-2.179
			C184.256,323.228,178.939,320.453,173.723,318.045z M187.764,402.83v16.365c0,4.713,3.821,8.533,8.533,8.533
			c4.713,0,8.533-3.821,8.533-8.533V353.12c13.981,7.386,29.169,12.217,44.848,14.265c0.963,0.388,1.989,0.595,3.027,0.611h6.65
			c1.063-0.012,2.114-0.224,3.099-0.625c15.644-2.096,30.8-6.922,44.776-14.257v66.083c0,4.713,3.82,8.533,8.533,8.533
			s8.533-3.821,8.533-8.533V402.83c10.418,12.536,22.999,23.103,37.146,31.199c-20.834,16.934-61.086,27.833-105.412,27.833
			s-84.578-10.898-105.412-27.833C164.766,425.933,177.346,415.366,187.764,402.83L187.764,402.83z M110.964,444.795
			c7.592-0.046,15.135-1.218,22.382-3.479c22.351,23.006,69.447,37.612,122.684,37.612s100.333-14.606,122.684-37.612
			c7.248,2.26,14.791,3.433,22.382,3.479c47.95,0,76.8,40.6,76.8,51.2H34.164C34.164,485.395,63.014,444.795,110.964,444.795z"/>
		<path d="M256.031,266.483c-41.467,0-42.667,20.108-42.667,22.4c0.001,4.528,3.538,8.267,8.059,8.52
			c4.521,0.252,8.452-3.07,8.957-7.57c0.858-1.771,7.05-6.283,25.65-6.283c18.6,0,24.792,4.512,25.65,6.283
			c0.505,4.5,4.436,7.822,8.957,7.57c4.521-0.252,8.058-3.992,8.059-8.52C298.698,286.591,297.498,266.483,256.031,266.483z"/>
		<path d="M241.464,302.229c-3.264,3.279-3.286,8.573-0.05,11.879c3.262,3.335,8.586,3.466,12.008,0.296
			c2.7-2.496,4.158-1.058,5.108-0.108c2.151,2.178,5.304,3.037,8.262,2.251c2.958-0.786,5.269-3.097,6.055-6.055
			s-0.073-6.111-2.251-8.262c-3.783-4.012-9.052-6.286-14.566-6.286C250.517,295.942,245.247,298.217,241.464,302.229z"/>
		<path d="M222.348,193.062c-0.032-2.734-0.394-5.455-1.079-8.103c3.718,1.257,7.811-0.22,9.87-3.56
			c1.169-1.938,1.52-4.262,0.974-6.459c-0.546-2.197-1.942-4.087-3.882-5.253c-10.052-6.137-22.01-8.359-33.595-6.243
			c-1.757,0.169-3.487,0.547-5.154,1.126c-8.931,2.426-17.3,6.58-24.634,12.225c-2.788,2.285-3.837,6.076-2.621,9.47
			c1.216,3.393,4.434,5.656,8.038,5.651c0.335-0.036,0.668-0.092,0.997-0.167c-0.017,0.445-0.114,0.864-0.114,1.313
			c-1.067,15.28,10.337,28.584,25.6,29.867C212.011,221.646,223.415,208.342,222.348,193.062z M188.214,193.062
			c-0.263-4.772,1.971-9.338,5.9-12.059c1.019-0.256,2.057-0.48,3.125-0.661c4.332,0.416,8.042,6.154,8.042,12.72
			c0,6.817-3.992,12.8-8.533,12.8S188.214,199.878,188.214,193.062z"/>
		<path d="M172.039,152.87c0.76-0.001,1.517-0.103,2.25-0.304l49.4-13.475c2.965-0.78,5.285-3.091,6.075-6.053
			s-0.07-6.122-2.253-8.275s-5.354-2.969-8.305-2.138l-49.4,13.475c-4.124,1.124-6.78,5.125-6.216,9.362
			C164.154,149.698,167.765,152.864,172.039,152.87L172.039,152.87z"/>
		<path d="M290.793,184.957c-0.684,2.648-1.047,5.37-1.079,8.105c-1.067,15.28,10.337,28.584,25.6,29.867
			c15.263-1.283,26.667-14.587,25.6-29.867c0-0.445-0.096-0.858-0.113-1.298c0.331,0.076,0.666,0.133,1.004,0.169
			c3.61,0.006,6.832-2.261,8.047-5.66s0.158-7.195-2.638-9.478c-7.32-5.626-15.667-9.771-24.573-12.203
			c-1.696-0.596-3.458-0.983-5.248-1.152c-11.575-2.107-23.521,0.116-33.563,6.246c-1.94,1.166-3.337,3.056-3.882,5.253
			s-0.195,4.521,0.974,6.459C282.979,184.743,287.076,186.22,290.793,184.957z M315.314,205.862c-4.542,0-8.533-5.983-8.533-12.8
			c0-6.571,3.716-12.312,8.051-12.722c1.06,0.179,2.09,0.402,3.102,0.655c3.939,2.717,6.18,7.289,5.915,12.067
			C323.848,199.878,319.856,205.862,315.314,205.862z"/>
		<path d="M288.372,139.091l49.4,13.475c2.951,0.831,6.122,0.015,8.305-2.138c2.183-2.153,3.043-5.312,2.253-8.275
			c-0.79-2.963-3.109-5.274-6.075-6.053l-49.4-13.475c-2.952-0.831-6.122-0.015-8.305,2.138s-3.043,5.312-2.253,8.275
			S285.407,138.311,288.372,139.091z"/>
	</g>
</g>
<g>
</g>
<g>
</g>
<g>
</g>
<g>
</g>
<g>
</g>
<g>
</g>
<g>
</g>
<g>
</g>
<g>
</g>
<g>
</g>
<g>
</g>
<g>
</g>
<g>
</g>
<g>
</g>
<g>
</g>
</svg>
