<?xml version="1.0" encoding="iso-8859-1"?>
<!-- Generator: Adobe Illustrator 19.0.0, SVG Export Plug-In . SVG Version: 6.00 Build 0)  -->
<svg version="1.1" id="Capa_1" xmlns="http://www.w3.org/2000/svg" xmlns:xlink="http://www.w3.org/1999/xlink" x="0px" y="0px"
	 viewBox="0 0 512.119 512.119" style="enable-background:new 0 0 512.119 512.119;" xml:space="preserve">
<g transform="translate(0 -1)">
	<g transform="translate(1 2)">
		<path style="fill:#FFB301;" d="M340.991,319.972c12.997-5.761,23.077-16.58,27.904-29.952c3.913,0.934,7.968,1.108,11.947,0.512
			c1.915-0.322,3.799-0.808,5.632-1.451c8.737-3.259,16.149-9.32,21.077-17.237l9.643,0.341c8.87,1.129,17.881,0.254,26.368-2.56
			c52.48-17.493,58.965-107.008,58.965-107.008C417.194,196.324,408.66,95.204,357.46,36.239
			C318.804-8.22,246.271,9.615,212.906,21.049h-0.085c-15.472-9.692-34.617-11.495-51.627-4.864
			c-6.378,2.965-11.662,7.861-15.104,13.995h-0.085c-22.357,34.304-31.744,115.712-89.941,140.885
			c-15.322,6.339-31.963,8.829-48.469,7.253c1.049,5.255,2.417,10.442,4.096,15.531c8.704,26.624,32.768,78.336,89.771,78.336
			l0.939-0.597c7.664,13.82,23.274,21.23,38.827,18.432c4.739,13.425,14.847,24.276,27.904,29.952
			c11.605,5.376,23.467,12.117,35.84,18.176l-1.109,2.304v42.667l-25.6,14.251l-42.667,23.637l-63.403,35.243
			c-4.197,2.31-7.952,5.343-11.093,8.96C54.11,472.99,50.25,483.082,50.26,493.54v9.045h409.6v-9.045
			c0.007-15.491-8.389-29.768-21.931-37.291l-63.403-35.243l-68.267-37.888v-42.667l-1.109-2.304
			c9.813-4.779,19.285-9.984,28.501-14.592C336.127,322.276,338.602,321.081,340.991,319.972z M252.671,353.167
			c0.797,0.014,1.595-0.014,2.389-0.085c0.794,0.071,1.592,0.1,2.389,0.085H252.671z"/>
		<path style="fill:#FEC108;" d="M315.391,337.039c13.01-5.742,23.096-16.569,27.904-29.952c5.21,1.229,10.651,1.082,15.787-0.427
			c8.891-2.715,16.576-8.411,21.76-16.128c0.341-0.512,0.768-1.024,1.109-1.621l4.523,0.171c8.737-3.259,16.149-9.32,21.077-17.237
			l9.643,0.341c8.87,1.129,17.881,0.254,26.368-2.56c29.184-31.744,33.365-89.941,33.365-89.941
			c-85.333,33.707-93.867-67.413-145.067-126.379C293.204,8.847,220.671,26.681,187.306,38.116h-0.085
			c-12.287-7.564-26.912-10.385-41.131-7.936h-0.085c-22.357,34.304-31.744,115.712-89.941,140.885
			c-12.24,11.778-27.669,19.701-44.373,22.784c8.704,26.624,32.768,78.336,89.771,78.336l0.939-0.597
			c7.664,13.82,23.274,21.23,38.827,18.432c4.739,13.425,14.847,24.276,27.904,29.952c11.605,5.376,23.467,12.117,35.84,18.176
			l-1.109,2.304v42.667l-25.6,14.251v2.816l-68.267,37.888l-48.896,27.136C54.11,472.99,50.25,483.082,50.26,493.54v9.045h383.232
			c-2.351-12.418-10.107-23.146-21.163-29.269l-63.403-35.243l-68.267-37.888v-42.667l-1.109-2.304
			c9.131-4.523,18.005-9.387,26.709-13.739C309.332,339.94,312.404,338.404,315.391,337.039z M227.071,370.233
			c0.797,0.014,1.595-0.014,2.389-0.085c0.794,0.071,1.592,0.1,2.389,0.085H227.071z"/>
		<g>
			<path style="fill:#FFE0B2;" d="M417.194,238.032c0.128,11.96-3.222,23.7-9.643,33.792c-7.681,13.693-23.211,20.995-38.656,18.176
				c7.509-20.139,6.144-46.933,3.584-77.397l2.048-0.17C374.527,212.432,417.194,203.898,417.194,238.032z"/>
			<path style="fill:#FFE0B2;" d="M141.226,289.999c-15.553,2.798-31.163-4.612-38.827-18.432
				c-6.326-10.031-9.616-21.678-9.472-33.536c0-34.133,42.667-25.6,42.667-25.6l2.048,0.17
				C135.082,243.066,133.716,269.861,141.226,289.999z"/>
			<path style="fill:#FFE0B2;" d="M368.895,290.02c-4.739,13.425-14.847,24.276-27.904,29.952c-2.389,1.109-4.864,2.304-7.339,3.584
				c-9.216,4.608-18.688,9.813-28.501,14.592c-15.438,8.501-32.518,13.593-50.091,14.933c-17.572-1.34-34.653-6.432-50.091-14.933
				c-12.373-6.059-24.235-12.8-35.84-18.176c-13.057-5.676-23.165-16.527-27.904-29.952c-7.509-20.139-6.144-46.933-3.584-77.397
				c1.963-23.211,4.693-48.64,4.693-74.837c-0.721-17.53,5.61-34.618,17.579-47.445c30.379-31.744,89.6-27.136,89.6-27.136h11.093
				c0,0,107.179-8.277,107.179,74.581c0,26.197,2.731,51.627,4.693,74.837C375.039,243.087,376.404,269.881,368.895,290.02z"/>
		</g>
		<path style="fill:#FFECB3;" d="M343.295,307.087c-2.157,6.044-5.428,11.63-9.643,16.469c-9.216,4.608-18.688,9.813-28.501,14.592
			c-15.438,8.501-32.518,13.593-50.091,14.933c-17.572-1.34-34.653-6.432-50.091-14.933c-12.373-6.059-24.235-12.8-35.84-18.176
			c-13.057-5.676-23.165-16.527-27.904-29.952c-7.509-20.139-6.144-46.933-3.584-77.397c1.963-23.211,4.693-48.64,4.693-74.837
			c-0.721-17.53,5.61-34.618,17.579-47.445c20.386-7.826,42.196-11.258,64-10.069h11.093c0,0,107.179-8.277,107.179,74.581
			c0,26.197,2.731,51.627,4.693,74.837C349.439,260.153,350.804,286.948,343.295,307.087z"/>
		<path style="fill:#FFE0B2;" d="M374.527,420.986v81.579H135.594v-81.579l68.267-37.888v-42.667l1.109-2.304
			c15.438,8.501,32.518,13.593,50.091,14.933c-0.794,0.071-1.592,0.1-2.389,0.085h4.779c-0.797,0.014-1.595-0.014-2.389-0.085
			c17.572-1.34,34.653-6.432,50.091-14.933l1.109,2.304v42.667L374.527,420.986z"/>
		<g>
			<ellipse style="fill:#00BCD4;" cx="195.327" cy="186.852" rx="17.067" ry="25.6"/>
			<ellipse style="fill:#00BCD4;" cx="315.22" cy="186.852" rx="17.067" ry="25.6"/>
		</g>
	</g>
	<g>
		<path d="M231.894,236.252c5.613,7.747,14.6,12.333,24.167,12.333c9.567,0,18.554-4.586,24.167-12.333
			c2.565-3.862,1.546-9.07-2.287-11.679c-3.86-2.627-9.11-1.697-11.833,2.096c-2.42,3.044-6.09,4.827-9.978,4.85
			c-3.889,0.023-7.578-1.718-10.034-4.733c-2.622-3.901-7.905-4.947-11.816-2.339C230.368,227.053,229.302,232.332,231.894,236.252z
			"/>
		<path d="M171.164,146.173c1.715,0,3.39-0.518,4.804-1.488c9.625-6.579,26.312-13.633,31.333-9.175
			c3.523,3.13,8.916,2.811,12.046-0.712c3.13-3.523,2.811-8.916-0.712-12.046c-16.887-15.017-46.525,3.9-52.292,7.842
			c-3.091,2.112-4.445,5.992-3.338,9.568C164.112,143.739,167.421,146.176,171.164,146.173L171.164,146.173z"/>
		<path d="M508.577,157.765c-2.364-1.737-5.455-2.137-8.183-1.058c-49.85,19.658-68.1-9.158-96.1-61.821
			c-10.746-22.159-23.959-43.034-39.387-62.229C324.014-14.45,250.874,1.675,214.47,13.766c-17.039-9.365-37.364-10.65-55.447-3.506
			c-18.5,7.404-27.838,32.079-38.65,60.654c-18.8,49.671-40.221,105.942-111.171,100.892c-2.63-0.188-5.199,0.851-6.96,2.814
			c-1.761,1.963-2.515,4.629-2.044,7.224c0.181,0.996,18.87,98.334,99.236,100.761c2.612,3.365,5.609,6.413,8.931,9.081
			c7.516,6.173,16.912,9.599,26.638,9.713c0.624,0,1.251-0.079,1.877-0.109c6.156,12.718,16.663,22.811,29.618,28.45
			c6.383,2.958,12.871,6.354,19.475,9.808c3.376,1.765,6.844,3.559,10.354,5.342v35.21l-51.597,28.655
			c-0.857-3.814-4.227-6.535-8.136-6.569c-4.713,0-8.533,3.82-8.533,8.533v7.294l-59.004,32.769
			c-16.259,9.026-26.34,26.163-26.329,44.758v9.046c0,4.713,3.821,8.533,8.533,8.533h409.6c2.263,0.001,4.434-0.898,6.035-2.499
			s2.499-3.771,2.499-6.035v-9.046c0.01-18.593-10.069-35.727-26.325-44.75l-59.008-32.774v-7.297c0-4.713-3.82-8.533-8.533-8.533
			c-3.91,0.033-7.281,2.756-8.137,6.571l-51.596-28.657V344.89c3.51-1.783,6.979-3.577,10.354-5.342
			c6.604-3.454,13.092-6.85,19.471-9.808c12.956-5.639,23.464-15.732,29.621-28.451c0.626,0.03,1.254,0.109,1.879,0.109
			c9.724-0.113,19.119-3.539,26.633-9.712c3.748-2.997,7.087-6.473,9.931-10.338c1.074,0.711,2.299,1.165,3.577,1.326
			c2.884,0.318,5.782,0.479,8.683,0.483c15.706,0.153,30.942-5.357,42.917-15.521c37.633-31.358,42.967-99.492,43.175-102.375
			C512.251,162.333,510.944,159.5,508.577,157.765z M118.96,278.306c-10.892-9.68-16.935-23.689-16.5-38.254
			c-0.447-4.958,1.438-9.841,5.1-13.212c6.544-4.045,14.286-5.7,21.911-4.682c-0.559,7.27-1.013,14.373-1.238,21.239l-4.89-2.445
			c-2.728-1.372-5.982-1.182-8.532,0.499s-4.007,4.596-3.822,7.644c0.185,3.048,1.985,5.765,4.72,7.124l12.588,6.294
			c0.309,7.216,1.226,14.393,2.742,21.455C126.61,283.099,122.462,281.155,118.96,278.306L118.96,278.306z M59.794,495.54
			c-0.01-12.393,6.704-23.815,17.538-29.833l50.729-28.175v58.52H59.794V495.54z M434.794,465.715
			c10.832,6.015,17.545,17.435,17.533,29.825v0.513H384.06v-58.517L434.794,465.715z M307.26,444.852
			c4.713,0,8.533-3.82,8.533-8.533v-36.702l51.2,28.439v67.997H145.127v-67.999l51.2-28.436v36.702c0,4.713,3.821,8.533,8.533,8.533
			s8.533-3.82,8.533-8.533v-83.372c11.636,5.301,24.018,8.78,36.713,10.314c0.803,0.256,1.64,0.392,2.483,0.404
			c0.754,0.012,1.508,0.012,2.25,0h2.442c0.362,0.004,0.729,0.009,1.092,0.009c0.388,0,0.775-0.004,1.158-0.009
			c0.843-0.012,1.68-0.148,2.483-0.404c12.694-1.534,25.077-5.012,36.713-10.314v83.372
			C298.727,441.032,302.547,444.852,307.26,444.852z M338.439,314.256c-6.617,3.071-13.35,6.588-20.2,10.167
			c-20.133,10.529-40.917,21.4-62.179,22.142c-21.258-0.746-42.046-11.612-62.179-22.142c-6.85-3.579-13.583-7.096-20.204-10.167
			c-32.325-14.988-30.883-49.854-25.55-110.188c1.817-20.596,3.7-41.892,3.7-64.292c-0.759-16.437,5.612-32.402,17.479-43.8
			c21.679-20.105,57.975-22.412,73.629-22.412c4.488,0,7.279,0.192,7.542,0.204h11.167c0.221,0,0.438-0.009,0.658-0.025
			c0.517-0.042,52.462-3.729,80.471,22.196c11.893,11.399,18.28,27.381,17.521,43.837c0,22.4,1.883,43.696,3.7,64.292
			C369.327,264.402,370.769,299.269,338.439,314.256z M393.16,278.306c-3.5,2.854-7.649,4.801-12.081,5.667
			c1.516-7.064,2.434-14.243,2.743-21.461l12.588-6.294c4.204-2.114,5.903-7.232,3.798-11.441c-2.104-4.209-7.218-5.92-11.432-3.826
			l-4.89,2.445c-0.226-6.866-0.679-13.969-1.238-21.239c7.625-1.016,15.367,0.638,21.911,4.682c3.662,3.372,5.547,8.255,5.1,13.213
			C410.095,254.617,404.053,268.627,393.16,278.306z M457.935,254.523c-9.976,8.452-22.925,12.549-35.947,11.373
			c3.131-8.257,4.737-17.014,4.739-25.844c0.532-10.102-3.674-19.875-11.375-26.433c-9.941-6.94-22.096-9.96-34.129-8.479
			c-0.076-0.862-0.148-1.709-0.225-2.575c-1.788-20.225-3.638-41.137-3.638-62.788c0.844-21.228-7.54-41.782-22.992-56.363
			c-32.475-30.058-87.717-27.079-93.042-26.712l-10.192,0.025c-2.429-0.204-59.962-4.258-93.383,26.687
			c-15.451,14.581-23.836,35.135-22.992,56.363c0,21.65-1.85,42.563-3.637,62.788c-0.077,0.865-0.148,1.71-0.225,2.571
			c-12.034-1.482-24.19,1.54-34.13,8.483c-7.7,6.56-11.905,16.332-11.375,26.433c0.001,8.325,1.422,16.589,4.2,24.436
			c-45.407-7.564-63.939-54.059-70.054-75.299c74.629-0.812,98.871-64.862,116.796-112.233
			c8.996-23.775,17.492-46.234,29.037-50.854c8.068-3.289,16.906-4.206,25.478-2.645c-2.889,2.416-3.824,6.456-2.29,9.896
			c1.96,4.28,7.01,6.172,11.3,4.233c1.054-0.483,105.763-47.2,152.154,6.258c14.557,18.242,27.037,38.049,37.209,59.054
			c23.337,43.879,47.387,89.117,104.129,74.1C490.11,197.04,481.094,235.223,457.935,254.523z"/>
		<path d="M220.913,179.685c3.935,1.314,8.243-0.411,10.184-4.077c1.941-3.666,0.946-8.199-2.353-10.714
			c-9.016-7.045-20.261-10.622-31.69-10.08c-0.248-0.009-0.476-0.095-0.727-0.095c-0.816,0.055-1.629,0.162-2.432,0.318
			c-10.232,1.073-20.109,4.359-28.943,9.632c-3.584,2.222-4.996,6.737-3.316,10.605c1.679,3.868,5.942,5.919,10.012,4.818
			c-0.588,2.884-0.896,5.818-0.921,8.761c0,19.142,11.246,34.133,25.6,34.133c14.354,0,25.6-14.992,25.6-34.133
			C221.899,185.77,221.559,182.699,220.913,179.685z M196.327,205.919c-3.479,0-8.533-6.65-8.533-17.067
			c-0.713-6.449,1.998-12.8,7.147-16.747c0.714-0.07,1.435-0.113,2.166-0.145c3.408,0.867,7.754,7.219,7.754,16.893
			C204.86,199.269,199.806,205.919,196.327,205.919z"/>
		<path d="M305.177,134.835c5.183-4.2,21.55,3.579,30.9,10.558c3.772,2.826,9.12,2.059,11.946-1.713
			c2.826-3.772,2.059-9.12-1.712-11.946c-5.592-4.192-34.354-24.392-51.891-10.15c-3.659,2.971-4.217,8.345-1.246,12.004
			C296.144,137.248,301.519,137.806,305.177,134.835L305.177,134.835z"/>
		<path d="M347.606,164.669c-8.812-5.255-18.659-8.538-28.862-9.622c-0.83-0.163-1.669-0.273-2.513-0.328
			c-0.257,0-0.493,0.088-0.747,0.097c-11.422-0.538-22.659,3.038-31.669,10.078c-3.3,2.515-4.295,7.048-2.354,10.714
			c1.942,3.666,6.251,5.39,10.185,4.073c-0.647,3.015-0.987,6.087-1.015,9.171c0,19.142,11.246,34.133,25.6,34.133
			c14.354,0,25.6-14.992,25.6-34.133c-0.025-2.942-0.334-5.875-0.921-8.757c4.053,1.039,8.259-1.02,9.925-4.858
			C352.501,171.399,351.132,166.92,347.606,164.669z M316.231,205.919c-3.479,0-8.533-6.65-8.533-17.067
			c0-9.848,4.504-16.254,7.937-16.933c0.583,0.028,1.156,0.068,1.729,0.12c5.359,3.826,8.198,10.276,7.401,16.812
			C324.764,199.269,319.71,205.919,316.231,205.919z"/>
		<path d="M256.06,266.54c-41.471,0-42.667,20.108-42.667,22.4c0,4.528,3.536,8.268,8.057,8.52c4.521,0.252,8.452-3.07,8.956-7.57
			c0.863-1.771,7.054-6.283,25.654-6.283s24.792,4.512,25.654,6.283c0.504,4.5,4.435,7.822,8.955,7.57
			c4.521-0.252,8.057-3.992,8.057-8.52C298.727,286.648,297.531,266.54,256.06,266.54z"/>
		<path d="M241.494,302.286c-3.268,3.277-3.29,8.574-0.05,11.879c3.262,3.335,8.586,3.466,12.008,0.296
			c2.721-2.496,4.15-1.05,5.108-0.108c2.151,2.178,5.304,3.037,8.262,2.251s5.269-3.097,6.055-6.055
			c0.786-2.958-0.073-6.111-2.251-8.262c-3.783-4.012-9.052-6.286-14.566-6.286C250.546,295.999,245.276,298.274,241.494,302.286z"
			/>
	</g>
</g>
<g>
</g>
<g>
</g>
<g>
</g>
<g>
</g>
<g>
</g>
<g>
</g>
<g>
</g>
<g>
</g>
<g>
</g>
<g>
</g>
<g>
</g>
<g>
</g>
<g>
</g>
<g>
</g>
<g>
</g>
</svg>
