<?xml version="1.0" encoding="iso-8859-1"?>
<!-- Generator: Adobe Illustrator 19.0.0, SVG Export Plug-In . SVG Version: 6.00 Build 0)  -->
<svg version="1.1" id="Capa_1" xmlns="http://www.w3.org/2000/svg" xmlns:xlink="http://www.w3.org/1999/xlink" x="0px" y="0px"
	 viewBox="0 0 512.07 512.07" style="enable-background:new 0 0 512.07 512.07;" xml:space="preserve">
<g transform="translate(0 -1)">
	<g transform="translate(1 1)">
		<g>
			<path style="fill:#FFE0B2;" d="M417.168,239.003c0.128,11.96-3.222,23.7-9.643,33.792c-7.681,13.693-23.211,20.995-38.656,18.176
				c7.509-20.139,6.144-46.933,3.584-77.397l2.048-0.171C374.502,213.403,417.168,204.87,417.168,239.003z"/>
			<path style="fill:#FFE0B2;" d="M141.2,290.971c-15.553,2.798-31.163-4.612-38.827-18.432
				c-6.326-10.031-9.616-21.678-9.472-33.536c0-34.133,42.667-25.6,42.667-25.6l2.048,0.171
				C135.056,244.038,133.691,270.833,141.2,290.971z"/>
			<path style="fill:#FFE0B2;" d="M374.502,256.07c0.231,11.85-1.293,23.668-4.523,35.072h-0.085
				c-4.132,14.968-14.744,27.302-28.928,33.621c-2.56,1.195-5.12,2.475-7.68,3.84c-3.243,1.621-6.656,3.328-9.984,5.12
				c-2.816,1.536-5.717,2.987-8.533,4.608c-18.174,11.039-38.58,17.89-59.733,20.053c-21.154-2.163-41.559-9.014-59.733-20.053
				c-2.816-1.621-5.717-3.072-8.533-4.608c-5.973-3.157-11.861-6.229-17.664-8.96c-14.184-6.319-24.796-18.653-28.928-33.621h-0.085
				c-3.229-11.404-4.753-23.222-4.523-35.072c-0.085-13.056,0.939-27.392,2.219-42.496c1.963-22.955,4.523-47.957,4.523-73.728
				c-0.758-17.945,5.73-35.442,18.005-48.555c13.065-12.489,29.551-20.807,47.36-23.893c12.871-2.711,26.022-3.857,39.168-3.413
				c6.315,5.888,12.971,19.968,8.448,53.675c-0.085,0.597-0.171,1.28-0.256,1.877c0,0,14.933-5.803,37.205-30.72
				c5.035-5.632,10.496-12.203,16.213-19.968c28.587,7.424,59.307,25.941,59.307,70.997c0,25.771,2.56,50.773,4.523,73.728
				C373.563,228.678,374.587,243.014,374.502,256.07z"/>
		</g>
		<path style="fill:#FFECB3;" d="M348.902,273.137c0.231,11.85-1.293,23.668-4.523,35.072h-0.085
			c-2.159,7.511-5.914,14.468-11.008,20.395c-3.243,1.621-6.656,3.328-9.984,5.12c-2.816,1.536-5.717,2.987-8.533,4.608
			c-18.174,11.039-38.58,17.89-59.733,20.053c-21.154-2.163-41.559-9.014-59.733-20.053c-2.816-1.621-5.717-3.072-8.533-4.608
			c-5.973-3.157-11.861-6.229-17.664-8.96c-14.184-6.319-24.796-18.653-28.928-33.621h-0.085
			c-3.229-11.404-4.753-23.222-4.523-35.072c-0.085-13.056,0.939-27.392,2.219-42.496c1.963-22.955,4.523-47.957,4.523-73.728
			c-0.758-17.945,5.73-35.442,18.005-48.555c7.003-3.008,14.294-5.295,21.76-6.827c12.871-2.711,26.022-3.857,39.168-3.413
			c6.4,5.973,13.227,20.48,8.192,55.552c9.641-4.786,18.387-11.194,25.856-18.944c10.062-9.789,19.282-20.408,27.563-31.744
			c3.157,0.853,6.315,1.792,9.387,2.901c25.515,8.875,49.92,27.989,49.92,68.096c0,25.771,2.56,50.773,4.523,73.728
			C347.963,245.745,348.987,260.081,348.902,273.137z"/>
		<path style="fill:#FFFFFF;" d="M255.028,314.53c-19.168,0.503-38.139-3.972-55.061-12.989
			c-9.973-5.553-20.636-16.446-19.534-28.767c0.423-5.633,3.596-10.695,8.482-13.531s10.855-3.079,15.956-0.651
			c31.813,14.77,68.518,14.77,100.331,0c5.1-2.428,11.07-2.184,15.956,0.651c4.886,2.835,8.059,7.897,8.482,13.53
			c1.102,12.322-9.561,23.214-19.535,28.767c-9.682,5.156-20.127,8.726-30.94,10.574
			C271.205,313.629,263.128,314.437,255.028,314.53z"/>
		<g>
			<path style="fill:#F57C00;" d="M417.168,102.47h-17.067v110.933l-0.341,1.024c-8.24-2.204-16.867-2.554-25.259-1.024
				l-2.219,0.171c-1.963-22.955-4.523-47.957-4.523-73.728c0-45.056-30.72-63.573-59.307-70.997
				c-30.976,41.899-53.419,50.688-53.419,50.688c5.035-35.072-1.792-49.579-8.192-55.552c-13.146-0.444-26.297,0.702-39.168,3.413
				c-30.037,6.4-65.365,24.235-65.365,72.448c0,25.771-2.56,50.773-4.523,73.728l-2.219-0.171c-8.392-1.53-17.018-1.18-25.259,1.024
				l-0.341-1.024V102.47H92.902c17.067-33.109,59.733-49.664,59.733-49.664c-8.533-8.277-34.133-8.277-34.133-8.277
				c42.667-41.472,110.933-24.917,110.933-24.917s68.267-24.832,136.533,0c0,0-8.533,0-25.6,16.64
				C373.096,48.374,400.361,71.883,417.168,102.47z"/>
			<path style="fill:#F57C00;" d="M417.168,111.003h-17.067v110.933l-0.341,1.024c-8.24-2.204-16.867-2.554-25.259-1.024
				l-2.219,0.171c-1.963-22.955-4.523-47.957-4.523-73.728c0-45.056-30.72-63.573-59.307-70.997
				c-1.877,2.56-3.755,5.035-5.547,7.339c-28.075,35.584-47.872,43.349-47.872,43.349c1.001-6.755,1.571-13.567,1.707-20.395
				c0.341-20.651-4.949-30.464-9.899-35.157c-8.206-0.267-16.421,0.075-24.576,1.024h-0.085c-4.874,0.546-9.716,1.343-14.507,2.389
				c-30.037,6.4-65.365,24.235-65.365,72.448c0,25.771-2.56,50.773-4.523,73.728l-2.219-0.171c-8.392-1.53-17.018-1.18-25.259,1.024
				l-0.341-1.024V111.003H92.902c17.067-33.109,59.733-49.664,59.733-49.664c-8.533-8.277-34.133-8.277-34.133-8.277
				c18.122-16.63,41.483-26.409,66.048-27.648c9.176-0.725,18.397-0.668,27.563,0.171c5.825,0.467,11.612,1.322,17.323,2.56
				c18.618-6.062,37.959-9.62,57.515-10.581c26.786-1.92,53.681,1.682,79.019,10.581c0,0-8.533,0-25.6,16.64
				C373.096,56.908,400.361,80.416,417.168,111.003z"/>
		</g>
		<path style="fill:#FF9801;" d="M391.568,111.003h-17.067v110.933l-2.219,0.171c-1.963-22.955-4.523-47.957-4.523-73.728
			c0-45.056-30.72-63.573-59.307-70.997c-1.877,2.56-3.755,5.035-5.547,7.339c-6.402-3.158-13.125-5.618-20.053-7.339
			c-7.853,10.801-16.587,20.933-26.112,30.293c0.341-20.651-4.949-30.464-9.899-35.157c-8.206-0.267-16.421,0.075-24.576,1.024
			h-0.085c-0.267-0.381-0.583-0.725-0.939-1.024c-13.146-0.444-26.297,0.702-39.168,3.413c-30.037,6.4-65.365,24.235-65.365,72.448
			c0,25.771-2.56,50.773-4.523,73.728l-2.219-0.171V111.003H92.902c17.067-33.109,59.733-49.664,59.733-49.664
			c-8.533-8.277-34.133-8.277-34.133-8.277c18.122-16.63,41.483-26.409,66.048-27.648c6.489,0.416,12.936,1.329,19.285,2.731
			c0,0,2.987-1.109,8.277-2.56c24.351-6.688,49.622-9.396,74.837-8.021c18.234,0.843,36.24,4.409,53.419,10.581
			c0,0-8.533,0-25.6,16.64C347.496,56.908,374.761,80.416,391.568,111.003z"/>
		<path style="fill:#FFE0B2;" d="M375.099,430.406c-18.005,22.784-65.024,38.997-120.064,38.997s-102.059-16.213-120.064-38.997
			c37.035-14.08,60.331-54.869,60.331-54.869v-37.205c18.174,11.039,38.58,17.89,59.733,20.053c-0.794,0.071-1.592,0.1-2.389,0.085
			h4.779c-0.797,0.014-1.595-0.014-2.389-0.085c21.154-2.163,41.559-9.014,59.733-20.053v37.205
			C314.768,375.537,338.064,416.326,375.099,430.406z"/>
		<path style="fill:#2296F3;" d="M485.435,495.003v8.533h-460.8v-8.533c0-17.067,34.133-59.733,85.333-59.733
			c8.567-0.022,17.052-1.673,25.003-4.864c18.005,22.784,65.024,38.997,120.064,38.997s102.059-16.213,120.064-38.997
			c7.951,3.191,16.436,4.842,25.003,4.864C451.302,435.27,485.435,477.937,485.435,495.003z"/>
	</g>
	<g>
		<path d="M231.869,236.203c5.613,7.747,14.6,12.333,24.167,12.333c9.567,0,18.554-4.586,24.167-12.333
			c2.565-3.862,1.546-9.07-2.287-11.679c-3.86-2.627-9.11-1.697-11.833,2.096c-2.42,3.044-6.09,4.827-9.978,4.85
			c-3.889,0.023-7.578-1.718-10.034-4.733c-2.622-3.901-7.905-4.947-11.816-2.339C230.343,227.004,229.276,232.283,231.869,236.203z
			"/>
		<path d="M172.997,191.641c0.279-0.1,27.408-10.254,43.363,8.317c3.083,3.528,8.435,3.91,11.988,0.856
			c3.553-3.055,3.979-8.403,0.953-11.981c-23.692-27.579-60.858-13.725-62.421-13.125c-4.4,1.689-6.597,6.625-4.908,11.025
			C163.661,191.132,168.597,193.33,172.997,191.641z"/>
		<path d="M169.314,137.603l48.575,16.192c4.471,1.491,9.305-0.925,10.796-5.396c1.491-4.471-0.925-9.305-5.396-10.796
			l-48.575-16.192c-2.892-0.965-6.08-0.313-8.361,1.71c-2.282,2.023-3.311,5.109-2.7,8.096
			C164.264,134.204,166.422,136.639,169.314,137.603z"/>
		<path d="M288.468,202.928c2.489,0.003,4.854-1.082,6.475-2.971c15.788-18.375,42.221-8.746,43.387-8.308
			c4.402,1.683,9.335-0.521,11.019-4.923c1.683-4.402-0.521-9.335-4.923-11.019c-1.558-0.596-38.729-14.45-62.425,13.125
			c-2.173,2.528-2.675,6.09-1.285,9.121C282.107,200.983,285.135,202.927,288.468,202.928z"/>
		<path d="M290.973,154.962c1.004-0.001,1.999-0.179,2.942-0.525l48.063-17.642c4.411-1.635,6.667-6.53,5.046-10.945
			c-1.621-4.416-6.509-6.687-10.93-5.08l-48.063,17.642c-3.884,1.427-6.186,5.433-5.461,9.507
			C283.293,151.993,286.835,154.961,290.973,154.962L290.973,154.962z"/>
		<path d="M25.635,513.07h460.8c4.713,0,8.533-3.82,8.533-8.533v-8.533c0-23.371-39.637-68.267-93.867-68.267
			c-40.963,0-70.925-44.252-76.8-53.606v-29.771c0.661-0.352,1.328-0.701,1.988-1.052l3.988-2.1
			c5.158-2.696,10.246-5.358,15.312-7.704c14.175-6.283,25.338-17.852,31.109-32.243c0.154,0.002,0.308,0.047,0.462,0.047
			c9.974-0.122,19.594-3.717,27.204-10.167c14.643-12.903,22.822-31.627,22.337-51.138c0.53-10.101-3.675-19.873-11.375-26.433
			c-1.764-1.433-3.671-2.678-5.692-3.717v-97.85h8.533c2.976,0,5.737-1.55,7.287-4.091c1.55-2.541,1.663-5.705,0.301-8.351
			c-15.273-28.378-39.236-51.117-68.375-64.883c2.894-2.329,6.138-4.186,9.613-5.5c4.138-0.012,7.671-2.99,8.383-7.066
			s-1.602-8.075-5.491-9.489c-63.921-23.271-126.8-5.137-139.958-0.821C216.548,9.091,154.835-0.68,113.56,39.37
			c-2.495,2.419-3.273,6.11-1.968,9.331c1.306,3.221,4.434,5.328,7.909,5.327c4.223,0.03,8.44,0.344,12.621,0.938
			c-19.091,10.355-34.945,25.79-45.808,44.596c-1.363,2.646-1.249,5.81,0.301,8.351c1.55,2.541,4.311,4.091,7.287,4.091h8.533
			v97.848c-2.021,1.039-3.928,2.286-5.692,3.719c-7.7,6.56-11.905,16.332-11.375,26.433c-0.484,19.511,7.694,38.235,22.338,51.138
			c7.61,6.449,17.23,10.044,27.204,10.167c0.157,0,0.314-0.045,0.471-0.047c5.781,14.401,16.954,25.977,31.142,32.264
			c5.025,2.325,10.113,4.988,15.271,7.683l3.988,2.1c0.659,0.351,1.327,0.701,1.987,1.052v29.781
			c-5.851,9.356-35.693,53.596-76.8,53.596c-54.229,0-93.867,44.896-93.867,68.267v8.533C17.102,509.25,20.922,513.07,25.635,513.07
			z M393.564,277.924c-3.407,2.86-7.451,4.862-11.791,5.836c1.219-7.048,1.916-14.176,2.085-21.327l12.527-6.263
			c4.204-2.114,5.903-7.232,3.798-11.441c-2.104-4.209-7.218-5.92-11.432-3.826l-5.026,2.513
			c-0.276-6.898-0.741-14.009-1.315-21.293c7.693-1.052,15.512,0.597,22.124,4.668c3.662,3.371,5.547,8.255,5.1,13.212
			C410.131,254.395,404.25,268.272,393.564,277.924z M119.502,112.003c4.713,0,8.533-3.821,8.533-8.533
			c0-4.713-3.821-8.533-8.533-8.533h-9.696c13.018-14.377,29.037-25.716,46.925-33.213c2.706-1.055,4.691-3.413,5.266-6.26
			c0.576-2.847-0.336-5.791-2.42-7.815c-5.103-4.263-11.232-7.119-17.779-8.283c37.996-21.683,86.083-10.554,86.638-10.425
			c1.628,0.389,3.334,0.294,4.908-0.275c36.002-11.407,74.33-13.38,111.313-5.729c-3.212,2.56-6.292,5.28-9.229,8.15
			c-2.15,2.085-3.05,5.144-2.371,8.061c0.679,2.917,2.838,5.264,5.688,6.185c25.921,9.768,48.344,27.038,64.408,49.604h-10.583
			c-4.713,0-8.533,3.821-8.533,8.533c0,4.713,3.821,8.533,8.533,8.533v93.159c-3.853-0.341-7.728-0.359-11.584-0.054l-0.037-0.431
			c-1.796-20.554-3.654-41.804-3.654-63.821c0-40.582-22.63-67.958-65.43-79.203c-3.425-1.059-7.144,0.16-9.279,3.04
			c-10.356,14.603-22.59,27.779-36.387,39.188c0.873-20.933-3.163-35.842-11.99-44.539l-0.198-0.217
			c-0.122-0.118-0.222-0.263-0.345-0.378c-0.321-0.232-0.658-0.439-1.009-0.621c-0.924-0.791-2.072-1.273-3.283-1.379
			c-0.381-0.125-0.771-0.221-1.166-0.287c-13.863-0.495-27.734,0.7-41.308,3.558c-46.508,9.921-72.121,38.629-72.121,80.837
			c0,22.017-1.858,43.267-3.654,63.821l-0.037,0.427c-3.856-0.306-7.731-0.289-11.583,0.053V112.003z M118.506,277.924
			c-10.686-9.652-16.567-23.529-16.071-37.921c-0.447-4.958,1.438-9.841,5.1-13.213c6.612-4.071,14.431-5.721,22.124-4.668
			c-0.573,7.284-1.038,14.395-1.314,21.293l-5.027-2.513c-2.728-1.372-5.982-1.182-8.532,0.498c-2.55,1.681-4.007,4.596-3.822,7.644
			c0.185,3.048,1.985,5.765,4.72,7.124l12.529,6.265c0.171,7.155,0.869,14.287,2.091,21.339
			C125.961,282.795,121.915,280.79,118.506,277.924L118.506,277.924z M173.731,318.053c-11.671-5.155-20.508-15.152-24.191-27.368
			c-0.015-0.083,0.016-0.161-0.001-0.244c-0.046-0.223-0.194-0.389-0.256-0.604c-6.131-19.374-4.382-46.811-1.161-83.671
			c1.829-20.917,3.721-42.55,3.721-65.308c0-34.267,19.721-55.85,58.621-64.146c10.986-2.286,22.185-3.385,33.405-3.278
			c3.466,5.041,7.825,17.276,3.72,45.891c-0.432,3.006,0.767,6.015,3.147,7.901c2.38,1.886,5.583,2.365,8.411,1.257
			c0.968-0.38,23.24-9.505,53.392-48.696c31.518,9.865,47.688,30.297,47.688,61.071c0,22.758,1.892,44.392,3.721,65.308
			c3.218,36.823,4.966,64.242-1.134,83.608c-0.07,0.237-0.232,0.42-0.283,0.667c-0.019,0.092,0.015,0.178-0.001,0.27
			c-3.678,12.194-12.499,22.174-24.149,27.322c-5.267,2.438-10.604,5.221-16.009,8.05l-4.1,2.158
			c-19.973,10.632-40.62,21.571-62.307,22.581c-21.205-0.799-42.028-11.86-62.168-22.581l-4.1-2.158
			C184.293,323.253,178.956,320.47,173.731,318.053z M187.768,402.837v16.367c0,4.713,3.821,8.533,8.533,8.533
			s8.533-3.82,8.533-8.533v-66.079c13.979,7.385,29.165,12.217,44.842,14.267c0.963,0.389,1.99,0.596,3.029,0.612h6.658
			c1.064-0.012,2.116-0.224,3.101-0.626c15.642-2.099,30.795-6.926,44.77-14.26v66.086c0,4.713,3.82,8.533,8.533,8.533
			s8.533-3.82,8.533-8.533v-16.367c10.418,12.535,22.998,23.101,37.143,31.198c-20.827,16.937-61.081,27.836-105.41,27.836
			s-84.583-10.899-105.41-27.836C164.771,425.938,177.351,415.371,187.768,402.837L187.768,402.837z M110.968,444.803
			c7.592-0.046,15.135-1.218,22.382-3.479c22.354,23.007,69.446,37.612,122.684,37.612s100.331-14.605,122.684-37.612
			c7.248,2.261,14.79,3.433,22.382,3.479c47.954,0,76.8,40.6,76.8,51.2H34.168C34.168,485.403,63.014,444.803,110.968,444.803z"/>
		<path d="M254.643,324.07c0.487,0,0.983-0.004,1.471-0.009c8.606-0.096,17.187-0.954,25.642-2.563
			c11.713-2.003,23.024-5.888,33.496-11.504c11.95-6.65,25.375-20.329,23.888-36.983c-0.741-8.464-5.565-16.034-12.925-20.279
			c-7.255-4.19-16.115-4.511-23.654-0.858c-29.491,13.758-63.559,13.758-93.05,0c-7.539-3.657-16.401-3.335-23.654,0.858
			c-7.361,4.246-12.185,11.818-12.925,20.283c-1.488,16.65,11.938,30.329,23.888,36.979
			C214.587,319.515,234.486,324.358,254.643,324.07z M189.931,274.537c0.219-2.916,1.868-5.535,4.404-6.992
			c1.257-0.725,2.682-1.11,4.133-1.117c1.302,0.01,2.586,0.311,3.758,0.879c34.108,15.908,73.508,15.908,107.617,0
			c2.503-1.253,5.469-1.164,7.892,0.237c2.535,1.456,4.184,4.073,4.404,6.988c0.708,7.917-7.379,16.204-15.187,20.554
			c-8.88,4.718-18.463,7.975-28.379,9.646c-7.463,1.421-15.037,2.178-22.633,2.263c-17.685,0.49-35.195-3.613-50.821-11.908
			C197.31,290.737,189.223,282.449,189.931,274.537z"/>
		<path d="M179.477,239.999c4.654-0.145,8.332-3.994,8.266-8.65c-0.066-4.656-3.852-8.399-8.508-8.412
			c-4.555-0.097-8.953,1.67-12.175,4.892c-3.222,3.222-4.989,7.619-4.892,12.175c0.068,4.732,3.924,8.533,8.656,8.531
			C175.557,248.534,179.411,244.731,179.477,239.999L179.477,239.999z"/>
		<path d="M332.835,222.937c-4.713,0-8.533,3.821-8.533,8.533c0,4.713,3.821,8.533,8.533,8.533c0,4.713,3.821,8.533,8.533,8.533
			s8.533-3.82,8.533-8.533c0.097-4.555-1.67-8.953-4.892-12.175C341.788,224.607,337.39,222.84,332.835,222.937z"/>
	</g>
</g>
<g>
</g>
<g>
</g>
<g>
</g>
<g>
</g>
<g>
</g>
<g>
</g>
<g>
</g>
<g>
</g>
<g>
</g>
<g>
</g>
<g>
</g>
<g>
</g>
<g>
</g>
<g>
</g>
<g>
</g>
</svg>
