<?xml version="1.0" encoding="iso-8859-1"?>
<!-- Generator: Adobe Illustrator 19.0.0, SVG Export Plug-In . SVG Version: 6.00 Build 0)  -->
<svg version="1.1" id="Capa_1" xmlns="http://www.w3.org/2000/svg" xmlns:xlink="http://www.w3.org/1999/xlink" x="0px" y="0px"
	 viewBox="0 0 512.119 512.119" style="enable-background:new 0 0 512.119 512.119;" xml:space="preserve">
<g transform="translate(0 -1)">
	<g transform="translate(1 2)">
		<path style="fill:#6A1B9A;" d="M347.304,316.559c3.993-2.356,7.616-5.289,10.752-8.704c4.777-5.154,8.463-11.221,10.837-17.835
			c15.445,2.819,30.975-4.483,38.656-18.176l9.643,0.341c14.306,1.945,28.823-1.525,40.704-9.728
			c0.066-0.006,0.126-0.037,0.171-0.085c39.253-27.392,44.459-99.755,44.459-99.755c-85.333,33.707-93.867-67.413-145.067-126.379
			C318.803-8.22,246.269,9.615,212.904,21.049h-0.085c-15.472-9.692-34.617-11.495-51.627-4.864
			c-7.422,3.642-13.425,9.645-17.067,17.067c-18.517,31.488-28.843,94.976-69.291,126.635
			c-19.217,14.548-43.293,21.148-67.243,18.432c1.137,5.669,2.648,11.256,4.523,16.725c8.96,26.965,33.195,77.141,89.344,77.141
			l0.939-0.597c7.664,13.82,23.274,21.23,38.827,18.432c4.739,13.425,14.847,24.276,27.904,29.952
			c11.605,5.376,23.467,12.117,35.84,18.176l-1.109,2.304v42.667l-17.067,9.472l-51.2,28.416l-63.403,35.243
			c-7.06,3.871-12.841,9.712-16.64,16.811c-3.47,6.268-5.29,13.315-5.291,20.48v9.045h409.6v-9.045
			c0.007-15.491-8.389-29.768-21.931-37.291l-63.403-35.243l-68.267-37.888v-42.667l-1.109-2.304
			c12.373-6.059,24.235-12.8,35.84-18.176C343.174,318.988,345.284,317.848,347.304,316.559z M252.669,353.167
			c0.797,0.014,1.595-0.014,2.389-0.085c0.794,0.071,1.592,0.1,2.389,0.085H252.669z"/>
		<path style="fill:#9D27B0;" d="M340.392,53.305C301.736,8.847,229.203,26.681,195.837,38.116h-0.085
			c-15.472-9.692-34.617-11.495-51.627-4.864c-18.517,31.488-28.843,94.976-69.291,126.635
			c-15.054,19.993-37.809,32.749-62.72,35.157c8.96,26.965,33.195,77.141,89.344,77.141l0.939-0.597
			c7.664,13.82,23.274,21.23,38.827,18.432c4.739,13.425,14.847,24.276,27.904,29.952c11.605,5.376,23.467,12.117,35.84,18.176
			l-1.109,2.304v42.667l-17.067,9.472v7.595l-68.267,37.888L55.549,473.06c-3.47,6.268-5.29,13.315-5.291,20.48v9.045h391.765
			c-2.35-12.418-10.107-23.146-21.163-29.269l-63.403-35.243l-68.267-37.888v-42.667l-1.109-2.304
			c6.229-2.987,12.203-6.229,18.176-9.301v-5.461l-1.109-2.304c12.373-6.059,24.235-12.8,35.84-18.176
			c2.185-0.984,4.295-2.124,6.315-3.413c1.796-3.012,3.31-6.182,4.523-9.472c2.038,0.507,4.129,0.765,6.229,0.768
			c4.777-5.154,8.463-11.221,10.837-17.835c15.445,2.819,30.975-4.483,38.656-18.176l9.643,0.341
			c14.306,1.945,28.823-1.525,40.704-9.728c0.066-0.006,0.126-0.037,0.171-0.085c23.808-32.512,27.392-82.688,27.392-82.688
			C400.125,213.391,391.592,112.271,340.392,53.305z M235.603,370.233c0.797,0.014,1.595-0.014,2.389-0.085
			c0.794,0.071,1.592,0.1,2.389,0.085H235.603z"/>
		<g>
			<path style="fill:#FFE0B2;" d="M417.192,238.032c0.128,11.96-3.222,23.7-9.643,33.792c-7.681,13.693-23.211,20.995-38.656,18.176
				c7.509-20.139,6.144-46.933,3.584-77.397l2.048-0.17C374.525,212.432,417.192,203.898,417.192,238.032z"/>
			<path style="fill:#FFE0B2;" d="M141.224,289.999c-15.553,2.798-31.163-4.612-38.827-18.432
				c-6.326-10.031-9.616-21.678-9.472-33.536c0-34.133,42.667-25.6,42.667-25.6l2.048,0.17
				C135.08,243.066,133.715,269.861,141.224,289.999z"/>
			<path style="fill:#FFE0B2;" d="M368.893,290.02c-4.739,13.425-14.847,24.276-27.904,29.952c-2.389,1.109-4.864,2.304-7.339,3.584
				c-9.216,4.608-18.688,9.813-28.501,14.592c-15.438,8.501-32.518,13.593-50.091,14.933c-17.572-1.34-34.653-6.432-50.091-14.933
				c-12.373-6.059-24.235-12.8-35.84-18.176c-13.057-5.676-23.165-16.527-27.904-29.952c-7.509-20.139-6.144-46.933-3.584-77.397
				c1.963-23.211,4.693-48.64,4.693-74.837c-0.721-17.53,5.61-34.618,17.579-47.445c30.379-31.744,89.6-27.136,89.6-27.136h11.093
				c0,0,107.179-8.277,107.179,74.581c0,26.197,2.731,51.627,4.693,74.837C375.037,243.087,376.403,269.881,368.893,290.02z"/>
		</g>
		<path style="fill:#FFECB3;" d="M343.293,307.087c-2.158,6.044-5.428,11.63-9.643,16.469c-9.216,4.608-18.688,9.813-28.501,14.592
			c-15.438,8.501-32.518,13.593-50.091,14.933c-17.572-1.34-34.653-6.432-50.091-14.933c-12.373-6.059-24.235-12.8-35.84-18.176
			c-13.057-5.676-23.165-16.527-27.904-29.952c-7.509-20.139-6.144-46.933-3.584-77.397c1.963-23.211,4.693-48.64,4.693-74.837
			c-0.721-17.53,5.61-34.618,17.579-47.445c20.386-7.826,42.196-11.258,64-10.069h11.093c0,0,107.179-8.277,107.179,74.581
			c0,26.197,2.731,51.627,4.693,74.837C349.437,260.153,350.803,286.948,343.293,307.087z"/>
		<path style="fill:#FFE0B2;" d="M374.525,420.986v81.579H135.592v-81.579l68.267-37.888v-42.667l1.109-2.304
			c15.438,8.501,32.518,13.593,50.091,14.933c-0.794,0.071-1.592,0.1-2.389,0.085h4.779c-0.797,0.014-1.595-0.014-2.389-0.085
			c17.572-1.34,34.653-6.432,50.091-14.933l1.109,2.304v42.667L374.525,420.986z"/>
		<path style="fill:#FFFFFF;" d="M255.051,313.578c-19.168,0.503-38.139-3.972-55.061-12.989
			c-9.973-5.553-20.636-16.446-19.534-28.767c0.423-5.633,3.596-10.695,8.482-13.531c4.886-2.835,10.855-3.079,15.956-0.651
			c31.813,14.77,68.518,14.77,100.331,0c5.1-2.428,11.07-2.184,15.956,0.651c4.886,2.835,8.059,7.897,8.482,13.53
			c1.102,12.322-9.561,23.214-19.535,28.767c-9.682,5.156-20.127,8.726-30.94,10.574
			C271.229,312.678,263.152,313.486,255.051,313.578z"/>
	</g>
	<g>
		<path d="M256.059,248.585c9.563-0.014,18.544-4.597,24.166-12.333c2.566-3.862,1.546-9.07-2.287-11.679
			c-3.86-2.628-9.111-1.698-11.833,2.096c-2.42,3.044-6.09,4.827-9.978,4.85s-7.578-1.718-10.034-4.733
			c-2.622-3.901-7.905-4.947-11.816-2.339c-3.911,2.607-4.977,7.886-2.385,11.806C237.515,243.988,246.495,248.572,256.059,248.585
			L256.059,248.585z"/>
		<path d="M172.796,189.965c0.279-0.071,28.454-6.842,42.029,13.521c1.679,2.566,4.605,4.034,7.666,3.846
			c3.061-0.188,5.785-2.005,7.136-4.757c1.351-2.753,1.121-6.019-0.602-8.555c-8.369-12.442-21.91-20.437-36.846-21.756
			c-2.268-2.607-3.785-5.782-4.387-9.185c-0.098-4.677-3.942-8.403-8.62-8.355c-4.677,0.048-8.445,3.852-8.447,8.53
			c0.157,3.215,0.844,6.382,2.034,9.372c-2.313,0.358-3.813,0.71-4.105,0.782c-4.559,1.155-7.324,5.781-6.183,10.344
			C163.613,188.313,168.23,191.092,172.796,189.965L172.796,189.965z"/>
		<path d="M185.713,128.86c11.312,2.858,27.679,10.671,27.679,17.325c0,4.713,3.821,8.533,8.533,8.533s8.533-3.821,8.533-8.533
			c0-22.583-33.817-32.183-40.596-33.879c-4.56-1.117-9.166,1.659-10.308,6.213C178.414,123.073,181.165,127.694,185.713,128.86z"/>
		<path d="M290.192,154.719c4.713,0,8.533-3.821,8.533-8.533c0-6.654,16.367-14.467,27.679-17.325
			c4.548-1.166,7.299-5.787,6.158-10.341c-1.142-4.554-5.748-7.33-10.308-6.213c-6.779,1.696-40.596,11.296-40.596,33.879
			C281.659,150.898,285.479,154.719,290.192,154.719z"/>
		<path d="M508.575,157.764c-2.364-1.737-5.455-2.137-8.183-1.058c-49.821,19.658-68.096-9.158-96.104-61.821
			c-10.743-22.16-23.954-43.035-39.383-62.229c-40.893-47.107-114.03-30.981-150.435-18.89
			c-17.039-9.365-37.365-10.651-55.448-3.506c-18.5,7.404-27.838,32.079-38.65,60.654C101.575,120.585,80.196,176.856,9.2,171.806
			c-2.63-0.188-5.199,0.851-6.96,2.814c-1.761,1.963-2.515,4.629-2.044,7.224c0.181,0.996,18.87,98.334,99.236,100.761
			c2.612,3.365,5.609,6.413,8.931,9.081c7.516,6.173,16.912,9.599,26.638,9.713c0.624,0,1.251-0.079,1.877-0.109
			c6.156,12.718,16.663,22.811,29.618,28.45c6.383,2.958,12.871,6.354,19.475,9.808c3.376,1.765,6.844,3.559,10.354,5.342v35.21
			l-51.597,28.655c-0.857-3.814-4.227-6.535-8.136-6.569c-4.713,0-8.533,3.821-8.533,8.533v7.294l-59.004,32.769
			c-16.259,9.026-26.34,26.163-26.329,44.758v9.046c0,4.713,3.821,8.533,8.533,8.533h409.6c4.713,0,8.533-3.82,8.533-8.533v-9.046
			c0.012-18.592-10.066-35.726-26.321-44.75l-59.013-32.775v-7.296c0-4.713-3.82-8.533-8.533-8.533
			c-3.91,0.033-7.281,2.756-8.137,6.571l-51.596-28.657V344.89c3.51-1.783,6.979-3.577,10.354-5.342
			c6.604-3.454,13.092-6.85,19.471-9.808c12.956-5.639,23.464-15.732,29.621-28.451c0.626,0.03,1.254,0.109,1.879,0.109
			c9.725-0.113,19.122-3.539,26.638-9.712c3.747-2.997,7.086-6.473,9.93-10.337c1.075,0.711,2.299,1.164,3.578,1.325
			c2.881,0.318,5.777,0.479,8.675,0.483c15.706,0.155,30.943-5.355,42.917-15.521c37.638-31.358,42.975-99.492,43.183-102.375
			C512.248,162.333,510.941,159.502,508.575,157.764z M118.959,278.306c-10.892-9.68-16.935-23.689-16.5-38.254
			c-0.447-4.958,1.438-9.841,5.1-13.212c6.544-4.045,14.286-5.699,21.911-4.682c-0.559,7.27-1.013,14.373-1.238,21.239l-4.89-2.445
			c-2.728-1.372-5.982-1.182-8.532,0.499s-4.007,4.596-3.822,7.644c0.185,3.048,1.985,5.765,4.72,7.124l12.588,6.294
			c0.309,7.216,1.226,14.393,2.742,21.455C126.608,283.1,122.46,281.155,118.959,278.306L118.959,278.306z M59.792,495.54
			c-0.01-12.393,6.704-23.815,17.538-29.833l50.729-28.174v58.52H59.792V495.54z M434.796,465.715
			c10.829,6.017,17.541,17.436,17.529,29.825v0.513h-68.267v-58.518L434.796,465.715z M307.259,444.852
			c4.713,0,8.533-3.821,8.533-8.533v-36.702l51.2,28.438v67.998H145.125v-68l51.2-28.436v36.702c0,4.713,3.821,8.533,8.533,8.533
			s8.533-3.821,8.533-8.533v-83.372c11.636,5.301,24.018,8.78,36.713,10.314c0.803,0.256,1.64,0.392,2.483,0.404
			c0.754,0.012,1.508,0.012,2.25,0h2.442c0.362,0.004,0.729,0.009,1.092,0.009c0.387,0,0.775-0.004,1.158-0.009
			c0.843-0.012,1.68-0.148,2.483-0.404c12.694-1.534,25.077-5.012,36.713-10.314v83.372
			C298.725,441.032,302.546,444.852,307.259,444.852z M338.438,314.256c-6.617,3.071-13.35,6.588-20.2,10.167
			c-20.133,10.529-40.917,21.4-62.179,22.142c-21.258-0.746-42.046-11.613-62.179-22.142c-6.85-3.579-13.583-7.096-20.204-10.167
			c-32.325-14.988-30.883-49.854-25.55-110.188c1.817-20.596,3.7-41.892,3.7-64.292c-0.759-16.437,5.612-32.402,17.479-43.8
			c21.679-20.105,57.975-22.412,73.629-22.412c4.488,0,7.279,0.192,7.542,0.204h11.167c0.221,0,0.438-0.009,0.658-0.025
			c0.517-0.042,52.462-3.729,80.471,22.196c11.893,11.399,18.28,27.381,17.521,43.837c0,22.4,1.883,43.696,3.7,64.292
			C369.325,264.402,370.767,299.269,338.438,314.256z M393.159,278.306c-3.499,2.855-7.649,4.802-12.081,5.667
			c1.516-7.064,2.434-14.243,2.743-21.461l12.588-6.294c4.204-2.114,5.903-7.232,3.799-11.441c-2.104-4.209-7.218-5.92-11.432-3.826
			l-4.89,2.445c-0.226-6.866-0.679-13.969-1.238-21.239c7.625-1.015,15.367,0.639,21.911,4.682c3.662,3.372,5.547,8.255,5.1,13.213
			C410.094,254.617,404.051,268.626,393.159,278.306z M457.93,254.523c-9.96,8.478-22.919,12.581-35.943,11.38
			c3.131-8.259,4.737-17.018,4.739-25.851c0.53-10.101-3.675-19.873-11.375-26.433c-9.941-6.94-22.096-9.96-34.129-8.479
			c-0.076-0.862-0.148-1.709-0.225-2.575c-1.787-20.225-3.637-41.137-3.637-62.788c0.844-21.228-7.54-41.782-22.992-56.363
			c-32.479-30.058-87.708-27.079-93.042-26.712l-10.192,0.025c-2.442-0.204-59.958-4.258-93.383,26.687
			c-15.451,14.581-23.836,35.135-22.992,56.363c0,21.65-1.85,42.563-3.638,62.788c-0.077,0.865-0.148,1.71-0.225,2.571
			c-12.034-1.482-24.19,1.54-34.13,8.483c-7.7,6.56-11.905,16.332-11.375,26.433c0.001,8.325,1.422,16.589,4.2,24.436
			c-45.407-7.564-63.939-54.059-70.054-75.299c74.629-0.812,98.871-64.862,116.796-112.233
			c8.996-23.775,17.492-46.234,29.037-50.854c8.068-3.289,16.906-4.206,25.478-2.645c-2.889,2.416-3.824,6.456-2.29,9.896
			c1.96,4.28,7.01,6.172,11.3,4.233c1.054-0.483,105.763-47.2,152.154,6.258c14.557,18.242,27.037,38.049,37.209,59.054
			c23.329,43.871,47.387,89.142,104.133,74.1C490.109,197.04,481.092,235.223,457.93,254.523z"/>
		<path d="M324.33,163.052c-0.461,3.403-1.917,6.594-4.186,9.172c-15.016,1.273-28.643,9.289-37.052,21.795
			c-1.728,2.536-1.961,5.805-0.61,8.561s4.078,4.574,7.141,4.761c3.063,0.187,5.991-1.285,7.668-3.855
			c13.45-20.183,40.892-13.8,42.058-13.512c4.57,1.123,9.187-1.664,10.321-6.232c1.134-4.567-1.643-9.191-6.208-10.335
			c-0.292-0.073-1.793-0.426-4.105-0.785c1.19-2.99,1.877-6.155,2.034-9.369c-0.011-4.607-3.715-8.353-8.321-8.417
			C328.432,154.805,324.586,158.42,324.33,163.052z"/>
		<path d="M326.238,252.781c-7.255-4.189-16.115-4.511-23.654-0.858c-29.491,13.758-63.559,13.758-93.05,0
			c-7.539-3.657-16.401-3.336-23.654,0.858c-7.361,4.246-12.185,11.818-12.925,20.283c-1.488,16.65,11.938,30.329,23.888,36.979
			c17.769,9.52,37.668,14.363,57.825,14.075c0.488,0,0.983-0.004,1.471-0.009c8.606-0.096,17.187-0.954,25.642-2.563
			c11.713-2.003,23.024-5.888,33.496-11.504c11.95-6.65,25.375-20.329,23.888-36.984
			C338.422,264.596,333.597,257.027,326.238,252.781L326.238,252.781z M306.975,295.135c-8.88,4.718-18.463,7.975-28.379,9.646
			c-7.463,1.421-15.037,2.178-22.633,2.263c-17.684,0.481-35.192-3.621-50.821-11.908c-7.808-4.35-15.896-12.638-15.187-20.55
			c0.219-2.916,1.868-5.535,4.404-6.992c1.257-0.725,2.682-1.11,4.133-1.117c1.302,0.01,2.586,0.311,3.758,0.879
			c34.109,15.908,73.508,15.908,107.617,0c2.503-1.254,5.469-1.165,7.892,0.237c2.535,1.456,4.184,4.073,4.404,6.988
			C322.871,282.498,314.784,290.785,306.975,295.135z"/>
		<path d="M179.5,240.048c4.654-0.145,8.332-3.994,8.266-8.65c-0.066-4.656-3.852-8.399-8.508-8.412
			c-4.555-0.097-8.953,1.67-12.175,4.892c-3.222,3.222-4.989,7.619-4.892,12.175c0.068,4.732,3.924,8.533,8.656,8.531
			C175.581,248.582,179.435,244.78,179.5,240.048L179.5,240.048z"/>
		<path d="M332.859,222.985c-4.713,0-8.533,3.821-8.533,8.533c0,4.713,3.821,8.533,8.533,8.533c0,4.713,3.82,8.533,8.533,8.533
			s8.533-3.821,8.533-8.533c0.097-4.555-1.67-8.953-4.892-12.175C341.812,224.655,337.414,222.888,332.859,222.985z"/>
	</g>
</g>
<g>
</g>
<g>
</g>
<g>
</g>
<g>
</g>
<g>
</g>
<g>
</g>
<g>
</g>
<g>
</g>
<g>
</g>
<g>
</g>
<g>
</g>
<g>
</g>
<g>
</g>
<g>
</g>
<g>
</g>
</svg>
