<?xml version="1.0" encoding="iso-8859-1"?>
<!-- Generator: Adobe Illustrator 19.0.0, SVG Export Plug-In . SVG Version: 6.00 Build 0)  -->
<svg version="1.1" id="Capa_1" xmlns="http://www.w3.org/2000/svg" xmlns:xlink="http://www.w3.org/1999/xlink" x="0px" y="0px"
	 viewBox="0 0 512.119 512.119" style="enable-background:new 0 0 512.119 512.119;" xml:space="preserve">
<g transform="translate(0 -1)">
	<g transform="translate(1 2)">
		<g>
			<path style="fill:#AD1457;" d="M366.845,294.884c0.768-1.621,1.451-3.243,2.048-4.864c1.293,0.31,2.604,0.538,3.925,0.683
				c9.917,0.822,19.708-2.659,26.88-9.557c2.992-2.764,5.629-5.888,7.851-9.301l9.643,0.341c4.305,0.523,8.654,0.58,12.971,0.171
				c64.853-5.376,72.363-109.739,72.363-109.739c-8.231,3.399-16.912,5.583-25.771,6.485
				c-61.952,5.291-73.813-80.469-119.296-132.864C318.803-8.22,246.269,9.615,212.904,21.05h-0.085
				c-15.472-9.692-34.617-11.495-51.627-4.864c-2.679,1.081-5.137,2.643-7.253,4.608C122.28,48.527,119.976,162.362,35.752,177.124
				c-9.303,1.546-18.76,1.947-28.16,1.195c0,0,0.512,2.816,1.792,7.424c5.888,22.187,28.501,86.443,92.075,86.443l0.939-0.597
				c7.664,13.82,23.274,21.23,38.827,18.432c4.739,13.425,14.847,24.276,27.904,29.952c11.605,5.376,23.467,12.117,35.84,18.176
				l-1.109,2.304v42.667l-68.267,37.888L72.189,456.25c-13.542,7.523-21.938,21.799-21.931,37.291v9.045h409.6v-9.045
				c0.007-15.491-8.389-29.768-21.931-37.291l-63.403-35.243l-68.267-37.888v-42.667l-1.109-2.304
				c12.373-6.059,24.235-12.8,35.84-18.176C352.364,315.021,361.553,306.105,366.845,294.884z M252.669,353.167
				c0.797,0.014,1.595-0.014,2.389-0.085c0.794,0.071,1.592,0.1,2.389,0.085H252.669z"/>
			<path style="fill:#E91E63;" d="M343.293,298.554c8.03,1.865,16.47,0.55,23.552-3.669c2.134-1.178,4.136-2.579,5.973-4.181
				c3.539-2.97,6.616-6.45,9.131-10.325l9.643,0.341c2.691,0.306,5.398,0.448,8.107,0.427c10.789,0.061,21.366-2.991,30.464-8.789
				c41.301-25.941,46.763-101.205,46.763-101.205c-85.333,33.707-93.867-67.413-145.067-126.379
				C293.203,0.314,220.669,18.148,187.304,29.583h-0.085c-10.031-6.037-21.576-9.087-33.28-8.789
				C122.28,48.527,119.976,162.362,35.752,177.124c-8.278,4.251-17.178,7.16-26.368,8.619c5.888,22.187,28.501,86.443,92.075,86.443
				l0.939-0.597c7.664,13.82,23.274,21.23,38.827,18.432c4.739,13.425,14.847,24.276,27.904,29.952
				c11.605,5.376,23.467,12.117,35.84,18.176l-1.109,2.304v42.667l-68.267,37.888L72.189,456.25
				c-13.542,7.523-21.938,21.799-21.931,37.291v9.045h384v-0.512c0.007-15.491-8.389-29.768-21.931-37.291l-63.403-35.243
				l-68.267-37.888v-42.667l-1.109-2.304c12.373-6.059,24.235-12.8,35.84-18.176C328.446,322.829,338.554,311.979,343.293,298.554z
				 M227.069,361.7c0.797,0.014,1.595-0.014,2.389-0.085c0.794,0.071,1.592,0.1,2.389,0.085H227.069z"/>
			<g>
				<path style="fill:#FFE0B2;" d="M417.192,238.052c0.128,11.96-3.222,23.7-9.643,33.792
					c-7.681,13.693-23.211,20.995-38.656,18.176c7.509-20.139,6.144-46.933,3.584-77.397l2.048-0.171
					C374.525,212.452,417.192,203.919,417.192,238.052z"/>
				<path style="fill:#FFE0B2;" d="M141.224,290.02c-15.553,2.798-31.163-4.612-38.827-18.432
					c-6.326-10.031-9.616-21.678-9.472-33.536c0-34.133,42.667-25.6,42.667-25.6l2.048,0.171
					C135.08,243.087,133.715,269.882,141.224,290.02z"/>
				<path style="fill:#FFE0B2;" d="M372.477,212.623c-1.963-23.211-4.693-48.64-4.693-74.837
					c0-82.859-107.179-74.581-107.179-74.581h-11.093c0,0-0.853-0.085-2.389-0.171c-4.096-0.085-7.339-0.085-9.387,0
					c-1.621,0-3.328,0.085-5.205,0.171h-0.171c-30.208,1.621-90.027,12.715-90.027,74.581c0,26.197-2.731,51.627-4.693,74.837
					c-2.56,30.464-3.925,57.259,3.584,77.397c4.739,13.425,14.847,24.276,27.904,29.952c11.605,5.376,23.467,12.117,35.84,18.176
					c11.765,6.157,24.309,10.693,37.291,13.483c4.214,0.871,8.498,1.357,12.8,1.451c17.572-1.34,34.653-6.432,50.091-14.933
					c12.373-6.059,24.235-12.8,35.84-18.176c13.057-5.676,23.165-16.527,27.904-29.952
					C376.403,269.882,375.037,243.087,372.477,212.623z"/>
			</g>
			<path style="fill:#FFECB3;" d="M346.877,212.623c-1.963-23.211-4.693-48.64-4.693-74.837c0-61.611-59.307-72.875-89.685-74.581
				h-0.341c-1.792-0.085-3.499-0.171-5.035-0.171c-4.096-0.085-7.339-0.085-9.387,0c-1.792,0.085-2.73,0.171-2.73,0.171h-2.645
				c-30.208,1.621-90.027,12.715-90.027,74.581c0,26.197-2.731,51.627-4.693,74.837c-2.56,30.464-3.925,57.259,3.584,77.397
				c4.739,13.425,14.847,24.276,27.904,29.952c11.605,5.376,23.467,12.117,35.84,18.176c11.765,6.157,24.309,10.693,37.291,13.483
				c12.982-2.79,25.526-7.326,37.291-13.483c12.373-6.059,24.235-12.8,35.84-18.176c13.057-5.676,23.165-16.527,27.904-29.952
				C350.803,269.882,349.437,243.087,346.877,212.623z"/>
		</g>
		<path style="fill:none;stroke:#000000;stroke-width:2;stroke-linecap:round;stroke-linejoin:round;" d="M201.384,171.492
			c-1.927-0.686-3.893-1.256-5.888-1.707C197.579,169.798,199.618,170.388,201.384,171.492z"/>
		<g>
			<g>
				<path style="fill:#2296F3;" d="M212.392,195.386c0,14.165-7.68,25.6-17.067,25.6s-17.067-11.435-17.067-25.6
					s7.68-25.6,17.067-25.6h0.171c1.995,0.45,3.961,1.02,5.888,1.707C208.896,177.052,213.048,186.063,212.392,195.386
					L212.392,195.386z"/>
				<path style="fill:#2296F3;" d="M331.859,195.386c0,14.165-7.68,25.6-17.067,25.6c-9.387,0-17.067-11.435-17.067-25.6
					c-0.656-9.322,3.496-18.334,11.008-23.893c1.927-0.686,3.893-1.256,5.888-1.707h0.171
					C324.179,169.786,331.859,181.22,331.859,195.386z"/>
			</g>
			<path style="fill:#FFFFFF;" d="M306.259,274.319c0.053,12.334-4.995,24.141-13.947,32.625
				c-8.953,8.484-21.014,12.89-33.327,12.175h-7.851c-12.313,0.715-24.375-3.691-33.327-12.175
				c-8.953-8.484-14-20.291-13.947-32.625c15.536-3.535,31.357-5.677,47.275-6.4h7.851
				C274.901,268.642,290.722,270.784,306.259,274.319L306.259,274.319z"/>
			<path style="fill:#FFE0B2;" d="M374.525,421.007v81.579H135.592v-81.579l68.267-37.888v-42.667l1.109-2.304
				c15.438,8.501,32.518,13.593,50.091,14.933c-0.794,0.071-1.592,0.1-2.389,0.085h4.779c-0.797,0.014-1.595-0.014-2.389-0.085
				c17.572-1.34,34.653-6.432,50.091-14.933l1.109,2.304v42.667L374.525,421.007z"/>
		</g>
		<path style="fill:none;stroke:#000000;stroke-width:2;stroke-linecap:round;stroke-linejoin:round;" d="M314.621,169.786
			c-1.995,0.45-3.961,1.02-5.888,1.707C310.5,170.388,312.538,169.798,314.621,169.786L314.621,169.786z"/>
	</g>
	<g>
		<path d="M256.059,248.586c9.563-0.014,18.544-4.597,24.166-12.333c2.566-3.862,1.546-9.07-2.287-11.679
			c-3.86-2.627-9.11-1.697-11.833,2.096c-2.42,3.044-6.09,4.827-9.978,4.85s-7.578-1.718-10.034-4.733
			c-2.622-3.901-7.905-4.947-11.816-2.339c-3.911,2.607-4.977,7.886-2.385,11.806C237.514,243.988,246.495,248.572,256.059,248.586
			L256.059,248.586z"/>
		<path d="M221.925,197.386v-0.001l0.009,0.001c3.145-0.003,6.034-1.737,7.517-4.511c1.483-2.774,1.319-6.139-0.425-8.756
			c-5.604-8.531-13.808-15.029-23.396-18.53c-2.098-1.04-4.357-1.714-6.682-1.994c-9.974-2.205-20.306-2.235-30.293-0.088
			c-2.958,0.74-5.296,3.001-6.134,5.933c-0.838,2.932-0.049,6.087,2.071,8.279c2.12,2.192,5.248,3.086,8.205,2.346
			c0.037-0.01,0.638-0.147,1.613-0.321c-2.455,5.556-3.711,11.568-3.684,17.642c0,19.142,11.246,34.133,25.6,34.133
			S221.925,216.527,221.925,197.386z M187.792,197.386c0-9.99,4.635-16.447,8.085-16.966c0.976,0.258,1.952,0.558,2.93,0.902
			c4.292,4.197,6.508,10.078,6.052,16.064c0,10.417-5.054,17.067-8.533,17.067C192.846,214.452,187.792,207.802,187.792,197.386z"/>
		<path d="M343.463,163.506c-10.004-2.159-20.357-2.127-30.347,0.095c-2.278,0.283-4.493,0.945-6.553,1.957
			c-9.62,3.494-17.853,10.005-23.471,18.56c-1.745,2.617-1.908,5.982-0.425,8.756c1.483,2.774,4.371,4.507,7.517,4.511l0.009-0.001
			v0.001c0,19.142,11.246,34.133,25.6,34.133c14.354,0,25.6-14.992,25.6-34.133c0.027-6.079-1.23-12.094-3.689-17.654
			c0.916,0.167,1.498,0.304,1.647,0.341c4.575,1.136,9.204-1.652,10.34-6.227C350.826,169.271,348.038,164.642,343.463,163.506
			L343.463,163.506z M315.792,214.452c-3.479,0-8.533-6.65-8.533-17.067c-0.484-6.041,1.79-11.977,6.187-16.149
			c0.89-0.31,1.781-0.607,2.67-0.845c3.461,0.381,8.209,6.886,8.209,16.994C324.325,207.802,319.271,214.452,315.792,214.452z"/>
		<path d="M308.959,267.956c-16.09-3.657-32.477-5.856-48.962-6.571h-7.875c-16.485,0.714-32.872,2.913-48.962,6.571
			c-3.976,0.809-6.833,4.305-6.833,8.363c-0.277,14.663,5.598,28.772,16.2,38.905c10.601,10.133,24.961,15.366,39.596,14.428h7.875
			c14.635,0.938,28.995-4.295,39.596-14.428c10.601-10.133,16.476-24.242,16.2-38.905
			C315.792,272.261,312.935,268.765,308.959,267.956L308.959,267.956z M259.996,312.586h-7.875
			c-28.271,0-35.917-18.712-37.975-29.379c12.514-2.581,25.211-4.171,37.975-4.754h7.858c12.761,0.582,25.456,2.17,37.967,4.75
			C295.059,301.492,278.427,314.37,259.996,312.586L259.996,312.586z"/>
		<path d="M185.713,128.861c11.312,2.858,27.679,10.671,27.679,17.325c0,4.713,3.821,8.533,8.533,8.533
			c4.713,0,8.533-3.821,8.533-8.533c0-22.583-33.817-32.183-40.596-33.879c-4.56-1.117-9.166,1.659-10.308,6.213
			C178.414,123.074,181.165,127.694,185.713,128.861z"/>
		<path d="M290.192,154.719c4.713,0,8.533-3.821,8.533-8.533c0-6.654,16.367-14.467,27.679-17.325
			c4.548-1.166,7.299-5.787,6.158-10.341c-1.142-4.554-5.748-7.33-10.308-6.213c-6.779,1.696-40.596,11.296-40.596,33.879
			C281.659,150.898,285.479,154.719,290.192,154.719z"/>
		<path d="M99.432,282.605c2.612,3.365,5.609,6.413,8.931,9.081c7.516,6.173,16.912,9.599,26.638,9.713
			c0.624,0,1.251-0.079,1.877-0.109c6.156,12.718,16.663,22.811,29.618,28.45c6.383,2.958,12.871,6.354,19.475,9.808
			c3.376,1.765,6.844,3.559,10.354,5.342v35.21l-51.597,28.655c-0.857-3.814-4.227-6.535-8.136-6.569
			c-4.713,0-8.533,3.821-8.533,8.533v7.294l-59.004,32.769c-16.259,9.026-26.34,26.163-26.329,44.758v9.046
			c0,4.713,3.821,8.533,8.533,8.533h409.6c4.713,0,8.533-3.82,8.533-8.533v-9.046c0.012-18.592-10.066-35.726-26.321-44.75
			l-59.013-32.775v-7.296c0-4.713-3.821-8.533-8.533-8.533c-3.91,0.033-7.281,2.756-8.137,6.571L315.792,380.1V344.89
			c3.51-1.783,6.979-3.577,10.354-5.342c6.604-3.454,13.092-6.85,19.471-9.808c12.956-5.639,23.464-15.732,29.621-28.451
			c0.626,0.03,1.254,0.109,1.879,0.109c9.725-0.113,19.122-3.539,26.638-9.712c3.747-2.997,7.086-6.473,9.93-10.337
			c1.075,0.711,2.299,1.164,3.578,1.325c2.881,0.318,5.777,0.479,8.675,0.483c15.706,0.155,30.943-5.355,42.917-15.521
			c37.638-31.358,42.975-99.492,43.183-102.375c0.212-2.927-1.095-5.757-3.46-7.494c-2.365-1.737-5.456-2.137-8.186-1.06
			c-49.837,19.658-68.1-9.158-96.104-61.821c-10.743-22.16-23.954-43.035-39.383-62.23C324.013-14.45,250.872,1.675,214.468,13.766
			c-17.039-9.365-37.364-10.65-55.447-3.505c-18.5,7.404-27.838,32.079-38.65,60.654C101.571,120.586,80.146,176.856,9.2,171.806
			c-2.63-0.188-5.199,0.851-6.96,2.814s-2.515,4.629-2.044,7.224C0.377,182.84,19.066,280.178,99.432,282.605z M118.959,278.306
			c-10.892-9.68-16.935-23.689-16.5-38.254c-0.447-4.958,1.438-9.841,5.1-13.213c6.544-4.045,14.286-5.7,21.911-4.682
			c-0.559,7.27-1.013,14.373-1.238,21.239l-4.89-2.445c-2.728-1.372-5.982-1.182-8.532,0.499s-4.007,4.596-3.822,7.644
			c0.185,3.048,1.985,5.765,4.72,7.124l12.588,6.294c0.309,7.216,1.227,14.393,2.742,21.455
			C126.608,283.1,122.46,281.156,118.959,278.306L118.959,278.306z M59.792,495.54c-0.01-12.393,6.704-23.815,17.538-29.833
			l50.729-28.174v58.52H59.792V495.54z M434.796,465.715c10.829,6.017,17.541,17.436,17.529,29.825v0.512h-68.267v-58.518
			L434.796,465.715z M307.259,444.852c4.713,0,8.533-3.821,8.533-8.533v-36.702l51.2,28.438v67.998H145.125v-67.999l51.2-28.436
			v36.702c0,4.713,3.821,8.533,8.533,8.533c4.713,0,8.533-3.821,8.533-8.533v-83.372c11.636,5.301,24.018,8.78,36.713,10.314
			c0.803,0.256,1.64,0.392,2.483,0.404c0.754,0.012,1.504,0.012,2.25,0h2.442c0.362,0.004,0.729,0.009,1.092,0.009
			c0.387,0,0.775-0.004,1.158-0.009c0.843-0.012,1.68-0.148,2.483-0.404c12.694-1.534,25.077-5.012,36.713-10.314v83.372
			C298.725,441.032,302.546,444.852,307.259,444.852z M338.438,314.256c-6.617,3.071-13.35,6.588-20.2,10.167
			c-20.133,10.529-40.917,21.4-62.179,22.142c-21.258-0.746-42.046-11.613-62.179-22.142c-6.85-3.579-13.583-7.096-20.204-10.167
			c-32.325-14.988-30.883-49.854-25.55-110.188c1.817-20.596,3.7-41.892,3.7-64.292c-0.759-16.437,5.612-32.402,17.479-43.8
			c21.679-20.105,57.975-22.412,73.629-22.412c4.488,0,7.279,0.192,7.542,0.204h11.167c0.221,0,0.438-0.009,0.658-0.025
			c0.517-0.042,52.462-3.729,80.471,22.196c11.893,11.399,18.28,27.381,17.521,43.837c0,22.4,1.883,43.696,3.7,64.292
			C369.325,264.402,370.767,299.269,338.438,314.256z M393.159,278.306c-3.499,2.855-7.649,4.801-12.081,5.667
			c1.516-7.064,2.434-14.243,2.743-21.461l12.588-6.294c4.204-2.114,5.903-7.232,3.798-11.441c-2.104-4.209-7.218-5.92-11.432-3.826
			l-4.89,2.445c-0.225-6.866-0.679-13.969-1.238-21.239c7.625-1.016,15.367,0.638,21.911,4.681c3.662,3.372,5.547,8.255,5.1,13.213
			C410.093,254.618,404.051,268.627,393.159,278.306z M136.334,76.956c8.996-23.775,17.492-46.234,29.037-50.854
			c8.068-3.288,16.907-4.206,25.478-2.645c-2.89,2.416-3.825,6.456-2.291,9.896c1.959,4.282,7.01,6.174,11.3,4.233
			c1.054-0.483,105.763-47.2,152.154,6.258c14.557,18.242,27.037,38.049,37.208,59.054c23.333,43.871,47.375,89.142,104.133,74.1
			c-3.246,20.042-12.262,58.225-35.425,77.525c-9.961,8.477-22.919,12.58-35.943,11.38c3.131-8.259,4.737-17.018,4.739-25.851
			c0.53-10.101-3.675-19.873-11.375-26.433c-9.94-6.941-22.096-9.961-34.129-8.479c-0.076-0.862-0.148-1.709-0.225-2.575
			c-1.788-20.225-3.638-41.137-3.638-62.788c0.844-21.228-7.54-41.782-22.992-56.363c-32.475-30.058-87.725-27.079-93.042-26.712
			l-10.192,0.025c-2.433-0.204-59.958-4.258-93.383,26.687c-15.451,14.581-23.836,35.135-22.992,56.363
			c0,21.65-1.85,42.563-3.638,62.787c-0.077,0.865-0.148,1.71-0.225,2.571c-12.034-1.482-24.19,1.539-34.13,8.483
			c-7.7,6.56-11.905,16.332-11.375,26.433c0.001,8.325,1.422,16.589,4.2,24.436c-45.407-7.564-63.939-54.059-70.054-75.299
			C94.167,188.377,118.409,124.327,136.334,76.956z"/>
	</g>
</g>
<g>
</g>
<g>
</g>
<g>
</g>
<g>
</g>
<g>
</g>
<g>
</g>
<g>
</g>
<g>
</g>
<g>
</g>
<g>
</g>
<g>
</g>
<g>
</g>
<g>
</g>
<g>
</g>
<g>
</g>
</svg>
